<svg xmlns="http://www.w3.org/2000/svg" viewBox="0 0 550.08 829.64"><defs><style>.cls-1{fill:#6c6329;}.cls-2{fill:#070604;}.cls-3{fill:#8a671a;}.cls-4{fill:#4a2111;}.cls-5{fill:#e8a455;}.cls-6{fill:#fff;}</style></defs><g id="Layer_2" data-name="Layer 2"><g id="Layer_1-2" data-name="Layer 1"><path class="cls-1" d="M184.85,829.53a35.9,35.9,0,0,1-6.22-.08c0-.15,0-.31,0-.47-.11-5.84.8-11.62,1.12-17.43.18-3.18.6-6.35,1-9.51.58-4.91,1.23-9.81,1.79-14.72.55-4.74,1-9.5,1.52-14.25a178.57,178.57,0,0,0,1.37-18.61c0-13.9.31-27.8-.38-41.7-.3-6-.22-12-.45-18-.23-6.22-.72-12.44-.68-18.67q0-.36,0-.72c-.71-7.14-1.14-14.3-1.67-21.45a161.36,161.36,0,0,1-.6-16.75q.06-2.52-.06-5c-.08-1.58-.85-2.36-2.14-2.33s-2.06.84-2.07,2.41c0,6.39-.18,12.8.11,19.18.36,7.88,1.21,15.73,1.67,23.61.44,7.57.69,15.15,1,22.72.21,5.67.18,11.33.44,17,.47,10.29,0,20.61.47,30.91.19,4.45-.24,8.93-.4,13.4,0,.24,0,.48,0,.71-.45,5-.85,10-1.36,15-.49,4.83-1.11,9.65-1.66,14.48s-1.17,9.81-1.68,14.73c-.41,4-.64,7.94-1.06,11.9a126.4,126.4,0,0,0-.9,13.6c-.56,0-1.11.09-1.67.09H15.64c-.48,0-1-.05-1.43-.08a13.52,13.52,0,0,0-.77-4.23c-1-3.94-2.19-7.87-2.17-12,.06-12.86-.16-25.72.31-38.58.35-9.33.74-18.67,1-28,.39-16.29.4-32.59.56-48.89,0-3.28.07-6.55.12-9.83a23.78,23.78,0,0,1,.16-2.39,56.28,56.28,0,0,0,.25-8.61,6.33,6.33,0,0,0-1.08-3.38c-1.6-2.39-3.18-4.79-4.79-7.16a3,3,0,0,1-.46-2.91,72.77,72.77,0,0,0,2.46-10.22,2.88,2.88,0,0,1,.68-1.74c1.33-1.24,1.34-2.84,1.19-4.46-.58-6.19-1.25-12.37-1.76-18.57-.58-7.07-1-14.16-1.6-21.22-.2-2.23-.29-4.46-.5-6.68-.46-4.76-.93-9.52-1.35-14.29-.23-2.54-.31-5.09-.59-7.63-.65-6-.79-11.93-1.24-17.89-.23-3.11.27-6.21.37-9.32a51.31,51.31,0,0,1,1.46-10.4A13.28,13.28,0,0,1,13.52,532c3.95-2.07,7.83-4.32,11.66-6.61,7.06-4.23,14.21-8.29,21.59-11.93,7.59-3.74,15.18-7.5,22.78-11.22,4.8-2.35,9.46-5,14.38-7.1,2-.86,2.06-.85,3.1,1.11,1.15,2.19,2.25,4.41,3.5,6.55,3.35,5.74,9.29,5.9,13.86,2.76,3.51-2.41,7.3-4.24,10.92-6.4a3.54,3.54,0,0,1,2-.74c.13.9-.51,1.21-1.14,1.61-2.23,1.39-2.31,3.11-.2,4.66a155.84,155.84,0,0,1,19,16.76,185.29,185.29,0,0,1,20.8,25.62,236.47,236.47,0,0,1,21.74,40.18q4.84,11.36,8.63,23.1a306.3,306.3,0,0,1,8.91,34c1.54,7.66,2.76,15.37,3.84,23.11.67,4.82,1.05,9.66,1.54,14.5.62,6.19,1.12,12.4,1.23,18.61.27,14.61.48,29.23-.84,43.81-.41,4.61-.59,9.24-1.13,13.83-.82,6.88-1.71,13.76-2.85,20.6a355.7,355.7,0,0,1-9.5,41.48C186.44,823.37,185.25,826.34,184.85,829.53ZM156.62,617.45a2.11,2.11,0,0,0,2.19-2.74,8.16,8.16,0,0,0-1.1-2.11,67.38,67.38,0,0,0-6.55-7.94,125.2,125.2,0,0,0-14.95-13.42,262.62,262.62,0,0,0-43-26.81,316.32,316.32,0,0,0-31.33-13.79A257.82,257.82,0,0,0,21.47,538.9a5.74,5.74,0,0,0-1.43-.1,2.43,2.43,0,0,0-2.3,2.06,2.11,2.11,0,0,0,1.4,2.27,8.79,8.79,0,0,0,1.84.51,233.37,233.37,0,0,1,25.22,6.53,304.21,304.21,0,0,1,45.11,18.6,268.78,268.78,0,0,1,32.74,19.38A177.42,177.42,0,0,1,143.84,604a73.78,73.78,0,0,1,10.35,11.9C154.82,616.8,155.49,617.52,156.62,617.45Zm3.22-7.78a2.1,2.1,0,0,0,2.08-3.1,4.68,4.68,0,0,0-.69-1c-2-2.23-4.08-4.45-6.15-6.65-1.2-1.28-2.44-2.51-3.66-3.76a1.78,1.78,0,0,0-2.37-.35,1.92,1.92,0,0,0-1,2.22,3.69,3.69,0,0,0,1.12,2.06c2.87,2.87,5.52,5.93,8.13,9A3.84,3.84,0,0,0,159.84,609.67Z"/><path class="cls-1" d="M401.23,829.5c-.8,0-1.59.1-2.39.1H216.31c-1,0-2.07-.07-3.1-.11a13.89,13.89,0,0,1,.41-3.5c.9-3.42,1.65-6.88,2.45-10.31,2.11-.18,2.45-1.89,2.74-3.43.89-4.86,1.7-9.74,2.48-14.62,1.36-8.58,2.51-17.2,4.05-25.75a333.85,333.85,0,0,0,4.52-35.33c.57-7.88.78-15.79.95-23.69.11-4.94,0-9.89-.2-14.85-.3-7.49-.31-15-1-22.48-.49-5-1.08-10-1.8-15-.76-5.2-1.69-10.38-2.58-15.57a200.28,200.28,0,0,0-6.49-27.46c-3.65-11.33-7.77-22.49-12.48-33.44a207.3,207.3,0,0,0-17.58-33.19c-7.47-11.24-14.82-22.56-23.27-33.11-4.69-5.85-9-12-13.67-17.88-3.25-4.05-6.77-7.86-10.12-11.82-1.28-1.51-1.25-1.69.55-2.57,2.79-1.36,5.67-2.58,8.45-4,7-3.54,13.93-7.13,21.39-9.64a8.38,8.38,0,0,0,5.71-5.74c1.62-5.94.18-9.57-5.43-10.9a59.38,59.38,0,0,0-6.36-1.05c-3.71-.44-4.27.15-5.37-4.68-.12-.54-.17-1.1-.27-1.65-.4-2.31.12-3.4,2.22-4.45a23.28,23.28,0,0,1,8.24-2.33c2.59-.25,2.55-.37,3.42,2a66,66,0,0,0,13,22.17q9.12,10,18.4,19.86a147.06,147.06,0,0,1,17.53,23.32c5.66,9,10.41,18.52,15.51,27.83a67.83,67.83,0,0,0,15.51,19,21.85,21.85,0,0,0,8.35,4.56,6.86,6.86,0,0,0,7-1.87,18,18,0,0,0,4.24-6.87,61.69,61.69,0,0,0,2.71-12.37,50.39,50.39,0,0,1,7.82-20.17c2.82-4.34,6.37-7.86,11.68-9.37a12,12,0,0,1,10.47,1.6,23.13,23.13,0,0,1,2.82,2.22c3.5,3.1,6.19,6.88,8.89,10.64.58.8,1.13,1.62,2.11,1.82a5.3,5.3,0,0,1,2.88,2c1.93,2.23,3.86,4.47,5.74,6.75a10.45,10.45,0,0,1,2.15,4.22,26.38,26.38,0,0,0,3.1,7.5c2.49,4.1,5.42,7.9,8.15,11.84,3.72,5.38,7.41,10.79,11.29,16.06,2.7,3.66,5.31,7.39,7.91,11.13.87,1.27.65,1.62-.91,1.71-3.34.19-6.69.31-10,.53-5.17.33-10.36.51-15.53.84-7.49.49-15,.77-22.48,1a156.54,156.54,0,0,1-19.12-.81A84.58,84.58,0,0,1,276,585.09c-2-.61-4-1.27-6-1.82a2.07,2.07,0,0,0-2.69,1.32,2,2,0,0,0,1.16,2.56,17.22,17.22,0,0,0,2.23.88c11.4,4.12,23.27,5.38,35.27,5.76,3.51.11,7-.13,10.53-.22,10.54-.28,21.05-.94,31.57-1.55,5.41-.31,10.84-.52,16.25-.81a1.77,1.77,0,0,1,1.66.71c.39.5.75,1,1.11,1.56,5.56,8.29,11.14,16.56,17.2,24.5a302.29,302.29,0,0,1,24.77,37,139.37,139.37,0,0,1,12,27.89,71.9,71.9,0,0,1,3.19,21.69c-.05,3-.17,5.9-.37,8.85a200.86,200.86,0,0,1-3.36,23.43c-1.72,9.09-4,18.07-6.16,27.06-3.91,16.29-8.18,32.5-11,49A117.28,117.28,0,0,0,401.23,829.5ZM291.62,780a119.12,119.12,0,0,0,14.45-1.32c4-.68,8-1.56,11.93-2.51,13-3.11,25.84-6.62,37.53-13.37,4.13-2.4,8.39-4.56,12.28-7.42a12.9,12.9,0,0,0,5.6-11c0-3.12-.22-6.22-.35-9.33-.33-7.85-1.79-15.53-3.2-23.2-1.68-9.18-3.66-18.3-6.11-27.31-2.26-8.32-4.18-16.73-7.06-24.87a7.38,7.38,0,0,0-.84-2,1.83,1.83,0,0,0-2.08-.83,1.92,1.92,0,0,0-1.45,1.72,6.84,6.84,0,0,0,.53,3.28,137.92,137.92,0,0,1,3.82,13.34c3.53,14,7,28,9.45,42.26a174.09,174.09,0,0,1,2.63,25.68c.1,4.2-1.37,7.26-4.93,9.39a3.44,3.44,0,0,1-1.5.69,3.82,3.82,0,0,0-2.44,1.38,5.86,5.86,0,0,1-1.44,1.25c-4.19,2.15-8.1,4.86-12.43,6.72A149.46,149.46,0,0,1,327.45,769c-10.13,2.83-20.34,5.52-30.9,6.17a59.77,59.77,0,0,1-12.68-.21,4.34,4.34,0,0,1-4-4c-1.06-5.8-2.27-11.58-3.27-17.39-1.77-10.3-3.7-20.56-6.14-30.72a329.38,329.38,0,0,0-12.65-41.92q-3.4-8.83-7.23-17.49a9,9,0,0,0-1.82-3.08,2.07,2.07,0,0,0-2.63-.44,1.93,1.93,0,0,0-.84,2.49c.11.3.18.61.32.9a188.93,188.93,0,0,1,8.64,21.29,366.21,366.21,0,0,1,12.15,41.57c2.1,9.1,3.79,18.27,5.45,27.45,1.15,6.35,2.21,12.72,3.58,19,.93,4.31,3.9,6.29,7.81,7A50.9,50.9,0,0,0,291.62,780Zm30.31-75.75c3.14.27,5.83-.94,8-4.79a225.63,225.63,0,0,0,10.16-21.15,239.79,239.79,0,0,0,9.15-24.19,14.88,14.88,0,0,0,.29-8.91c-1.16-3.91-2.15-7.86-3.15-11.8a63.67,63.67,0,0,0-2.32-7.29,12.93,12.93,0,0,0-3.31-5.21c-1.9-1.7-3.35-2-5.68-.87-2.89,1.35-5.77,2.74-8.66,4.1a175.28,175.28,0,0,1-31.7,11.48c-11.75,3-23.65,5.27-35.53,7.65a6.6,6.6,0,0,0-2.06.59,1.91,1.91,0,0,0-1.16,2.15,1.89,1.89,0,0,0,1.87,1.57,11.43,11.43,0,0,0,2.85-.22c7-1.31,13.93-2.69,20.9-4a201.41,201.41,0,0,0,26.86-6.86A208.42,208.42,0,0,0,333.65,626c4.35-2.13,4.7-2,6.37,2.72,1.9,5.35,3.1,10.9,4.71,16.32a14.74,14.74,0,0,1-.37,9.12c-2.42,7.45-5.35,14.7-8.36,21.93-2.7,6.49-5.86,12.77-8.94,19.09-2.3,4.72-3.86,5.22-8.78,3.6A168.22,168.22,0,0,1,291,687.05a78.29,78.29,0,0,1-13.59-8.93c-3.9-3.29-7.89-6.49-11.68-9.91A45.1,45.1,0,0,1,257,658.15c-.56-.93-.81-1.7-.07-2.6a5.91,5.91,0,0,0,.62-1,2,2,0,0,0-2.89-2.75c-2.61,2-4.54,4-2.39,7.66a40.26,40.26,0,0,0,5.39,7.3,166.43,166.43,0,0,0,17.93,15.85,99.38,99.38,0,0,0,19.64,11.84,177.32,177.32,0,0,0,22.64,9.13A11.09,11.09,0,0,0,321.93,704.29Zm53-75.4a5.86,5.86,0,0,0-3.59,1c-2.93,2-3.82,4.89-3.5,8.13a17.61,17.61,0,0,0,8.59,13.67,8.7,8.7,0,0,0,6.37,1.55c5-1,6.63-4.79,6.34-9A17,17,0,0,0,384,633.14C381.57,630.78,378.84,628.77,374.89,628.89Zm-60.6-91.7c-4.2-.26-7.87,3.55-8.44,7.93a13.82,13.82,0,0,0,8.51,14.4c5.26,2.1,11.81,0,13.16-7a12.43,12.43,0,0,0-2.08-9.34C323.08,539.5,319.7,537.23,314.29,537.19Zm73,234.47a21,21,0,0,0,0,2.38c.31,2.82,1,5.48,3.19,7.51,4,3.78,9.66,2.83,12.24-2a16.76,16.76,0,0,0,1.7-5.69,15.44,15.44,0,0,0-1.13-9.11c-.64-1.3-1.36-2.69-3-2.77a17.71,17.71,0,0,1-3.72-.79,6.13,6.13,0,0,0-6.15,1.6C387.87,765.17,387.08,768.24,387.32,771.66Zm-58.73-63.08a1.94,1.94,0,0,0-2.11,1.84,7.74,7.74,0,0,0,.24,2.61q3.76,16.92,7.5,33.85a7,7,0,0,0,1.1,2.89,2.41,2.41,0,0,0,3,.77,2.07,2.07,0,0,0,1.08-3,17,17,0,0,1-.8-2.76c-1.36-5.82-2.67-11.65-4-17.48-1.28-5.51-2.59-11-3.89-16.53C330.3,709.23,329.72,708.61,328.59,708.58Zm-2.14-24.25a6.65,6.65,0,0,0-2-4.81,7.55,7.55,0,0,0-8.28-2.67,6.94,6.94,0,0,0-5.21,8.69,11,11,0,0,0,4.23,5.64c3.44,2.41,7.14,1.79,9.69-1.53A8.22,8.22,0,0,0,326.45,684.33Z"/><path class="cls-2" d="M401.23,829.5a117.28,117.28,0,0,1,2.14-16.59c2.86-16.52,7.13-32.73,11-49,2.16-9,4.44-18,6.16-27.06a200.86,200.86,0,0,0,3.36-23.43c.2-2.95.32-5.89.37-8.85a71.9,71.9,0,0,0-3.19-21.69,139.37,139.37,0,0,0-12-27.89,302.29,302.29,0,0,0-24.77-37c-6.06-7.94-11.64-16.21-17.2-24.5-.36-.53-.72-1.06-1.11-1.56a1.77,1.77,0,0,0-1.66-.71c-5.41.29-10.84.5-16.25.81-10.52.61-21,1.27-31.57,1.55-3.51.09-7,.33-10.53.22-12-.38-23.87-1.64-35.27-5.76a17.22,17.22,0,0,1-2.23-.88,2,2,0,0,1-1.16-2.56,2.07,2.07,0,0,1,2.69-1.32c2,.55,4,1.21,6,1.82a84.58,84.58,0,0,0,17.38,3.17,156.54,156.54,0,0,0,19.12.81c7.49-.22,15-.5,22.48-1,5.17-.33,10.36-.51,15.53-.84,3.35-.22,6.7-.34,10-.53,1.56-.09,1.78-.44.91-1.71-2.6-3.74-5.21-7.47-7.91-11.13-3.88-5.27-7.57-10.68-11.29-16.06-2.73-3.94-5.66-7.74-8.15-11.84a26.38,26.38,0,0,1-3.1-7.5,10.45,10.45,0,0,0-2.15-4.22c-1.88-2.28-3.81-4.52-5.74-6.75a5.3,5.3,0,0,0-2.88-2c-1-.2-1.53-1-2.11-1.82-2.7-3.76-5.39-7.54-8.89-10.64a23.13,23.13,0,0,0-2.82-2.22,12,12,0,0,0-10.47-1.6c-5.31,1.51-8.86,5-11.68,9.37a50.39,50.39,0,0,0-7.82,20.17,61.69,61.69,0,0,1-2.71,12.37,18,18,0,0,1-4.24,6.87,6.86,6.86,0,0,1-7,1.87,21.85,21.85,0,0,1-8.35-4.56,67.83,67.83,0,0,1-15.51-19c-5.1-9.31-9.85-18.82-15.51-27.83a147.06,147.06,0,0,0-17.53-23.32q-9.3-9.84-18.4-19.86a66,66,0,0,1-13-22.17c-.87-2.38-.83-2.26-3.42-2a23.28,23.28,0,0,0-8.24,2.33c-2.1,1.05-2.62,2.14-2.22,4.45.1.55.15,1.11.27,1.65,1.1,4.83,1.66,4.24,5.37,4.68a59.38,59.38,0,0,1,6.36,1.05c5.61,1.33,7.05,5,5.43,10.9A8.38,8.38,0,0,1,172,471.9c-7.46,2.51-14.41,6.1-21.39,9.64-2.78,1.41-5.66,2.63-8.45,4-1.8.88-1.83,1.06-.55,2.57,3.35,4,6.87,7.77,10.12,11.82,4.71,5.85,9,12,13.67,17.88,8.45,10.55,15.8,21.87,23.27,33.11a207.3,207.3,0,0,1,17.58,33.19c4.71,10.95,8.83,22.11,12.48,33.44A200.28,200.28,0,0,1,225.19,645c.89,5.19,1.82,10.37,2.58,15.57.72,5,1.31,10,1.8,15,.73,7.48.74,15,1,22.48.2,5,.31,9.91.2,14.85-.17,7.9-.38,15.81-.95,23.69a333.85,333.85,0,0,1-4.52,35.33c-1.54,8.55-2.69,17.17-4.05,25.75-.78,4.88-1.59,9.76-2.48,14.62-.29,1.54-.63,3.25-2.74,3.42-2.56-1.12-3.34-3-2.21-5.54a7.54,7.54,0,0,0,.86-1.94c.58-3.71,1.27-7.39,1.86-11.09,1.36-8.59,2.53-17.21,4.07-25.76a317.85,317.85,0,0,0,4.46-34.62c.57-8.35.8-16.74,1-25.12.18-9.74-.21-19.48-.74-29.21-.24-4.47-.65-8.92-1.17-13.35-.84-7.12-2-14.21-3.24-21.28a229,229,0,0,0-7-29.79c-3.31-10.26-7-20.37-11.24-30.3a213.9,213.9,0,0,0-17.88-34.12c-8.51-13-17.35-25.66-26.88-37.9-6.61-8.5-12.88-17.27-20.15-25.25-1.55-1.7-1.48-1.76-3.56-.71-3.56,1.8-7.14,3.58-10.68,5.42a34.46,34.46,0,0,0-5.25,2.83.9.9,0,0,0-1,.51l0,0a3.54,3.54,0,0,0-2,.74c-3.62,2.16-7.41,4-10.92,6.4-4.57,3.14-10.51,3-13.86-2.76-1.25-2.14-2.35-4.36-3.5-6.55-1-2-1.11-2-3.1-1.11-4.92,2.11-9.58,4.75-14.38,7.1C62,506,54.36,509.73,46.77,513.47c-7.38,3.64-14.53,7.7-21.59,11.93-3.83,2.29-7.71,4.54-11.66,6.61a13.28,13.28,0,0,0-7.09,9.14A51.31,51.31,0,0,0,5,551.55c-.1,3.11-.6,6.21-.37,9.32.45,6,.59,11.94,1.24,17.89.28,2.54.36,5.09.59,7.63.42,4.77.89,9.53,1.35,14.29.21,2.22.3,4.45.5,6.68.64,7.06,1,14.15,1.6,21.22.51,6.2,1.18,12.38,1.76,18.57.15,1.62.14,3.22-1.19,4.46a2.88,2.88,0,0,0-.68,1.74,72.77,72.77,0,0,1-2.46,10.22,3,3,0,0,0,.46,2.91c1.61,2.37,3.19,4.77,4.79,7.16A6.33,6.33,0,0,1,13.64,677a56.28,56.28,0,0,1-.25,8.61,23.78,23.78,0,0,0-.16,2.39c-.05,3.28-.08,6.55-.12,9.83-.16,16.3-.17,32.6-.56,48.89-.23,9.33-.62,18.67-1,28-.47,12.86-.25,25.72-.31,38.58,0,4.1,1.2,8,2.17,12a13.52,13.52,0,0,1,.77,4.23c-4.41.29-4.37.28-5.5-3.89a62.67,62.67,0,0,1-2.26-17.77c.26-12.55,0-25.12.55-37.65C8.11,743.6,8.05,717,8.55,690.35c.07-3.51.3-7,.52-10.54a8.36,8.36,0,0,0-1.59-5.63c-1.27-1.75-2.38-3.6-3.61-5.37a6.45,6.45,0,0,1-1-6.12A103.76,103.76,0,0,0,6.48,647.3a22.93,22.93,0,0,0-.08-6c-1.68-19.84-3.46-39.66-5.07-59.5-.81-10-1.77-19.92-1.11-29.93A73.07,73.07,0,0,1,1.6,541c1.15-5.24,3.73-9.45,8.49-12.2,6.85-4,13.63-8,20.5-11.95a3,3,0,0,0,1.85-3.38,46.69,46.69,0,0,1,1.19-16.18c2.76-11.4,9.66-19.63,19.61-25.46C59.13,468.34,65.6,466.18,72,464a244.64,244.64,0,0,1,38.76-9.76c14.48-2.45,29-1.81,43.53-1.22,2.25.09,2.28.13,1.75-2.1a17.69,17.69,0,0,1-.58-4.74,7.08,7.08,0,0,1,3.73-6.29,25.43,25.43,0,0,1,9.46-3.26,11.33,11.33,0,0,1,1.43-.12c1.33,0,1.73-.71,1.77-2q.19-6.22.56-12.45a44.75,44.75,0,0,1,3.83-16.48,21.7,21.7,0,0,1,10-10.58c3.77-1.9,7.65-3.61,11.48-5.43,2.81-1.34,5.59-2.75,8.4-4.08a2,2,0,0,0,1.35-2c0-1.74,0-1.77-1.79-2.08-12.36-2.19-24.51-1-36.56,2.16a173.24,173.24,0,0,1-19.89,4.35c-7,1-14,1-20.88-1.26-9.77-3.18-16.5-9.84-20.93-18.89-2.26-4.63-2.28-9.56-1-14.52,1.85-6.94,5.48-12.92,9.92-18.45,2.86-3.55,5.8-7,8.7-10.54a41.67,41.67,0,0,0,5.25-8c3.19-6.45,2.06-12.43-1.93-18.05a50.26,50.26,0,0,0-7.69-7.88c-5.1-4.6-10.48-8.92-14.84-14.28a80.6,80.6,0,0,1-11.5-19,43.15,43.15,0,0,1-3.13-23c1-8,2.19-16,4.56-23.75,1.82-6,4-11.81,5.83-17.76,3.12-10.07,7-19.93,9-30.32a129.27,129.27,0,0,0,2-30.55c-.43-9.59-1.31-19.15-1.62-28.74a95.27,95.27,0,0,1,2-23.58C116,65.9,123.16,55,132.89,45.71c11.84-11.34,26-18.81,41.52-23.57q28.77-8.81,58.31-14.69a344.1,344.1,0,0,1,49-6.14C292.61.7,303.54-.21,314.49,0c15.13.34,30.17,1.6,44.84,5.65A127.84,127.84,0,0,1,391.05,19a57.18,57.18,0,0,1,13.77,11.08c6.55,7.38,14.05,13.74,21.39,20.28,2,1.8,4.22,3.43,6.22,5.26a30.44,30.44,0,0,1,8.42,11.79c1.83,4.89,1.12,11.34-5,15q-3.28,2-6.45,4.15c-1.37.94-1.38,1.19-.29,2.41s2.08,2.21,3.18,3.26c3.49,3.34,4,7.32,1.51,11.45-2.72,4.45-7,6.64-11.78,8-1.12.32-2.29.48-3.42.7A4.85,4.85,0,0,0,420,115a169.78,169.78,0,0,1,16.93,30.57,7,7,0,0,1,.3,5.1,169.77,169.77,0,0,0-5,19.75,116.93,116.93,0,0,0-2.15,28.86,38.58,38.58,0,0,0,1.84,9.86c1.45,4.41,3,8.76,4.73,13.07a38.88,38.88,0,0,1,2.26,21.65c-.38,2.13-.64,4.28-1.11,6.38a6.92,6.92,0,0,0,.6,4.88c1.26,2.4,2.53,4.8,3.87,7.17,3.22,5.71,6.29,11.49,8,17.88s2.75,12.82,1.48,19.43c-1.42,7.36-5.09,13.57-10,19.08-4.37,4.91-9.46,9.07-14.24,13.55a89.42,89.42,0,0,0-7.28,7.29,15,15,0,0,0-3.75,12.66c.47,2.91.76,5.86,1.19,8.78,1,6.58-1.24,12.12-5.49,17a36.47,36.47,0,0,1-24.78,12.63,50.44,50.44,0,0,1-24-3.09c-2.67-1.06-5.38-2-8.09-3-1.13-.4-2.29-.7-3.44-1-.9-.27-1.39,0-1.33,1,0,.24,0,.48,0,.72,0,4.56,0,9.12.07,13.67,0,1.73,0,3.29,1.79,4.55,1.29.9,2.12,2.56,3.28,3.78A65.63,65.63,0,0,0,365.77,416c6.29,4.37,9.88,10.52,12.19,17.59.62,1.9,1.2,3.82,1.66,5.76.28,1.14.65,1.56,1.94,1.31,3.92-.76,7.87-1.36,11.81-2,1.18-.19,2.37-.36,3.56-.52a11.33,11.33,0,0,1,9.71,3.05,28.13,28.13,0,0,1,5.29,6.47c1.67,2.91,3.26,5.87,4.93,8.78.91,1.57,1.1,3-.74,4.42a5.46,5.46,0,0,0,.9.56c3.16,1.12,5.89,3.12,9,4.44,12.4,5.33,24.8,10.69,37.1,16.24,10.78,4.86,21.51,9.84,32,15.37,7.35,3.88,14.64,7.88,21.58,12.46.73.48,1.44,1,2.13,1.55a3.63,3.63,0,0,1,1.31,2,272.12,272.12,0,0,1,6.41,32.89c2.71,20.06,4.39,40.21,5.69,60.39.77,12,1.49,23.94,2.94,35.85a3.32,3.32,0,0,1-2,3.62c-2.06-.52-2.6-1.13-2.79-3.24-.22-2.39-.34-4.78-.63-7.16-.63-5.14-.88-10.32-1.38-15.48-.32-3.27-.31-6.54-.53-9.8q-.63-9.67-1.36-19.34c-.31-4.21-.67-8.43-1.05-12.64-.41-4.44-.86-8.88-1.32-13.32-.36-3.49-.71-7-1.17-10.46-.67-5.13-1.58-10.24-2.11-15.39a149.73,149.73,0,0,0-4-21.13,8.34,8.34,0,0,0-3.69-5.09c-6.34-4-12.92-7.66-19.53-11.2-7.89-4.23-16.08-7.86-24.13-11.77-12.37-6-25.18-11-37.64-16.77-.47-.22-1-.64-1.53-.14a6.77,6.77,0,0,0,1.56,2.65,289.32,289.32,0,0,1,21.57,35.36c4.62,9.12,8.67,18.51,12.62,28,4.84,11.57,9,23.38,12.92,35.31.61,1.87,1.07,3.79,1.59,5.64a1.12,1.12,0,0,0,1.08-.69c4.28-7.49,9.18-14.63,12.75-22.51,2.83-6.26,5.46-12.6,8.14-18.93,2.14-5.07,4.42-10.1,5.81-15.45.5-1.93.88-3.9,1.43-5.81a2.19,2.19,0,0,1,2.42-1.84,2.46,2.46,0,0,1,1.66,2.81A68.21,68.21,0,0,1,511,528.89c-2.11,5.86-4.5,11.61-6.87,17.37-2.52,6.13-4.85,12.37-8.14,18.14-4,7-8.2,13.89-12.39,20.79a5,5,0,0,0-.62,4.32c1,3.2,1.85,6.45,2.92,9.62,1.71,5.07,3.62,10.07,5.32,15.15a63.22,63.22,0,0,1,2.52,9.22,7.58,7.58,0,0,0,1.79,4c2.21,2.52,4.39,5.07,6.62,7.57,7.12,8,13.86,16.3,20.34,24.81a67,67,0,0,1,8.29,13.42c3.22,7.33,3.84,15.1,4.19,22.93a86.73,86.73,0,0,1-.32,9.8c-.34,4.94-1,9.84-1.8,14.71a188.46,188.46,0,0,1-4.71,19.3,212.37,212.37,0,0,0-7.83,42.26c-.45,6.13-.82,12.27-1,18.41-.26,9.59-.22,19.19-.07,28.79a17.25,17.25,0,0,1-4.76,0c0-14.06-.28-28.11.86-42.15.45-5.65.79-11.29,1.46-16.92a191.07,191.07,0,0,1,4.56-23.23c2-8.28,4.54-16.46,6.34-24.81.27-1.24.85-2.5.47-4-.85.54-1.51,1-2.16,1.4-7.12,4.81-14.51,9-22.95,11.1-8.14,2.06-16.31,3.06-24.64,1.71-4.82-.78-8.68-2.79-10.61-7.79-2.56-6.62-5.53-13.09-8.26-19.65a400.42,400.42,0,0,0-21.22-44.27c-.67-1.18-1.44-2.3-2.1-3.48a2,2,0,0,1,.31-2.81,2.18,2.18,0,0,1,3,.24,10.41,10.41,0,0,1,1.27,1.73c3.13,4.93,5.94,10,8.57,15.24,2.78,5.49,5.45,11,8.08,16.6,1.64,3.47,3.15,7,4.64,10.52,3.36,7.95,6.71,15.89,9.95,23.88a7.27,7.27,0,0,0,5.72,4.81,44.89,44.89,0,0,0,16.42.25c6.72-1.1,13.28-2.76,19.34-6,4.72-2.53,9.08-5.64,13.53-8.59a5.45,5.45,0,0,0,2.67-4.74c.1-3.75.68-7.48.47-11.24-.11-2.07-.3-4.14-.37-6.21a43.39,43.39,0,0,0-7.75-23.55c-2.59-3.74-5.44-7.29-8.21-10.9-4.71-6.14-9.74-12-14.84-17.85-1.7-2-1.67-1.85-2.93.4-4.14,7.41-9.31,13.92-16.53,18.6a13.92,13.92,0,0,1-7.6,2.52c-3.21,0-6.12-1-9.09-1.91-9.51-2.84-18.54-6.92-27.74-10.57a18.58,18.58,0,0,1-8.56-6.35c-3-4.22-6-8.44-8.74-12.88-1.7-2.79-3.4-5.52-3.36-9,0-1.89.09-2.57,2-3.18a261.13,261.13,0,0,0,29.46-11.43c4.49-2.09,9-4.11,13.49-6.22,2.2-1,2.14-1.09.47-3-3.78-4.22-7.52-8.48-11.3-12.7-7.68-8.56-14.74-17.63-21.79-26.7a43,43,0,0,1-5.28-7.69,2.35,2.35,0,0,1,.88-3.3c.91-.45,2,0,2.79,1.2,4.1,6.41,9.17,12.06,13.94,18,3.87,4.77,7.8,9.5,11.85,14.11,1.89,2.15,3.47,4.59,5.87,6.27,0,.2.17.31.26.2s0-.24-.19-.28a3.89,3.89,0,0,0-.63-2.27c-3.2-7-5.92-14.14-8.54-21.33-4.69-12.84-10.14-25.36-15.82-37.77-3.19-7-6.76-13.76-10.42-20.5a134,134,0,0,0-12.28-19.12c-4.11-5.23-9.29-8.47-16.27-8a19.2,19.2,0,0,1-2.4,0c-1.57-.06-2.5-.78-2.6-1.94s.87-2.15,2.51-2.33a21.47,21.47,0,0,0,3.58-.24,22.42,22.42,0,0,0,3.84.2l.47.05a25.11,25.11,0,0,1,10,4.85c3.52,2.88,6.11,6.51,8.68,10.15,6,8.45,10.53,17.7,15.3,26.83,3.07,5.87,5.64,12,8.34,18.05,3.67,8.24,7.2,16.53,10.34,25,2.52,6.81,5,13.66,7.93,20.3,1.69,3.78,3.23,7.64,4.81,11.48.45,1.09,1.08,2.21.43,3.44s.23,2.07.89,3,2.22.5,2.85,1.59.44,2.38,1.57,3.13c.26.16.38.51.6.74q8.22,8.7,16.47,17.39c.06.06.26,0,.81-.09a302.16,302.16,0,0,1-10.7-32.73,9.45,9.45,0,0,0-.92.52c-1,.74-2.12,1-3.06.09s-.66-2-.14-3.11a14,14,0,0,1,1.25-2.32,4.25,4.25,0,0,0,.49-4.07c-1.64-5.6-3.8-11-5.7-16.52-4.4-12.77-9.79-25.14-15.43-37.4a238.83,238.83,0,0,0-15-27.8c-4.6-7.3-9.13-14.63-14.33-21.53-1.81-2.39-3.71-4.58-6.6-5.69-2.09-.8-4.09-1.8-6.21-2.52a23.61,23.61,0,0,0-11.35-.67c-2.13.31-4.14,1.27-6.35,1-1.54-2.36-1.19-3.66,1.45-4.36,3.85-1,7.75-2,11.79-1.57,1.5.15,3,.56,4.47.83.53.1,1.15.27,1.53-.29s0-.91-.22-1.33c-1.37-2.44-2.69-4.9-4.08-7.33a26.54,26.54,0,0,0-5.3-6.46,5.2,5.2,0,0,0-3.67-1.47,34,34,0,0,0-5.95.48c-3.37.61-6.78,1.05-10.16,1.6-2,.33-2,.41-1.65,2.47.44,2.43,1,4.85,1.41,7.28,1.56,8.46,3,17,4.69,25.39,1.76,8.92,3.05,17.92,4.43,26.9.51,3.32.2,6.73.71,10a12.86,12.86,0,0,1-1.73,8.22,7.26,7.26,0,0,1-6.78,4.14A13.2,13.2,0,0,1,376.8,527a53.09,53.09,0,0,1-6.91-5.52c-2.05-1.82-3.46-4.17-5.22-6.22-4.23-4.9-8.92-9.37-13.51-13.93a23.56,23.56,0,0,0-3.15-2.57,4.32,4.32,0,0,0-6,.66,8.3,8.3,0,0,0-1.49,2.44c-2.85,6.42-5.79,12.8-7.52,19.66a4.39,4.39,0,0,1-1.67,2.8c-1.24.85-1.24,1-.11,2.09a11.67,11.67,0,0,1,3,4.55c1.21,3.45,1.87,7.07,3.09,10.54a14.76,14.76,0,0,0,1.41,3.49c.83,1.27,1.72,2.5,2.61,3.73,8.54,11.94,17.11,23.87,25.6,35.85a3.19,3.19,0,0,0,3.35,1.66c3.64-.51,7.32-.42,11-.81,5.31-.57,10.62-1.17,15.87-2.14,2.44-.45,5-.46,7.17-2.27,1.2-1,3.45-.13,4.28,1.38.68,1.25.07,2.55-1.67,3.41a7.86,7.86,0,0,1-1.8.63c-2.65.59-5.29,1.23-8,1.67a161.86,161.86,0,0,1-23,2.51,5.38,5.38,0,0,0-1.18.19c-.87.21-1.24.69-.75,1.56.15.28.36.52.54.79,4,6.16,8.1,12.26,12.53,18.12,8,10.57,15.88,21.21,22.85,32.51a163.13,163.13,0,0,1,16,32.87c3,8.89,5,18,4.94,27.42-.05,4.95-.41,9.87-.88,14.8-.5,5.16-1.31,10.28-2.23,15.37-1.61,8.87-3.78,17.62-5.87,26.39-4.14,17.45-8.8,34.79-11.91,52.49A126.43,126.43,0,0,0,406,829.46,17.32,17.32,0,0,1,401.23,829.5ZM204.53,284.18c-.36-.29-.65-.24-.87.17l-.77.59c-3.74-.11-7.49.25-11.2-.69a39.23,39.23,0,0,1-15.32-7.52,42.13,42.13,0,0,1-9.49-10.66c-3.62-5.9-6.28-12.15-7-19.14-.56-5.18-.78-10.31,1-15.44-1.76-1-3.6-2-5.31-3.15-6.52-4.41-11.43-10.35-15.67-16.89a68.52,68.52,0,0,1-7.28-14.52A101.78,101.78,0,0,1,129,185.51,3.43,3.43,0,0,1,131,182a2.76,2.76,0,0,1,3,1.5,13,13,0,0,1,1,2.67c2,7.34,4.58,14.46,8.68,20.93,3.13,4.92,6.42,9.74,10.89,13.58a31.16,31.16,0,0,0,9.95,6.06c7.44,2.6,15.18,3.54,23,3.93,3.42.17,6.83.46,10.25.68a52,52,0,0,1,6.87.71c1.12.21,2.36,1,3.91.22a18.37,18.37,0,0,0-4.64-3.14c-7.77-3.92-15.63-7.68-23.15-12.07-1-.6-2.07-1.21-3.08-1.85a.64.64,0,0,1-.21-.85.63.63,0,0,1,.81-.32c1,.4,1.88.88,2.85,1.25,6.93,2.65,13.85,5.3,20.89,7.64a34.3,34.3,0,0,1,17.34,12.16,31.52,31.52,0,0,1,6.42,16.73c0,.45-.13,1,.46,1.22s.85-.34,1.12-.72a9.59,9.59,0,0,0,.71-1.25A27.53,27.53,0,0,0,227,226a41.78,41.78,0,0,0-7.09-9,62,62,0,0,1-6.18-6.67,31.8,31.8,0,0,1-6.2-15.85,36.69,36.69,0,0,1,.94-13.78c.67-2.39.4-2.55-2.12-2.09a29.82,29.82,0,0,1-6.39.74c-2.32-.09-4.64,0-7,0a35.84,35.84,0,0,1-8.91-1.52c-1.56-.4-1.92-1.5-1.26-3,.53-1.19,1.33-1.31,2.53-1a48.32,48.32,0,0,0,13.9,1.33,47.5,47.5,0,0,0,14.18-3c5.92-2.31,11.44-5.34,15.8-10.06q4.54-4.92,8.65-10.21a41.87,41.87,0,0,0,5.39-8.74c2.72-6.32,4.36-13,6.37-19.54a43.91,43.91,0,0,1,3.81-9.79c4.36-7.27,9.28-14.07,15.8-19.65A80.65,80.65,0,0,1,284,84.34,85.46,85.46,0,0,1,300.21,78a94.14,94.14,0,0,1,43.25-2.26,65.81,65.81,0,0,1,14.08,3.65c5.06,2.13,10.28,4,15,6.89a9.6,9.6,0,0,0,2.94,1,47.06,47.06,0,0,0,12.36,1,15.1,15.1,0,0,0,7.9-2.4,26.64,26.64,0,0,0,6.95-7.17c1-1.36,1.89-2.76,2.88-4.1.46-.61,1.1-1,1.87-.47a1.44,1.44,0,0,1,.72,1.8c-1,3.48-2.3,6.79-5.09,9.33a48.71,48.71,0,0,1-4.72,3.65c-1,.68-.86,1,0,1.76,2.27,1.87,4.54,3.75,6.63,5.85a66.06,66.06,0,0,1,7.26,8.25c1.55,2.18,3.15,3.68,6,2.21.06,0,.16,0,.24,0a29.31,29.31,0,0,0,7.6-2.81c3.39-2,4-5.18,1.9-7.84-1.37-1.76-2.74-3.51-4.28-5.14-2.27-2.39-2.19-4.52.07-6.91a6.8,6.8,0,0,1,.87-.83,58.28,58.28,0,0,1,5.92-4A17.43,17.43,0,0,0,434.84,76a5.06,5.06,0,0,0,1.47-3.65c.07-3-1.31-5.46-2.87-7.74-2.62-3.85-6.18-6.87-9.64-9.95-2.79-2.48-5.87-4.65-8.5-7.33a30.14,30.14,0,0,0-2.79-2.63,52.44,52.44,0,0,1-7.17-7,71.4,71.4,0,0,0-13-11.95,102.25,102.25,0,0,0-15.71-8.59A115.86,115.86,0,0,0,358,10.49,137.69,137.69,0,0,0,332.64,6.1c-4.77-.38-9.51-.81-14.3-.94-2.77-.08-5.58-.72-8.34-.33a63.62,63.62,0,0,1-9.55.37c-4.07,0-8.1.77-12.18.53a2,2,0,0,0-.48,0,110,110,0,0,1-11.17.84c-2.78.17-5.56.47-8.33.67-1.9.14-3.82.18-5.71.45-4.09.59-8.18,1.17-12.26,1.8-5.49.86-11,1.66-16.46,2.68-9.47,1.76-18.79,4.2-28.13,6.49s-18.38,4.64-27.45,7.39A111.91,111.91,0,0,0,153,36.79a86.32,86.32,0,0,0-17.14,12.92,79.16,79.16,0,0,0-7.45,8.4,54.57,54.57,0,0,0-7.08,11.63,74.13,74.13,0,0,0-5.46,27.72c0,3.82.22,7.64.36,11.47.15,4.06.81,8.1.62,12.18a1.47,1.47,0,0,0,0,.47c.81,3.85.51,7.79.76,11.67a109.25,109.25,0,0,1-.79,20.52c-.5,4-1.06,8-1.93,12s-2.13,7.68-3.07,11.55a71.89,71.89,0,0,1-2.44,8.23c-1.09,2.83-2.15,5.66-3.17,8.52-2.55,7.13-4.18,14.56-6.74,21.69a14.47,14.47,0,0,0-1,3.45c-.32,3-1.05,5.87-1.28,8.89-.19,2.62-1,5.28-1.33,8a35.41,35.41,0,0,0,0,10c1.16,7,4.43,13.08,8,19.08a71.33,71.33,0,0,0,15.84,18.08c1.89,1.59,3.69,3.29,5.56,4.9,3.87,3.34,7.43,7,9.55,11.82a20.77,20.77,0,0,1,1.9,11.89,28.69,28.69,0,0,1-5.5,12.09c-3.71,5.09-8,9.74-11.84,14.69a45.38,45.38,0,0,0-8.1,14.83,17.88,17.88,0,0,0,2.32,16,48.52,48.52,0,0,0,4.75,5.67c5.13,5.52,11.7,7.89,18.94,8.59a51.93,51.93,0,0,0,15.91-1.18c6.15-1.31,12.24-2.89,18.36-4.32A98.29,98.29,0,0,1,185.5,376a65.37,65.37,0,0,1,13.12,0c2.29.25,4.58.51,6.89.63,1.86.09,1.94-.05,2-1.81.14-6.46-.13-12.92.38-19.38a62.42,62.42,0,0,0-.26-10.75c-.43-4.51-.65-9-1-13.56-.29-3.49-.09-7-.47-10.51-.34-3.24-.17-6.52-.48-9.79-.45-4.75-1.37-9.43-1.83-14.17-.27-2.86-1.16-5.62-1.15-8.51,0-2.12,0-2.12,2.32-2.16.18.35.38.7.53,1.06,2.26,5.69,3.08,11.74,4.33,17.68,1.46,7,1.73,14.11,2.17,21.21.61,9.64,2,19.25,1.76,28.94-.05,2.56,0,5.12.1,7.68.34,13.28.2,26.54-1.62,39.73-.33,2.37-.59,4.77-1.09,7.1-.62,2.85-2.74,3.69-5.2,2.24-1.09-.64-1.5-.43-1.64.79a3.26,3.26,0,0,0,.55,2.05c.94,1.58,1.84,3.19,2.87,4.7a224.22,224.22,0,0,0,19.47,24.32c1.48,1.62,2.86,3.47,5.14,4.17a2.27,2.27,0,0,1,.89.78,67.24,67.24,0,0,0,7.35,6.87c6.94,5.91,14,11.65,20.84,17.68,12.37,10.93,25.71,20.31,41.44,25.87a24.41,24.41,0,0,1,5.08,2.67,42.65,42.65,0,0,1,12.49,12.75,38.29,38.29,0,0,0,3.82,5.21c.36.38.65,1,1.6.67,2.57-7.79,5.3-15.67,8.28-23.52a3.65,3.65,0,0,0-.95-.25c-6.12.46-11.22-1.91-15.84-5.64-1.12-.91-2.31-1.72-3.44-2.62a3.92,3.92,0,0,0-3.36-.8,24.67,24.67,0,0,1-3.1.32c-.58,0-1.14-.16-1.25-.85a1.08,1.08,0,0,1,.86-1.26c1.37-.43,2.77-.79,4.15-1.19a5.24,5.24,0,0,1,3.74.23c2.05.91,4.11,1.79,6.09,2.81,3.65,1.88,7.33,3.58,11.56,3.55a6.75,6.75,0,0,1,1.42.2c2.11.45,2.11.46,2.9-1.44,3.83-9.23,7.37-18.57,11.32-27.75,1.14-2.64,2.05-5.38,3.05-8.07a6.15,6.15,0,0,0,.25-3.75,102.38,102.38,0,0,1-2-13c-.82-7.23-1.65-14.45-2.36-21.69-.59-6-1.31-12.08-1.33-18.16,0-8.88.36-17.75.7-26.61.09-2.34.06-2.3-2.24-2.68-4.81-.77-9.63-1.51-14.42-2.42a252,252,0,0,1-72.34-25.35c-6.48-3.47-13-7-18.37-12.1-1.39-1.31-2.61-2.82-4.08-4a8.56,8.56,0,0,1-2.47-3.17c-2.78-6.2-5.6-12.37-8.36-18.59-2.95-6.64-5.82-13.33-8.75-20-.79-1.77-.84-1.75-2.61-.87A24.3,24.3,0,0,1,204.53,284.18Zm220.9-86.68a6.71,6.71,0,0,0,.28-7.37,8.06,8.06,0,0,1-.42-1.1,15.71,15.71,0,0,0,.3-1.64c.38-6.87,1.56-13.65,2.59-20.44a59.88,59.88,0,0,1,3.94-15A6,6,0,0,0,432,146c-1-1.75-.89-1.86-2.91-1.7a52.93,52.93,0,0,0-14.48,3.12,98.64,98.64,0,0,0-23.44,12.42,8.53,8.53,0,0,1-1.21.77c-2.36,1.17-3.24.6-3.05-2.05.72-10.54,5.85-18.06,15.55-22.31,6.43-2.82,13.24-3.52,20.18-3.3.82,0,1.7.36,2.42-.09a1.74,1.74,0,0,0-.39-1.49,201.61,201.61,0,0,0-27.8-39.24c-1.34-1.48-1.38-1.51-3.21-.64A23.36,23.36,0,0,1,381.78,94a46.74,46.74,0,0,1-16.91-4.06c-2.1-1-4.2-2-6.32-2.91-5.19-2.31-10.41-4.5-16.06-5.51a86.25,86.25,0,0,0-37.08,1.23c-8.17,2.11-16.09,4.72-23.13,9.56A134.17,134.17,0,0,0,269.56,102a40.66,40.66,0,0,0-11.77,17.52c-1.93,5.67-3.7,11.4-5.41,17.15A53.65,53.65,0,0,1,247.65,148c-7,12.36-17.34,20.94-30.05,26.89a4.62,4.62,0,0,0-2.79,2.71c-4.21,12-2.8,23,5.95,32.59,1.88,2.07,4,3.95,5.83,6,8.76,9.82,11.86,21,7.74,33.75-1.65,5.12-4.91,9.31-8.2,13.43-1.14,1.42-2.84,1.36-4.44,1a2.1,2.1,0,0,1-1.55-2.18,7.73,7.73,0,0,1,.24-1.65A27.28,27.28,0,0,0,219,245.19a8.94,8.94,0,0,0-5.19-5.3,40.28,40.28,0,0,0-9.22-2.54,121.83,121.83,0,0,0-13.62-1,139.16,139.16,0,0,1-17.17-1.66,74.18,74.18,0,0,1-10.31-2.46,1.34,1.34,0,0,0-.44,1.27,75,75,0,0,0,1.23,12.15c2,10.28,6.68,19.13,14.69,26,4.5,3.87,9.58,6.71,15.6,7.34,6.21.66,12-1.1,17.77-3.22.89-.33.9-.95.73-1.74a1.78,1.78,0,0,1,1.12-2.34,2,2,0,0,1,2.39,1.15,33.13,33.13,0,0,1,1.78,3.39c5.88,12.79,11.89,25.51,17.33,38.48a24.94,24.94,0,0,0,6.72,9.15,117,117,0,0,0,30.05,19.08c16.17,7.27,33.05,12.37,50.27,16.44,10.44,2.46,21.05,3.85,31.66,5.31,4.73.64,9.33.95,14-.11a50.4,50.4,0,0,0,17.46-7,7.51,7.51,0,0,0,2.85-3.13c7.36-15.88,14.58-31.83,22.06-47.65,5.88-12.42,11.94-24.75,16.66-37.71a146.12,146.12,0,0,0,7.35-31.42,13.54,13.54,0,0,0-.19-4.06c-.84-4.75-2.59-9.22-4.11-13.76s-3.25-8.69-4.55-13.14c-.26-.91-.76-1.84-.43-2.8C426.21,201.74,425.7,199.63,425.43,197.5Zm-219,193.25c-.61-.3-1,0-1.44.22-4.82,2.33-9.6,4.74-14.46,7-6.43,3-10.18,8-11.87,14.75-2,7.74-2.05,15.63-1.86,23.55a6.74,6.74,0,0,0,.33,1.63A61.19,61.19,0,0,0,191.48,463c6,6.39,12,12.87,17.92,19.32a151,151,0,0,1,14.84,19.06c6.58,9.95,12,20.53,17.61,31A67.06,67.06,0,0,0,256.37,551a19.36,19.36,0,0,0,6.29,3.86c2.14.78,3.14.34,4.51-1.48,2.13-2.84,2.91-6.18,3.63-9.54s.85-6.65,1.7-9.9a60.51,60.51,0,0,1,7.34-17.35c.38-.59.72-1.16-.08-1.61s-1,.22-1.32.65a64.11,64.11,0,0,0-5.21,8c-.82,1.46-1.57,3-2.43,4.41a2.48,2.48,0,0,1-3.22,1.25,2.53,2.53,0,0,1-1-3.15,8.65,8.65,0,0,1,.71-1.51,80.31,80.31,0,0,1,8.5-13.31,40,40,0,0,1,9.2-8.66c3.51-2.32,3.56-2.24.12-4.79-5.71-4.22-11.44-8.42-17.14-12.66-7.48-5.59-14.56-11.68-21.68-17.72-6.52-5.53-12.68-11.45-18.94-17.26a133.58,133.58,0,0,1-14-16,160.26,160.26,0,0,1-11.19-15.83,20.72,20.72,0,0,1-3.37-11.8,4.08,4.08,0,0,1,2-3.6c1.21-.76,2.4-1.58,3.65-2.28A3,3,0,0,0,206,398a32.18,32.18,0,0,1,.43-4A6.06,6.06,0,0,0,206.39,390.75ZM435.78,260.52a5.71,5.71,0,0,0-1.36,2.76c-1.35,3.58-2.59,7.2-4,10.75-3.42,8.67-6.75,17.39-10.6,25.88-1.87,4.14-4,8.15-6,12.23-1.33,2.73-2.81,5.38-4,8.18-2.42,5.81-4.76,11.67-7.42,17.37-3.15,6.73-6.61,13.3-9.91,20a7.05,7.05,0,0,1-2.07,2.6,42.2,42.2,0,0,1-7.56,4.56,56.46,56.46,0,0,1-12.23,4,47.82,47.82,0,0,1-13.35.42c-1.83-.14-3.65-.22-5.47-.32-1,0-1.46.41-1.44,1.42,0,2,.07,4,0,6a1.93,1.93,0,0,0,1.8,2.29,73.84,73.84,0,0,1,11.53,3.91A48.3,48.3,0,0,0,379,386.12a41.85,41.85,0,0,0,17.13-2.45,31,31,0,0,0,14.25-11.23,13.77,13.77,0,0,0,2.71-8.74,73.45,73.45,0,0,0-1.37-10.86A18,18,0,0,1,415,338.59a59.25,59.25,0,0,1,9.32-9.88c4.62-4.16,9.2-8.38,13.52-12.87a38.06,38.06,0,0,0,8-12.89c2.18-5.61,1.93-11.45.8-17.2A66.94,66.94,0,0,0,438,264.33C437.29,263.12,436.89,261.7,435.78,260.52ZM136.49,457.2c-11-.74-21.83.87-32.57,3a219.28,219.28,0,0,0-34.08,9.53,111.09,111.09,0,0,0-13.46,5.67A37.65,37.65,0,0,0,42.69,487.8c-3.24,4.8-4.75,10.23-5.53,15.92a41.63,41.63,0,0,0-.38,7.4c.08,1.74.5,1.94,2.07,1.1,1.41-.75,2.79-1.56,4.22-2.26q13.16-6.37,26.33-12.71c4.17-2,8.36-4,12.55-5.95,1.45-.69,1.58-1,.65-2.29a24.46,24.46,0,0,0-7.95-7.5c-3.29-1.77-6.66-2.88-10.55-2a25,25,0,0,0-14.5,9.07c-3.44,4.31-6.07,9-6.67,14.6a2,2,0,0,1-2,2,2,2,0,0,1-2.12-1.87,9.87,9.87,0,0,1,.67-4.93c2.74-9,7.91-16.25,16.24-20.78s15.65-4.36,23.78,1.51c4.38,3.15,7.33,7.5,10.12,12,1.73,2.8,3,5.84,4.6,8.68,1.76,3.06,3.57,3.6,6.74,2.06,5.67-2.76,11-6.09,16.71-8.88,7.38-3.62,14.47-7.8,21.87-11.37,5.68-2.74,11.34-5.54,17-8.29,2.15-1.05,4.32-2.08,6.52-3,2.5-1.06,5.05-2,7.56-3,2.14-.87,2.93-2.54,2.88-4.77A2.34,2.34,0,0,0,171.7,460a31.61,31.61,0,0,0-4.91-1c-2.38-.32-4.8-.21-7.15-.59a98.51,98.51,0,0,0-15.24-1.24C141.76,457.19,139.12,457.2,136.49,457.2ZM351.86,410c-.38,2.5.29,4.84.49,7.21.07.77.67,1,1.26,1.29a21.75,21.75,0,0,1,5.91,4.43,2.85,2.85,0,0,1,1.09,1.54c.45,3.06,1.57,6,1.23,9.21A93.85,93.85,0,0,1,360.2,445a260.24,260.24,0,0,1-12,38.1c-1,2.37-1.91,4.74-2.9,7.09-.41.95-.14,1.47.82,1.82a18.42,18.42,0,0,1,2.85,1.23,47.52,47.52,0,0,1,8.56,6.49c6.08,5.67,11.68,11.8,17.21,18a18.75,18.75,0,0,0,8.1,5.37c2.92,1,4.38,0,4.94-3a5.83,5.83,0,0,0,.06-.72,51.08,51.08,0,0,0-.14-9.09c-1-7.5-2.06-15-3.38-22.45-2.26-12.71-4.67-25.39-7.14-38.06a91.5,91.5,0,0,0-4.75-17.52c-1.75-4.24-3.83-8.29-7.57-11.17a95.8,95.8,0,0,1-11.66-10.29A1.73,1.73,0,0,0,351.86,410ZM471.29,655.77a13.79,13.79,0,0,0,4.7-1.43,35.51,35.51,0,0,0,9.25-7.84c3.1-3.86,6.19-7.71,8.05-12.39a2,2,0,0,0-.35-2.54c-7.59-8.41-15.11-16.89-23.06-25-1.29-1.31-2.56-2.64-3.79-4s-1.26-1.33-2.84-.59c-3.55,1.66-7.07,3.35-10.63,5a222.82,222.82,0,0,1-21.17,8.89c-3.7,1.26-7.42,2.48-11.11,3.74-1.54.53-1.75,1-1.13,2.48.13.29.35.53.5.82,2.07,3.88,4.86,7.31,7.14,11a25.87,25.87,0,0,0,13.91,11c8.31,3,16.41,6.66,24.9,9.22C467.57,654.79,469.5,655.28,471.29,655.77ZM392.55,154.49a50.31,50.31,0,0,1,11.22-7.35,101.53,101.53,0,0,1,12-5.18c4.07-1.44,8.42-1.62,12.61-2.68a1.33,1.33,0,0,0-1.21-1c-2.61-.22-5.26-.72-7.83-.46s-5.05.3-7.57.75c-6.41,1.16-12,3.72-16.17,8.84A14.93,14.93,0,0,0,392.55,154.49Z"/><path class="cls-1" d="M406,829.46a126.43,126.43,0,0,1,2.16-16.34c3.11-17.7,7.77-35,11.91-52.49,2.09-8.77,4.26-17.52,5.87-26.39.92-5.09,1.73-10.21,2.23-15.37.47-4.93.83-9.85.88-14.8.09-9.47-1.91-18.53-4.94-27.42a163.13,163.13,0,0,0-16-32.87c-7-11.3-14.86-21.94-22.85-32.51-4.43-5.86-8.52-12-12.53-18.12-.18-.27-.39-.51-.54-.79-.49-.87-.12-1.35.75-1.56a5.38,5.38,0,0,1,1.18-.19,161.86,161.86,0,0,0,23-2.51c2.67-.44,5.31-1.08,8-1.67a7.86,7.86,0,0,0,1.8-.63c1.74-.86,2.35-2.16,1.67-3.41-.83-1.51-3.08-2.42-4.28-1.38-2.13,1.81-4.73,1.82-7.17,2.27-5.25,1-10.56,1.57-15.87,2.14-3.65.39-7.33.3-11,.81a3.19,3.19,0,0,1-3.35-1.66c-8.49-12-17.06-23.91-25.6-35.85-.89-1.23-1.78-2.46-2.61-3.73a14.76,14.76,0,0,1-1.41-3.49c-1.22-3.47-1.88-7.09-3.09-10.54a11.67,11.67,0,0,0-3-4.55c-1.13-1.1-1.13-1.24.11-2.09a4.39,4.39,0,0,0,1.67-2.8c1.73-6.86,4.67-13.24,7.52-19.66a8.3,8.3,0,0,1,1.49-2.44,4.32,4.32,0,0,1,6-.66,23.56,23.56,0,0,1,3.15,2.57c4.59,4.56,9.28,9,13.51,13.93,1.76,2,3.17,4.4,5.22,6.22A53.09,53.09,0,0,0,376.8,527a13.2,13.2,0,0,0,7.47,2.18,7.26,7.26,0,0,0,6.78-4.14,12.86,12.86,0,0,0,1.73-8.22c-.51-3.28-.2-6.69-.71-10-1.38-9-2.67-18-4.43-26.9C386,471.47,384.51,463,383,454.52c-.45-2.43-1-4.85-1.41-7.28-.38-2.06-.34-2.14,1.65-2.47,3.38-.55,6.79-1,10.16-1.6a34,34,0,0,1,5.95-.48,5.2,5.2,0,0,1,3.67,1.47,26.54,26.54,0,0,1,5.3,6.46c1.39,2.43,2.71,4.89,4.08,7.33.24.42.54.86.22,1.33s-1,.39-1.53.29c-1.49-.27-3-.68-4.47-.83-4-.4-7.94.54-11.79,1.57-2.64.7-3,2-1.45,4.36-2.2,1.07-2.65,2.87-1.25,4.7.58.76,1.61,1,2,2a21.47,21.47,0,0,1-3.58.24c-1.64.18-2.61,1.1-2.51,2.33s1,1.88,2.6,1.94a19.2,19.2,0,0,0,2.4,0c7-.51,12.16,2.73,16.27,8a134,134,0,0,1,12.28,19.12c3.66,6.74,7.23,13.53,10.42,20.5,5.68,12.41,11.13,24.93,15.82,37.77,2.62,7.19,5.34,14.36,8.54,21.33a3.89,3.89,0,0,1,.63,2.27l-.07.08c-2.4-1.68-4-4.12-5.87-6.27-4.05-4.61-8-9.34-11.85-14.11-4.77-5.89-9.84-11.54-13.94-18-.79-1.23-1.88-1.65-2.79-1.2a2.35,2.35,0,0,0-.88,3.3,43,43,0,0,0,5.28,7.69c7.05,9.07,14.11,18.14,21.79,26.7,3.78,4.22,7.52,8.48,11.3,12.7,1.67,1.88,1.73,1.93-.47,3-4.48,2.11-9,4.13-13.49,6.22a261.13,261.13,0,0,1-29.46,11.43c-1.88.61-2,1.29-2,3.18,0,3.5,1.66,6.23,3.36,9,2.7,4.44,5.72,8.66,8.74,12.88a18.58,18.58,0,0,0,8.56,6.35c9.2,3.65,18.23,7.73,27.74,10.57,3,.89,5.88,1.95,9.09,1.91a13.92,13.92,0,0,0,7.6-2.52c7.22-4.68,12.39-11.19,16.53-18.6,1.26-2.25,1.23-2.35,2.93-.4,5.1,5.83,10.13,11.71,14.84,17.85,2.77,3.61,5.62,7.16,8.21,10.9A43.39,43.39,0,0,1,529.86,691c.07,2.07.26,4.14.37,6.21.21,3.76-.37,7.49-.47,11.24a5.45,5.45,0,0,1-2.67,4.74c-4.45,2.95-8.81,6.06-13.53,8.59-6.06,3.25-12.62,4.91-19.34,6a44.89,44.89,0,0,1-16.42-.25,7.27,7.27,0,0,1-5.72-4.81c-3.24-8-6.59-15.93-9.95-23.88-1.49-3.53-3-7.05-4.64-10.52-2.63-5.56-5.3-11.11-8.08-16.6-2.63-5.2-5.44-10.31-8.57-15.24a10.41,10.41,0,0,0-1.27-1.73,2.18,2.18,0,0,0-3-.24,2,2,0,0,0-.31,2.81c.66,1.18,1.43,2.3,2.1,3.48a400.42,400.42,0,0,1,21.22,44.27c2.73,6.56,5.7,13,8.26,19.65,1.93,5,5.79,7,10.61,7.79,8.33,1.35,16.5.35,24.64-1.71,8.44-2.13,15.83-6.29,22.95-11.1.65-.44,1.31-.86,2.16-1.4.38,1.54-.2,2.8-.47,4-1.8,8.35-4.29,16.53-6.34,24.81a191.07,191.07,0,0,0-4.56,23.23c-.67,5.63-1,11.27-1.46,16.92-1.14,14-.87,28.09-.86,42.15-.64,0-1.27.13-1.9.13h-56c-.56,0-1.11-.08-1.66-.12,1.16-1.41,2.3-2.85,3.5-4.24A93.79,93.79,0,0,0,468,812.7a24.67,24.67,0,0,0,3.34-6.86A4.35,4.35,0,0,0,470,801.1c-1.58-1.24-3.17-.88-4.67.07-1.28.8-2.47,1.76-3.69,2.66-8.06,6-15.92,12.27-24.19,18-3.73,2.59-7.51,5.11-11.27,7.65C419.47,829.67,412.74,829.72,406,829.46Zm105.08-120.7a7.57,7.57,0,0,0-.25-1.07c-2.15-5.76-4.28-11.53-6.46-17.28-3.3-8.66-7.14-17.09-10.91-25.56-.78-1.75-1.68-3.45-2.55-5.16a1.85,1.85,0,0,0-2.46-.88,1.91,1.91,0,0,0-1.33,2.05,7.76,7.76,0,0,0,.95,2.94c.85,1.81,1.8,3.58,2.59,5.41,4.92,11.45,9.54,23,13.73,34.75.76,2.11,1.56,4.2,2.5,6.22a2.13,2.13,0,0,0,2.81,1.19C510.7,711,511.15,710.17,511.08,708.76ZM380.34,579.48a12,12,0,0,0,1.2-.11c5.64-1,11.27-1.9,16.91-2.89a22.05,22.05,0,0,0,3.69-.89,2.36,2.36,0,0,0,1.46-2.93c-.33-1.34-1.38-1.37-2.45-1.3a11.32,11.32,0,0,0-1.65.25c-3.05.56-6.09,1.14-9.13,1.71a113.77,113.77,0,0,1-11.75,1.95,2,2,0,0,0-.39,4A5.87,5.87,0,0,0,380.34,579.48Z"/><path class="cls-1" d="M519.24,829.49c-.15-9.6-.19-19.2.07-28.79.16-6.14.53-12.28,1-18.41A212.37,212.37,0,0,1,528.12,740a188.46,188.46,0,0,0,4.71-19.3c.82-4.87,1.46-9.77,1.8-14.71a86.73,86.73,0,0,0,.32-9.8c-.35-7.83-1-15.6-4.19-22.93a67,67,0,0,0-8.29-13.42c-6.48-8.51-13.22-16.82-20.34-24.81-2.23-2.5-4.41-5-6.62-7.57a7.58,7.58,0,0,1-1.79-4,63.22,63.22,0,0,0-2.52-9.22c-1.7-5.08-3.61-10.08-5.32-15.15-1.07-3.17-1.94-6.42-2.92-9.62a5,5,0,0,1,.62-4.32c4.19-6.9,8.38-13.79,12.39-20.79,3.29-5.77,5.62-12,8.14-18.14,2.37-5.76,4.76-11.51,6.87-17.37a68.21,68.21,0,0,0,2.81-11.13,2.46,2.46,0,0,0-1.66-2.81,2.19,2.19,0,0,0-2.42,1.84c-.55,1.91-.93,3.88-1.43,5.81-1.39,5.35-3.67,10.38-5.81,15.45-2.68,6.33-5.31,12.67-8.14,18.93-3.57,7.88-8.47,15-12.75,22.51a1.12,1.12,0,0,1-1.08.69c-.52-1.85-1-3.77-1.59-5.64C475,562.61,470.83,550.8,466,539.23c-3.95-9.44-8-18.83-12.62-28a289.32,289.32,0,0,0-21.57-35.36,6.77,6.77,0,0,1-1.56-2.65c.57-.5,1.06-.08,1.53.14,12.46,5.8,25.27,10.78,37.64,16.77,8,3.91,16.24,7.54,24.13,11.77,6.61,3.54,13.19,7.15,19.53,11.2a8.34,8.34,0,0,1,3.69,5.09,149.73,149.73,0,0,1,4,21.13c.53,5.15,1.44,10.26,2.11,15.39.46,3.48.81,7,1.17,10.46.46,4.44.91,8.88,1.32,13.32.38,4.21.74,8.43,1.05,12.64q.72,9.68,1.36,19.34c.22,3.26.21,6.53.53,9.8.5,5.16.75,10.34,1.38,15.48.29,2.38.41,4.77.63,7.16.19,2.11.73,2.72,2.79,3.24a15.13,15.13,0,0,1,1,4.36c-1.51.33-2,1.34-2,2.81-.09,2.82.6,5.54,1,8.3a14.19,14.19,0,0,0,3.07,6.91,30.06,30.06,0,0,0,2.5,2.9,9.42,9.42,0,0,1,2.69,7.17c0,4.32-.6,8.59-.85,12.89-.47,7.8-.88,15.62-1,23.44-.13,10.62-.39,21.24.22,31.87.4,7,.62,14,1,21,.37,7.25,1,14.48,1.42,21.72.44,7.73,1.19,15.43,1.69,23.15.13,2.14.32,4.29.55,6.43a73.23,73.23,0,0,1,.81,10.24,15.38,15.38,0,0,1-1.65.17H520.42A11.49,11.49,0,0,1,519.24,829.49Z"/><path class="cls-3" d="M118.23,497.94a34.46,34.46,0,0,1,5.25-2.83c3.54-1.84,7.12-3.62,10.68-5.42,2.08-1.05,2-1,3.56.71,7.27,8,13.54,16.75,20.15,25.25,9.53,12.24,18.37,24.94,26.88,37.9a213.9,213.9,0,0,1,17.88,34.12c4.21,9.93,7.93,20,11.24,30.3a229,229,0,0,1,7,29.79c1.28,7.07,2.4,14.16,3.24,21.28.52,4.43.93,8.88,1.17,13.35.53,9.73.92,19.47.74,29.21-.16,8.38-.39,16.77-1,25.12a317.85,317.85,0,0,1-4.46,34.62c-1.54,8.55-2.71,17.17-4.07,25.76-.59,3.7-1.28,7.38-1.86,11.09a7.54,7.54,0,0,1-.86,1.94c-1.13,2.52-.35,4.42,2.21,5.54-.8,3.44-1.55,6.9-2.45,10.32a13.89,13.89,0,0,0-.41,3.5c-7.86.17-15.72.22-23.58,0a51.76,51.76,0,0,1,2-6.91c4.35-14.46,7.31-29.26,10.36-44,1.32-6.41,1.83-12.95,2.58-19.45.53-4.67.72-9.39,1.17-14.07.74-7.72.93-15.46,1.16-23.2.27-9.5-.18-19-.72-28.49-.44-7.82-1.17-15.6-2-23.38-.87-8-2.11-16-3.59-23.89a329.3,329.3,0,0,0-8.69-35.57,279.79,279.79,0,0,0-16.06-41A230.88,230.88,0,0,0,164,548.3a206,206,0,0,0-25.91-33.49,199.06,199.06,0,0,0-16.61-15.2,4.72,4.72,0,0,0-3.28-1.21A1.77,1.77,0,0,0,118.23,497.94Z"/><path class="cls-2" d="M118.23,498.4a4.72,4.72,0,0,1,3.28,1.21,199.06,199.06,0,0,1,16.61,15.2A206,206,0,0,1,164,548.3a230.88,230.88,0,0,1,11.74,21.16,279.79,279.79,0,0,1,16.06,41,329.3,329.3,0,0,1,8.69,35.57c1.48,7.91,2.72,15.88,3.59,23.89.85,7.78,1.58,15.56,2,23.38.54,9.49,1,19,.72,28.49-.23,7.74-.42,15.48-1.16,23.2-.45,4.68-.64,9.4-1.17,14.07-.75,6.5-1.26,13-2.58,19.45-3.05,14.76-6,29.56-10.36,44a51.76,51.76,0,0,0-2,6.91,19.6,19.6,0,0,1-4.78.07c.4-3.19,1.59-6.16,2.48-9.22a355.7,355.7,0,0,0,9.5-41.48c1.14-6.84,2-13.72,2.85-20.6.54-4.59.72-9.22,1.13-13.83,1.32-14.58,1.11-29.2.84-43.81-.11-6.21-.61-12.42-1.23-18.61-.49-4.84-.87-9.68-1.54-14.5-1.08-7.74-2.3-15.45-3.84-23.11a306.3,306.3,0,0,0-8.91-34q-3.81-11.73-8.63-23.1a236.47,236.47,0,0,0-21.74-40.18A185.29,185.29,0,0,0,135,521.46a155.84,155.84,0,0,0-19-16.76c-2.11-1.55-2-3.27.2-4.66.63-.4,1.27-.71,1.14-1.61l0,0Z"/><path class="cls-2" d="M173.86,829.51a126.4,126.4,0,0,1,.9-13.6c.42-4,.65-7.94,1.06-11.9.51-4.92,1.11-9.82,1.68-14.73s1.17-9.65,1.66-14.48c.51-5,.91-10,1.36-15,0-.23,0-.47,0-.71.16-4.47.59-9,.4-13.4-.45-10.3,0-20.62-.47-30.91-.26-5.67-.23-11.33-.44-17-.28-7.57-.53-15.15-1-22.72-.46-7.88-1.31-15.73-1.67-23.61-.29-6.38-.13-12.79-.11-19.18,0-1.57.82-2.39,2.07-2.41s2.06.75,2.14,2.33.1,3.36.06,5a161.36,161.36,0,0,0,.6,16.75c.53,7.15,1,14.31,1.67,21.45q0,.36,0,.72c0,6.23.45,12.45.68,18.67.23,6,.15,12,.45,18,.69,13.9.42,27.8.38,41.7A178.57,178.57,0,0,1,184,773.07c-.51,4.75-1,9.51-1.52,14.25-.56,4.91-1.21,9.81-1.79,14.72-.37,3.16-.79,6.33-1,9.51-.32,5.81-1.23,11.59-1.12,17.43,0,.16,0,.32,0,.47A17.72,17.72,0,0,1,173.86,829.51Z"/><path class="cls-2" d="M545.23,829.43a73.23,73.23,0,0,0-.81-10.24c-.23-2.14-.42-4.29-.55-6.43-.5-7.72-1.25-15.42-1.69-23.15-.41-7.24-1-14.47-1.42-21.72-.37-7-.59-14-1-21-.61-10.63-.35-21.25-.22-31.87.09-7.82.5-15.64,1-23.44.25-4.3.89-8.57.85-12.89a9.42,9.42,0,0,0-2.69-7.17,30.06,30.06,0,0,1-2.5-2.9,14.19,14.19,0,0,1-3.07-6.91c-.38-2.76-1.07-5.48-1-8.3,0-1.47.5-2.48,2-2.81a3,3,0,0,1,2.06,2.88c.31,2.77.86,5.52,1.36,8.26a8.86,8.86,0,0,0,2.21,4.2,19.4,19.4,0,0,0,1.64,1.75c3.46,3.22,4.72,7.32,4.64,11.91,0,2.55-.23,5.11-.42,7.66a556.91,556.91,0,0,0-.56,74.77c1.08,18.91,2.37,37.81,4,56.69.28,3.18.58,6.36.93,9.54.12,1-.18,1.49-1.25,1.4A17.08,17.08,0,0,1,545.23,829.43Z"/><path class="cls-2" d="M426.21,829.48c3.76-2.54,7.54-5.06,11.27-7.65,8.27-5.73,16.13-12,24.19-18,1.22-.9,2.41-1.86,3.69-2.66,1.5-.95,3.09-1.31,4.67-.07a4.35,4.35,0,0,1,1.34,4.74A24.67,24.67,0,0,1,468,812.7a93.79,93.79,0,0,1-9.57,12.54c-1.2,1.39-2.34,2.83-3.5,4.24a31.63,31.63,0,0,1-6.23,0c1.28-1.52,2.55-3,3.85-4.55,4.53-5.25,9.12-10.45,12.58-16.52a2.19,2.19,0,0,0,.55-1.75c-.67.46-1.21.8-1.72,1.18-4.7,3.56-9.37,7.16-14.11,10.67-5,3.69-10,7.31-15.05,11A59.05,59.05,0,0,1,426.21,829.48Z"/><path class="cls-1" d="M434.83,829.49c5-3.65,10.07-7.27,15.05-11,4.74-3.51,9.41-7.11,14.11-10.67.51-.38,1.05-.72,1.72-1.18a2.19,2.19,0,0,1-.55,1.75c-3.46,6.07-8.05,11.27-12.58,16.52-1.3,1.5-2.57,3-3.85,4.55C444.1,829.66,439.46,829.69,434.83,829.49Z"/><path class="cls-2" d="M156.62,617.45c-1.13.07-1.8-.65-2.43-1.56A73.78,73.78,0,0,0,143.84,604a177.42,177.42,0,0,0-19.79-15.84,268.78,268.78,0,0,0-32.74-19.38,304.21,304.21,0,0,0-45.11-18.6A233.37,233.37,0,0,0,21,543.64a8.79,8.79,0,0,1-1.84-.51,2.11,2.11,0,0,1-1.4-2.27A2.43,2.43,0,0,1,20,538.8a5.74,5.74,0,0,1,1.43.1,257.82,257.82,0,0,1,40.39,11.74,316.32,316.32,0,0,1,31.33,13.79,262.62,262.62,0,0,1,43,26.81,125.2,125.2,0,0,1,14.95,13.42,67.38,67.38,0,0,1,6.55,7.94,8.16,8.16,0,0,1,1.1,2.11A2.11,2.11,0,0,1,156.62,617.45Z"/><path class="cls-2" d="M159.84,609.67a3.84,3.84,0,0,1-2.52-1.51c-2.61-3.1-5.26-6.16-8.13-9a3.69,3.69,0,0,1-1.12-2.06,1.92,1.92,0,0,1,1-2.22,1.78,1.78,0,0,1,2.37.35c1.22,1.25,2.46,2.48,3.66,3.76,2.07,2.2,4.11,4.42,6.15,6.65a4.68,4.68,0,0,1,.69,1A2.1,2.1,0,0,1,159.84,609.67Z"/><path class="cls-2" d="M291.62,780a50.9,50.9,0,0,1-8.42-.43c-3.91-.69-6.88-2.67-7.81-7-1.37-6.31-2.43-12.68-3.58-19-1.66-9.18-3.35-18.35-5.45-27.45a366.21,366.21,0,0,0-12.15-41.57,188.93,188.93,0,0,0-8.64-21.29c-.14-.29-.21-.6-.32-.9a1.93,1.93,0,0,1,.84-2.49,2.07,2.07,0,0,1,2.63.44,9,9,0,0,1,1.82,3.08q3.83,8.66,7.23,17.49a329.38,329.38,0,0,1,12.65,41.92c2.44,10.16,4.37,20.42,6.14,30.72,1,5.81,2.21,11.59,3.27,17.39a4.34,4.34,0,0,0,4,4,59.77,59.77,0,0,0,12.68.21c10.56-.65,20.77-3.34,30.9-6.17A149.46,149.46,0,0,0,346,762.58c4.33-1.86,8.24-4.57,12.43-6.72a5.86,5.86,0,0,0,1.44-1.25,3.82,3.82,0,0,1,2.44-1.38,3.44,3.44,0,0,0,1.5-.69c3.56-2.13,5-5.19,4.93-9.39a174.09,174.09,0,0,0-2.63-25.68c-2.49-14.24-5.92-28.26-9.45-42.26a137.92,137.92,0,0,0-3.82-13.34,6.84,6.84,0,0,1-.53-3.28,1.92,1.92,0,0,1,1.45-1.72,1.83,1.83,0,0,1,2.08.83,7.38,7.38,0,0,1,.84,2c2.88,8.14,4.8,16.55,7.06,24.87,2.45,9,4.43,18.13,6.11,27.31,1.41,7.67,2.87,15.35,3.2,23.2.13,3.11.36,6.21.35,9.33a12.9,12.9,0,0,1-5.6,11c-3.89,2.86-8.15,5-12.28,7.42C343.84,769.59,331,773.1,318,776.21c-3.95.95-7.92,1.83-11.93,2.51A119.12,119.12,0,0,1,291.62,780Z"/><path class="cls-2" d="M321.93,704.29a11.09,11.09,0,0,1-4.11-.73,177.32,177.32,0,0,1-22.64-9.13,99.38,99.38,0,0,1-19.64-11.84,166.43,166.43,0,0,1-17.93-15.85,40.26,40.26,0,0,1-5.39-7.3c-2.15-3.7-.22-5.64,2.39-7.66a2,2,0,0,1,2.89,2.75,5.91,5.91,0,0,1-.62,1c-.74.9-.49,1.67.07,2.6a45.1,45.1,0,0,0,8.82,10.06c3.79,3.42,7.78,6.62,11.68,9.91A78.29,78.29,0,0,0,291,687.05a168.22,168.22,0,0,0,27.24,11.73c4.92,1.62,6.48,1.12,8.78-3.6,3.08-6.32,6.24-12.6,8.94-19.09,3-7.23,5.94-14.48,8.36-21.93a14.74,14.74,0,0,0,.37-9.12c-1.61-5.42-2.81-11-4.71-16.32-1.67-4.72-2-4.85-6.37-2.72a208.42,208.42,0,0,1-25.18,10.52,201.41,201.41,0,0,1-26.86,6.86c-7,1.33-13.93,2.71-20.9,4a11.43,11.43,0,0,1-2.85.22,1.89,1.89,0,0,1-1.87-1.57,1.91,1.91,0,0,1,1.16-2.15,6.6,6.6,0,0,1,2.06-.59c11.88-2.38,23.78-4.67,35.53-7.65a175.28,175.28,0,0,0,31.7-11.48c2.89-1.36,5.77-2.75,8.66-4.1,2.33-1.1,3.78-.83,5.68.87a12.93,12.93,0,0,1,3.31,5.21,63.67,63.67,0,0,1,2.32,7.29c1,3.94,2,7.89,3.15,11.8a14.88,14.88,0,0,1-.29,8.91,239.79,239.79,0,0,1-9.15,24.19A225.63,225.63,0,0,1,330,699.5C327.76,703.35,325.07,704.56,321.93,704.29Z"/><path class="cls-2" d="M374.89,628.89c3.95-.12,6.68,1.89,9.06,4.25a17,17,0,0,1,5.15,11.05c.29,4.23-1.38,8-6.34,9a8.7,8.7,0,0,1-6.37-1.55A17.61,17.61,0,0,1,367.8,638c-.32-3.24.57-6.16,3.5-8.13A5.86,5.86,0,0,1,374.89,628.89Zm9.54,15.22a14.47,14.47,0,0,0-5.89-9.61,6.38,6.38,0,0,0-3.15-1c-1.77-.19-2.83,1.11-2.93,3.3-.18,4.16,3.06,9.37,7,11.22C382.44,649.43,384.45,648.11,384.43,644.11Z"/><path class="cls-2" d="M314.29,537.19c5.41,0,8.79,2.31,11.15,6a12.43,12.43,0,0,1,2.08,9.34c-1.35,7-7.9,9.12-13.16,7a13.82,13.82,0,0,1-8.51-14.4C306.42,540.74,310.09,536.93,314.29,537.19Zm-3.8,9.2a8.92,8.92,0,0,0,5.13,8.52c1.88,1,3.91,1.15,5.63-.3a5.28,5.28,0,0,0,1.67-5.44,9.9,9.9,0,0,0-4.38-6.34,5.38,5.38,0,0,0-5.68-.56A4.25,4.25,0,0,0,310.49,546.39Z"/><path class="cls-2" d="M387.32,771.66c-.24-3.42.55-6.49,3.15-8.9a6.13,6.13,0,0,1,6.15-1.6,17.71,17.71,0,0,0,3.72.79c1.63.08,2.35,1.47,3,2.77a15.44,15.44,0,0,1,1.13,9.11,16.76,16.76,0,0,1-1.7,5.69c-2.58,4.86-8.2,5.81-12.24,2-2.17-2-2.88-4.69-3.19-7.51A21,21,0,0,1,387.32,771.66Zm12.53-.21c0-.5,0-1.06,0-1.62a3.93,3.93,0,0,0-2.88-4.14c-2.18-.81-3.54-.45-4.58,1.61a6.58,6.58,0,0,0-.7,2.27,15.69,15.69,0,0,0,.51,6.17,5.42,5.42,0,0,0,1.34,2.24c1.86,1.85,3.82,1.6,5.06-.69A10.66,10.66,0,0,0,399.85,771.45Z"/><path class="cls-2" d="M328.59,708.58c1.13,0,1.71.65,2.08,2.23,1.3,5.51,2.61,11,3.89,16.53,1.36,5.83,2.67,11.66,4,17.48a17,17,0,0,0,.8,2.76,2.07,2.07,0,0,1-1.08,3,2.41,2.41,0,0,1-3-.77,7,7,0,0,1-1.1-2.89Q330.45,730,326.72,713a7.74,7.74,0,0,1-.24-2.61A1.94,1.94,0,0,1,328.59,708.58Z"/><path class="cls-2" d="M326.45,684.33a8.22,8.22,0,0,1-1.54,5.32c-2.55,3.32-6.25,3.94-9.69,1.53a11,11,0,0,1-4.23-5.64,6.94,6.94,0,0,1,5.21-8.69,7.55,7.55,0,0,1,8.28,2.67A6.65,6.65,0,0,1,326.45,684.33Zm-7.92-3.08c-1.57.07-2.62-.11-3.23,1.09a2.87,2.87,0,0,0,.54,3.3,9.78,9.78,0,0,0,1.83,1.86,2.48,2.48,0,0,0,3.91-1.15A3.49,3.49,0,0,0,318.53,681.25Z"/><path class="cls-4" d="M205,285.94c-2.32,0-2.32,0-2.32,2.16,0,2.89.88,5.65,1.15,8.51.46,4.74,1.38,9.42,1.83,14.17.31,3.27.14,6.55.48,9.79.38,3.5.18,7,.47,10.51.36,4.52.58,9.05,1,13.56a62.42,62.42,0,0,1,.26,10.75c-.51,6.46-.24,12.92-.38,19.38,0,1.76-.11,1.9-2,1.81-2.31-.12-4.6-.38-6.89-.63a65.37,65.37,0,0,0-13.12,0,98.29,98.29,0,0,0-13.87,2.27c-6.12,1.43-12.21,3-18.36,4.32a51.93,51.93,0,0,1-15.91,1.18c-7.24-.7-13.81-3.07-18.94-8.59a48.52,48.52,0,0,1-4.75-5.67,17.88,17.88,0,0,1-2.32-16,45.38,45.38,0,0,1,8.1-14.83c3.88-4.95,8.13-9.6,11.84-14.69a28.69,28.69,0,0,0,5.5-12.09,20.77,20.77,0,0,0-1.9-11.89c-2.12-4.81-5.68-8.48-9.55-11.82-1.87-1.61-3.67-3.31-5.56-4.9a71.33,71.33,0,0,1-15.84-18.08c-3.55-6-6.82-12.11-8-19.08a35.41,35.41,0,0,1,0-10c.31-2.69,1.14-5.35,1.33-8,.23-3,1-5.92,1.28-8.89a14.47,14.47,0,0,1,1-3.45c2.56-7.13,4.19-14.56,6.74-21.69,1-2.86,2.08-5.69,3.17-8.52a71.89,71.89,0,0,0,2.44-8.23c.94-3.87,2.21-7.65,3.07-11.55s1.43-8,1.93-12a109.25,109.25,0,0,0,.79-20.52c-.25-3.88,0-7.82-.76-11.67a1.47,1.47,0,0,1,0-.47c.19-4.08-.47-8.12-.62-12.18-.14-3.83-.41-7.65-.36-11.47a74.13,74.13,0,0,1,5.46-27.72,54.57,54.57,0,0,1,7.08-11.63,79.16,79.16,0,0,1,7.45-8.4A86.32,86.32,0,0,1,153,36.79a111.91,111.91,0,0,1,25.29-10.7c9.07-2.75,18.24-5.12,27.45-7.39s18.66-4.73,28.13-6.49c5.46-1,11-1.82,16.46-2.68,4.08-.63,8.17-1.21,12.26-1.8,1.89-.27,3.81-.31,5.71-.45,2.77-.2,5.55-.5,8.33-.67a110,110,0,0,0,11.17-.84,2,2,0,0,1,.48,0c4.08.24,8.11-.56,12.18-.53A63.62,63.62,0,0,0,310,4.83c2.76-.39,5.57.25,8.34.33,4.79.13,9.53.56,14.3.94A137.69,137.69,0,0,1,358,10.49a115.86,115.86,0,0,1,18.67,6.65,102.25,102.25,0,0,1,15.71,8.59,71.4,71.4,0,0,1,13,12,52.44,52.44,0,0,0,7.17,7,30.14,30.14,0,0,1,2.79,2.63c2.63,2.68,5.71,4.85,8.5,7.33,3.46,3.08,7,6.1,9.64,9.95,1.56,2.28,2.94,4.76,2.87,7.74A5.06,5.06,0,0,1,434.84,76a17.43,17.43,0,0,1-4.33,3.36,58.28,58.28,0,0,0-5.92,4,6.8,6.8,0,0,0-.87.83c-2.26,2.39-2.34,4.52-.07,6.91,1.54,1.63,2.91,3.38,4.28,5.14,2.06,2.66,1.49,5.89-1.9,7.84a29.31,29.31,0,0,1-7.6,2.81c-.08,0-.18,0-.24,0-2.82,1.47-4.42,0-6-2.21A66.06,66.06,0,0,0,405,96.51c-2.09-2.1-4.36-4-6.63-5.85-.86-.71-1-1.08,0-1.76a48.71,48.71,0,0,0,4.72-3.65c2.79-2.54,4.05-5.85,5.09-9.33a1.44,1.44,0,0,0-.72-1.8c-.77-.53-1.41-.14-1.87.47-1,1.34-1.91,2.74-2.88,4.1a26.64,26.64,0,0,1-6.95,7.17,15.1,15.1,0,0,1-7.9,2.4,47.06,47.06,0,0,1-12.36-1,9.6,9.6,0,0,1-2.94-1c-4.7-2.94-9.92-4.76-15-6.89a65.81,65.81,0,0,0-14.08-3.65A94.14,94.14,0,0,0,300.21,78,85.46,85.46,0,0,0,284,84.34a80.65,80.65,0,0,0-14.66,9.84c-6.52,5.58-11.44,12.38-15.8,19.65a43.91,43.91,0,0,0-3.81,9.79c-2,6.55-3.65,13.22-6.37,19.54a41.87,41.87,0,0,1-5.39,8.74q-4.1,5.28-8.65,10.21c-4.36,4.72-9.88,7.75-15.8,10.06a47.5,47.5,0,0,1-14.18,3,48.32,48.32,0,0,1-13.9-1.33c-1.2-.27-2-.15-2.53,1-.66,1.47-.3,2.57,1.26,3a35.84,35.84,0,0,0,8.91,1.52c2.32,0,4.64-.06,7,0a29.82,29.82,0,0,0,6.39-.74c2.52-.46,2.79-.3,2.12,2.09a36.69,36.69,0,0,0-.94,13.78,31.8,31.8,0,0,0,6.2,15.85,62,62,0,0,0,6.18,6.67,41.78,41.78,0,0,1,7.09,9,27.53,27.53,0,0,1,1,25.05,9.59,9.59,0,0,1-.71,1.25c-.27.38-.58.87-1.12.72s-.42-.77-.46-1.22a31.52,31.52,0,0,0-6.42-16.73A34.3,34.3,0,0,0,202,222.94c-7-2.34-14-5-20.89-7.64-1-.37-1.89-.85-2.85-1.25a.63.63,0,0,0-.81.32.64.64,0,0,0,.21.85c1,.64,2,1.25,3.08,1.85,7.52,4.39,15.38,8.15,23.15,12.07a18.37,18.37,0,0,1,4.64,3.14c-1.55.75-2.79,0-3.91-.22a52,52,0,0,0-6.87-.71c-3.42-.22-6.83-.51-10.25-.68-7.8-.39-15.54-1.33-23-3.93a31.16,31.16,0,0,1-9.95-6.06c-4.47-3.84-7.76-8.66-10.89-13.58-4.1-6.47-6.65-13.59-8.68-20.93a13,13,0,0,0-1-2.67,2.76,2.76,0,0,0-3-1.5,3.43,3.43,0,0,0-1.93,3.51,101.78,101.78,0,0,0,3.53,11.42,68.52,68.52,0,0,0,7.28,14.52c4.24,6.54,9.15,12.48,15.67,16.89,1.71,1.15,3.55,2.11,5.31,3.15-1.74,5.13-1.52,10.26-1,15.44.75,7,3.41,13.24,7,19.14a42.13,42.13,0,0,0,9.49,10.66,39.23,39.23,0,0,0,15.32,7.52c3.71.94,7.46.58,11.2.69C203.44,285.58,204.64,284.86,205,285.94Z"/><path class="cls-5" d="M425.43,197.5c.27,2.13.78,4.24,0,6.38-.33,1,.17,1.89.43,2.8,1.3,4.45,3.08,8.74,4.55,13.14s3.27,9,4.11,13.76a13.54,13.54,0,0,1,.19,4.06,146.12,146.12,0,0,1-7.35,31.42c-4.72,13-10.78,25.29-16.66,37.71-7.48,15.82-14.7,31.77-22.06,47.65a7.51,7.51,0,0,1-2.85,3.13,50.4,50.4,0,0,1-17.46,7c-4.69,1.06-9.29.75-14,.11-10.61-1.46-21.22-2.85-31.66-5.31-17.22-4.07-34.1-9.17-50.27-16.44a117,117,0,0,1-30.05-19.08,24.94,24.94,0,0,1-6.72-9.15c-5.44-13-11.45-25.69-17.33-38.48a33.13,33.13,0,0,0-1.78-3.39,2,2,0,0,0-2.39-1.15A1.78,1.78,0,0,0,213,274c.17.79.16,1.41-.73,1.74-5.73,2.12-11.56,3.88-17.77,3.22-6-.63-11.1-3.47-15.6-7.34-8-6.89-12.64-15.74-14.69-26A75,75,0,0,1,163,233.48a1.34,1.34,0,0,1,.44-1.27,74.18,74.18,0,0,0,10.31,2.46,139.16,139.16,0,0,0,17.17,1.66,121.83,121.83,0,0,1,13.62,1,40.28,40.28,0,0,1,9.22,2.54,8.94,8.94,0,0,1,5.19,5.3,27.28,27.28,0,0,1,1.42,15.32,7.73,7.73,0,0,0-.24,1.65,2.1,2.1,0,0,0,1.55,2.18c1.6.39,3.3.45,4.44-1,3.29-4.12,6.55-8.31,8.2-13.43,4.12-12.77,1-23.93-7.74-33.75-1.86-2.09-4-4-5.83-6-8.75-9.62-10.16-20.59-5.95-32.59a4.62,4.62,0,0,1,2.79-2.71c12.71-5.95,23.07-14.53,30.05-26.89a53.65,53.65,0,0,0,4.73-11.25c1.71-5.75,3.48-11.48,5.41-17.15A40.66,40.66,0,0,1,269.56,102a134.17,134.17,0,0,1,12.72-9.78c7-4.84,15-7.45,23.13-9.56a86.25,86.25,0,0,1,37.08-1.23c5.65,1,10.87,3.2,16.06,5.51,2.12.94,4.22,1.91,6.32,2.91A46.74,46.74,0,0,0,381.78,94a23.36,23.36,0,0,0,11.85-2.42c1.83-.87,1.87-.84,3.21.64a201.61,201.61,0,0,1,27.8,39.24,1.74,1.74,0,0,1,.39,1.49c-.72.45-1.6.12-2.42.09-6.94-.22-13.75.48-20.18,3.3-9.7,4.25-14.83,11.77-15.55,22.31-.19,2.65.69,3.22,3.05,2.05a8.53,8.53,0,0,0,1.21-.77,98.64,98.64,0,0,1,23.44-12.42,52.93,52.93,0,0,1,14.48-3.12c2-.16,1.92-.05,2.91,1.7a6,6,0,0,1,.15,5.87,59.88,59.88,0,0,0-3.94,15c-1,6.79-2.21,13.57-2.59,20.44a15.71,15.71,0,0,1-.3,1.64,3,3,0,0,1-.54-.45,21.94,21.94,0,0,0-13.1-8.68,32.59,32.59,0,0,0-23.28,2.64,26.11,26.11,0,0,1-7.76,2.82,4.77,4.77,0,0,1,.37-2.79q2.53-8.62,5.08-17.24a12.77,12.77,0,0,0,.44-1.61c.1-.58-.29-.86-.79-1a.78.78,0,0,0-1,.48,6.36,6.36,0,0,0-.32.64c-2.67,6.16-5.58,12.21-7.52,18.66a16.43,16.43,0,0,0-.51,7.34c.2,1.34.41,2.68.65,4,3.28,18.4,6.6,36.8,10.79,55,.81,3.5.59,4-2.45,5.85-.75.46-1.51.9-2.27,1.34-2.83,1.65-5.78,3.09-8.48,4.94-1.81,1.24-2.33,2.51-1.58,3.74s2.14,1.34,4,.27c2.29-1.3,4.58-2.6,6.86-3.93a55.23,55.23,0,0,0,6.2-4.08,5,5,0,0,0,2.06-5.61c-2.94-13.91-5.71-27.85-8.52-41.79a6.75,6.75,0,0,1-.32-3.06,7.28,7.28,0,0,1,.82.47c6.31,4.81,13.43,6.11,21,4.49,6.86-1.46,12.39-5.3,17-10.47A33.14,33.14,0,0,1,425.43,197.5ZM254.85,154.41a3.19,3.19,0,0,0-1.59,2.36,3,3,0,0,0,2.6-1.9,171.86,171.86,0,0,1,15-9.69,54,54,0,0,1,27.15-6.59c10.83,0,20.74,3.26,30.2,8.25a37,37,0,0,1,10.31,7.71,27.82,27.82,0,0,0,2.1,2c1.14,1.05,2.45.62,3.62.21s.74-1.49.74-2.32c-.06-10.61-4.82-18.32-14.33-23a40.46,40.46,0,0,0-17.42-3.81c-10.88-.21-21.23,2.3-31.26,6.28-4.31,1.71-8.65,3.47-12.32,6.35A102.86,102.86,0,0,0,254.85,154.41Zm50.75,51.87A34.34,34.34,0,0,0,318.49,204,24.7,24.7,0,0,0,328.71,197c2-2.26,2.3-5.31.06-6.79s-4.1-3.84-6.43-5.39a58.57,58.57,0,0,0-5.66-3.12,22.92,22.92,0,0,0-8.41-2.66c-4.92-.43-9.81-1.31-14.76-1.38-2.43,0-4.66.41-5.93,2.78a1.4,1.4,0,0,1-2,.74c-2-.69-4,0-5.83.66a4.24,4.24,0,0,0-2.85,4.06,10.08,10.08,0,0,0,.82,4.44,21.89,21.89,0,0,0,7.78,9.82C291.53,204.53,298.33,206.2,305.6,206.28Zm59.62,46.2a37.59,37.59,0,0,0-8.91,1.8c-1.76.53-3.49,1.14-5.23,1.74-.9.31-1.6.85-1.41,1.92s1,1.35,2,1.43a9.8,9.8,0,0,0,2.85-.33l9.15-1.91c1.13-.24,2.16-.37,2.88.92a1.54,1.54,0,0,0,2.1.61,1.83,1.83,0,0,0,1.06-2.19C369.24,254.35,368.46,252.31,365.22,252.48Zm-19-99.27c0,1.44,0,2.88,0,4.31a2.07,2.07,0,0,0,1.72,2.27,2.22,2.22,0,0,0,2.48-1.46,5.52,5.52,0,0,0,.45-2.34,82.36,82.36,0,0,0-.74-10.28,3.79,3.79,0,0,0-1-2.37,2,2,0,0,0-2.2-.54,1.86,1.86,0,0,0-1.3,1.82,5.22,5.22,0,0,0,.08,1.19A40.84,40.84,0,0,1,346.25,153.21Z"/><path class="cls-5" d="M205,285.94c-.34-1.08-1.54-.36-2.09-1l.76-.59a.73.73,0,0,0,.88-.17,24.3,24.3,0,0,0,8.37-2.77c1.77-.88,1.82-.9,2.61.87,2.93,6.65,5.8,13.34,8.75,20,2.76,6.22,5.58,12.39,8.36,18.59a8.56,8.56,0,0,0,2.47,3.17c1.47,1.21,2.69,2.72,4.08,4,5.42,5.09,11.89,8.63,18.37,12.1a252,252,0,0,0,72.34,25.35c4.79.91,9.61,1.65,14.42,2.42,2.3.38,2.33.34,2.24,2.68-.34,8.86-.73,17.73-.7,26.61,0,6.08.74,12.12,1.33,18.16.71,7.24,1.54,14.46,2.36,21.69a102.38,102.38,0,0,0,2,13,6.15,6.15,0,0,1-.25,3.75c-1,2.69-1.91,5.43-3.05,8.07-3.95,9.18-7.49,18.52-11.32,27.75-.79,1.9-.79,1.89-2.9,1.44a6.75,6.75,0,0,0-1.42-.2c-4.23,0-7.91-1.67-11.56-3.55-2-1-4-1.9-6.09-2.81a5.24,5.24,0,0,0-3.74-.23c-1.38.4-2.78.76-4.15,1.19a1.08,1.08,0,0,0-.86,1.26c.11.69.67.88,1.25.85a24.67,24.67,0,0,0,3.1-.32,3.92,3.92,0,0,1,3.36.8c1.13.9,2.32,1.71,3.44,2.62,4.62,3.73,9.72,6.1,15.84,5.64a3.65,3.65,0,0,1,.95.25c-3,7.85-5.71,15.73-8.28,23.52-.95.29-1.24-.29-1.6-.67a38.29,38.29,0,0,1-3.82-5.21A42.65,42.65,0,0,0,308,501.48a24.41,24.41,0,0,0-5.08-2.67c-15.73-5.56-29.07-14.94-41.44-25.87-6.82-6-13.9-11.77-20.84-17.68a67.24,67.24,0,0,1-7.35-6.87,2.27,2.27,0,0,0-.89-.78c-2.28-.7-3.66-2.55-5.14-4.17a224.22,224.22,0,0,1-19.47-24.32c-1-1.51-1.93-3.12-2.87-4.7a3.26,3.26,0,0,1-.55-2.05c.14-1.22.55-1.43,1.64-.79,2.46,1.45,4.58.61,5.2-2.24.5-2.33.76-4.73,1.09-7.1,1.82-13.19,2-26.45,1.62-39.73-.06-2.56-.15-5.12-.1-7.68.21-9.69-1.15-19.3-1.76-28.94-.44-7.1-.71-14.23-2.17-21.21-1.25-5.94-2.07-12-4.33-17.68C205.36,286.64,205.16,286.29,205,285.94Z"/><path class="cls-1" d="M206.39,390.75a6.06,6.06,0,0,1,.05,3.22,32.18,32.18,0,0,0-.43,4,3,3,0,0,1-1.62,2.74c-1.25.7-2.44,1.52-3.65,2.28a4.08,4.08,0,0,0-2,3.6,20.72,20.72,0,0,0,3.37,11.8,160.26,160.26,0,0,0,11.19,15.83,133.58,133.58,0,0,0,14,16c6.26,5.81,12.42,11.73,18.94,17.26,7.12,6,14.2,12.13,21.68,17.72,5.7,4.24,11.43,8.44,17.14,12.66,3.44,2.55,3.39,2.47-.12,4.79a40,40,0,0,0-9.2,8.66,80.31,80.31,0,0,0-8.5,13.31,8.65,8.65,0,0,0-.71,1.51,2.53,2.53,0,0,0,1,3.15,2.48,2.48,0,0,0,3.22-1.25c.86-1.45,1.61-3,2.43-4.41a64.11,64.11,0,0,1,5.21-8c.34-.43.64-1,1.32-.65s.46,1,.08,1.61A60.51,60.51,0,0,0,272.5,534c-.85,3.25-1,6.62-1.7,9.9s-1.5,6.7-3.63,9.54c-1.37,1.82-2.37,2.26-4.51,1.48a19.36,19.36,0,0,1-6.29-3.86,67.06,67.06,0,0,1-14.52-18.59c-5.58-10.51-11-21.09-17.61-31a151,151,0,0,0-14.84-19.06c-6-6.45-11.9-12.93-17.92-19.32a61.19,61.19,0,0,1-14.39-25.12,6.74,6.74,0,0,1-.33-1.63c-.19-7.92-.09-15.81,1.86-23.55,1.69-6.74,5.44-11.79,11.87-14.75,4.86-2.24,9.64-4.65,14.46-7C205.37,390.77,205.78,390.45,206.39,390.75Zm-4.75,41.72a2.46,2.46,0,0,0-.74-2.23,7,7,0,0,1-1.4-1.92c-1.25-2.41-2.6-4.77-3.79-7.21a39.87,39.87,0,0,1-3.1-7.23,2,2,0,0,0-2.21-1.72,2.39,2.39,0,0,0-2.07,2,4.07,4.07,0,0,0,.46,2.31c2.38,5.58,5.3,10.91,8,16.34a6.83,6.83,0,0,0,.49.82,2.41,2.41,0,0,0,2.77.91A2.23,2.23,0,0,0,201.64,432.47Zm-10-1.21a1.94,1.94,0,0,0-1.9,1.52c-.4,1.39,1,5.26,2.13,6.13a2,2,0,0,0,2.45.08,1.67,1.67,0,0,0,.81-2.05c-.5-1.51-1-3-1.59-4.5A1.78,1.78,0,0,0,191.68,431.26Z"/><path class="cls-4" d="M435.78,260.52c1.11,1.18,1.51,2.6,2.23,3.81a66.94,66.94,0,0,1,8.63,21.42c1.13,5.75,1.38,11.59-.8,17.2a38.06,38.06,0,0,1-8,12.89c-4.32,4.49-8.9,8.71-13.52,12.87a59.25,59.25,0,0,0-9.32,9.88,18,18,0,0,0-3.26,14.25,73.45,73.45,0,0,1,1.37,10.86,13.77,13.77,0,0,1-2.71,8.74,31,31,0,0,1-14.25,11.23A41.85,41.85,0,0,1,379,386.12a48.3,48.3,0,0,1-15.27-3.61,73.84,73.84,0,0,0-11.53-3.91,1.93,1.93,0,0,1-1.8-2.29c.05-2,0-4,0-6,0-1,.42-1.47,1.44-1.42,1.82.1,3.64.18,5.47.32a47.82,47.82,0,0,0,13.35-.42,56.46,56.46,0,0,0,12.23-4,42.2,42.2,0,0,0,7.56-4.56,7.05,7.05,0,0,0,2.07-2.6c3.3-6.66,6.76-13.23,9.91-20,2.66-5.7,5-11.56,7.42-17.37,1.17-2.8,2.65-5.45,4-8.18,2-4.08,4.15-8.09,6-12.23,3.85-8.49,7.18-17.21,10.6-25.88,1.41-3.55,2.65-7.17,4-10.75A5.71,5.71,0,0,1,435.78,260.52Z"/><path class="cls-1" d="M136.49,457.2c2.63,0,5.27,0,7.91,0a98.51,98.51,0,0,1,15.24,1.24c2.35.38,4.77.27,7.15.59a31.61,31.61,0,0,1,4.91,1,2.34,2.34,0,0,1,1.81,2.48c.05,2.23-.74,3.9-2.88,4.77-2.51,1-5.06,1.94-7.56,3-2.2.94-4.37,2-6.52,3-5.68,2.75-11.34,5.55-17,8.29-7.4,3.57-14.49,7.75-21.87,11.37-5.66,2.79-11,6.12-16.71,8.88-3.17,1.54-5,1-6.74-2.06-1.63-2.84-2.87-5.88-4.6-8.68-2.79-4.5-5.74-8.85-10.12-12-8.13-5.87-15.45-6-23.78-1.51s-13.5,11.78-16.24,20.78a9.87,9.87,0,0,0-.67,4.93,2,2,0,0,0,2.12,1.87,2,2,0,0,0,2-2c.6-5.62,3.23-10.29,6.67-14.6a25,25,0,0,1,14.5-9.07c3.89-.89,7.26.22,10.55,2A24.46,24.46,0,0,1,82.6,489c.93,1.31.8,1.6-.65,2.29-4.19,2-8.38,3.94-12.55,5.95Q56.23,503.58,43.07,510c-1.43.7-2.81,1.51-4.22,2.26-1.57.84-2,.64-2.07-1.1a41.63,41.63,0,0,1,.38-7.4c.78-5.69,2.29-11.12,5.53-15.92a37.65,37.65,0,0,1,13.69-12.42,111.09,111.09,0,0,1,13.46-5.67,219.28,219.28,0,0,1,34.08-9.53C114.66,458.07,125.47,456.46,136.49,457.2Zm-10.07,20.14c-1,1.1-1.34,2.23-.79,3.09s1.65.85,2.59.72a6.14,6.14,0,0,0,1.79-.62c4.35-2.2,8.94-3.8,13.44-5.62,1.55-.62,3.13-1.21,4.61-2a2.21,2.21,0,0,0,1.33-2.76,1.93,1.93,0,0,0-2.38-1.46l-.08-1c1.32-.56,2.65-1.11,4-1.7a13.85,13.85,0,0,0,2.33-1.2,2,2,0,0,0,.85-2.52,2.08,2.08,0,0,0-2.06-1.35,6.87,6.87,0,0,0-3,.77q-8.26,3.51-16.53,7c-10.61,4.44-20.87,9.6-31,14.95a9.24,9.24,0,0,0-2.72,1.93,1.77,1.77,0,0,0-.24,2.2,1.88,1.88,0,0,0,2,1.06,3.52,3.52,0,0,0,1.33-.5c2.4-1.26,4.8-2.53,7.22-3.76,5.4-2.73,10.9-5.28,16.42-7.77C125.83,476.87,126.24,476.91,126.42,477.34Z"/><path class="cls-3" d="M394.06,471.33c-.37-.94-1.4-1.2-2-2-1.4-1.83-.95-3.63,1.25-4.7,2.21.25,4.22-.71,6.35-1a23.61,23.61,0,0,1,11.35.67c2.12.72,4.12,1.72,6.21,2.52,2.89,1.11,4.79,3.3,6.6,5.69,5.2,6.9,9.73,14.23,14.33,21.53a238.83,238.83,0,0,1,15,27.8c5.64,12.26,11,24.63,15.43,37.4,1.9,5.51,4.06,10.92,5.7,16.52a4.25,4.25,0,0,1-.49,4.07,14,14,0,0,0-1.25,2.32c-.52,1.06-.79,2.23.14,3.11s2.06.65,3.06-.09a9.45,9.45,0,0,1,.92-.52,302.16,302.16,0,0,0,10.7,32.73c-.55.07-.75.15-.81.09q-8.25-8.68-16.47-17.39c-.22-.23-.34-.58-.6-.74-1.13-.75-1-2.12-1.57-3.13s-2.13-.61-2.85-1.59-1.57-1.66-.89-3,0-2.35-.43-3.44c-1.58-3.84-3.12-7.7-4.81-11.48-3-6.64-5.41-13.49-7.93-20.3-3.14-8.47-6.67-16.76-10.34-25-2.7-6.06-5.27-12.18-8.34-18.05-4.77-9.13-9.33-18.38-15.3-26.83-2.57-3.64-5.16-7.27-8.68-10.15a25.11,25.11,0,0,0-10-4.85c-.13-.27-.28-.32-.47-.05A22.42,22.42,0,0,1,394.06,471.33Z"/><path class="cls-1" d="M351.86,410a1.73,1.73,0,0,1,1.36.81,95.8,95.8,0,0,0,11.66,10.29c3.74,2.88,5.82,6.93,7.57,11.17a91.5,91.5,0,0,1,4.75,17.52c2.47,12.67,4.88,25.35,7.14,38.06,1.32,7.45,2.38,14.95,3.38,22.45a51.08,51.08,0,0,1,.14,9.09,5.83,5.83,0,0,1-.06.72c-.56,3-2,4-4.94,3a18.75,18.75,0,0,1-8.1-5.37c-5.53-6.19-11.13-12.32-17.21-18a47.52,47.52,0,0,0-8.56-6.49,18.42,18.42,0,0,0-2.85-1.23c-1-.35-1.23-.87-.82-1.82,1-2.35,1.95-4.72,2.9-7.09a260.24,260.24,0,0,0,12-38.1,93.85,93.85,0,0,0,1.64-11.34c.34-3.17-.78-6.15-1.23-9.21a2.85,2.85,0,0,0-1.09-1.54,21.75,21.75,0,0,0-5.91-4.43c-.59-.26-1.19-.52-1.26-1.29C352.15,414.85,351.48,412.51,351.86,410Z"/><path class="cls-1" d="M471.29,655.77c-1.79-.49-3.72-1-5.63-1.56-8.49-2.56-16.59-6.17-24.9-9.22a25.87,25.87,0,0,1-13.91-11c-2.28-3.73-5.07-7.16-7.14-11-.15-.29-.37-.53-.5-.82-.62-1.43-.41-2,1.13-2.48,3.69-1.26,7.41-2.48,11.11-3.74A222.82,222.82,0,0,0,452.62,607c3.56-1.63,7.08-3.32,10.63-5,1.58-.74,1.68-.67,2.84.59s2.5,2.69,3.79,4c7.95,8.08,15.47,16.56,23.06,25a2,2,0,0,1,.35,2.54c-1.86,4.68-5,8.53-8.05,12.39a35.51,35.51,0,0,1-9.25,7.84A13.79,13.79,0,0,1,471.29,655.77Zm11.5-17.47a21.34,21.34,0,0,0,0-2.4c-.32-2.61-2.43-3.59-4.57-2.09a5.53,5.53,0,0,1-2.42.9,8,8,0,0,0-5.1,3.31,5.15,5.15,0,0,0,.11,6.23c1.62,1.92,3.74,3.24,6.28,2.72,2.69-.55,4.8-2.07,5.36-5.11A19.44,19.44,0,0,0,482.79,638.3Z"/><path class="cls-6" d="M425.43,197.5a33.14,33.14,0,0,0-3.17,3.53c-4.65,5.17-10.18,9-17,10.47-7.61,1.62-14.73.32-21-4.49a6,6,0,0,0-.82-.46,135.49,135.49,0,0,1-3-15.6c-.25-1.79-.66-3.77.27-5.59a26.11,26.11,0,0,0,7.76-2.82,32.59,32.59,0,0,1,23.28-2.64,21.94,21.94,0,0,1,13.1,8.68,3,3,0,0,0,.54.45,8.06,8.06,0,0,0,.42,1.1A6.71,6.71,0,0,1,425.43,197.5Z"/><path class="cls-4" d="M392.55,154.49a14.93,14.93,0,0,1,3.09-7.1c4.18-5.12,9.76-7.68,16.17-8.84,2.52-.45,5.06-.49,7.57-.75s5.22.24,7.83.46a1.33,1.33,0,0,1,1.21,1c-4.19,1.06-8.54,1.24-12.61,2.68a101.53,101.53,0,0,0-12,5.18A50.31,50.31,0,0,0,392.55,154.49Z"/><path class="cls-1" d="M118.23,498.4l-1,.05a.9.9,0,0,1,1-.51A1.77,1.77,0,0,1,118.23,498.4Z"/><path class="cls-4" d="M204.53,284.18a.73.73,0,0,1-.88.17A.51.51,0,0,1,204.53,284.18Z"/><path class="cls-1" d="M456.93,584.76c.2,0,.3.17.19.28s-.22,0-.26-.2Z"/><path class="cls-1" d="M397.9,471.53c.19-.27.34-.22.47.05Z"/><path class="cls-2" d="M511.08,708.76c.07,1.41-.38,2.21-1.38,2.61a2.13,2.13,0,0,1-2.81-1.19c-.94-2-1.74-4.11-2.5-6.22-4.19-11.73-8.81-23.3-13.73-34.75-.79-1.83-1.74-3.6-2.59-5.41a7.76,7.76,0,0,1-.95-2.94,1.91,1.91,0,0,1,1.33-2.05,1.85,1.85,0,0,1,2.46.88c.87,1.71,1.77,3.41,2.55,5.16,3.77,8.47,7.61,16.9,10.91,25.56,2.18,5.75,4.31,11.52,6.46,17.28A7.57,7.57,0,0,1,511.08,708.76Z"/><path class="cls-2" d="M380.34,579.48a5.87,5.87,0,0,1-2.11-.22,2,2,0,0,1,.39-4,113.77,113.77,0,0,0,11.75-1.95c3-.57,6.08-1.15,9.13-1.71a11.32,11.32,0,0,1,1.65-.25c1.07-.07,2.12,0,2.45,1.3a2.36,2.36,0,0,1-1.46,2.93,22.05,22.05,0,0,1-3.69.89c-5.64,1-11.27,1.94-16.91,2.89A12,12,0,0,1,380.34,579.48Z"/><path class="cls-1" d="M384.43,644.11c0,4-2,5.32-5,3.9-3.93-1.85-7.17-7.06-7-11.22.1-2.19,1.16-3.49,2.93-3.3a6.38,6.38,0,0,1,3.15,1A14.47,14.47,0,0,1,384.43,644.11Z"/><path class="cls-1" d="M310.49,546.39a4.25,4.25,0,0,1,2.37-4.12,5.38,5.38,0,0,1,5.68.56,9.9,9.9,0,0,1,4.38,6.34,5.28,5.28,0,0,1-1.67,5.44c-1.72,1.45-3.75,1.29-5.63.3A8.92,8.92,0,0,1,310.49,546.39Z"/><path class="cls-1" d="M399.85,771.45a10.66,10.66,0,0,1-1.25,5.84c-1.24,2.29-3.2,2.54-5.06.69a5.42,5.42,0,0,1-1.34-2.24,15.69,15.69,0,0,1-.51-6.17,6.58,6.58,0,0,1,.7-2.27c1-2.06,2.4-2.42,4.58-1.61a3.93,3.93,0,0,1,2.88,4.14C399.84,770.39,399.85,771,399.85,771.45Z"/><path class="cls-1" d="M318.53,681.25a3.49,3.49,0,0,1,3.05,5.1,2.48,2.48,0,0,1-3.91,1.15,9.78,9.78,0,0,1-1.83-1.86,2.87,2.87,0,0,1-.54-3.3C315.91,681.14,317,681.32,318.53,681.25Z"/><path class="cls-6" d="M305.6,206.28c-7.27-.08-14.07-1.75-20.06-6.08a21.89,21.89,0,0,1-7.78-9.82,10.08,10.08,0,0,1-.82-4.44,4.24,4.24,0,0,1,2.85-4.06c1.86-.64,3.79-1.35,5.83-.66a1.4,1.4,0,0,0,2-.74c1.27-2.37,3.5-2.82,5.93-2.78,4.95.07,9.84,1,14.76,1.38a22.92,22.92,0,0,1,8.41,2.66,58.57,58.57,0,0,1,5.66,3.12c2.33,1.55,4,3.81,6.43,5.39s2,4.53-.06,6.79A24.7,24.7,0,0,1,318.49,204,34.34,34.34,0,0,1,305.6,206.28Z"/><path class="cls-2" d="M254.85,154.41a102.86,102.86,0,0,1,14.84-14.22c3.67-2.88,8-4.64,12.32-6.35,10-4,20.38-6.49,31.26-6.28a40.46,40.46,0,0,1,17.42,3.81c9.51,4.71,14.27,12.42,14.33,23,0,.83.3,2-.74,2.32s-2.48.84-3.62-.21a27.82,27.82,0,0,1-2.1-2,37,37,0,0,0-10.31-7.71c-9.46-5-19.37-8.2-30.2-8.25a54,54,0,0,0-27.15,6.59,171.86,171.86,0,0,0-15,9.69A.81.81,0,0,1,254.85,154.41Zm84.65-5.73c-1.33-4.57-3.41-8.11-7-10.62-5.69-4-12.18-5.35-19-5.67A54,54,0,0,0,301,133.63C315.26,134.5,327.69,140.18,339.5,148.68Z"/><path class="cls-2" d="M380.61,185.36c-.93,1.82-.52,3.8-.27,5.59a135.49,135.49,0,0,0,3,15.6,6.72,6.72,0,0,0,.32,3c2.81,13.94,5.58,27.88,8.52,41.79a5,5,0,0,1-2.06,5.61,55.23,55.23,0,0,1-6.2,4.08c-2.28,1.33-4.57,2.63-6.86,3.93-1.89,1.07-3.28,1-4-.27s-.23-2.5,1.58-3.74c2.7-1.85,5.65-3.29,8.48-4.94.76-.44,1.52-.88,2.27-1.34,3-1.88,3.26-2.35,2.45-5.85-4.19-18.23-7.51-36.63-10.79-55-.24-1.34-.45-2.68-.65-4a16.43,16.43,0,0,1,.51-7.34c1.94-6.45,4.85-12.5,7.52-18.66a6.36,6.36,0,0,1,.32-.64.78.78,0,0,1,1-.48c.5.16.89.44.79,1a12.77,12.77,0,0,1-.44,1.61Q383.53,174,381,182.57A4.77,4.77,0,0,0,380.61,185.36Z"/><path class="cls-2" d="M365.22,252.48c3.24-.17,4,1.87,4.45,4a1.83,1.83,0,0,1-1.06,2.19,1.54,1.54,0,0,1-2.1-.61c-.72-1.29-1.75-1.16-2.88-.92L354.48,259a9.8,9.8,0,0,1-2.85.33c-.93-.08-1.78-.38-2-1.43s.51-1.61,1.41-1.92c1.74-.6,3.47-1.21,5.23-1.74A37.59,37.59,0,0,1,365.22,252.48Z"/><path class="cls-2" d="M346.25,153.21a40.84,40.84,0,0,0-.54-7.4,5.22,5.22,0,0,1-.08-1.19,1.86,1.86,0,0,1,1.3-1.82,2,2,0,0,1,2.2.54,3.79,3.79,0,0,1,1,2.37A82.36,82.36,0,0,1,350.9,156a5.52,5.52,0,0,1-.45,2.34,2.22,2.22,0,0,1-2.48,1.46,2.07,2.07,0,0,1-1.72-2.27C346.21,156.09,346.25,154.65,346.25,153.21Z"/><path class="cls-1" d="M254.85,154.41a.81.81,0,0,0,1,.46,3,3,0,0,1-2.6,1.9A3.19,3.19,0,0,1,254.85,154.41Z"/><path class="cls-2" d="M201.64,432.47a2.23,2.23,0,0,1-1.59,2.1,2.41,2.41,0,0,1-2.77-.91,6.83,6.83,0,0,1-.49-.82c-2.7-5.43-5.62-10.76-8-16.34a4.07,4.07,0,0,1-.46-2.31,2.39,2.39,0,0,1,2.07-2,2,2,0,0,1,2.21,1.72,39.87,39.87,0,0,0,3.1,7.23c1.19,2.44,2.54,4.8,3.79,7.21a7,7,0,0,0,1.4,1.92A2.46,2.46,0,0,1,201.64,432.47Z"/><path class="cls-2" d="M191.68,431.26a1.78,1.78,0,0,1,1.9,1.18c.57,1.48,1.09,3,1.59,4.5a1.67,1.67,0,0,1-.81,2.05,2,2,0,0,1-2.45-.08c-1.15-.87-2.53-4.74-2.13-6.13A1.94,1.94,0,0,1,191.68,431.26Z"/><path class="cls-2" d="M125.46,476.78c-5.53,2.49-11,5-16.43,7.77-2.42,1.23-4.82,2.5-7.22,3.76a3.52,3.52,0,0,1-1.33.5,1.88,1.88,0,0,1-2-1.06,1.77,1.77,0,0,1,.24-2.2,9.24,9.24,0,0,1,2.72-1.93c10.16-5.35,20.42-10.51,31-14.95q8.26-3.46,16.53-7a6.87,6.87,0,0,1,3-.77,2.08,2.08,0,0,1,2.06,1.35,2,2,0,0,1-.85,2.52,13.85,13.85,0,0,1-2.33,1.2c-1.31.59-2.64,1.14-4,1.7a4.19,4.19,0,0,0-1.82.52c-3.44,1.45-6.91,2.85-10.34,4.33C131.64,473.91,128.45,475.12,125.46,476.78Z"/><path class="cls-2" d="M147,468.72a1.93,1.93,0,0,1,2.38,1.46,2.21,2.21,0,0,1-1.33,2.76c-1.48.76-3.06,1.35-4.61,2-4.5,1.82-9.09,3.42-13.44,5.62a6.14,6.14,0,0,1-1.79.62c-.94.13-2,.28-2.59-.72s-.25-2,.79-3.09a4.32,4.32,0,0,0,2.46-.77c1.87-.87,3.72-1.8,5.62-2.61C138.65,472.18,142.84,470.46,147,468.72Z"/><path class="cls-4" d="M147,468.72c-4.17,1.74-8.36,3.46-12.51,5.24-1.9.81-3.75,1.74-5.62,2.61a4.32,4.32,0,0,1-2.46.77c-.18-.43-.59-.47-1-.56,3-1.66,6.19-2.87,9.32-4.23,3.43-1.48,6.9-2.88,10.34-4.33a4.19,4.19,0,0,1,1.82-.52C147,468,147,468.38,147,468.72Z"/><path class="cls-2" d="M482.79,638.3a19.44,19.44,0,0,1-.35,3.56c-.56,3-2.67,4.56-5.36,5.11-2.54.52-4.66-.8-6.28-2.72a5.15,5.15,0,0,1-.11-6.23,8,8,0,0,1,5.1-3.31,5.53,5.53,0,0,0,2.42-.9c2.14-1.5,4.25-.52,4.57,2.09A21.34,21.34,0,0,1,482.79,638.3Zm-6.65,4.34a2.26,2.26,0,0,0,1.95-1.88c.12-.61.5-1.27-.07-1.78-.86-.76-1.62,0-2.4.3a2.73,2.73,0,0,0-.62.35,1.44,1.44,0,0,0-.72,1.81A2.13,2.13,0,0,0,476.14,642.64Z"/><path class="cls-4" d="M339.5,148.68c-11.81-8.5-24.24-14.18-38.55-15.05a54,54,0,0,1,12.58-1.24c6.79.32,13.28,1.69,19,5.67C336.09,140.57,338.17,144.11,339.5,148.68Z"/><path class="cls-1" d="M476.14,642.64a2.13,2.13,0,0,1-1.86-1.2,1.44,1.44,0,0,1,.72-1.81,2.73,2.73,0,0,1,.62-.35c.78-.3,1.54-1.06,2.4-.3.57.51.19,1.17.07,1.78A2.26,2.26,0,0,1,476.14,642.64Z"/></g></g></svg>