<svg xmlns="http://www.w3.org/2000/svg" viewBox="0 0 550.01 829.56"><defs><style>.cls-1{fill:#070604;}.cls-2{fill:#6c6329;}.cls-3{fill:#8a671a;}.cls-4{fill:#4a2111;}.cls-5{fill:#e8a455;}.cls-6{fill:#fff;}.cls-7{fill:#2e5d28;}</style></defs><g id="Layer_2" data-name="Layer 2"><g id="Layer_1-2" data-name="Layer 1"><path class="cls-1" d="M426.31,829.42c.87-1.22,2.24-1.78,3.43-2.53,6.65-4.15,12.9-8.86,19.15-13.56,4.79-3.6,9.53-7.25,14.31-10.85a13.62,13.62,0,0,1,3-1.9,3.59,3.59,0,0,1,5.16,3.15,10.61,10.61,0,0,1-1.6,5.7c-2.79,5.34-6.58,10-10.44,14.56-1.47,1.75-3.26,3.27-4.3,5.37a31.64,31.64,0,0,1-6.23.08c1.36-2.57,3.64-4.41,5.45-6.61,3.74-4.56,7.65-9,10.6-14.13.29-.5.87-1,.45-1.67a1.2,1.2,0,0,0-.89.37C457,813,449.63,818.74,442,824.16c-2.38,1.7-5,3.16-7.09,5.22A59.18,59.18,0,0,1,426.31,829.42Z"/><path class="cls-2" d="M434.94,829.38c2.13-2.06,4.71-3.52,7.09-5.22,7.6-5.42,14.94-11.17,22.41-16.76a1.2,1.2,0,0,1,.89-.37c.42.69-.16,1.17-.45,1.67-2.95,5.14-6.86,9.57-10.6,14.13-1.81,2.2-4.09,4-5.45,6.61C444.2,829.53,439.57,829.64,434.94,829.38Z"/><path class="cls-2" d="M184.59,829.42a36.79,36.79,0,0,1-6.21,0c.18-3.1.31-6.21.56-9.31.41-5.08.87-10.17,1.38-15.24.35-3.41.81-6.8,1.22-10.21.54-4.5,1.11-9,1.6-13.52.42-3.89.67-7.79,1.11-11.67a158.35,158.35,0,0,0,1.21-16.68c.1-10.38.29-20.77-.3-31.15-.33-5.66,0-11.33-.43-17-.39-5.17-.26-10.37-.48-15.55-.23-5.67-.71-11.32-.69-17,0-.31,0-.63-.07-1-.44-5.64-.81-11.29-1.33-16.93-.58-6.37-.4-12.76-.53-19.15,0-1.19-.23-2.38-.34-3.57a1.68,1.68,0,0,0-1.9-1.69c-1.26,0-1.84.51-2,1.86a15.64,15.64,0,0,0,0,1.68c-.2,12.7.34,25.37,1.4,38,.59,7,.73,14,1,21,.19,4.3.12,8.61.4,12.92.38,5.89.3,11.81.46,17.72.28,10.46.14,20.93.09,31.4,0,3.11-.3,6.22-.57,9.32-.37,4.28-.82,8.56-1.27,12.84-.4,3.8-.86,7.6-1.3,11.4-.52,4.51-1.06,9-1.59,13.53q-.7,6.06-1.13,12.14c-.35,5.25-.84,10.49-1.27,15.73-.79,0-1.58.12-2.38.12H16.72c-.8,0-1.59-.07-2.38-.11a17.71,17.71,0,0,0-.92-4.2A58.66,58.66,0,0,1,11,807.73c0-2.63.28-5.26.3-7.89.11-16,0-31.94,1-47.9.46-7.57.2-15.17.43-22.75.45-14.69-.11-29.4.64-44.09.06-1.11.14-2.22.27-3.33.42-3.57.15-7-2.21-10-1.27-1.63-2.28-3.46-3.51-5.14a3.39,3.39,0,0,1-.54-3.35,59.14,59.14,0,0,0,1.91-7.66c.34-1.72.54-3.46,1.75-4.88a3.45,3.45,0,0,0,.45-2.31c0-2.56-.21-5.1-.49-7.64-.46-4.28-.64-8.59-1.1-12.87-.61-5.71-1-11.43-1.41-17.16-.29-4.53-.51-9.08-1-13.59-.77-6.82-1.38-13.64-1.9-20.47-.21-2.79-.22-5.59-.5-8.36a112.3,112.3,0,0,1,.23-22,29.2,29.2,0,0,1,1.79-7.43,11.81,11.81,0,0,1,5.3-6.27c3.79-2.21,7.62-4.36,11.42-6.56,7.38-4.3,14.74-8.64,22.39-12.45,3.93-2,7.92-3.8,11.85-5.75,7.52-3.73,15-7.51,22.52-11.25,1.21-.6,2.44-1.18,3.7-1.68,1.66-.66,1.7-.63,2.54,1a78.92,78.92,0,0,0,3.73,7c2,3,4.61,4.9,8.37,4.5a10.62,10.62,0,0,0,6.9-2.94,5,5,0,0,1,1.14-.86q4-2.17,8-4.31c.63-.32,1.25-.77,2-.44.06,1-.82,1-1.39,1.42-1.48,1-1.68,2.27-.54,3.62a5.35,5.35,0,0,0,1.07.94A119.75,119.75,0,0,1,128.5,515a176.27,176.27,0,0,1,20.23,22.33,225.78,225.78,0,0,1,14.64,21.87,234.77,234.77,0,0,1,14.36,28.68A290.11,290.11,0,0,1,192.2,632c2.09,8.61,3.92,17.27,5.27,26,1.32,8.57,2.37,17.19,3.1,25.85.66,7.88,1,15.77,1.23,23.65.32,10.78-.11,21.55-.72,32.31q-.59,10.05-1.68,20-1.23,11.4-3.28,22.7c-2.21,12.09-5,24.05-8.35,35.86ZM20.75,538.74c-1.94-.06-2.88.58-3,1.93a2.47,2.47,0,0,0,2.12,2.74c.23.06.48.06.71.11,2.5.52,5,1,7.49,1.57a282,282,0,0,1,51.9,18.19,294.36,294.36,0,0,1,34.39,18.46,192.49,192.49,0,0,1,24.75,18c5.48,4.8,10.71,9.83,14.88,15.85a7,7,0,0,0,1,1.07,2.2,2.2,0,0,0,2.85.36,2.33,2.33,0,0,0,.95-2.53,3.83,3.83,0,0,0-1-1.89c-1.57-2-3.09-4.08-4.8-6a133.91,133.91,0,0,0-18-16.47A254.42,254.42,0,0,0,99.8,567.84,326.58,326.58,0,0,0,54.67,548a281.9,281.9,0,0,0-30.62-8.64C22.88,539.08,21.7,538.91,20.75,538.74ZM150,594.47a1.84,1.84,0,0,0-1.79,1.57,2.88,2.88,0,0,0,.72,2.65c2.94,3.22,5.86,6.47,8.79,9.71a4,4,0,0,0,1.57,1.05,1.94,1.94,0,0,0,2.36-.59,2.06,2.06,0,0,0,.17-2.45,5,5,0,0,0-.77-.9q-4.6-5-9.2-10A3.17,3.17,0,0,0,150,594.47Z"/><path class="cls-2" d="M401,829.38c-.87,0-1.75.13-2.62.13H215.77c-1,0-1.91-.07-2.86-.11,0-2,.85-3.83,1.2-5.76.5-2.7,1.7-5.26,1.66-8.07,1.87-.12,2.59-1.37,2.87-3,1.27-7.54,2.55-15.08,3.77-22.64,1.53-9.44,3-18.9,4.52-28.34,1.19-7.24,2-14.52,2.63-21.83.47-6,.79-12,.94-17.93.33-13.42.23-26.85-.46-40.26-.19-3.74-.51-7.49-1-11.2q-1-7.59-2.18-15.14c-1.33-8.43-2.83-16.83-4.77-25.14a242.49,242.49,0,0,0-8.78-28.1q-5.69-15.54-12.87-30.43c-6.94-14.38-16.24-27.29-25.15-40.45-4.39-6.48-9.41-12.49-14.09-18.76-5.35-7.16-10.65-14.36-16.8-20.88-1.15-1.22-2.21-2.51-3.35-3.74-.75-.81-.63-1.39.33-1.85.5-.25,1-.52,1.5-.76,3.6-1.72,7.27-3.33,10.8-5.19A117.24,117.24,0,0,1,171,472.25a22.52,22.52,0,0,0,2.18-1,8.47,8.47,0,0,0,4.47-5.08c1.79-5,.28-9.91-5.82-11.06-2.66-.5-5.35-.85-8-1.22a3,3,0,0,1-2.64-2.09,16.12,16.12,0,0,1-1-4.91,3.31,3.31,0,0,1,1.91-3.27,25.42,25.42,0,0,1,9.85-2.74,1.54,1.54,0,0,1,1.87,1.08c.22.68.49,1.35.74,2a61.15,61.15,0,0,0,11.6,20q8.25,9.18,16.72,18.15a157.74,157.74,0,0,1,17.85,22.46c5.82,9,10.83,18.45,15.82,27.91,4,7.61,8.74,14.66,15.08,20.57a33.06,33.06,0,0,0,9.31,6.22c3.83,1.67,7.37.62,9.88-2.8a24.6,24.6,0,0,0,4-8.88c.76-3.1,1-6.29,1.61-9.42A51.56,51.56,0,0,1,286,516a18.13,18.13,0,0,1,11.46-7.19,10.74,10.74,0,0,1,6.08.5,21,21,0,0,1,6.31,4.26c3.05,2.65,5.27,6,7.57,9.25.94,1.32,1.79,2.64,3.58,2.87a2,2,0,0,1,1.14.81c2,2.29,4,4.54,6,6.88a10.6,10.6,0,0,1,2.64,4.5,29.51,29.51,0,0,0,5,10.78c8.18,11.91,16.57,23.67,25,35.42A4.59,4.59,0,0,1,362,586.6c-3.13.12-6.13.3-9.12.46L335,588c-8.53.46-17.07.66-25.6,1-3.84.16-7.65-.41-11.48-.46a63.39,63.39,0,0,1-7.15-.57,89.61,89.61,0,0,1-19.32-4.41,5.48,5.48,0,0,0-2.59-.33,1.82,1.82,0,0,0-1.25,3,3.17,3.17,0,0,0,1.56,1.06c1.34.51,2.68,1,4.05,1.49,10.73,3.45,21.82,4.55,33,4.89,6.79.21,13.56-.53,20.35-.48l.48,0c7.41-.44,14.81-1,22.22-1.28,4.62-.18,9.24-.51,13.87-.71a3.87,3.87,0,0,1,4,2.09c4.78,7.37,9.66,14.67,15,21.66,9,11.76,17.6,23.73,25,36.52a144.3,144.3,0,0,1,13.63,30.31,64,64,0,0,1,3.16,15.92,127.74,127.74,0,0,1-.27,17.71c-.59,6.45-1.52,12.83-2.71,19.17C419,744.83,416.44,754.88,414,765c-4.15,17.3-8.7,34.5-11.44,52.1C402,821.16,401.35,825.26,401,829.38ZM290.33,780a117.19,117.19,0,0,0,18.29-1.8,258.67,258.67,0,0,0,31.4-8.41,107.94,107.94,0,0,0,19.22-9.09,61.16,61.16,0,0,0,9.8-6.41,10.59,10.59,0,0,0,3.62-5.49,22,22,0,0,0,.75-7.82c-.19-1.67-.2-3.34-.35-5-.32-3.73-.6-7.47-1.1-11.18-.81-6.09-2-12.11-3.21-18.13a410.63,410.63,0,0,0-12.35-47.44,10.4,10.4,0,0,0-.61-1.55,1.73,1.73,0,0,0-1.81-.91,1.87,1.87,0,0,0-1.64,1.2,3.19,3.19,0,0,0,.05,2.55c2.92,8.8,4.95,17.83,7.21,26.8q4.11,16.37,6.89,33c.67,4,1.26,8,1.56,12.09a108.79,108.79,0,0,1,.68,11.69c-.12,3.18-1.15,5.84-4,7.7-1.9,1.24-4.34,1.63-5.74,3.64-4.93,2.62-9.58,5.78-14.82,7.81a224.13,224.13,0,0,1-34.43,10,96.52,96.52,0,0,1-23.31,2,12.75,12.75,0,0,1-2.13-.24c-3.38-.7-4.06-1.42-4.72-4.78-2.33-11.89-4.2-23.86-6.65-35.73A391.31,391.31,0,0,0,263,696c-2.83-9-6.16-17.8-9.86-26.47a84.46,84.46,0,0,0-3.84-8.51,2.3,2.3,0,0,0-3.21-1.16c-1,.61-1.3,1.81-.68,3.18.37.8.85,1.54,1.2,2.34C250,673.1,252.94,681,255.72,689a363,363,0,0,1,10.93,38.68q2.48,11,4.39,22c1.29,7.54,2.82,15,4.22,22.56.88,4.71,4.3,6.55,7.91,7.2A39.89,39.89,0,0,0,290.33,780Zm31.82-75.75c3.05.24,5.38-1.14,7.08-3.79a34.17,34.17,0,0,0,2.33-3.91c3.24-6.77,6.57-13.5,9.47-20.43a221.15,221.15,0,0,0,8.23-22.47c.62-2.1,1.21-4.24.68-6.36-1.8-7.36-3.53-14.75-6.22-21.86a14,14,0,0,0-2.17-3.71c-1.81-2.26-3.87-2.8-6.53-1.62-3.64,1.63-7.24,3.36-10.87,5a169.27,169.27,0,0,1-31.36,11c-10.46,2.52-21,4.69-31.57,6.72a35.46,35.46,0,0,0-4,.9,1.94,1.94,0,0,0,.46,3.82,9.06,9.06,0,0,0,2.38-.11c6.5-1.22,13-2.48,19.49-3.7a209.48,209.48,0,0,0,26.47-6.51,200.93,200.93,0,0,0,28.08-11.61c3.52-1.77,4-1.59,5.4,2.07,2.3,6,3.64,12.23,5.31,18.39a12.08,12.08,0,0,1-.3,7,257.25,257.25,0,0,1-14.32,35.26,89.19,89.19,0,0,1-4.13,8.38c-1.8,2.9-3.12,3.44-6.41,2.39-3.49-1.11-7-2.31-10.41-3.59-3.9-1.44-7.57-3.42-11.37-5.08a97.15,97.15,0,0,1-17.6-10.15,149,149,0,0,1-12.73-10.52A62.62,62.62,0,0,1,257.42,659c-1-1.46-1.51-2.67-.19-4.19a2,2,0,0,0-.05-2.84,2.27,2.27,0,0,0-3.07,0c-2.81,2.17-3.83,4.48-1.84,7.62a44.79,44.79,0,0,0,5.49,7.24c3.74,3.84,7.77,7.34,11.79,10.88a104.13,104.13,0,0,0,22.57,15.22,172.71,172.71,0,0,0,23.83,10A17.87,17.87,0,0,0,322.15,704.22Zm45.58-67c.5,6.67,3.54,11.91,9.53,14.94,6.82,3.45,11.9-1.47,11.73-7.43a17.82,17.82,0,0,0-11-15.45,7.37,7.37,0,0,0-6.68.54C368.55,631.46,367.69,634.08,367.73,637.18Zm-40.19-86.56A13.13,13.13,0,0,0,318,537.54c-7.58-1.92-12.61,3.05-12.31,9.84.25,5.5,3.21,9.52,8.33,11.91C321,562.56,328,557.06,327.54,550.62Zm77.17,220.56c-.32-2.68-.56-5.23-1.93-7.49-.71-1.15-1.54-2-3-1.87a5.79,5.79,0,0,1-2.32-.5c-4-1.22-7.09.09-9,3.82-2.36,4.72-1.89,9.54.28,14.08a7.68,7.68,0,0,0,7.34,4.54c3.32-.06,5.41-2,6.84-4.84C404.17,776.43,404.31,773.71,404.71,771.18Zm-65.21-23a2,2,0,0,0-.1-.47,64.71,64.71,0,0,1-2-8.35c-2.23-9.37-4.43-18.75-6.66-28.12a7,7,0,0,0-.52-1.58,2,2,0,0,0-2.41-1.09,1.63,1.63,0,0,0-1.26,1.8,13.27,13.27,0,0,0,.28,3.32c1.07,4.66,2.13,9.31,3.16,14q2.18,9.78,4.29,19.59a4.56,4.56,0,0,0,1.73,3,2.24,2.24,0,0,0,2.49.11A2,2,0,0,0,339.5,748.17Zm-13-63.66c0-.29-.1-.85-.22-1.39-1.17-4.85-5.08-7.23-10.28-6.26a6.72,6.72,0,0,0-5.39,6.17c-.37,3.65,3.45,8.14,6.31,9.07a6.53,6.53,0,0,0,7.38-1.86A9.93,9.93,0,0,0,326.53,684.51Z"/><path class="cls-1" d="M401,829.38c.4-4.12,1-8.22,1.64-12.32,2.74-17.6,7.29-34.8,11.44-52.1,2.41-10.08,5-20.13,6.89-30.33,1.19-6.34,2.12-12.72,2.71-19.17a127.74,127.74,0,0,0,.27-17.71,64,64,0,0,0-3.16-15.92,144.3,144.3,0,0,0-13.63-30.31c-7.44-12.79-16.08-24.76-25-36.52-5.33-7-10.21-14.29-15-21.66a3.87,3.87,0,0,0-4-2.09c-4.63.2-9.25.53-13.87.71-7.41.29-14.81.84-22.22,1.28l-.48,0c-6.79,0-13.56.69-20.35.48-11.2-.34-22.29-1.44-33-4.89-1.37-.45-2.71-1-4.05-1.49a3.17,3.17,0,0,1-1.56-1.06,1.82,1.82,0,0,1,1.25-3,5.48,5.48,0,0,1,2.59.33A89.61,89.61,0,0,0,290.72,588a63.39,63.39,0,0,0,7.15.57c3.83,0,7.64.62,11.48.46,8.53-.36,17.07-.56,25.6-1l17.92-1c3-.16,6-.34,9.12-.46a4.59,4.59,0,0,0-1.21-2.54c-8.42-11.75-16.81-23.51-25-35.42a29.51,29.51,0,0,1-5-10.78,10.6,10.6,0,0,0-2.64-4.5c-1.93-2.34-4-4.59-6-6.88a2,2,0,0,0-1.14-.81c-1.79-.23-2.64-1.55-3.58-2.87-2.3-3.26-4.52-6.6-7.57-9.25a21,21,0,0,0-6.31-4.26,10.74,10.74,0,0,0-6.08-.5A18.13,18.13,0,0,0,286,516a51.56,51.56,0,0,0-9.66,22.19c-.57,3.13-.85,6.32-1.61,9.42a24.6,24.6,0,0,1-4,8.88c-2.51,3.42-6,4.47-9.88,2.8a33.06,33.06,0,0,1-9.31-6.22c-6.34-5.91-11.07-13-15.08-20.57-5-9.46-10-18.91-15.82-27.91a157.74,157.74,0,0,0-17.85-22.46q-8.47-9-16.72-18.15a61.15,61.15,0,0,1-11.6-20c-.25-.67-.52-1.34-.74-2a1.54,1.54,0,0,0-1.87-1.08,25.42,25.42,0,0,0-9.85,2.74,3.31,3.31,0,0,0-1.91,3.27,16.12,16.12,0,0,0,1,4.91,3,3,0,0,0,2.64,2.09c2.68.37,5.37.72,8,1.22,6.1,1.15,7.61,6,5.82,11.06a8.47,8.47,0,0,1-4.47,5.08,22.52,22.52,0,0,1-2.18,1,117.24,117.24,0,0,0-17.26,7.68c-3.53,1.86-7.2,3.47-10.8,5.19-.5.24-1,.51-1.5.76-1,.46-1.08,1-.33,1.85,1.14,1.23,2.2,2.52,3.35,3.74,6.15,6.52,11.45,13.72,16.8,20.88,4.68,6.27,9.7,12.28,14.09,18.76,8.91,13.16,18.21,26.07,25.15,40.45q7.2,14.88,12.87,30.43a242.49,242.49,0,0,1,8.78,28.1c1.94,8.31,3.44,16.71,4.77,25.14q1.2,7.56,2.18,15.14c.48,3.71.8,7.46,1,11.2.69,13.41.79,26.84.46,40.26-.15,6-.47,12-.94,17.93-.58,7.31-1.44,14.59-2.63,21.83-1.55,9.44-3,18.9-4.52,28.34-1.22,7.56-2.5,15.1-3.77,22.64-.28,1.63-1,2.88-2.87,3-2.34-1.28-3.18-3-2-5.29a19.06,19.06,0,0,0,1.52-5.75c2-12.44,3.86-24.91,6-37.33a323.31,323.31,0,0,0,4.08-35.65c.3-5.18.46-10.37.52-15.56q.12-10.68,0-21.35c-.05-4.15-.2-8.31-.52-12.45-.62-8.11-1.45-16.2-2.76-24.24-1.36-8.35-2.77-16.69-4.65-24.94a222.6,222.6,0,0,0-8.18-27q-5.58-15.32-12.46-30.1c-7.59-16.23-18-30.74-28.22-45.3-5.74-8.16-12-15.94-18-23.93-4.11-5.51-8.51-10.78-13.12-15.88-2.32-2.56-1.69-2.25-4.5-.83-4.36,2.19-8.68,4.44-13,6.68a7.19,7.19,0,0,0-2.06,1.19c-.39.07-.78.13-.91.6l0,0c-.32,0-.51.15-.5.5l0,0c-.78-.33-1.4.12-2,.44q-4,2.13-8,4.31a5,5,0,0,0-1.14.86,10.62,10.62,0,0,1-6.9,2.94c-3.76.4-6.4-1.47-8.37-4.5a78.92,78.92,0,0,1-3.73-7c-.84-1.62-.88-1.65-2.54-1-1.26.5-2.49,1.08-3.7,1.68-7.51,3.74-15,7.52-22.52,11.25-3.93,1.95-7.92,3.79-11.85,5.75-7.65,3.81-15,8.15-22.39,12.45-3.8,2.2-7.63,4.35-11.42,6.56a11.81,11.81,0,0,0-5.3,6.27,29.2,29.2,0,0,0-1.79,7.43,112.3,112.3,0,0,0-.23,22c.28,2.77.29,5.57.5,8.36.52,6.83,1.13,13.65,1.9,20.47.5,4.51.72,9.06,1,13.59.38,5.73.8,11.45,1.41,17.16.46,4.28.64,8.59,1.1,12.87.28,2.54.46,5.08.49,7.64a3.45,3.45,0,0,1-.45,2.31c-1.21,1.42-1.41,3.16-1.75,4.88a59.14,59.14,0,0,1-1.91,7.66,3.39,3.39,0,0,0,.54,3.35c1.23,1.68,2.24,3.51,3.51,5.14,2.36,3,2.63,6.43,2.21,10-.13,1.11-.21,2.22-.27,3.33-.75,14.69-.19,29.4-.64,44.09-.23,7.58,0,15.18-.43,22.75-1,16-.88,31.93-1,47.9,0,2.63-.26,5.26-.3,7.89a58.66,58.66,0,0,0,2.42,17.47,17.71,17.71,0,0,1,.92,4.2c-4.59.4-4.55.39-5.71-3.9A67.27,67.27,0,0,1,6.4,807.73c0-22.55.84-45.08,1.41-67.62.35-13.9.3-27.82.5-41.73.09-5.59.06-11.2.67-16.77a11.24,11.24,0,0,0-2.36-8.74c-1.1-1.36-2-2.91-2.95-4.37a6.12,6.12,0,0,1-.86-5.68A106.93,106.93,0,0,0,6.44,647.2a19.61,19.61,0,0,0,0-5c-.88-10.43-1.9-20.85-2.64-31.29-1-14-2.65-27.85-3.45-41.82A124.89,124.89,0,0,1,1,543.94c.18-1.26.48-2.51.77-3.75a17.44,17.44,0,0,1,8.11-11.38c6.61-4,13.42-7.76,20.07-11.74,2.93-1.75,2.6-.88,2.37-4.64-.62-10.08,1.14-19.62,7-28.06A41.27,41.27,0,0,1,53,471.84c5.73-3.25,11.92-5.42,18.1-7.59a241.67,241.67,0,0,1,39.66-10.08c14.47-2.46,29-1.81,43.52-1.23,2.23.09,2.23.14,1.74-2.09a17.6,17.6,0,0,1-.59-4.74,7.17,7.17,0,0,1,3.75-6.29,24.41,24.41,0,0,1,9.69-3.28c3.44-.33,2.82-.36,3-3.28.27-5.91.35-11.83,1.3-17.69a40.14,40.14,0,0,1,2.81-9.39,22.08,22.08,0,0,1,11-11.57c3.59-1.74,7.24-3.37,10.84-5.09,2.81-1.34,5.59-2.75,8.41-4.08a2.07,2.07,0,0,0,1.37-2c0-1.68,0-1.77-1.81-2.08-11.77-2.07-23.39-1.14-34.92,1.76-7.12,1.8-14.22,3.74-21.52,4.75-7,1-14,1-20.88-1.25-9.77-3.18-16.49-9.85-20.93-18.89-2.39-4.87-2.28-10.05-.79-15.22a50.56,50.56,0,0,1,9.74-17.75c2.86-3.54,5.8-7,8.69-10.54a43.69,43.69,0,0,0,5.05-7.56c3.55-6.85,2.31-13.16-2.15-19a53.92,53.92,0,0,0-7.25-7.32c-3.15-2.83-6.38-5.57-9.45-8.49A74,74,0,0,1,94,256.1a44,44,0,0,1-2.6-23.55c1.11-7.58,2.13-15.2,4.44-22.55,1.83-5.78,3.86-11.51,5.69-17.29,3-9.53,6.53-18.9,8.68-28.67,2.5-11.4,2.9-23,2.32-34.59-.44-8.94-1.21-17.86-1.52-26.81a87.84,87.84,0,0,1,3.25-28c3.36-11.45,10-20.8,18.54-28.93,11.84-11.35,25.95-18.84,41.52-23.58A603.83,603.83,0,0,1,235.22,7a345.34,345.34,0,0,1,46.37-5.64C292.52.7,303.44-.2,314.4,0c15.13.34,30.16,1.61,44.83,5.65a129.57,129.57,0,0,1,31.93,13.44,72.94,72.94,0,0,1,16.37,13.92C413.87,40,421,46,428.18,52c3.74,3.13,7.4,6.34,10.1,10.49A19.84,19.84,0,0,1,441.41,70c.81,4.73-.53,8.71-4.45,11.62-1.54,1.14-3.21,2.1-4.82,3.14-.94.61-1.9,1.19-2.8,1.85-1.38,1-1.4,1.18-.32,2.41.9,1,1.87,2,2.82,3,.5.51,1.06,1,1.52,1.52a8.5,8.5,0,0,1,.88,9.41c-2.66,4.95-7.13,7.36-12.25,8.89a18.88,18.88,0,0,0-3.41.84c0,1.09.77,1.67,1.25,2.36a170.75,170.75,0,0,1,16.95,30.56,7.06,7.06,0,0,1,.29,5.11,179.23,179.23,0,0,0-5.12,20.7,113.17,113.17,0,0,0-1.9,28.87,37.62,37.62,0,0,0,1.76,8.91c1.43,4.41,3,8.76,4.73,13.06a39.85,39.85,0,0,1,2.17,22.37c-.36,2-.57,4-1,5.9a6.53,6.53,0,0,0,.51,4.42c1.15,2.55,2.59,4.95,4,7.38,3.15,5.58,6.18,11.21,7.91,17.42,1.91,6.84,3,13.73,1.43,20.82a40.34,40.34,0,0,1-9.63,18c-4.46,5-9.68,9.3-14.58,13.89a93.65,93.65,0,0,0-7.11,7.12,15.26,15.26,0,0,0-3.71,13.13c.48,2.84.8,5.7,1.18,8.55.85,6.38-1.25,11.81-5.36,16.58a36.69,36.69,0,0,1-25.18,12.84,50.86,50.86,0,0,1-24-3.2,99.79,99.79,0,0,0-10.62-3.74c-.53-.15-1.07-.25-1.51-.35-.64.4-.49.92-.49,1.37,0,5,0,9.91.06,14.87a4,4,0,0,0,1.6,3.65c1.38,1.08,2.33,2.79,3.6,4.13a65.8,65.8,0,0,0,9.91,8.67c6.35,4.43,10,10.64,12.28,17.81.54,1.67,1,3.38,1.48,5.06.65,2.14.32,2.09,2.5,1.71,4.8-.84,9.61-1.58,14.42-2.37a11.56,11.56,0,0,1,10.54,3.28,28.63,28.63,0,0,1,4.95,6.14c1.68,2.9,3.27,5.86,4.93,8.78.88,1.55,1.17,3-.43,4.17a.82.82,0,0,0,.57.81c3.23,1.18,6,3.19,9.19,4.54,12.4,5.33,24.79,10.69,37.09,16.25,10.41,4.7,20.78,9.51,30.9,14.82,7.43,3.9,14.76,8,21.84,12.49a9.12,9.12,0,0,1,4.53,6c1.4,6,3.1,11.91,4,18,2,12.88,3.77,25.78,4.88,38.77,1,11.54,2.06,23.09,2.75,34.65.59,9.9,1.27,19.79,2.18,29.66.19,2,.46,4,.71,6,.16,1.34,0,2.56-1.35,3.25-.25-.11-.38,0-.37.25l-.11.13c-2.16-.46-2.44-.71-2.77-2.64-.16-1-.33-1.89-.41-2.84-.33-4.13-.78-8.25-1.12-12.39-.51-6.2-.9-12.4-1.3-18.61-.21-3.19-.21-6.39-.61-9.55-.3-2.39-.22-4.78-.43-7.16q-.85-9.9-1.81-19.77c-.48-5.16-.92-10.32-1.56-15.46q-1.51-12.23-3.29-24.4a125.17,125.17,0,0,0-3.19-15,8.16,8.16,0,0,0-3.43-5c-7-4.44-14.27-8.48-21.64-12.32-9.7-5.06-19.66-9.61-29.57-14.26-2.82-1.32-5.67-2.56-8.5-3.86-6.45-3-13.18-5.31-19.55-8.48-1.31-.66-2.71-1.13-4.07-1.69l-.32.35c24.06,32.35,38.89,69.09,51.1,107.29.36-.48.64-.76.83-1.09,3.71-6.34,7.74-12.5,11.09-19,3.6-7.05,6.42-14.45,9.52-21.71,3-7,6-13.94,7.33-21.48a2.84,2.84,0,0,1,.62-1.28,1.87,1.87,0,0,1,2.12-.73,1.79,1.79,0,0,1,1.4,1.73,12.08,12.08,0,0,1-.15,2.63c-.63,2.63-1.19,5.29-2.05,7.87-2.58,7.65-5.84,15-8.88,22.49A114.34,114.34,0,0,1,496,564.12c-4.21,7.25-8.53,14.43-12.83,21.62a3.49,3.49,0,0,0-.4,3.17c.87,2.65,1.62,5.34,2.38,8,1.81,6.38,4.72,12.39,6.4,18.81.81,3,2.43,5.92,2.13,9.22,0,.53.39.85.7,1.21,3.14,3.61,6.26,7.24,9.42,10.84q9.09,10.34,17.42,21.3a90.21,90.21,0,0,1,7.72,11.24c4.11,7.47,5.51,15.59,5.75,24a107.4,107.4,0,0,1-.37,15.32,117.39,117.39,0,0,1-2.37,15.83c-2.3,9.12-4.71,18.22-7,27.35a187.26,187.26,0,0,0-5.07,36.42c-.31,6.46-.77,12.91-.86,19.37-.1,7.18-.43,14.37.35,21.55a17.72,17.72,0,0,1-4.77,0c-.11-1.35-.32-2.7-.32-4,0-6.71-.07-13.42.2-20.13.31-7.74.7-15.47,1.11-23.2a147.8,147.8,0,0,1,1.63-15.46,231.81,231.81,0,0,1,4.89-22.68c2-7.48,4.18-14.9,5.76-22.49a3.75,3.75,0,0,0,0-2.68c-.31,0-.49,0-.61,0-1.74,1.13-3.47,2.28-5.2,3.42a65.26,65.26,0,0,1-40.49,10.7,24.21,24.21,0,0,1-7-1.41c-2.72-1-5-2.51-6.07-5.37-.46-1.19-1.11-2.31-1.63-3.48-4.73-10.74-8.78-21.77-13.79-32.4s-9.91-21.65-16.18-31.81a7.78,7.78,0,0,1-.9-1.94,1.92,1.92,0,0,1,.89-2.28,1.83,1.83,0,0,1,2.4.34,8.52,8.52,0,0,1,1.62,2.06c1.27,2.22,2.57,4.42,3.85,6.63a322.35,322.35,0,0,1,15.5,31.35c4,9.06,7.75,18.23,11.43,27.42a8.51,8.51,0,0,0,7.25,5.74,49.55,49.55,0,0,0,14.54.06,65,65,0,0,0,14.6-3.63c7.32-2.91,13.82-7.29,20.1-12a3,3,0,0,0,1.34-2.4c.11-2.87.61-5.71.52-8.6-.11-4.07-.09-8.13-.4-12.2a43.18,43.18,0,0,0-8-22.23c-4.59-6.43-9.53-12.6-14.53-18.72-2.83-3.46-5.79-6.81-8.71-10.2-.88-1-1.15-1-1.85.31-.12.21-.2.44-.32.64-4.17,7.51-9.42,14-16.64,18.85a13.63,13.63,0,0,1-8.31,2.51,23.62,23.62,0,0,1-6.09-1.17c-10.58-3.17-20.72-7.48-30.91-11.67a17.38,17.38,0,0,1-7.81-6.13c-3-4.26-6.09-8.42-8.71-12.9-1.54-2.63-3.42-5-3.17-8.51.19-2.52.11-3,2.49-3.77,5.64-1.74,11.2-3.77,16.69-5.93,5-2,9.83-4.22,14.71-6.41,3.64-1.64,7.25-3.36,10.85-5.09,2-1,2-1.07.64-2.66q-4.86-5.61-9.81-11.14c-6-6.74-11.81-13.63-17.32-20.77-3.46-4.49-7.14-8.82-10.25-13.56a7,7,0,0,1-1.42-3,2,2,0,0,1,2.55-2.26,3.3,3.3,0,0,1,1.55,1.45c3.75,5.88,8.36,11.08,12.76,16.46,4.69,5.74,9.5,11.4,14.29,17.06,1.43,1.68,3,3.27,4.5,4.93.53-.84,0-1.38-.23-1.92-3.53-7.7-6.55-15.62-9.46-23.56-4.61-12.62-10-24.88-15.61-37.08-3.22-7-6.82-13.92-10.58-20.7a116.35,116.35,0,0,0-12.8-19.34,18.43,18.43,0,0,0-9.68-6.27c-2.62-.65-5.25-.33-7.87-.41-1.64-.05-2.45-.68-2.54-1.93s.75-2.19,2.4-2.36a16.24,16.24,0,0,0,3.34-.24,17.63,17.63,0,0,0,3.84.17l.47.07a23.08,23.08,0,0,1,11.51,6,61.39,61.39,0,0,1,10.1,13,329,329,0,0,1,22.05,43.27c3.64,8.43,7.23,16.87,10.3,25.52,3.47,9.79,7.69,19.27,11.71,28.83a4.32,4.32,0,0,1,.29,3.69,1.51,1.51,0,0,0,.35,1.93,4.18,4.18,0,0,0,2.28,1.64,1.79,1.79,0,0,1,1.56,1.6,5.58,5.58,0,0,0,1.85,3c4.49,5,9.38,9.58,13.8,14.62a9.9,9.9,0,0,0,2.94,2.75,1,1,0,0,0,.06.18s.09,0,.13,0l-.22-.18c.3-1.6-.49-3-1-4.37a256.71,256.71,0,0,1-8.57-26.65c-.16-.58-.22-1.26-.93-1.57a4.51,4.51,0,0,0-.62.33,2.11,2.11,0,0,1-3,0c-.92-.87-.68-1.88-.17-2.86a23.21,23.21,0,0,1,1.6-3,3.32,3.32,0,0,0,.33-3.37c-1.51-4.29-2.95-8.61-4.41-12.92a431,431,0,0,0-16.8-41.23c-7.58-16.45-17.16-31.72-27.34-46.65A25.38,25.38,0,0,0,413.19,465a26.77,26.77,0,0,0-14.08-1.34c-2,.35-4,1.4-6.11.88-1.23-2.63-.83-3.65,1.91-4.35a35.51,35.51,0,0,1,10.84-1.57,44.79,44.79,0,0,1,5.18.87c1.41.24,1.83-.3,1.25-1.58s-1.27-2.58-2-3.82c-1.93-3.31-3.67-6.74-6.54-9.4a6.92,6.92,0,0,0-5.16-2.09c-5.36.19-10.59,1.33-15.84,2.26-1.48.26-1.61.62-1.3,2.22.56,2.82,1.2,5.62,1.72,8.44,2.35,12.85,4.77,25.7,7,38.58a162.3,162.3,0,0,1,2.71,23.5,13.56,13.56,0,0,1-1.46,6.68c-2.1,4.13-5.7,5.65-10.2,4.47a21.67,21.67,0,0,1-9-5.3,83.23,83.23,0,0,1-8.05-8.82c-3.57-4.28-7.66-8.14-11.58-12.12a25.45,25.45,0,0,0-4.59-3.82c-2.51-1.54-4.12-1.26-6.14.9a8.33,8.33,0,0,0-1.5,2.44c-2.67,6.14-5.52,12.22-7.24,18.74a5.46,5.46,0,0,1-1.92,3.49c-.93.63-.79,1.23-.07,1.92a12.18,12.18,0,0,1,3.3,5.22c1,3.19,1.68,6.46,2.71,9.65A16.88,16.88,0,0,0,338.7,545c2.22,3.52,4.86,6.73,7.26,10.11Q356.56,570,367.13,585a2.54,2.54,0,0,0,2.38,1.2c1.69,0,3.34-.32,5-.38a147.91,147.91,0,0,0,19.71-2.13c3.47-.57,7.18-.45,10.19-2.91,1.05-.86,3.28.06,3.94,1.31a2.58,2.58,0,0,1-1.34,3.59,10.91,10.91,0,0,1-2.48.87,173,173,0,0,1-30.06,4c-1,0-2.16-.19-2.63.72s.54,1.57,1,2.28q8.64,13,18.06,25.34a284.46,284.46,0,0,1,21.2,31.88,150.33,150.33,0,0,1,12.61,27.88,74.52,74.52,0,0,1,4.07,25.64c-.14,3.91-.11,7.81-.44,11.72-.49,5.65-1.29,11.25-2.29,16.82-2.23,12.4-5.32,24.63-8.28,36.87-3.38,14-7,27.85-9.49,42-1.05,5.89-2,11.78-2.58,17.74A18.14,18.14,0,0,1,401,829.38ZM203.73,285.53a1.37,1.37,0,0,0,1.1.3,2.43,2.43,0,0,1,.65,1.26,109,109,0,0,1,5,22.18c1.61,11.48,2.31,23.08,2.82,34.64.84,18.91,1.48,37.87-.93,56.76-.37,2.93-.8,5.86-1.32,8.76-.46,2.53-3.33,3.89-5.28,2a4.24,4.24,0,0,0-.79-.5,2.3,2.3,0,0,0-.44,2.91,32.26,32.26,0,0,0,1.64,2.93,203.29,203.29,0,0,0,19.91,25.47c1.84,2.06,3.53,4.37,6.3,5.39.34.13.59.52.85.82a59,59,0,0,0,5.73,5.45c8.13,7,16.39,13.79,24.48,20.81,11.48,9.95,23.9,18.45,38.35,23.66a35.41,35.41,0,0,1,15.08,11.1c1.9,2.28,3.5,4.76,5.17,7.21.93,1.35,1.77,2.84,3.62,3.68,2.68-8,5.38-15.91,8.34-23.68a4.82,4.82,0,0,0-2.84-.35,14.87,14.87,0,0,1-5-.76,25.86,25.86,0,0,1-8.41-4.48c-1.09-.94-2.31-1.72-3.41-2.65A4.65,4.65,0,0,0,310,487.3a11.41,11.41,0,0,1-2.62.24c-.57,0-1.16-.14-1.27-.83a1.1,1.1,0,0,1,.9-1.25,32.34,32.34,0,0,1,5.55-1.44,4.62,4.62,0,0,1,2.34.44c2.17,1,4.35,2,6.5,3.06,3.53,1.73,7.08,3.37,11.14,3.32a7.7,7.7,0,0,1,1.89.31c1.63.43,1.64.45,2.31-1.19q5.71-14,11.41-28c1.08-2.67,2-5.39,3-8.08a6.71,6.71,0,0,0,.24-4.22,68.36,68.36,0,0,1-1.37-8c-1.28-9.35-2.19-18.74-3.12-28.12a175.12,175.12,0,0,1-1.15-20.1c.12-7.43.48-14.86.67-22.29.08-3.36,0-2.9-2.86-3.36-4.58-.73-9.15-1.46-13.71-2.32A255.87,255.87,0,0,1,263,343c-4.87-2.42-9.61-5.08-14.27-7.88A71.1,71.1,0,0,1,236,325.06a23.43,23.43,0,0,1-5-7.69q-5.27-11.83-10.5-23.68c-1.74-3.95-3.49-7.89-5.19-11.86-.42-1-.83-1.47-1.93-.77a26.35,26.35,0,0,1-5.69,2.45.33.33,0,0,0-.42.05l-1.92.5c-1.11-.12-2.22-.3-3,.84a37.71,37.71,0,0,1-16.18-2.41,39.2,39.2,0,0,1-14.32-9.76,48.08,48.08,0,0,1-10.95-20c-1.81-6.55-2.42-13.16-.58-19.79.41-1.46,0-2-1.21-2.58-6.12-2.92-10.86-7.49-15-12.74-7.24-9.17-11.79-19.65-14.93-30.81a5.81,5.81,0,0,1-.19-1.18c-.15-2.13.56-3.35,2.16-3.73,1.35-.32,2.47.56,3.14,2.61,1,3.19,1.88,6.44,3.07,9.57,3.85,10.09,9.16,19.25,17.29,26.59a31,31,0,0,0,13.12,7.1,85.55,85.55,0,0,0,15.52,2.5c4.52.33,9.05.66,13.57.87,2.24.1,4.41.6,6.63.77,1.58.11,3.12.92,4.78.53a1.62,1.62,0,0,0-1-1.22c-1.93-1.14-3.8-2.36-5.79-3.36-7.63-3.85-15.33-7.57-22.72-11.87-.74-.43-1.6-.74-1.68-1.81a5.53,5.53,0,0,1,3,.58c7,2.93,14.1,5.48,21.28,7.9a39.15,39.15,0,0,1,10.11,4.83,42.27,42.27,0,0,1,4.42,4,31.15,31.15,0,0,1,9.54,18.07,23,23,0,0,0,.62,3.86,3.39,3.39,0,0,0,1.61-2c2.66-5.55,3.77-11.38,2.34-17.41a28.82,28.82,0,0,0-3.59-9.09c-2.32-3.61-5.43-6.46-8.32-9.54a41,41,0,0,1-7.74-10.81A34.75,34.75,0,0,1,207.92,183c.3-1.58,1.12-3.1,1-5-4.88,1.57-9.73,1.4-14.59,1.46a39.63,39.63,0,0,1-10.11-1.57c-2-.49-2.25-1.35-1.33-3.14.64-1.23,1.55-1.22,2.62-.86a36,36,0,0,0,11.06,1.5,45.32,45.32,0,0,0,9.22-1,49.24,49.24,0,0,0,16.33-6.58,30.2,30.2,0,0,0,8.14-6.59c2.09-2.62,4.34-5.09,6.41-7.72a47.39,47.39,0,0,0,6.74-10.7A170.09,170.09,0,0,0,248.93,126c1.25-4.11,2.26-8.32,4.42-12.11a86.72,86.72,0,0,1,8.5-12.11A68.74,68.74,0,0,1,282.76,85a88.56,88.56,0,0,1,23.56-8.44,94.3,94.3,0,0,1,19.17-2.21A102.56,102.56,0,0,1,344,75.85a66.87,66.87,0,0,1,14.49,4c4.48,1.89,9,3.76,13.27,6.09a15.4,15.4,0,0,0,4,1.42,50.68,50.68,0,0,0,11.4,1,16.53,16.53,0,0,0,11.42-4.74c2.68-2.44,4.41-5.63,6.47-8.56.57-.81,1.13-1.42,2.13-1s1,1.41.75,2.27a17.5,17.5,0,0,1-4.21,7.94,41.87,41.87,0,0,1-5.26,4.51c-1.13.81-1.13,1.05-.15,2s2,1.52,2.94,2.45c4,4.14,8.36,7.89,11.69,12.64a3.37,3.37,0,0,0,4.17,1.41c1.05-.35,2.18-.48,3.24-.81a19.37,19.37,0,0,0,6.71-3c1.56-1.27,2.85-3.22,1.47-5.69a13.91,13.91,0,0,0-2.86-4.1,15.22,15.22,0,0,1-3-3.44,3.92,3.92,0,0,1,.44-5.25A18.11,18.11,0,0,1,427,81.56c2.1-1.29,4.2-2.6,6.24-4a6.4,6.4,0,0,0,3.08-6.33,12.5,12.5,0,0,0-1.83-4.9c-2.86-4.63-7-8.12-10.93-11.68-4.9-4.44-10-8.65-14.66-13.38-3.76-3.81-7.54-7.61-11.36-11.35a30.07,30.07,0,0,0-4.22-3.52,111.39,111.39,0,0,0-24.93-12.59A127.07,127.07,0,0,0,346,7.8c-4.16-.66-8.34-1.2-12.52-1.69-2.47-.29-5-.09-7.38-.51-3.95-.7-7.95-.11-11.91-.75-2.33-.38-4.76.11-7.14.27-4.85.32-9.72.18-14.58.48-3.89.23-7.78.82-11.7.61a3.41,3.41,0,0,0-.71.06,71.87,71.87,0,0,1-9.26.8c-4,.27-7.93.69-11.87,1.17-4.8.58-9.57,1.49-14.36,2.16-7.42,1-14.73,2.55-22,4.19-8.61,1.94-17.16,4.16-25.73,6.32-4.4,1.11-8.76,2.36-13.14,3.57a134.7,134.7,0,0,0-20.54,7.09c-12.07,5.54-23.1,12.55-31.83,22.79a66.14,66.14,0,0,0-9.14,13.4,61.39,61.39,0,0,0-6.08,23.45,192.11,192.11,0,0,0,.4,25.61,3.57,3.57,0,0,0,0,.47,66.66,66.66,0,0,1,.78,11.18c.18,7.65.5,15.32-.32,23-.34,3.16-.58,6.35-1.21,9.45A189.74,189.74,0,0,1,108,189.2c-1,2.76-2.19,5.49-3,8.31-1.9,6.42-3.7,12.87-5.82,19.22a51.84,51.84,0,0,0-1.45,6.51c-.4,2-.08,4-.64,5.92-1,3.62-1.08,7.38-1.6,11.08a14.7,14.7,0,0,0,.18,4.52,57,57,0,0,0,7.16,18.64,70.52,70.52,0,0,0,14.85,18c4.13,3.65,8.18,7.36,12.13,11.2a27,27,0,0,1,5.69,8.78,18.48,18.48,0,0,1,1.44,7.93,23.73,23.73,0,0,1-4.15,12.3c-3.64,5.65-8.26,10.52-12.41,15.76A49.59,49.59,0,0,0,111.12,354a16.82,16.82,0,0,0,1.19,13.2,33,33,0,0,0,6.54,8.49,29.52,29.52,0,0,0,18.74,8A56.55,56.55,0,0,0,153,382.53c3.58-.74,7.12-1.68,10.68-2.51,7.19-1.68,14.34-3.59,21.78-4.1a69.24,69.24,0,0,1,13.58.05c2.21.28,4.43.48,6.65.57,1.82.07,1.91,0,1.88-1.89-.22-13.72.61-27.45-.82-41.17a85.29,85.29,0,0,1-.6-13.85,10.39,10.39,0,0,0,0-2.16c-.64-4.4-.58-8.88-1.39-13.27-.76-4.14-.87-8.37-1.73-12.51-.41-1.94-1.31-4-.16-6.07Zm189-131.59c2.65-1.76,5.12-3.78,7.94-5.29,6.68-3.58,13.47-6.91,21.05-8.18l5.63-.94c.31-.05.66-.09.66-.53a.73.73,0,0,0-.55-.69,2.13,2.13,0,0,0-.93-.17c-3.08.3-6.1-.54-9.26-.18a63.57,63.57,0,0,0-9.61,1.58,22.17,22.17,0,0,0-11.14,6.62c-1.95,2.2-3.6,4.67-3.78,7.79-.24.07-.28.14-.11.19C392.67,154.14,392.72,154,392.76,153.94ZM163.53,242.22c.33,1.72.6,3.46,1,5.17,2.42,10.2,7.37,18.88,15.73,25.37,5.51,4.28,11.67,6.92,18.87,6.26a49.75,49.75,0,0,0,12.08-2.9c1.3-.46,2.11-1,1.72-2.55a1.56,1.56,0,0,1,1.09-1.91,1.9,1.9,0,0,1,2.12.73,6.94,6.94,0,0,1,.91,1.41c.48.92.93,1.85,1.37,2.8,5.77,12.56,11.69,25.06,17,37.82a22.92,22.92,0,0,0,6.65,9.19c.62.5,1.21,1,1.81,1.57,9.79,8.59,21.06,14.71,33,19.72a287.09,287.09,0,0,0,45.65,14.43,289.88,289.88,0,0,0,31.66,5.26c3.72.44,7.37,1.16,11.18.48,7.32-1.31,14.28-3.46,20.5-7.65a7.57,7.57,0,0,0,2.77-3.2c6.71-14.59,13.49-29.15,20.23-43.74,6.36-13.77,13.28-27.29,18.47-41.61a141.38,141.38,0,0,0,7.25-31.18,16.29,16.29,0,0,0-.28-4.77c-.82-4.51-2.53-8.74-3.95-13.06-1.47-4.48-3.33-8.82-4.61-13.37a4.15,4.15,0,0,1-.37-2.57c.81-2.15.16-4.25-.09-6.37,1.21-2,1.82-4.16.73-6.47-.27-.56-.5-1.15-.74-1.73.47-7,1.46-14,2.54-20.93.88-5.69,1.92-11.38,4.26-16.67a6.3,6.3,0,0,0-.26-5.87,2.42,2.42,0,0,0-2.78-1.6,56.16,56.16,0,0,0-13.8,2.89,97.85,97.85,0,0,0-23.93,12.51,7.52,7.52,0,0,1-2.76,1.4c-1.41.32-1.54.28-1.72-1.1a16.73,16.73,0,0,1,.44-5.23c1.7-9.33,7.38-15.37,16-18.86,6.18-2.51,12.68-3.14,19.29-2.91.77,0,1.58.35,2.32-.15,0-.17.13-.35.08-.47a9.56,9.56,0,0,0-.59-1.3,200.74,200.74,0,0,0-27.72-39c-1.24-1.35-1.27-1.39-3-.57a24,24,0,0,1-12.81,2.42,46.59,46.59,0,0,1-14.64-3.42c-3.21-1.43-6.41-2.91-9.62-4.34a62.16,62.16,0,0,0-14.07-4.67,86.23,86.23,0,0,0-39.63,1.85c-6.4,1.81-12.69,3.85-18.36,7.45a117,117,0,0,0-15.32,11.51,40.35,40.35,0,0,0-11.53,17.4c-1.94,5.75-3.72,11.56-5.47,17.38a56.08,56.08,0,0,1-12.39,21.68,68.44,68.44,0,0,1-22.41,16.15,4.11,4.11,0,0,0-2.52,2.34c-4.37,12-3.06,22.94,5.6,32.63,2,2.27,4.24,4.35,6.29,6.59a33.52,33.52,0,0,1,6.44,9.76c6.11,14.59,1.89,26.52-7.1,37.07a4.4,4.4,0,0,1-4.86.86c-1.45-.89-1.25-2.25-1-3.63a27.18,27.18,0,0,0-1.19-14.86,9.61,9.61,0,0,0-6-6,42.3,42.3,0,0,0-11.89-2.68c-5.82-.39-11.65-.61-17.47-1.08-6.53-.54-13-1.29-19.3-3.42a1.62,1.62,0,0,0-1.15-.6c-.58-.09-.86.17-.42.74,0,1,0,2,.07,3a1.74,1.74,0,0,0,.12,2.37l.36,3.38C163,241.65,163.08,242,163.53,242.22Zm12.9,189.68a18.28,18.28,0,0,0,.78,6.63,58.83,58.83,0,0,0,12.62,22.61c6.34,7,12.82,13.82,19.2,20.75a140.33,140.33,0,0,1,12.45,15.46c6.72,9.75,12.36,20.13,17.92,30.56,3.29,6.2,6.52,12.45,11.42,17.63,3.19,3.38,6.34,6.77,10.61,8.82,2.95,1.42,4.53,1,6.21-1.81a22.2,22.2,0,0,0,2.87-7.83c.57-3.29,1-6.62,1.7-9.88a56.58,56.58,0,0,1,7.3-17.87c.33-.53.95-1.13.26-1.67s-1.26.22-1.74.71a6.27,6.27,0,0,0-.42.59,57.82,57.82,0,0,0-4.83,7.7,42.6,42.6,0,0,1-2.57,4.31,2,2,0,0,1-2.76.6,2.25,2.25,0,0,1-1.05-2.87,12.21,12.21,0,0,1,.71-1.51,78.92,78.92,0,0,1,7-11.44c3.34-4.53,7.12-8.62,12-11.51,2.2-1.29,2.23-1.47.2-3l-.2-.14c-8.83-7-18.22-13.2-26.93-20.34-7.83-6.43-15.59-12.95-23-19.86-6.78-6.31-13.66-12.53-19.4-19.85-5-6.41-10.12-12.77-14.39-19.72a24.89,24.89,0,0,1-3.83-11.21,5.17,5.17,0,0,1,2.74-5.18c1-.63,2.06-1.22,3-1.89a2.58,2.58,0,0,0,1.39-1.85c.29-2.45.62-4.89.89-7.35.09-.85-.36-1.2-1.18-.86-.59.24-1.15.55-1.73.83-4.15,2-8.29,4.13-12.5,6.07a26,26,0,0,0-6.66,4.2c-3.49,3.15-5,7.34-6.2,11.67C176.65,419.44,177,425.73,176.43,431.9ZM435.34,260.23c-1.6,4.49-3,8.61-4.6,12.69-5.32,13.94-10.86,27.78-17.94,40.94a176,176,0,0,0-7.32,16.38c-3.87,9.4-8.74,18.3-13.14,27.43a8.37,8.37,0,0,1-3,3.29,54.67,54.67,0,0,1-14.24,6.68,45.67,45.67,0,0,1-17.27,1.59q-3.1-.24-6.19-.38c-1.14-.05-1.59.43-1.55,1.55a33.18,33.18,0,0,0,.41,5.71c.43,2.11.28,2.26,2.33,2.68,4.8,1,9.25,3,13.79,4.71a48.86,48.86,0,0,0,14.48,2.62,33,33,0,0,0,6.19-.42,39.72,39.72,0,0,0,8.34-1.91,30,30,0,0,0,10.32-6.36c4.45-4.06,7.64-8.85,7-15.28-.31-2.92-.78-5.83-1.21-8.73-.83-5.6,0-10.83,3.54-15.4,4.78-6.15,10.8-11.08,16.49-16.3,4-3.64,7.77-7.34,10.65-11.89a30.33,30.33,0,0,0,5.05-17.64,47.79,47.79,0,0,0-1.16-7.77c-1.37-6.73-4.27-12.86-7.56-18.8C437.74,263.92,437.11,262,435.34,260.23ZM83.55,490.34c-1-1.26-1.68-2.33-2.53-3.25a33.27,33.27,0,0,0-4.1-4c-4.72-3.57-9.85-5-15.72-2.86-8.13,3-13.26,8.9-16.64,16.58a16.07,16.07,0,0,0-1.54,6c-.06,1.61-1,2.39-2.18,2.35s-2-.9-2-2.69a10,10,0,0,1,.26-2.61,35,35,0,0,1,13.23-20.23,25.47,25.47,0,0,1,13.25-5.12c5.59-.5,10.29,1.84,14.58,5.11,4.07,3.1,6.95,7.23,9.48,11.6,1.75,3.05,3.26,6.23,5.07,9.24,1.48,2.47,2.83,2.75,5.43,1.71,3.43-1.38,6.48-3.45,9.73-5.15q10.94-5.73,21.87-11.45c1.47-.78,2.86-1.73,4.36-2.46,4.31-2.09,8.66-4.08,13-6.14,3.9-1.86,7.68-3.94,11.62-5.72,3-1.35,6.1-2.37,9.14-3.57a5.34,5.34,0,0,0,3.74-4.8,2.33,2.33,0,0,0-1.76-2.76,25.37,25.37,0,0,0-4.9-1.09c-2.38-.31-4.79-.21-7.14-.57A101.61,101.61,0,0,0,145,457.17c-4.88,0-9.75,0-14.63-.08a77,77,0,0,0-11.47.62,215.52,215.52,0,0,0-24.68,4.55c-12.4,3.12-24.62,6.8-36.23,12.25a36,36,0,0,0-16.48,15.15c-3.94,7-4.95,14.58-4.56,22.46,0,.23.16.44.74.57C52.53,505,68,498,83.55,490.34Zm268-80.83a37.31,37.31,0,0,0,.86,8c.1.57.55.72,1,.9,2.62,1,4.31,3.23,6.43,4.91a2.64,2.64,0,0,1,.73,1.47c1.47,5.6,1.19,11.19.16,16.83a142.57,142.57,0,0,1-3.58,14.88,261.75,261.75,0,0,1-10.09,29.17c-.66,1.54-1.26,3.11-1.92,4.65-.35.81-.29,1.22.68,1.57,4.12,1.5,7.5,4.2,10.72,7.08a142.93,142.93,0,0,1,10.18,10.12c2.91,3.18,5.89,6.3,8.84,9.44a19.06,19.06,0,0,0,7,4.52c2.67,1.06,4.17.32,4.91-2.34a12.56,12.56,0,0,0,.51-3.3,81.68,81.68,0,0,0-.87-10.47c-1.08-9.51-2.86-18.91-4.57-28.31q-2.91-16-6.09-31.94c-1.29-6.5-2.95-12.92-6.18-18.8a19,19,0,0,0-5-6.33c-2.49-1.86-4.72-4.05-7.18-6C355.89,413.86,354.13,411.66,351.56,409.51Zm119.9,246.14a11.64,11.64,0,0,0,5.78-2.19,38.65,38.65,0,0,0,9.54-9c2.39-3.3,4.88-6.52,6.38-10.38a2.33,2.33,0,0,0-.33-2.63c-.41-.49-.86-.94-1.29-1.42-3.87-4.24-7.71-8.52-11.63-12.73-4.67-5-9.43-10-14.11-15a1.85,1.85,0,0,0-2.53-.38c-3.17,1.52-6.43,2.84-9.57,4.41a237.43,237.43,0,0,1-32.92,13.08c-2.41.78-2.51,1.08-1.27,3.36.08.14.19.26.26.4,2.76,5.07,6.35,9.58,9.59,14.32a15,15,0,0,0,6.81,5.46c3.46,1.44,7,2.78,10.42,4.26A204.91,204.91,0,0,0,468,654.86C469.21,655.23,470.47,655.43,471.46,655.65Z"/><path class="cls-2" d="M405.72,829.41c.58-6,1.53-11.85,2.58-17.74,2.53-14.14,6.11-28,9.49-42,3-12.24,6-24.47,8.28-36.87,1-5.57,1.8-11.17,2.29-16.82.33-3.91.3-7.81.44-11.72a74.52,74.52,0,0,0-4.07-25.64,150.33,150.33,0,0,0-12.61-27.88,284.46,284.46,0,0,0-21.2-31.88q-9.44-12.39-18.06-25.34c-.47-.71-1.44-1.44-1-2.28s1.68-.68,2.63-.72a173,173,0,0,0,30.06-4,10.91,10.91,0,0,0,2.48-.87,2.58,2.58,0,0,0,1.34-3.59c-.66-1.25-2.89-2.17-3.94-1.31-3,2.46-6.72,2.34-10.19,2.91a147.91,147.91,0,0,1-19.71,2.13c-1.67.06-3.32.37-5,.38a2.54,2.54,0,0,1-2.38-1.2Q356.59,570,346,555.1c-2.4-3.38-5-6.59-7.26-10.11a16.88,16.88,0,0,1-1.65-3.91c-1-3.19-1.72-6.46-2.71-9.65a12.18,12.18,0,0,0-3.3-5.22c-.72-.69-.86-1.29.07-1.92A5.46,5.46,0,0,0,333,520.8c1.72-6.52,4.57-12.6,7.24-18.74a8.33,8.33,0,0,1,1.5-2.44c2-2.16,3.63-2.44,6.14-.9a25.45,25.45,0,0,1,4.59,3.82c3.92,4,8,7.84,11.58,12.12a83.23,83.23,0,0,0,8.05,8.82,21.67,21.67,0,0,0,9,5.3c4.5,1.18,8.1-.34,10.2-4.47a13.56,13.56,0,0,0,1.46-6.68,162.3,162.3,0,0,0-2.71-23.5c-2.22-12.88-4.64-25.73-7-38.58-.52-2.82-1.16-5.62-1.72-8.44-.31-1.6-.18-2,1.3-2.22,5.25-.93,10.48-2.07,15.84-2.26a6.92,6.92,0,0,1,5.16,2.09c2.87,2.66,4.61,6.09,6.54,9.4.72,1.24,1.39,2.52,2,3.82s.16,1.82-1.25,1.58a44.79,44.79,0,0,0-5.18-.87,35.51,35.51,0,0,0-10.84,1.57c-2.74.7-3.14,1.72-1.91,4.36-2.32,1.91-2.39,3.82-.22,5.7.35.3.86.44,1,1a16.24,16.24,0,0,1-3.34.24c-1.65.17-2.51,1-2.4,2.36s.9,1.88,2.54,1.93c2.62.08,5.25-.24,7.87.41a18.43,18.43,0,0,1,9.68,6.27,116.35,116.35,0,0,1,12.8,19.34c3.76,6.78,7.36,13.65,10.58,20.7,5.57,12.2,11,24.46,15.61,37.08,2.91,7.94,5.93,15.86,9.46,23.56.24.54.76,1.08.23,1.92-1.52-1.66-3.07-3.25-4.5-4.93-4.79-5.66-9.6-11.32-14.29-17.06-4.4-5.38-9-10.58-12.76-16.46a3.3,3.3,0,0,0-1.55-1.45,2,2,0,0,0-2.55,2.26,7,7,0,0,0,1.42,3c3.11,4.74,6.79,9.07,10.25,13.56,5.51,7.14,11.32,14,17.32,20.77q4.93,5.54,9.81,11.14c1.37,1.59,1.34,1.7-.64,2.66-3.6,1.73-7.21,3.45-10.85,5.09-4.88,2.19-9.73,4.46-14.71,6.41-5.49,2.16-11,4.19-16.69,5.93-2.38.74-2.3,1.25-2.49,3.77-.25,3.46,1.63,5.88,3.17,8.51,2.62,4.48,5.74,8.64,8.71,12.9a17.38,17.38,0,0,0,7.81,6.13c10.19,4.19,20.33,8.5,30.91,11.67a23.62,23.62,0,0,0,6.09,1.17,13.63,13.63,0,0,0,8.31-2.51c7.22-4.82,12.47-11.34,16.64-18.85.12-.2.2-.43.32-.64.7-1.27,1-1.33,1.85-.31,2.92,3.39,5.88,6.74,8.71,10.2,5,6.12,9.94,12.29,14.53,18.72a43.18,43.18,0,0,1,8,22.23c.31,4.07.29,8.13.4,12.2.09,2.89-.41,5.73-.52,8.6a3,3,0,0,1-1.34,2.4c-6.28,4.7-12.78,9.08-20.1,12a65,65,0,0,1-14.6,3.63,49.55,49.55,0,0,1-14.54-.06,8.51,8.51,0,0,1-7.25-5.74c-3.68-9.19-7.42-18.36-11.43-27.42a322.35,322.35,0,0,0-15.5-31.35c-1.28-2.21-2.58-4.41-3.85-6.63a8.52,8.52,0,0,0-1.62-2.06,1.83,1.83,0,0,0-2.4-.34,1.92,1.92,0,0,0-.89,2.28,7.78,7.78,0,0,0,.9,1.94c6.27,10.16,11.11,21.05,16.18,31.81s9.06,21.66,13.79,32.4c.52,1.17,1.17,2.29,1.63,3.48,1.1,2.86,3.35,4.37,6.07,5.37a24.21,24.21,0,0,0,7,1.41A65.26,65.26,0,0,0,522,722.2c1.73-1.14,3.46-2.29,5.2-3.42.12-.07.3,0,.61,0a3.75,3.75,0,0,1,0,2.68c-1.58,7.59-3.78,15-5.76,22.49a231.81,231.81,0,0,0-4.89,22.68A147.8,147.8,0,0,0,515.55,782c-.41,7.73-.8,15.46-1.11,23.2-.27,6.71-.18,13.42-.2,20.13,0,1.35.21,2.7.32,4-.55,0-1.11.09-1.66.09H457.19a5.88,5.88,0,0,1-2.13-.15c1-2.1,2.83-3.62,4.3-5.37,3.86-4.59,7.65-9.22,10.44-14.56a10.61,10.61,0,0,0,1.6-5.7,3.59,3.59,0,0,0-5.16-3.15,13.62,13.62,0,0,0-3,1.9c-4.78,3.6-9.52,7.25-14.31,10.85-6.25,4.7-12.5,9.41-19.15,13.56-1.19.75-2.56,1.31-3.43,2.53C419.45,829.58,412.58,829.59,405.72,829.41Zm103-118a2.11,2.11,0,0,0,2.35-1.72,3.75,3.75,0,0,0-.43-2.31c-2.35-6.37-4.68-12.74-7.12-19.07-3-7.82-6.56-15.42-9.92-23.1-.79-1.83-1.7-3.62-2.66-5.37a2.13,2.13,0,0,0-2.83-1.05,2.34,2.34,0,0,0-.92,2.9c.13.38.32.73.48,1.1,2.4,5.48,4.87,10.94,7.2,16.46,3.16,7.5,5.95,15.15,8.75,22.79.91,2.47,1.86,4.93,2.83,7.38C506.83,710.47,507.36,711.48,508.68,711.4Zm-129.22-132a12.7,12.7,0,0,0,1.47-.08q9.9-1.65,19.78-3.35a3.93,3.93,0,0,0,2.43-1.41,1.77,1.77,0,0,0,.34-2,1.83,1.83,0,0,0-1.79-1.32,9.86,9.86,0,0,0-1.44.09c-7.29,1.26-14.47,3.13-21.87,3.83a1.86,1.86,0,0,0-1.85,1.85,2.06,2.06,0,0,0,1.56,2.16A7,7,0,0,0,379.46,579.44Z"/><path class="cls-2" d="M519.33,829.37c-.78-7.18-.45-14.37-.35-21.55.09-6.46.55-12.91.86-19.37A187.26,187.26,0,0,1,524.91,752c2.3-9.13,4.71-18.23,7-27.35a117.39,117.39,0,0,0,2.37-15.83,107.4,107.4,0,0,0,.37-15.32c-.24-8.38-1.64-16.5-5.75-24a90.21,90.21,0,0,0-7.72-11.24q-8.36-10.94-17.42-21.3c-3.16-3.6-6.28-7.23-9.42-10.84-.31-.36-.75-.68-.7-1.21.3-3.3-1.32-6.18-2.13-9.22-1.68-6.42-4.59-12.43-6.4-18.81-.76-2.69-1.51-5.38-2.38-8a3.49,3.49,0,0,1,.4-3.17c4.3-7.19,8.62-14.37,12.83-21.62a114.34,114.34,0,0,0,6.56-14.38c3-7.46,6.3-14.84,8.88-22.49.86-2.58,1.42-5.24,2.05-7.87a12.08,12.08,0,0,0,.15-2.63,1.79,1.79,0,0,0-1.4-1.73,1.87,1.87,0,0,0-2.12.73,2.84,2.84,0,0,0-.62,1.28c-1.31,7.54-4.35,14.5-7.33,21.48-3.1,7.26-5.92,14.66-9.52,21.71-3.35,6.54-7.38,12.7-11.09,19-.19.33-.47.61-.83,1.09-12.21-38.2-27-74.94-51.1-107.29l.32-.35c1.36.56,2.76,1,4.07,1.69,6.37,3.17,13.1,5.51,19.55,8.48,2.83,1.3,5.68,2.54,8.5,3.86,9.91,4.65,19.87,9.2,29.57,14.26,7.37,3.84,14.62,7.88,21.64,12.32a8.16,8.16,0,0,1,3.43,5,125.17,125.17,0,0,1,3.19,15q1.78,12.18,3.29,24.4c.64,5.14,1.08,10.3,1.56,15.46q.94,9.89,1.81,19.77c.21,2.38.13,4.77.43,7.16.4,3.16.4,6.36.61,9.55.4,6.21.79,12.41,1.3,18.61.34,4.14.79,8.26,1.12,12.39.08,1,.25,1.89.41,2.84.33,1.93.61,2.18,2.77,2.64.46,1.62.37,3.42,1.58,4.79-2.38.16-2.75.57-2.86,2.81a25.14,25.14,0,0,0,.54,4.75c.57,4.42,1.66,8.67,5.16,11.78s4.18,6.92,3.75,11.11c-.82,8-1.23,16-1.65,24.09-.39,7.41-.23,14.84-.48,22.26-.32,9.5.38,19,.82,28.47.18,4.14.22,8.3.61,12.43.27,2.86.25,5.74.46,8.6.44,5.8.9,11.6,1.32,17.4.37,5,.55,10,1.11,15,.25,2.22.33,4.45.62,6.67.55,4.34.79,8.73,1.16,13.09a60.77,60.77,0,0,1-7.14.13c-5.49,0-11,0-16.48,0A7.19,7.19,0,0,1,519.33,829.37Z"/><path class="cls-3" d="M118.36,497.8a7.19,7.19,0,0,1,2.06-1.19c4.33-2.24,8.65-4.49,13-6.68,2.81-1.42,2.18-1.73,4.5.83,4.61,5.1,9,10.37,13.12,15.88,6,8,12.25,15.77,18,23.93,10.25,14.56,20.63,29.07,28.22,45.3q6.9,14.77,12.46,30.1a222.6,222.6,0,0,1,8.18,27c1.88,8.25,3.29,16.59,4.65,24.94,1.31,8,2.14,16.13,2.76,24.24.32,4.14.47,8.3.52,12.45q.13,10.67,0,21.35c-.06,5.19-.22,10.38-.52,15.56a323.31,323.31,0,0,1-4.08,35.65c-2.14,12.42-4,24.89-6,37.33a19.06,19.06,0,0,1-1.52,5.75c-1.15,2.26-.31,4,2,5.29,0,2.81-1.16,5.37-1.66,8.07-.35,1.93-1.21,3.76-1.2,5.76-4.91,0-9.82.1-14.72.11-2.93,0-5.86-.07-8.78-.11.1-.38.19-.77.31-1.15A342.83,342.83,0,0,0,198.6,794c.81-4,1.36-8,2.43-12a61.15,61.15,0,0,0,1.71-9.15c.92-8,2-16,2.62-24,.49-6,1-12.09,1.15-18.14.3-10.94.4-21.88-.19-32.82-.37-6.94-.85-13.85-1.49-20.76q-.84-8.94-2.16-17.81c-1.63-11-3.73-21.84-6.4-32.61a299.63,299.63,0,0,0-14.36-43.62,239.08,239.08,0,0,0-20.29-38.52,198.06,198.06,0,0,0-18.75-24.52,188.35,188.35,0,0,0-21.64-20.63,4.5,4.5,0,0,0-2.82-1.11Z"/><path class="cls-1" d="M118.41,498.32a4.5,4.5,0,0,1,2.82,1.11,188.35,188.35,0,0,1,21.64,20.63,198.06,198.06,0,0,1,18.75,24.52,239.08,239.08,0,0,1,20.29,38.52,299.63,299.63,0,0,1,14.36,43.62c2.67,10.77,4.77,21.65,6.4,32.61q1.32,8.86,2.16,17.81c.64,6.91,1.12,13.82,1.49,20.76.59,10.94.49,21.88.19,32.82-.18,6-.66,12.1-1.15,18.14-.64,8-1.7,16-2.62,24A61.15,61.15,0,0,1,201,782c-1.07,3.92-1.62,8-2.43,12a342.83,342.83,0,0,1-8.88,34.28c-.12.38-.21.77-.31,1.15a20.45,20.45,0,0,1-4.82,0l3.18-11c3.4-11.81,6.14-23.77,8.35-35.86q2.06-11.29,3.28-22.7,1.09-10,1.68-20c.61-10.76,1-21.53.72-32.31-.23-7.88-.57-15.77-1.23-23.65-.73-8.66-1.78-17.28-3.1-25.85-1.35-8.74-3.18-17.4-5.27-26a290.11,290.11,0,0,0-14.47-44.07,234.77,234.77,0,0,0-14.36-28.68,225.78,225.78,0,0,0-14.64-21.87A176.27,176.27,0,0,0,128.5,515a119.75,119.75,0,0,0-12.36-10.2,5.35,5.35,0,0,1-1.07-.94c-1.14-1.35-.94-2.62.54-3.62.57-.38,1.45-.43,1.39-1.42l0,0a.46.46,0,0,0,.5-.5l0,0Z"/><path class="cls-1" d="M173.6,829.39c.43-5.24.92-10.48,1.27-15.73q.42-6.09,1.13-12.14c.53-4.51,1.07-9,1.59-13.53.44-3.8.9-7.6,1.3-11.4.45-4.28.9-8.56,1.27-12.84.27-3.1.55-6.21.57-9.32.05-10.47.19-20.94-.09-31.4-.16-5.91-.08-11.83-.46-17.72-.28-4.31-.21-8.62-.4-12.92-.29-7-.43-14-1-21-1.06-12.66-1.6-25.33-1.4-38a15.64,15.64,0,0,1,0-1.68c.15-1.35.73-1.87,2-1.86a1.68,1.68,0,0,1,1.9,1.69c.11,1.19.32,2.38.34,3.57.13,6.39,0,12.78.53,19.15.52,5.64.89,11.29,1.33,16.93,0,.32.07.64.07,1,0,5.68.46,11.33.69,17,.22,5.18.09,10.38.48,15.55.42,5.67.1,11.34.43,17,.59,10.38.4,20.77.3,31.15a158.35,158.35,0,0,1-1.21,16.68c-.44,3.88-.69,7.78-1.11,11.67-.49,4.51-1.06,9-1.6,13.52-.41,3.41-.87,6.8-1.22,10.21-.51,5.07-1,10.16-1.38,15.24-.25,3.1-.38,6.21-.56,9.31A17.79,17.79,0,0,1,173.6,829.39Z"/><path class="cls-1" d="M545.31,829.38c-.37-4.36-.61-8.75-1.16-13.09-.29-2.22-.37-4.45-.62-6.67-.56-5-.74-10-1.11-15-.42-5.8-.88-11.6-1.32-17.4-.21-2.86-.19-5.74-.46-8.6-.39-4.13-.43-8.29-.61-12.43-.44-9.49-1.14-19-.82-28.47.25-7.42.09-14.85.48-22.26.42-8,.83-16.08,1.65-24.09.43-4.19-.34-8.09-3.75-11.11s-4.59-7.36-5.16-11.78a25.14,25.14,0,0,1-.54-4.75c.11-2.24.48-2.65,2.86-2.81a2.06,2.06,0,0,1,1.31,2.09,73.27,73.27,0,0,0,1.21,7.81,9.88,9.88,0,0,0,2.62,5.29,11.26,11.26,0,0,0,.81.88c4.29,3.74,5.57,8.59,5.22,14-.44,6.93-1,13.87-1.3,20.81-.69,14-.93,27.95-.46,41.94.61,18.21,1.84,36.39,3.17,54.56.66,8.92,1.55,17.83,2.34,26.74.09,1,.14,2.08.3,3.1s-.33,1.42-1.32,1.36A17.8,17.8,0,0,1,545.31,829.38Z"/><path class="cls-2" d="M533.28,646c0-.29.12-.36.37-.25C533.64,646,533.54,646.11,533.28,646Z"/><path class="cls-1" d="M20.75,538.74c.95.17,2.13.34,3.3.61A281.9,281.9,0,0,1,54.67,548,326.58,326.58,0,0,1,99.8,567.84a254.42,254.42,0,0,1,35.12,22.36,133.91,133.91,0,0,1,18,16.47c1.71,1.88,3.23,4,4.8,6a3.83,3.83,0,0,1,1,1.89,2.33,2.33,0,0,1-.95,2.53,2.2,2.2,0,0,1-2.85-.36,7,7,0,0,1-1-1.07c-4.17-6-9.4-11-14.88-15.85a192.49,192.49,0,0,0-24.75-18,294.36,294.36,0,0,0-34.39-18.46A282,282,0,0,0,28,545.09c-2.48-.59-5-1.05-7.49-1.57-.23,0-.48,0-.71-.11a2.47,2.47,0,0,1-2.12-2.74C17.87,539.32,18.81,538.68,20.75,538.74Z"/><path class="cls-1" d="M150,594.47a3.17,3.17,0,0,1,1.85,1q4.59,5,9.2,10a5,5,0,0,1,.77.9,2.06,2.06,0,0,1-.17,2.45,1.94,1.94,0,0,1-2.36.59,4,4,0,0,1-1.57-1.05c-2.93-3.24-5.85-6.49-8.79-9.71a2.88,2.88,0,0,1-.72-2.65A1.84,1.84,0,0,1,150,594.47Z"/><path class="cls-1" d="M290.33,780a39.89,39.89,0,0,1-7.16-.46c-3.61-.65-7-2.49-7.91-7.2-1.4-7.52-2.93-15-4.22-22.56s-2.74-14.73-4.39-22A363,363,0,0,0,255.72,689c-2.78-8-5.71-15.93-9.14-23.67-.35-.8-.83-1.54-1.2-2.34-.62-1.37-.34-2.57.68-3.18a2.3,2.3,0,0,1,3.21,1.16,84.46,84.46,0,0,1,3.84,8.51c3.7,8.67,7,17.48,9.86,26.47a391.31,391.31,0,0,1,9.94,38.44c2.45,11.87,4.32,23.84,6.65,35.73.66,3.36,1.34,4.08,4.72,4.78a12.75,12.75,0,0,0,2.13.24,96.52,96.52,0,0,0,23.31-2,224.13,224.13,0,0,0,34.43-10c5.24-2,9.89-5.19,14.82-7.81,1.4-2,3.84-2.4,5.74-3.64,2.87-1.86,3.9-4.52,4-7.7a108.79,108.79,0,0,0-.68-11.69c-.3-4.06-.89-8.07-1.56-12.09q-2.79-16.63-6.89-33c-2.26-9-4.29-18-7.21-26.8a3.19,3.19,0,0,1-.05-2.55,1.87,1.87,0,0,1,1.64-1.2,1.73,1.73,0,0,1,1.81.91,10.4,10.4,0,0,1,.61,1.55,410.63,410.63,0,0,1,12.35,47.44c1.21,6,2.4,12,3.21,18.13.5,3.71.78,7.45,1.1,11.18.15,1.67.16,3.34.35,5a22,22,0,0,1-.75,7.82,10.59,10.59,0,0,1-3.62,5.49,61.16,61.16,0,0,1-9.8,6.41A107.94,107.94,0,0,1,340,769.76a258.67,258.67,0,0,1-31.4,8.41A117.19,117.19,0,0,1,290.33,780Z"/><path class="cls-1" d="M322.15,704.22a17.87,17.87,0,0,1-6.2-1.3,172.71,172.71,0,0,1-23.83-10,104.13,104.13,0,0,1-22.57-15.22c-4-3.54-8.05-7-11.79-10.88a44.79,44.79,0,0,1-5.49-7.24c-2-3.14-1-5.45,1.84-7.62a2.27,2.27,0,0,1,3.07,0,2,2,0,0,1,.05,2.84c-1.32,1.52-.83,2.73.19,4.19a62.62,62.62,0,0,0,10.16,10.79,149,149,0,0,0,12.73,10.52,97.15,97.15,0,0,0,17.6,10.15c3.8,1.66,7.47,3.64,11.37,5.08,3.44,1.28,6.92,2.48,10.41,3.59,3.29,1,4.61.51,6.41-2.39a89.19,89.19,0,0,0,4.13-8.38,257.25,257.25,0,0,0,14.32-35.26,12.08,12.08,0,0,0,.3-7c-1.67-6.16-3-12.41-5.31-18.39-1.41-3.66-1.88-3.84-5.4-2.07a200.93,200.93,0,0,1-28.08,11.61,209.48,209.48,0,0,1-26.47,6.51c-6.5,1.22-13,2.48-19.49,3.7a9.06,9.06,0,0,1-2.38.11,1.94,1.94,0,0,1-.46-3.82,35.46,35.46,0,0,1,4-.9c10.57-2,21.11-4.2,31.57-6.72a169.27,169.27,0,0,0,31.36-11c3.63-1.68,7.23-3.41,10.87-5,2.66-1.18,4.72-.64,6.53,1.62a14,14,0,0,1,2.17,3.71c2.69,7.11,4.42,14.5,6.22,21.86.53,2.12-.06,4.26-.68,6.36A221.15,221.15,0,0,1,341,676.09c-2.9,6.93-6.23,13.66-9.47,20.43a34.17,34.17,0,0,1-2.33,3.91C327.53,703.08,325.2,704.46,322.15,704.22Z"/><path class="cls-1" d="M367.73,637.18c0-3.1.82-5.72,3.58-7.4a7.37,7.37,0,0,1,6.68-.54,17.82,17.82,0,0,1,11,15.45c.17,6-4.91,10.88-11.73,7.43C371.27,649.09,368.23,643.85,367.73,637.18Zm16.44,7.46a11.63,11.63,0,0,0-3.22-7.72c-1.4-1.5-2.73-3.1-5-3.38a2.74,2.74,0,0,0-3.35,1.85,5.43,5.43,0,0,0,.05,3.73c1.14,4.21,3.39,7.52,7.61,9.14,2.06.79,3.66-.24,3.92-2.42C384.21,645.44,384.17,645,384.17,644.64Z"/><path class="cls-1" d="M327.54,550.62c.43,6.44-6.55,11.94-13.57,8.67-5.12-2.39-8.08-6.41-8.33-11.91-.3-6.79,4.73-11.76,12.31-9.84A13.13,13.13,0,0,1,327.54,550.62Zm-9.21,4.88a4.64,4.64,0,0,0,4.42-3.32c1.24-3.37-2.2-9.45-6.44-10.3-2.75-.55-5.16.71-5.88,3.42C309.23,549.81,313.69,555.56,318.33,555.5Z"/><path class="cls-1" d="M404.71,771.18c-.4,2.53-.54,5.25-1.79,7.74-1.43,2.84-3.52,4.78-6.84,4.84a7.68,7.68,0,0,1-7.34-4.54c-2.17-4.54-2.64-9.36-.28-14.08,1.86-3.73,5-5,9-3.82a5.79,5.79,0,0,0,2.32.5c1.51-.17,2.34.72,3,1.87C404.15,766,404.39,768.5,404.71,771.18Zm-4.78.11c0-3.83-.41-4.54-3.26-5.69-2.25-.9-3.65-.35-4.55,1.94a11.51,11.51,0,0,0,.5,9.28A3.51,3.51,0,0,0,396,779c1.61,0,2.39-1.2,2.88-2.49A12.82,12.82,0,0,0,399.93,771.29Z"/><path class="cls-1" d="M339.5,748.17a2,2,0,0,1-1,2.22,2.24,2.24,0,0,1-2.49-.11,4.56,4.56,0,0,1-1.73-3q-2.12-9.81-4.29-19.59c-1-4.67-2.09-9.32-3.16-14a13.27,13.27,0,0,1-.28-3.32,1.63,1.63,0,0,1,1.26-1.8,2,2,0,0,1,2.41,1.09,7,7,0,0,1,.52,1.58c2.23,9.37,4.43,18.75,6.66,28.12a64.71,64.71,0,0,0,2,8.35A2,2,0,0,1,339.5,748.17Z"/><path class="cls-1" d="M326.53,684.51a9.93,9.93,0,0,1-2.2,5.73A6.53,6.53,0,0,1,317,692.1c-2.86-.93-6.68-5.42-6.31-9.07a6.72,6.72,0,0,1,5.39-6.17c5.2-1,9.11,1.41,10.28,6.26C326.43,683.66,326.48,684.22,326.53,684.51Zm-8.39-3.34c-.92.12-1.94-.14-2.65.76-.85,1.07-.58,2.66.76,4.33,1.18,1.45,2.78,2,3.94,1.44a3.25,3.25,0,0,0,.73-.61,3.4,3.4,0,0,0,.61-3.75C320.75,682.15,319.88,680.93,318.14,681.17Z"/><path class="cls-4" d="M202.87,285.62c-1.15,2-.25,4.13.16,6.07.86,4.14,1,8.37,1.73,12.51.81,4.39.75,8.87,1.39,13.27a10.39,10.39,0,0,1,0,2.16,85.29,85.29,0,0,0,.6,13.85c1.43,13.72.6,27.45.82,41.17,0,1.85-.06,2-1.88,1.89-2.22-.09-4.44-.29-6.65-.57a69.24,69.24,0,0,0-13.58-.05c-7.44.51-14.59,2.42-21.78,4.1-3.56.83-7.1,1.77-10.68,2.51a56.55,56.55,0,0,1-15.45,1.18,29.52,29.52,0,0,1-18.74-8,33,33,0,0,1-6.54-8.49,16.82,16.82,0,0,1-1.19-13.2,49.59,49.59,0,0,1,9.24-16.62c4.15-5.24,8.77-10.11,12.41-15.76a23.73,23.73,0,0,0,4.15-12.3,18.48,18.48,0,0,0-1.44-7.93,27,27,0,0,0-5.69-8.78c-3.95-3.84-8-7.55-12.13-11.2a70.52,70.52,0,0,1-14.85-18,57,57,0,0,1-7.16-18.64,14.7,14.7,0,0,1-.18-4.52c.52-3.7.56-7.46,1.6-11.08.56-1.92.24-3.95.64-5.92a51.84,51.84,0,0,1,1.45-6.51c2.12-6.35,3.92-12.8,5.82-19.22.84-2.82,2-5.55,3-8.31a189.74,189.74,0,0,0,7.81-28.3c.63-3.1.87-6.29,1.21-9.45.82-7.66.5-15.33.32-23a66.66,66.66,0,0,0-.78-11.18,3.57,3.57,0,0,1,0-.47,192.11,192.11,0,0,1-.4-25.61,61.39,61.39,0,0,1,6.08-23.45,66.14,66.14,0,0,1,9.14-13.4c8.73-10.24,19.76-17.25,31.83-22.79a134.7,134.7,0,0,1,20.54-7.09c4.38-1.21,8.74-2.46,13.14-3.57,8.57-2.16,17.12-4.38,25.73-6.32,7.29-1.64,14.6-3.16,22-4.19,4.79-.67,9.56-1.58,14.36-2.16,3.94-.48,7.9-.9,11.87-1.17a71.87,71.87,0,0,0,9.26-.8,3.41,3.41,0,0,1,.71-.06c3.92.21,7.81-.38,11.7-.61,4.86-.3,9.73-.16,14.58-.48,2.38-.16,4.81-.65,7.14-.27,4,.64,8,.05,11.91.75,2.41.42,4.91.22,7.38.51,4.18.49,8.36,1,12.52,1.69a127.07,127.07,0,0,1,22.34,6A111.39,111.39,0,0,1,393.31,26.4a30.07,30.07,0,0,1,4.22,3.52c3.82,3.74,7.6,7.54,11.36,11.35,4.65,4.73,9.76,8.94,14.66,13.38,3.94,3.56,8.07,7.05,10.93,11.68a12.5,12.5,0,0,1,1.83,4.9,6.4,6.4,0,0,1-3.08,6.33c-2,1.4-4.14,2.71-6.24,4a18.11,18.11,0,0,0-3.77,3.32,3.92,3.92,0,0,0-.44,5.25,15.22,15.22,0,0,0,3,3.44,13.91,13.91,0,0,1,2.86,4.1c1.38,2.47.09,4.42-1.47,5.69a19.37,19.37,0,0,1-6.71,3c-1.06.33-2.19.46-3.24.81a3.37,3.37,0,0,1-4.17-1.41c-3.33-4.75-7.72-8.5-11.69-12.64-.9-.93-2-1.56-2.94-2.45s-1-1.2.15-2a41.87,41.87,0,0,0,5.26-4.51A17.5,17.5,0,0,0,408,76.26c.25-.86.28-1.83-.75-2.27s-1.56.18-2.13,1c-2.06,2.93-3.79,6.12-6.47,8.56a16.53,16.53,0,0,1-11.42,4.74,50.68,50.68,0,0,1-11.4-1,15.4,15.4,0,0,1-4-1.42c-4.29-2.33-8.79-4.2-13.27-6.09a66.87,66.87,0,0,0-14.49-4,102.56,102.56,0,0,0-18.53-1.55,94.3,94.3,0,0,0-19.17,2.21A88.56,88.56,0,0,0,282.76,85a68.74,68.74,0,0,0-20.91,16.84,86.72,86.72,0,0,0-8.5,12.11c-2.16,3.79-3.17,8-4.42,12.11a170.09,170.09,0,0,1-5.56,16.79,47.39,47.39,0,0,1-6.74,10.7c-2.07,2.63-4.32,5.1-6.41,7.72a30.2,30.2,0,0,1-8.14,6.59,49.24,49.24,0,0,1-16.33,6.58,45.32,45.32,0,0,1-9.22,1,36,36,0,0,1-11.06-1.5c-1.07-.36-2-.37-2.62.86-.92,1.79-.68,2.65,1.33,3.14a39.63,39.63,0,0,0,10.11,1.57c4.86-.06,9.71.11,14.59-1.46.16,1.92-.66,3.44-1,5a34.75,34.75,0,0,0,2.46,21.68,41,41,0,0,0,7.74,10.81c2.89,3.08,6,5.93,8.32,9.54a28.82,28.82,0,0,1,3.59,9.09c1.43,6,.32,11.86-2.34,17.41a3.39,3.39,0,0,1-1.61,2,23,23,0,0,1-.62-3.86,31.15,31.15,0,0,0-9.54-18.07,42.27,42.27,0,0,0-4.42-4,39.15,39.15,0,0,0-10.11-4.83c-7.18-2.42-14.3-5-21.28-7.9a5.53,5.53,0,0,0-3-.58c.08,1.07.94,1.38,1.68,1.81,7.39,4.3,15.09,8,22.72,11.87,2,1,3.86,2.22,5.79,3.36a1.62,1.62,0,0,1,1,1.22c-1.66.39-3.2-.42-4.78-.53-2.22-.17-4.39-.67-6.63-.77-4.52-.21-9.05-.54-13.57-.87a85.55,85.55,0,0,1-15.52-2.5,31,31,0,0,1-13.12-7.1c-8.13-7.34-13.44-16.5-17.29-26.59-1.19-3.13-2-6.38-3.07-9.57-.67-2.05-1.79-2.93-3.14-2.61-1.6.38-2.31,1.6-2.16,3.73a5.81,5.81,0,0,0,.19,1.18c3.14,11.16,7.69,21.64,14.93,30.81,4.14,5.25,8.88,9.82,15,12.74,1.17.56,1.62,1.12,1.21,2.58-1.84,6.63-1.23,13.24.58,19.79a48.08,48.08,0,0,0,10.95,20,39.2,39.2,0,0,0,14.32,9.76,37.71,37.71,0,0,0,16.18,2.41A1,1,0,0,1,202.87,285.62Z"/><path class="cls-5" d="M164.43,232.43c6.26,2.13,12.77,2.88,19.3,3.42,5.82.47,11.65.69,17.47,1.08a42.3,42.3,0,0,1,11.89,2.68,9.61,9.61,0,0,1,6,6,27.18,27.18,0,0,1,1.19,14.86c-.28,1.38-.48,2.74,1,3.63a4.4,4.4,0,0,0,4.86-.86c9-10.55,13.21-22.48,7.1-37.07a33.52,33.52,0,0,0-6.44-9.76c-2-2.24-4.27-4.32-6.29-6.59-8.66-9.69-10-20.67-5.6-32.63a4.11,4.11,0,0,1,2.52-2.34,68.44,68.44,0,0,0,22.41-16.15,56.08,56.08,0,0,0,12.39-21.68c1.75-5.82,3.53-11.63,5.47-17.38a40.35,40.35,0,0,1,11.53-17.4,117,117,0,0,1,15.32-11.51c5.67-3.6,12-5.64,18.36-7.45a86.23,86.23,0,0,1,39.63-1.85,62.16,62.16,0,0,1,14.07,4.67c3.21,1.43,6.41,2.91,9.62,4.34a46.59,46.59,0,0,0,14.64,3.42,24,24,0,0,0,12.81-2.42c1.73-.82,1.76-.78,3,.57a200.74,200.74,0,0,1,27.72,39,9.56,9.56,0,0,1,.59,1.3c.05.12-.05.3-.08.47-.74.5-1.55.18-2.32.15-6.61-.23-13.11.4-19.29,2.91-8.59,3.49-14.27,9.53-16,18.86a16.73,16.73,0,0,0-.44,5.23c.18,1.38.31,1.42,1.72,1.1a7.52,7.52,0,0,0,2.76-1.4,97.85,97.85,0,0,1,23.93-12.51,56.16,56.16,0,0,1,13.8-2.89,2.42,2.42,0,0,1,2.78,1.6,6.3,6.3,0,0,1,.26,5.87c-2.34,5.29-3.38,11-4.26,16.67-1.08,7-2.07,13.91-2.54,20.93a21.81,21.81,0,0,0-10.86-8.53c-9.16-3.3-18.05-2.38-26.61,1.91a23.68,23.68,0,0,1-7.32,2.53,5.26,5.26,0,0,1,.42-2.8q2.4-8.28,4.86-16.55c.16-.54.32-1.07.5-1.6s.26-1.29-.53-1.58-1.13.32-1.38.93c-2.64,6.25-5.68,12.33-7.59,18.89a16,16,0,0,0-.46,7.33c.55,3.15,1,6.31,1.6,9.45,3,16.59,6,33.18,9.84,49.61.78,3.35.56,3.93-2.35,5.67-3.29,2-6.63,3.85-9.95,5.77a7.89,7.89,0,0,0-2.26,1.75,2.12,2.12,0,0,0-.3,2.46,2.07,2.07,0,0,0,2.44,1.07,6.4,6.4,0,0,0,1.75-.74c2.09-1.17,4.18-2.35,6.24-3.56a53.22,53.22,0,0,0,7-4.63,4.83,4.83,0,0,0,1.81-5.26c-2.92-13.91-5.71-27.85-8.51-41.79a9,9,0,0,1-.48-3.53c6.88,5.82,14.73,7.16,23.29,5a29.11,29.11,0,0,0,13.3-7.71c1.92-1.89,3.72-3.91,5.57-5.87.25,2.12.9,4.22.09,6.37a4.15,4.15,0,0,0,.37,2.57c1.28,4.55,3.14,8.89,4.61,13.37,1.42,4.32,3.13,8.55,3.95,13.06a16.29,16.29,0,0,1,.28,4.77,141.38,141.38,0,0,1-7.25,31.18c-5.19,14.32-12.11,27.84-18.47,41.61-6.74,14.59-13.52,29.15-20.23,43.74a7.57,7.57,0,0,1-2.77,3.2c-6.22,4.19-13.18,6.34-20.5,7.65-3.81.68-7.46,0-11.18-.48a289.88,289.88,0,0,1-31.66-5.26A287.09,287.09,0,0,1,276.9,344.9c-11.93-5-23.2-11.13-33-19.72-.6-.53-1.19-1.07-1.81-1.57a22.92,22.92,0,0,1-6.65-9.19c-5.33-12.76-11.25-25.26-17-37.82-.44-1-.89-1.88-1.37-2.8a6.94,6.94,0,0,0-.91-1.41,1.9,1.9,0,0,0-2.12-.73,1.56,1.56,0,0,0-1.09,1.91c.39,1.57-.42,2.09-1.72,2.55a49.75,49.75,0,0,1-12.08,2.9c-7.2.66-13.36-2-18.87-6.26-8.36-6.49-13.31-15.17-15.73-25.37-.41-1.71-.68-3.45-1-5.17a.57.57,0,0,0-.12-.94l-.36-3.38a2.44,2.44,0,0,0-.12-2.37c0-1,0-2-.07-3Zm90.87-78.61a3.29,3.29,0,0,0-1.81,2.83c1.15-.59,2.4-1,3-2.3,3.25-2.17,6.45-4.41,9.75-6.49a55.87,55.87,0,0,1,14.2-6.84,59.31,59.31,0,0,1,41.2,2.7c6.72,2.93,13.1,6.3,18,11.95a5.11,5.11,0,0,0,1.28,1.08,2.5,2.5,0,0,0,4-2.07c.16-10.65-4.56-18.38-14-23.2a38.22,38.22,0,0,0-16.67-3.89c-14.92-.37-28.71,3.73-41.73,10.74-4.63,2.49-8.2,6.33-11.89,10C258.77,150.09,256.72,151.65,255.3,153.82Zm31.64,27.77a2.35,2.35,0,0,1-.58-.08,7.56,7.56,0,0,0-8.2,1.52c-2.29,2.14-1.45,4.83-.47,7.36.06.15.13.3.19.44,2.52,6,7.21,9.86,13,12.45a35.34,35.34,0,0,0,17,2.92,32,32,0,0,0,16.59-5.49,15.61,15.61,0,0,0,4.94-4.8c1.35-2.37.68-5.54-1.68-6.64a7.14,7.14,0,0,1-3.57-2.91,2.5,2.5,0,0,0-.86-.82c-4.33-2.73-8.69-5.5-13.87-6.2-5-.66-9.93-1.38-15-1.58C291.07,177.62,288.32,178.17,286.94,181.59Zm78,70.87a40.87,40.87,0,0,0-10.11,2.23c-1.3.41-2.58.84-3.86,1.29-.91.32-1.55.9-1.39,2s1.06,1.37,2,1.38a12.13,12.13,0,0,0,2.61-.28c3.13-.62,6.25-1.3,9.38-2,1.13-.23,2.16-.36,2.87.93a1.52,1.52,0,0,0,2.09.62,2,2,0,0,0,1.07-2.2C369.34,253.86,367.71,252.41,365,252.46ZM346.2,153.22c0,1.43,0,2.86,0,4.29s.63,2.12,1.66,2.27a2.22,2.22,0,0,0,2.47-1.44,6.22,6.22,0,0,0,.52-2.79,89.72,89.72,0,0,0-.81-10,4.84,4.84,0,0,0-.22-.93c-.53-1.5-1.64-2.23-2.85-1.9s-1.64,1.23-1.37,2.88A44.9,44.9,0,0,1,346.2,153.22Z"/><path class="cls-5" d="M207.65,283.51a26.35,26.35,0,0,0,5.69-2.45c1.1-.7,1.51-.21,1.93.77,1.7,4,3.45,7.91,5.19,11.86q5.23,11.85,10.5,23.68a23.43,23.43,0,0,0,5,7.69,71.1,71.1,0,0,0,12.74,10.1c4.66,2.8,9.4,5.46,14.27,7.88a255.87,255.87,0,0,0,66.83,22.43c4.56.86,9.13,1.59,13.71,2.32,2.87.46,2.94,0,2.86,3.36-.19,7.43-.55,14.86-.67,22.29a175.12,175.12,0,0,0,1.15,20.1c.93,9.38,1.84,18.77,3.12,28.12a68.36,68.36,0,0,0,1.37,8,6.71,6.71,0,0,1-.24,4.22c-1,2.69-2,5.41-3,8.08q-5.67,14-11.41,28c-.67,1.64-.68,1.62-2.31,1.19a7.7,7.7,0,0,0-1.89-.31c-4.06.05-7.61-1.59-11.14-3.32-2.15-1.06-4.33-2-6.5-3.06a4.62,4.62,0,0,0-2.34-.44,32.34,32.34,0,0,0-5.55,1.44,1.1,1.1,0,0,0-.9,1.25c.11.69.7.85,1.27.83a11.41,11.41,0,0,0,2.62-.24,4.65,4.65,0,0,1,4.43,1.13c1.1.93,2.32,1.71,3.41,2.65a25.86,25.86,0,0,0,8.41,4.48,14.87,14.87,0,0,0,5,.76,4.82,4.82,0,0,1,2.84.35c-3,7.77-5.66,15.66-8.34,23.68-1.85-.84-2.69-2.33-3.62-3.68-1.67-2.45-3.27-4.93-5.17-7.21a35.41,35.41,0,0,0-15.08-11.1c-14.45-5.21-26.87-13.71-38.35-23.66-8.09-7-16.35-13.84-24.48-20.81a59,59,0,0,1-5.73-5.45c-.26-.3-.51-.69-.85-.82-2.77-1-4.46-3.33-6.3-5.39a203.29,203.29,0,0,1-19.91-25.47,32.26,32.26,0,0,1-1.64-2.93,2.3,2.3,0,0,1,.44-2.91,4.24,4.24,0,0,1,.79.5c2,1.9,4.82.54,5.28-2,.52-2.9,1-5.83,1.32-8.76,2.41-18.89,1.77-37.85.93-56.76-.51-11.56-1.21-23.16-2.82-34.64a109,109,0,0,0-5-22.18,2.43,2.43,0,0,0-.65-1.26.64.64,0,0,0-.5-.53c-.18-.33-.46-.69.2-.81a1.07,1.07,0,0,0,.78-.43l1.92-.5C207.39,283.73,207.53,283.66,207.65,283.51Z"/><path class="cls-2" d="M176.43,431.9c.6-6.17.22-12.46,1.93-18.52,1.22-4.33,2.71-8.52,6.2-11.67a26,26,0,0,1,6.66-4.2c4.21-1.94,8.35-4,12.5-6.07.58-.28,1.14-.59,1.73-.83.82-.34,1.27,0,1.18.86-.27,2.46-.6,4.9-.89,7.35a2.58,2.58,0,0,1-1.39,1.85c-1,.67-2,1.26-3,1.89a5.17,5.17,0,0,0-2.74,5.18A24.89,24.89,0,0,0,202.39,419c4.27,6.95,9.37,13.31,14.39,19.72,5.74,7.32,12.62,13.54,19.4,19.85,7.41,6.91,15.17,13.43,23,19.86,8.71,7.14,18.1,13.37,26.93,20.34l.2.14c2,1.55,2,1.73-.2,3-4.9,2.89-8.68,7-12,11.51a78.92,78.92,0,0,0-7,11.44,12.21,12.21,0,0,0-.71,1.51,2.25,2.25,0,0,0,1.05,2.87,2,2,0,0,0,2.76-.6,42.6,42.6,0,0,0,2.57-4.31,57.82,57.82,0,0,1,4.83-7.7A6.27,6.27,0,0,1,278,516c.48-.49.94-1.33,1.74-.71s.07,1.14-.26,1.67a56.58,56.58,0,0,0-7.3,17.87c-.71,3.26-1.13,6.59-1.7,9.88a22.2,22.2,0,0,1-2.87,7.83c-1.68,2.77-3.26,3.23-6.21,1.81-4.27-2.05-7.42-5.44-10.61-8.82-4.9-5.18-8.13-11.43-11.42-17.63-5.56-10.43-11.2-20.81-17.92-30.56A140.33,140.33,0,0,0,209,481.89c-6.38-6.93-12.86-13.78-19.2-20.75a58.83,58.83,0,0,1-12.62-22.61A18.28,18.28,0,0,1,176.43,431.9Zm25,.21a2.55,2.55,0,0,0-.75-2.18,9.19,9.19,0,0,1-1.94-3c-.91-1.77-1.77-3.57-2.73-5.31a31.42,31.42,0,0,1-3.43-7.83,2.16,2.16,0,0,0-2.51-1.67,2.35,2.35,0,0,0-1.84,2.67,17.38,17.38,0,0,0,1.29,3.58c2.23,4.59,4.52,9.14,6.81,13.69a9.68,9.68,0,0,0,1,1.6,2.22,2.22,0,0,0,2.77.76A2.17,2.17,0,0,0,201.45,432.11Zm-6.35,4.56c-.51-1.28-1.09-3-1.88-4.62a1.81,1.81,0,0,0-2.3-.74,1.71,1.71,0,0,0-1.38,1.72,9.51,9.51,0,0,0,2.16,5.66,1.84,1.84,0,0,0,2.39.4C194.84,438.67,195.22,438,195.1,436.67Z"/><path class="cls-4" d="M435.34,260.23c1.77,1.74,2.4,3.69,3.35,5.39,3.29,5.94,6.19,12.07,7.56,18.8a47.79,47.79,0,0,1,1.16,7.77,30.33,30.33,0,0,1-5.05,17.64c-2.88,4.55-6.69,8.25-10.65,11.89C426,326.94,420,331.87,415.22,338c-3.55,4.57-4.37,9.8-3.54,15.4.43,2.9.9,5.81,1.21,8.73.68,6.43-2.51,11.22-7,15.28a30,30,0,0,1-10.32,6.36,39.72,39.72,0,0,1-8.34,1.91,33,33,0,0,1-6.19.42,48.86,48.86,0,0,1-14.48-2.62c-4.54-1.71-9-3.73-13.79-4.71-2.05-.42-1.9-.57-2.33-2.68a33.18,33.18,0,0,1-.41-5.71c0-1.12.41-1.6,1.55-1.55q3.09.13,6.19.38a45.67,45.67,0,0,0,17.27-1.59A54.67,54.67,0,0,0,389.32,361a8.37,8.37,0,0,0,3-3.29c4.4-9.13,9.27-18,13.14-27.43a176,176,0,0,1,7.32-16.38c7.08-13.16,12.62-27,17.94-40.94C432.29,268.84,433.74,264.72,435.34,260.23Z"/><path class="cls-2" d="M83.55,490.34C68,498,52.53,505,37.66,512.69c-.58-.13-.73-.34-.74-.57-.39-7.88.62-15.47,4.56-22.46A36,36,0,0,1,58,474.51c11.61-5.45,23.83-9.13,36.23-12.25a215.52,215.52,0,0,1,24.68-4.55,77,77,0,0,1,11.47-.62c4.88.09,9.75,0,14.63.08a101.61,101.61,0,0,1,14.77,1.24c2.35.36,4.76.26,7.14.57a25.37,25.37,0,0,1,4.9,1.09,2.33,2.33,0,0,1,1.76,2.76,5.34,5.34,0,0,1-3.74,4.8c-3,1.2-6.15,2.22-9.14,3.57-3.94,1.78-7.72,3.86-11.62,5.72-4.32,2.06-8.67,4.05-13,6.14-1.5.73-2.89,1.68-4.36,2.46q-10.92,5.75-21.87,11.45c-3.25,1.7-6.3,3.77-9.73,5.15-2.6,1-3.95.76-5.43-1.71-1.81-3-3.32-6.19-5.07-9.24-2.53-4.37-5.41-8.5-9.48-11.6-4.29-3.27-9-5.61-14.58-5.11a25.47,25.47,0,0,0-13.25,5.12,35,35,0,0,0-13.23,20.23,10,10,0,0,0-.26,2.61c0,1.79.7,2.65,2,2.69s2.12-.74,2.18-2.35a16.07,16.07,0,0,1,1.54-6c3.38-7.68,8.51-13.59,16.64-16.58,5.87-2.16,11-.71,15.72,2.86a33.27,33.27,0,0,1,4.1,4C81.87,488,82.58,489.08,83.55,490.34Zm63.64-21.68-.49-1,1.31-.56c1.54-.66,3.11-1.24,4.6-2a2.4,2.4,0,0,0,1.29-3c-.32-1-1.22-1.46-2.78-1.18a8.49,8.49,0,0,0-1.8.61C144.17,463.72,139,466,133.86,468c-10.46,4.21-20.49,9.33-30.51,14.45a39.45,39.45,0,0,0-3.9,2.34c-1.2.81-1.5,1.84-1,2.85s1.64,1.33,3.11.66a10.64,10.64,0,0,0,1.06-.55c5.8-3.4,12-5.9,18-9,1.42-.72,2.94-1.24,4.41-1.85l.66.83a1.92,1.92,0,0,0-.11,2.61,2.47,2.47,0,0,0,2.62.65,5.51,5.51,0,0,0,1.34-.48c4.33-2,8.71-3.85,13.18-5.49a25.61,25.61,0,0,0,5.43-2.41c.79-.52,1.56-1.22,1.25-2.35A2,2,0,0,0,147.19,468.66Z"/><path class="cls-3" d="M393.73,471.27c-.09-.55-.6-.69-1-1-2.17-1.88-2.1-3.79.22-5.7,2.15.51,4.09-.54,6.11-.89A26.77,26.77,0,0,1,413.19,465a25.38,25.38,0,0,1,12.6,10.11c10.18,14.93,19.76,30.2,27.34,46.65A431,431,0,0,1,469.93,563c1.46,4.31,2.9,8.63,4.41,12.92a3.32,3.32,0,0,1-.33,3.37,23.21,23.21,0,0,0-1.6,3c-.51,1-.75,2,.17,2.86a2.11,2.11,0,0,0,3,0,4.51,4.51,0,0,1,.62-.33c.71.31.77,1,.93,1.57A256.71,256.71,0,0,0,485.72,613c.54,1.38,1.33,2.77,1,4.37l0,0a9.9,9.9,0,0,1-2.94-2.75c-4.42-5-9.31-9.65-13.8-14.62a5.58,5.58,0,0,1-1.85-3,1.79,1.79,0,0,0-1.56-1.6,4.18,4.18,0,0,1-2.28-1.64,1.51,1.51,0,0,1-.35-1.93,4.32,4.32,0,0,0-.29-3.69c-4-9.56-8.24-19-11.71-28.83-3.07-8.65-6.66-17.09-10.3-25.52a329,329,0,0,0-22.05-43.27,61.39,61.39,0,0,0-10.1-13,23.08,23.08,0,0,0-11.51-6c-.13-.26-.28-.31-.47-.07A17.63,17.63,0,0,1,393.73,471.27Z"/><path class="cls-2" d="M351.56,409.51c2.57,2.15,4.33,4.35,6.54,6.07,2.46,1.91,4.69,4.1,7.18,6a19,19,0,0,1,5,6.33c3.23,5.88,4.89,12.3,6.18,18.8q3.15,15.94,6.09,31.94c1.71,9.4,3.49,18.8,4.57,28.31a81.68,81.68,0,0,1,.87,10.47,12.56,12.56,0,0,1-.51,3.3c-.74,2.66-2.24,3.4-4.91,2.34a19.06,19.06,0,0,1-7-4.52c-2.95-3.14-5.93-6.26-8.84-9.44A142.93,142.93,0,0,0,356.56,499c-3.22-2.88-6.6-5.58-10.72-7.08-1-.35-1-.76-.68-1.57.66-1.54,1.26-3.11,1.92-4.65a261.75,261.75,0,0,0,10.09-29.17,142.57,142.57,0,0,0,3.58-14.88c1-5.64,1.31-11.23-.16-16.83a2.64,2.64,0,0,0-.73-1.47c-2.12-1.68-3.81-3.91-6.43-4.91-.46-.18-.91-.33-1-.9A37.31,37.31,0,0,1,351.56,409.51Z"/><path class="cls-2" d="M471.46,655.65c-1-.22-2.25-.42-3.46-.79a204.91,204.91,0,0,1-21.41-7.65c-3.45-1.48-7-2.82-10.42-4.26a15,15,0,0,1-6.81-5.46c-3.24-4.74-6.83-9.25-9.59-14.32-.07-.14-.18-.26-.26-.4-1.24-2.28-1.14-2.58,1.27-3.36a237.43,237.43,0,0,0,32.92-13.08c3.14-1.57,6.4-2.89,9.57-4.41a1.85,1.85,0,0,1,2.53.38c4.68,5,9.44,10,14.11,15,3.92,4.21,7.76,8.49,11.63,12.73.43.48.88.93,1.29,1.42a2.33,2.33,0,0,1,.33,2.63c-1.5,3.86-4,7.08-6.38,10.38a38.65,38.65,0,0,1-9.54,9A11.64,11.64,0,0,1,471.46,655.65ZM483,637.45a6.63,6.63,0,0,0-.62-2.8,2.48,2.48,0,0,0-4.05-1.08,5,5,0,0,1-2.36,1,9.63,9.63,0,0,0-3.89,1.76,5.73,5.73,0,0,0-2.2,6.53c.95,2.29,4.19,4.36,6.5,4.16a6.85,6.85,0,0,0,5.88-4.89C482.6,640.61,482.73,639,483,637.45Z"/><path class="cls-6" d="M425.31,197.55c-1.85,2-3.65,4-5.57,5.87a29.11,29.11,0,0,1-13.3,7.71c-8.56,2.18-16.41.84-23.29-5-1.24-5-2.19-10.12-2.92-15.23-.26-1.82-.54-3.81.28-5.66a23.68,23.68,0,0,0,7.32-2.53c8.56-4.29,17.45-5.21,26.61-1.91a21.81,21.81,0,0,1,10.86,8.53c.24.58.47,1.17.74,1.73C427.13,193.39,426.52,195.51,425.31,197.55Z"/><path class="cls-4" d="M392.77,154c.18-3.12,1.83-5.59,3.78-7.79a22.17,22.17,0,0,1,11.14-6.62A63.57,63.57,0,0,1,417.3,138c3.16-.36,6.18.48,9.26.18a2.13,2.13,0,0,1,.93.17.73.73,0,0,1,.55.69c0,.44-.35.48-.66.53l-5.63.94c-7.58,1.27-14.37,4.6-21.05,8.18-2.82,1.51-5.29,3.53-7.94,5.29Z"/><path class="cls-2" d="M205.31,284.06a1.07,1.07,0,0,1-.78.43c-.66.12-.38.48-.2.81l-.6.23-.86.09a1,1,0,0,0-.52-.72C203.09,283.76,204.2,283.94,205.31,284.06Z"/><path class="cls-4" d="M162.93,235.53a2.44,2.44,0,0,1,.12,2.37A1.74,1.74,0,0,1,162.93,235.53Z"/><path class="cls-4" d="M164.43,232.43l-1.57.14c-.44-.57-.16-.83.42-.74A1.62,1.62,0,0,1,164.43,232.43Z"/><path class="cls-4" d="M163.41,241.28a.57.57,0,0,1,.12.94C163.08,242,163,241.65,163.41,241.28Z"/><path class="cls-4" d="M203.73,285.53l.6-.23a.64.64,0,0,1,.5.53A1.37,1.37,0,0,1,203.73,285.53Z"/><path class="cls-2" d="M118.41,498.32l-1,.08c.13-.47.52-.53.91-.6C118.38,498,118.39,498.15,118.41,498.32Z"/><path class="cls-2" d="M117.48,498.38a.46.46,0,0,1-.5.5C117,498.53,117.16,498.39,117.48,498.38Z"/><path class="cls-2" d="M397.57,471.44c.19-.24.34-.19.47.07Z"/><path class="cls-3" d="M486.75,617.38l.22.18s-.11,0-.13,0a1,1,0,0,1-.06-.18Z"/><path class="cls-4" d="M207.65,283.51c-.12.15-.26.22-.42.05A.33.33,0,0,1,207.65,283.51Z"/><path class="cls-4" d="M392.76,153.94c0,.07-.09.2-.1.2-.17,0-.13-.12.11-.19Z"/><path class="cls-1" d="M508.68,711.4c-1.32.08-1.85-.93-2.27-2-1-2.45-1.92-4.91-2.83-7.38-2.8-7.64-5.59-15.29-8.75-22.79-2.33-5.52-4.8-11-7.2-16.46-.16-.37-.35-.72-.48-1.1a2.34,2.34,0,0,1,.92-2.9,2.13,2.13,0,0,1,2.83,1.05c1,1.75,1.87,3.54,2.66,5.37,3.36,7.68,6.91,15.28,9.92,23.1,2.44,6.33,4.77,12.7,7.12,19.07a3.75,3.75,0,0,1,.43,2.31A2.11,2.11,0,0,1,508.68,711.4Z"/><path class="cls-1" d="M379.46,579.44a7,7,0,0,1-1.37-.22,2.06,2.06,0,0,1-1.56-2.16,1.86,1.86,0,0,1,1.85-1.85c7.4-.7,14.58-2.57,21.87-3.83a9.86,9.86,0,0,1,1.44-.09,1.83,1.83,0,0,1,1.79,1.32,1.77,1.77,0,0,1-.34,2,3.93,3.93,0,0,1-2.43,1.41q-9.88,1.69-19.78,3.35A12.7,12.7,0,0,1,379.46,579.44Z"/><path class="cls-2" d="M384.17,644.64c0,.4,0,.8,0,1.2-.26,2.18-1.86,3.21-3.92,2.42-4.22-1.62-6.47-4.93-7.61-9.14a5.43,5.43,0,0,1-.05-3.73,2.74,2.74,0,0,1,3.35-1.85c2.28.28,3.61,1.88,5,3.38A11.63,11.63,0,0,1,384.17,644.64Z"/><path class="cls-2" d="M318.33,555.5c-4.64.06-9.1-5.69-7.9-10.2.72-2.71,3.13-4,5.88-3.42,4.24.85,7.68,6.93,6.44,10.3A4.64,4.64,0,0,1,318.33,555.5Z"/><path class="cls-2" d="M399.93,771.29a12.82,12.82,0,0,1-1,5.26c-.49,1.29-1.27,2.48-2.88,2.49a3.51,3.51,0,0,1-3.4-2.22,11.51,11.51,0,0,1-.5-9.28c.9-2.29,2.3-2.84,4.55-1.94C399.52,766.75,399.93,767.46,399.93,771.29Z"/><path class="cls-2" d="M318.14,681.17c1.74-.24,2.61,1,3.39,2.17a3.4,3.4,0,0,1-.61,3.75,3.25,3.25,0,0,1-.73.61c-1.16.61-2.76,0-3.94-1.44-1.34-1.67-1.61-3.26-.76-4.33C316.2,681,317.22,681.29,318.14,681.17Z"/><path class="cls-6" d="M286.94,181.59c1.38-3.42,4.13-4,7.55-3.83,5,.2,10,.92,15,1.58,5.18.7,9.54,3.47,13.87,6.2a2.5,2.5,0,0,1,.86.82,7.14,7.14,0,0,0,3.57,2.91c2.36,1.1,3,4.27,1.68,6.64a15.61,15.61,0,0,1-4.94,4.8,32,32,0,0,1-16.59,5.49,35.34,35.34,0,0,1-17-2.92c-5.76-2.59-10.45-6.41-13-12.45-.06-.14-.13-.29-.19-.44-1-2.53-1.82-5.22.47-7.36a7.56,7.56,0,0,1,8.2-1.52A2.35,2.35,0,0,0,286.94,181.59Z"/><path class="cls-1" d="M255.3,153.82c1.42-2.17,3.47-3.73,5.28-5.51,3.69-3.65,7.26-7.49,11.89-10,13-7,26.81-11.11,41.73-10.74a38.22,38.22,0,0,1,16.67,3.89c9.45,4.82,14.17,12.55,14,23.2a2.5,2.5,0,0,1-4,2.07,5.11,5.11,0,0,1-1.28-1.08c-4.91-5.65-11.29-9-18-11.95a59.31,59.31,0,0,0-41.2-2.7,55.87,55.87,0,0,0-14.2,6.84c-3.3,2.08-6.5,4.32-9.75,6.49A1,1,0,0,1,255.3,153.82Zm45.87-20.19c14,.91,26.28,6.44,37.48,14.49a1.14,1.14,0,0,0,.22-1.27,17.67,17.67,0,0,0-7.2-9.27c-5.5-3.85-11.88-4.82-18.37-5.19A45.49,45.49,0,0,0,301.17,133.63Z"/><path class="cls-1" d="M380.51,185.26c-.82,1.85-.54,3.84-.28,5.66.73,5.11,1.68,10.2,2.92,15.23a9,9,0,0,0,.48,3.53c2.8,13.94,5.59,27.88,8.51,41.79a4.83,4.83,0,0,1-1.81,5.26,53.22,53.22,0,0,1-7,4.63c-2.06,1.21-4.15,2.39-6.24,3.56a6.4,6.4,0,0,1-1.75.74,2.07,2.07,0,0,1-2.44-1.07,2.12,2.12,0,0,1,.3-2.46,7.89,7.89,0,0,1,2.26-1.75c3.32-1.92,6.66-3.81,9.95-5.77,2.91-1.74,3.13-2.32,2.35-5.67-3.83-16.43-6.81-33-9.84-49.61-.58-3.14-1.05-6.3-1.6-9.45a16,16,0,0,1,.46-7.33c1.91-6.56,4.95-12.64,7.59-18.89.25-.61.52-1.25,1.38-.93s.77.91.53,1.58-.34,1.06-.5,1.6q-2.44,8.26-4.86,16.55A5.26,5.26,0,0,0,380.51,185.26Z"/><path class="cls-1" d="M365,252.46c2.74-.05,4.37,1.4,4.62,4a2,2,0,0,1-1.07,2.2,1.52,1.52,0,0,1-2.09-.62c-.71-1.29-1.74-1.16-2.87-.93-3.13.65-6.25,1.33-9.38,2a12.13,12.13,0,0,1-2.61.28c-.9,0-1.79-.3-2-1.38s.48-1.64,1.39-2c1.28-.45,2.56-.88,3.86-1.29A40.87,40.87,0,0,1,365,252.46Z"/><path class="cls-1" d="M346.2,153.22a44.9,44.9,0,0,0-.59-7.59c-.27-1.65.22-2.57,1.37-2.88s2.32.4,2.85,1.9a4.84,4.84,0,0,1,.22.93,89.72,89.72,0,0,1,.81,10,6.22,6.22,0,0,1-.52,2.79,2.22,2.22,0,0,1-2.47,1.44c-1-.15-1.63-1-1.66-2.27S346.2,154.65,346.2,153.22Z"/><path class="cls-2" d="M255.3,153.82a1,1,0,0,0,1.17.53c-.58,1.31-1.83,1.71-3,2.3A3.29,3.29,0,0,1,255.3,153.82Z"/><path class="cls-1" d="M201.45,432.11a2.17,2.17,0,0,1-1.3,2.33,2.22,2.22,0,0,1-2.77-.76,9.68,9.68,0,0,1-1-1.6c-2.29-4.55-4.58-9.1-6.81-13.69a17.38,17.38,0,0,1-1.29-3.58,2.35,2.35,0,0,1,1.84-2.67,2.16,2.16,0,0,1,2.51,1.67,31.42,31.42,0,0,0,3.43,7.83c1,1.74,1.82,3.54,2.73,5.31a9.19,9.19,0,0,0,1.94,3A2.55,2.55,0,0,1,201.45,432.11Z"/><path class="cls-1" d="M195.1,436.67c.12,1.34-.26,2-1,2.42a1.84,1.84,0,0,1-2.39-.4,9.51,9.51,0,0,1-2.16-5.66,1.71,1.71,0,0,1,1.38-1.72,1.81,1.81,0,0,1,2.3.74C194,433.67,194.59,435.39,195.1,436.67Z"/><path class="cls-1" d="M125.07,477c-1.47.62-3,1.14-4.41,1.86-6,3.05-12.22,5.55-18,9a10.64,10.64,0,0,1-1.06.55c-1.47.67-2.55.43-3.11-.66s-.22-2,1-2.85a39.45,39.45,0,0,1,3.9-2.34c10-5.12,20.05-10.24,30.51-14.45,5.18-2.09,10.31-4.32,15.46-6.48a8.49,8.49,0,0,1,1.8-.61c1.56-.28,2.46.14,2.78,1.18a2.4,2.4,0,0,1-1.29,3c-1.49.76-3.06,1.34-4.6,2l-1.31.56a3.93,3.93,0,0,0-.7.11c-4.78,2-9.59,3.91-14.32,6C129.45,474.81,127,475.43,125.07,477Z"/><path class="cls-1" d="M147.19,468.66a2,2,0,0,1,2.25,1.69c.31,1.13-.46,1.83-1.25,2.35a25.61,25.61,0,0,1-5.43,2.41c-4.47,1.64-8.85,3.5-13.18,5.49a5.51,5.51,0,0,1-1.34.48,2.47,2.47,0,0,1-2.62-.65,1.92,1.92,0,0,1,.11-2.61C132.78,474.53,140,471.58,147.19,468.66Z"/><path class="cls-4" d="M147.19,468.66c-7.21,2.92-14.41,5.87-21.46,9.16l-.66-.84c2-1.55,4.38-2.17,6.61-3.16,4.73-2.09,9.54-4,14.32-6a3.93,3.93,0,0,1,.7-.11Z"/><path class="cls-1" d="M483,637.45c-.24,1.57-.37,3.16-.74,4.7a6.85,6.85,0,0,1-5.88,4.89c-2.31.2-5.55-1.87-6.5-4.16a5.73,5.73,0,0,1,2.2-6.53,9.63,9.63,0,0,1,3.89-1.76,5,5,0,0,0,2.36-1,2.48,2.48,0,0,1,4.05,1.08A6.63,6.63,0,0,1,483,637.45Zm-4.87,2.42c0-.7-.08-1.34-1-1.26a4,4,0,0,0-2.95,1.79c-.34.48-.12.91.23,1.28a2.05,2.05,0,0,0,2.4.52A2.22,2.22,0,0,0,478.1,639.87Z"/><path class="cls-4" d="M301.17,133.63a45.49,45.49,0,0,1,12.13-1.24c6.49.37,12.87,1.34,18.37,5.19a17.67,17.67,0,0,1,7.2,9.27,1.14,1.14,0,0,1-.22,1.27C327.45,140.07,315.21,134.54,301.17,133.63Z"/><path class="cls-2" d="M478.1,639.87a2.22,2.22,0,0,1-1.3,2.33,2.05,2.05,0,0,1-2.4-.52c-.35-.37-.57-.8-.23-1.28a4,4,0,0,1,2.95-1.79C478,638.53,478.14,639.17,478.1,639.87Z"/><circle class="cls-7" cx="297.36" cy="187.44" r="12.5"/><path d="M297.36,174.69a15,15,0,0,1,9.21,3.54,12.85,12.85,0,0,1,4.54,9.21,14,14,0,0,1-3.74,10,14.32,14.32,0,0,1-10,4.48A15,15,0,0,1,286.77,198a13.76,13.76,0,0,1-4.41-10.59,12.59,12.59,0,0,1,1.53-5.58,13.22,13.22,0,0,1,3.68-4.2A15.76,15.76,0,0,1,297.36,174.69Zm0,.5a9.93,9.93,0,0,0-4.55,1.28,10.33,10.33,0,0,0-3.35,3.08,12.82,12.82,0,0,0-2.1,7.89,11.66,11.66,0,0,0,2.91,7.09,10.06,10.06,0,0,0,7.09,3.41,10.69,10.69,0,0,0,7.66-2.83,11.06,11.06,0,0,0,3.59-7.67,12.23,12.23,0,0,0-2.79-8.46A10.65,10.65,0,0,0,297.36,175.19Z"/><circle class="cls-7" cx="394.36" cy="194.44" r="12.5"/><path d="M394.36,181.69a15,15,0,0,1,9.21,3.54,12.85,12.85,0,0,1,4.54,9.21,14,14,0,0,1-3.74,10,14.32,14.32,0,0,1-10,4.48A15,15,0,0,1,383.77,205a13.76,13.76,0,0,1-4.41-10.59,12.59,12.59,0,0,1,1.53-5.58,13.22,13.22,0,0,1,3.68-4.2A15.76,15.76,0,0,1,394.36,181.69Zm0,.5a9.93,9.93,0,0,0-4.55,1.28,10.33,10.33,0,0,0-3.35,3.08,12.82,12.82,0,0,0-2.1,7.89,11.66,11.66,0,0,0,2.91,7.09,10.06,10.06,0,0,0,7.09,3.41,10.69,10.69,0,0,0,7.66-2.83,11.06,11.06,0,0,0,3.59-7.67,12.23,12.23,0,0,0-2.79-8.46A10.65,10.65,0,0,0,394.36,182.19Z"/><path d="M365.07,332.16c-12.77-.24-23-4.8-31.8-12.7a62.12,62.12,0,0,1-14.46-19.82,6,6,0,0,0-1.55-2c-.82-.68-1.43-1.34-1-2.42s1.46-1.11,2.45-.88a26.78,26.78,0,0,0,13.28-.28c3.77-1,7.49-2.28,11.16-3.63a207.24,207.24,0,0,1,26.14-7.84,81,81,0,0,1,22.09-2.24c2.06.12,4.15.16,5.91,1.56,1.6,1.27,1.9,2.36.94,4.14a2.75,2.75,0,0,1-.26.4c-5.79,7.79-7.85,17-10.16,26.18a22.14,22.14,0,0,0-.43,8.58c.42,2.91-1,4.74-3.32,6A40.16,40.16,0,0,1,371,331.59C368.76,331.93,366.52,332,365.07,332.16Zm-39.3-32.87a4.45,4.45,0,0,0,.19.78c.29.56.61,1.12,1,1.66a34.73,34.73,0,0,0,9.9,10,50.24,50.24,0,0,0,24.8,8.79,33.56,33.56,0,0,0,15.74-2.3,4.52,4.52,0,0,0,3.06-3.55,93.14,93.14,0,0,1,9.34-25.09,9.16,9.16,0,0,0,.54-1.59,10.55,10.55,0,0,0-1.41,0c-6.49.89-13,1.57-19.45,2.74-9.43,1.73-18.78,3.86-28.18,5.74C336.17,297.48,331.05,298.33,325.77,299.29Z"/><path class="cls-6" d="M325.77,299.29c5.28-1,10.4-1.81,15.48-2.83,9.4-1.88,18.75-4,28.18-5.74,6.43-1.17,13-1.85,19.45-2.74a10.55,10.55,0,0,1,1.41,0,9.16,9.16,0,0,1-.54,1.59,93.14,93.14,0,0,0-9.34,25.09,4.52,4.52,0,0,1-3.06,3.55,33.56,33.56,0,0,1-15.74,2.3,50.24,50.24,0,0,1-24.8-8.79,34.73,34.73,0,0,1-9.9-10c-.34-.54-.66-1.1-1-1.66A4.45,4.45,0,0,1,325.77,299.29Z"/><path d="M320.18,203.41a3.75,3.75,0,0,1-2.48,2.64,48.07,48.07,0,0,1-7.87,2.76,36.11,36.11,0,0,1-19-.65,33.62,33.62,0,0,1-17.11-12.11,40,40,0,0,1-7.09-14c-.65-2.6-.33-3.06,2.21-3.64a74.25,74.25,0,0,0,14.86-4.52,36.35,36.35,0,0,1,16.37-3c6.81.17,13.35,1.33,19.31,4.86a22,22,0,0,1,9.3,10.33,90.14,90.14,0,0,1,2.91,8.87,4,4,0,0,1,.21,1.41c0,.92-.64,1.3-1.47,1a4.42,4.42,0,0,1-2.94-2.59c-1.71-4.92-5.19-8.4-9.48-11.09a23.37,23.37,0,0,0-6-2.83c-7.92-2.19-15.83-2.44-23.28,1.67a38.12,38.12,0,0,0-5.78,4.58,2.71,2.71,0,0,0-.58,3.68,34.72,34.72,0,0,0,2.82,4.71c7.1,8.95,19.51,12.36,30.79,8.57a23.55,23.55,0,0,1,2.51-.8A6.52,6.52,0,0,1,320.18,203.41Z"/><path d="M379.6,194.15c-.25-2.54-.41-4.44-.62-6.34a2.82,2.82,0,0,1,.92-2.6,45.77,45.77,0,0,1,4.89-4.16A28.05,28.05,0,0,1,395,177c9.55-1.83,18.84-1.4,27.92,2.67,3.82,1.71,8.07,2.47,12.13,3.65.53.15,1.11.17,1.64.34,1.42.46,1.83,1,1.45,2.51a37.41,37.41,0,0,1-1.81,5.7C431.12,203.36,423,211.52,410.2,214a35.51,35.51,0,0,1-22.7-2.62c-1.18-.57-2.52-1.09-2.94-2.57.67-1.12,1.53-.6,2.35-.38a53.74,53.74,0,0,0,7,1.76c10.61,1.24,19.56-1.86,26.25-10.51a12.56,12.56,0,0,0,1.4-2.22c1.81-3.76,2-3.71-1.14-6.8a21.94,21.94,0,0,0-8.59-5.1c-5.22-1.77-10.53-1.62-15.87-.7a24.06,24.06,0,0,0-13.79,7.17C381.49,192.73,380.7,193.25,379.6,194.15Z"/></g></g></svg>