<svg xmlns="http://www.w3.org/2000/svg" viewBox="0 0 550.14 829.57"><defs><style>.cls-1{fill:#6c6329;}.cls-2{fill:#070604;}.cls-3{fill:#8a671a;}.cls-4{fill:#4a2111;}.cls-5{fill:#e8a455;}.cls-6{fill:#fff;}.cls-7{fill:#2e5d28;}</style></defs><g id="Layer_2" data-name="Layer 2"><g id="Layer_1-2" data-name="Layer 1"><path class="cls-1" d="M173.65,829.57H14.41a12.83,12.83,0,0,0-.76-3.74A63.19,63.19,0,0,1,11.07,805c.13-3,.25-6.06.28-9.09.17-14.94.22-29.87,1-44.8.54-10.61.48-21.25.58-31.88.12-11.74-.09-23.49.54-35.23,0-.79.14-1.58.24-2.37.45-3.52.12-6.85-2.13-9.79-1.11-1.46-2.09-3-3.16-4.51a4.92,4.92,0,0,1-.8-4.92,49,49,0,0,0,2-8.37,4.25,4.25,0,0,1,.83-2.46c1.19-1.17,1.14-2.56,1.11-4-.09-4-.59-8-1-11.92-.41-4.28-.68-8.58-1.08-12.87-.55-6-1.05-11.92-1.38-17.89-.15-2.55-.26-5.11-.57-7.64-.79-6.57-1.35-13.16-1.88-19.76-.23-3-.25-6.06-.52-9.08a102.23,102.23,0,0,1,.67-24.84c.86-5.52,3.46-9.82,8.75-12.33,3-1.43,5.86-3.25,8.76-4.93,8.15-4.74,16.27-9.52,24.74-13.68l26.67-13.12c3-1.48,6-3,9-4.45,1.95-.91,2.4-.7,3.39,1.2s1.91,3.88,3,5.76c1.44,2.59,3.33,4.78,6.5,5.12,3.37.37,6.53-.2,9.09-2.7a6.27,6.27,0,0,1,1.38-.95c2.73-1.5,5.48-3,8.21-4.46a2.76,2.76,0,0,1,2.25-.49,3,3,0,0,1-1.49,1.46c-1.92,1-2.06,3-.33,4.35s3.31,2.5,4.93,3.8A161.8,161.8,0,0,1,137.57,524c3.61,3.85,7,7.86,10.25,12a212.34,212.34,0,0,1,18.27,27.79,263,263,0,0,1,18.73,42.47,290.41,290.41,0,0,1,9.42,34.14c1.8,8.58,3.34,17.21,4.48,25.91.84,6.4,1.58,12.81,2.14,19.24s.87,13.06,1,19.6c.14,7.83.21,15.65-.21,23.48-.35,6.62-.53,13.24-1.11,19.84-.34,3.89-.54,7.8-1.07,11.67-1,7.1-1.9,14.21-3.14,21.28a387.33,387.33,0,0,1-8.83,38.21c-.93,3.29-2.29,6.47-2.8,9.88h-6.24c.18-3.1.3-6.21.56-9.31.4-5,.87-10,1.37-15,.35-3.48.8-7,1.21-10.44.55-4.67,1.13-9.34,1.64-14,.42-3.88.73-7.78,1.14-11.66.53-5,1.06-10,1.13-15,.15-10.54.16-21.08-.21-31.63-.38-11.17-.57-22.34-1-33.51-.21-5.59-.56-11.17-.74-16.76-.08-2.62-.23-5.26-.46-7.88-.62-7.07-1.33-14.13-1.34-21.24,0-2.64,0-5.28-.06-7.91a34.82,34.82,0,0,0-.36-3.81,1.89,1.89,0,0,0-1.89-1.81c-1-.06-1.83.75-2,2a13.27,13.27,0,0,0,0,1.67,382.06,382.06,0,0,0,1.4,38.28c.58,6.83.72,13.7,1,20.56.18,4.46.1,8.93.4,13.4.39,5.89.29,11.81.45,17.72.29,10.46.14,20.94.09,31.41,0,2.86-.28,5.73-.53,8.59q-.58,6.91-1.33,13.8c-.38,3.57-.83,7.12-1.26,10.69-.52,4.35-1.11,8.69-1.56,13-.44,4.12-.89,8.24-1.14,12.38C174.63,818.61,174.09,824.09,173.65,829.57ZM21.27,538.8H20.05a2.08,2.08,0,0,0-2.24,1.75,2.16,2.16,0,0,0,1.59,2.59,8,8,0,0,0,1.61.45,204.06,204.06,0,0,1,27.3,7.15c7.36,2.39,14.59,5.18,21.75,8.13a302.11,302.11,0,0,1,35.87,17.68,214.94,214.94,0,0,1,31.89,22,91.39,91.39,0,0,1,15.6,16.15,13.39,13.39,0,0,0,1.47,1.88,2.21,2.21,0,0,0,2.82.53c1.15-.61,1.19-1.6,1-2.68a3.83,3.83,0,0,0-.82-1.71,85.2,85.2,0,0,0-6.69-8.13A125.79,125.79,0,0,0,136.1,591a252.63,252.63,0,0,0-38.16-24.24A327.57,327.57,0,0,0,67.49,552.7,277.17,277.17,0,0,0,27.6,540C25.35,539.52,23.06,539.15,21.27,538.8Zm128.78,55.71a1.63,1.63,0,0,0-1.86,1.54,3.39,3.39,0,0,0,1,3,117.47,117.47,0,0,1,8,8.84,3.61,3.61,0,0,0,2.62,1.49,2,2,0,0,0,2.05-2.84,4,4,0,0,0-.78-1.18q-4.65-5-9.32-9.92A2.23,2.23,0,0,0,150.05,594.51Z"/><path class="cls-1" d="M401,829.57H213c.07-3.1,1.21-6,1.95-8.93a16.24,16.24,0,0,0,.94-5.07c1.8-.21,2.59-1.33,2.87-3,.77-4.72,1.61-9.43,2.36-14.15,1.34-8.35,2.52-16.72,4-25,2-11.15,3.64-22.34,4.54-33.63.55-6.92.89-13.87,1-20.81.13-9.82.3-19.65-.24-29.48-.26-4.54-.47-9.09-.7-13.63-.11-2-.29-4-.57-6q-1.07-7.7-2.25-15.37-1.72-11.12-4.12-22.1a234.89,234.89,0,0,0-9.49-30.89q-4.93-13.38-10.93-26.32c-8-17.28-19-32.71-29.87-48.2-3.85-5.48-8.1-10.67-12.15-16-5.6-7.38-11.09-14.84-17.55-21.51-.61-.63-1.1-1.38-1.7-2-.72-.8-.37-1.25.42-1.63s1.57-.8,2.36-1.17c4.79-2.21,9.51-4.54,14.2-6.95a74.77,74.77,0,0,1,11-4.76,29.05,29.05,0,0,0,4.82-2.1c3.1-1.69,5.07-6.09,4.49-9.66s-2.6-5.37-6.89-6.24a31.93,31.93,0,0,0-7.34-1,2.79,2.79,0,0,1-2.88-2.08,18.28,18.28,0,0,1-1-5.14,3.08,3.08,0,0,1,1.77-3.11,20.63,20.63,0,0,1,9.34-2.66c2.11-.12,2.11-.08,2.85,2a67.26,67.26,0,0,0,9.95,18.48c2.95,3.8,6.37,7.16,9.58,10.7,5.1,5.62,10.31,11.13,15.36,16.79A140.22,140.22,0,0,1,222.28,507c5.69,8.89,10.46,18.31,15.44,27.6a69.87,69.87,0,0,0,15.95,20.16,24.34,24.34,0,0,0,8.49,4.8,6.85,6.85,0,0,0,7.29-1.71,17,17,0,0,0,2.94-4.06c2.38-4.28,3.15-9,3.79-13.77a50.53,50.53,0,0,1,8.32-22c2.58-3.79,5.6-7.15,10.22-8.65,3.75-1.21,7.37-1.45,10.85.67a23.9,23.9,0,0,1,3.61,2.75,56.07,56.07,0,0,1,8.74,10.45c.55.8,1.06,1.8,2,1.93,1.63.23,2.46,1.4,3.42,2.43,1.14,1.23,2.21,2.52,3.3,3.8,2.24,2.62,4.26,5.32,4.93,8.88a18.16,18.16,0,0,0,2.71,5.84c2,3.28,4.31,6.34,6.5,9.48,5.84,8.39,11.67,16.78,17.74,25a24.37,24.37,0,0,1,3.57,5.55c-1.88.22-3.58.53-5.29.58-5.59.17-11.15.63-16.73.91-6.21.31-12.43.78-18.64.94-8.7.22-17.41.49-26.11-.28a97.1,97.1,0,0,1-23.86-4.8,9.85,9.85,0,0,0-1.84-.51,1.92,1.92,0,0,0-2.29,1.3,1.94,1.94,0,0,0,.95,2.46,13.91,13.91,0,0,0,2.41,1,99.74,99.74,0,0,0,31.91,5.6c7.58.16,15.16.2,22.75-.33,5.57-.38,11.15-.66,16.72-.92q10.52-.5,21-1.11a3.79,3.79,0,0,1,3.89,2c5,7.71,10.09,15.36,15.69,22.64a361.77,361.77,0,0,1,22.16,31.83c6.78,11.06,12.51,22.64,16.21,35.14a64.55,64.55,0,0,1,3,19.31c-.07,4.71,0,9.42-.46,14.13s-1,9.19-1.83,13.74c-2.36,13.69-5.8,27.14-9.06,40.63-3.06,12.64-6.26,25.24-8.65,38Q402.15,819,401,829.57ZM290,779.68a84.82,84.82,0,0,0,14.21-.78,178.35,178.35,0,0,0,20.09-4.37c12-3.18,23.9-7,34.6-13.68,3-1.9,6.31-3.43,9.1-5.73,1.86-1.53,3.76-3.07,4.49-5.48a21.75,21.75,0,0,0,1-8.51c-.19-1.75-.19-3.5-.35-5.24-.36-4-.75-7.94-1.22-11.9-.72-6-2-12-3.19-17.88a415.78,415.78,0,0,0-12.2-47,5,5,0,0,0-.4-1.12c-.52-.82-1.12-1.64-2.28-1.39a2.5,2.5,0,0,0-1.69,2.59,11.83,11.83,0,0,0,.52,2.09c.58,1.82,1.25,3.62,1.76,5.47,3,10.84,5.69,21.77,8.12,32.74,2,9.1,3.87,18.25,5,27.53.63,5.3,1.1,10.62,1.27,16,.12,3.83-1,7.06-4.6,9.09a8.52,8.52,0,0,1-2.12,1,3.31,3.31,0,0,0-1.87,1,13.55,13.55,0,0,1-4.28,3c-1.12.62-2.29,1.14-3.37,1.82a61.37,61.37,0,0,1-13,6q-11.91,4-24.11,7a105.3,105.3,0,0,1-29.89,3c-4.08-.18-5.17-1.12-5.93-5.12-1.09-5.79-2.28-11.57-3.25-17.39-1.61-9.6-3.44-19.15-5.69-28.61a345.46,345.46,0,0,0-11.41-39c-2.81-7.65-5.81-15.22-9.31-22.58a6.13,6.13,0,0,0-1.62-2.35,1.72,1.72,0,0,0-2-.22,1.93,1.93,0,0,0-1.19,1.65,3.71,3.71,0,0,0,.56,2.05c.54,1.07,1.12,2.12,1.58,3.23A359.54,359.54,0,0,1,263.1,713c3.43,13,6.32,26.19,8.5,39.51,1.07,6.6,2.48,13.16,3.7,19.74.76,4,3.3,6.16,7.18,7.06C285.41,780,288.37,779.58,290,779.68Zm60.17-130.6a10.26,10.26,0,0,0-.11-1.67,178.36,178.36,0,0,0-5.94-21.18,13.14,13.14,0,0,0-3.38-5.45,4.86,4.86,0,0,0-5.54-.94c-1.25.52-2.45,1.16-3.66,1.77a196.3,196.3,0,0,1-21.79,9.32,206.24,206.24,0,0,1-28.39,7.68c-5.85,1.2-11.7,2.43-17.55,3.64-2.11.44-4.23.8-6.32,1.31a1.85,1.85,0,0,0-1.58,2.09,2.31,2.31,0,0,0,2.16,1.92,6.92,6.92,0,0,0,1.41-.19c8.06-1.14,16-3,24-4.49A183.2,183.2,0,0,0,322.26,631c4.54-2,9-4.08,13.46-6.25,1.58-.77,2.06-.63,2.92.85a18,18,0,0,1,1.56,3.49c1.75,5.39,3.12,10.88,4.64,16.34a13.34,13.34,0,0,1-.34,8,290.42,290.42,0,0,1-18,42.54,14.28,14.28,0,0,1-1.33,2,3.65,3.65,0,0,1-4.44,1.37c-1-.32-2-.54-3-.86a183,183,0,0,1-19.08-7.72,106.1,106.1,0,0,1-19.58-11.47c-4.66-3.5-9-7.39-13.37-11.23a42.85,42.85,0,0,1-8.52-9.68c-.71-1.15-1-2.13-.1-3.26a4,4,0,0,0,.49-.82,2.06,2.06,0,0,0-.64-2.57,1.64,1.64,0,0,0-2.2-.16c-2.57,1.67-4.84,4.4-2.43,8a58.63,58.63,0,0,0,7,8.81c3,3,6.25,5.7,9.43,8.49a127.32,127.32,0,0,0,10.49,8.33c7.56,5.3,15.85,9.24,24.27,12.92a106.85,106.85,0,0,0,16.93,5.93,7.55,7.55,0,0,0,7.65-2.24,16.8,16.8,0,0,0,3-4.33c2.16-4.46,4.37-8.89,6.45-13.38a237.66,237.66,0,0,0,11.81-30.33A14.42,14.42,0,0,0,350.16,649.08ZM389,644.5a9.1,9.1,0,0,0-.59-3.88c-1.88-5.79-5.44-10.07-11.46-11.77a7.28,7.28,0,0,0-9,6.23c-1,7.68,4.84,15.56,10.72,17.5,4.47,1.47,8.67-.06,10-4.89A10.35,10.35,0,0,0,389,644.5Zm-61.38-94.1a13.36,13.36,0,0,0-9.29-12.9c-6.58-2.27-13.13,2.32-12.63,10.14a13.52,13.52,0,0,0,5.18,9.68,11.19,11.19,0,0,0,9.86,2.53A9,9,0,0,0,327.61,550.4ZM387.1,771.27a15,15,0,0,0,1.74,8,8,8,0,0,0,7,4.32,6.74,6.74,0,0,0,6.79-4c2.47-5,3-10.21.41-15.43-.68-1.36-1.55-2.43-3.3-2.25a4.84,4.84,0,0,1-2.05-.59,6.91,6.91,0,0,0-8.58,2.86A11.16,11.16,0,0,0,387.1,771.27Zm-49.86-20.8a2.11,2.11,0,0,0,2.25-2.84c-.24-1-.64-2-.88-3-1.77-7.53-3.5-15.07-5.27-22.6-.89-3.81-1.83-7.6-2.77-11.4-.41-1.67-1.36-2.52-2.48-2.29s-1.56,1.14-1.5,2.89a15.26,15.26,0,0,0,.32,2.61q3.1,14,6.27,28c.49,2.18.94,4.37,1.54,6.52C335.16,750,335.88,750.46,337.24,750.47Zm-17.46-58.08a4.94,4.94,0,0,0,2.62-.6,8.55,8.55,0,0,0,3.63-10,10.18,10.18,0,0,0-2.74-3.58,7.38,7.38,0,0,0-10-.14,6.77,6.77,0,0,0-2.42,3.47C309.72,686.52,314.31,692.34,319.78,692.39Z"/><path class="cls-2" d="M401,829.57q1.15-10.59,3.13-21c2.39-12.79,5.59-25.39,8.65-38,3.26-13.49,6.7-26.94,9.06-40.63.79-4.55,1.34-9.14,1.83-13.74s.39-9.42.46-14.13a64.55,64.55,0,0,0-3-19.31c-3.7-12.5-9.43-24.08-16.21-35.14a361.77,361.77,0,0,0-22.16-31.83c-5.6-7.28-10.69-14.93-15.69-22.64a3.79,3.79,0,0,0-3.89-2q-10.51.61-21,1.11c-5.57.26-11.15.54-16.72.92-7.59.53-15.17.49-22.75.33a99.74,99.74,0,0,1-31.91-5.6,13.91,13.91,0,0,1-2.41-1,1.94,1.94,0,0,1-.95-2.46,1.92,1.92,0,0,1,2.29-1.3,9.85,9.85,0,0,1,1.84.51,97.1,97.1,0,0,0,23.86,4.8c8.7.77,17.41.5,26.11.28,6.21-.16,12.43-.63,18.64-.94,5.58-.28,11.14-.74,16.73-.91,1.71,0,3.41-.36,5.29-.58a24.37,24.37,0,0,0-3.57-5.55c-6.07-8.22-11.9-16.61-17.74-25-2.19-3.14-4.5-6.2-6.5-9.48a18.16,18.16,0,0,1-2.71-5.84c-.67-3.56-2.69-6.26-4.93-8.88-1.09-1.28-2.16-2.57-3.3-3.8-1-1-1.79-2.2-3.42-2.43-1-.13-1.47-1.13-2-1.93a56.07,56.07,0,0,0-8.74-10.45,23.9,23.9,0,0,0-3.61-2.75c-3.48-2.12-7.1-1.88-10.85-.67-4.62,1.5-7.64,4.86-10.22,8.65a50.53,50.53,0,0,0-8.32,22c-.64,4.75-1.41,9.49-3.79,13.77a17,17,0,0,1-2.94,4.06,6.85,6.85,0,0,1-7.29,1.71,24.34,24.34,0,0,1-8.49-4.8,69.87,69.87,0,0,1-15.95-20.16c-5-9.29-9.75-18.71-15.44-27.6A140.22,140.22,0,0,0,209,488.89c-5.05-5.66-10.26-11.17-15.36-16.79-3.21-3.54-6.63-6.9-9.58-10.7a67.26,67.26,0,0,1-9.95-18.48c-.74-2-.74-2.08-2.85-2a20.63,20.63,0,0,0-9.34,2.66,3.08,3.08,0,0,0-1.77,3.11,18.28,18.28,0,0,0,1,5.14,2.79,2.79,0,0,0,2.88,2.08,31.93,31.93,0,0,1,7.34,1c4.29.87,6.3,2.67,6.89,6.24s-1.39,8-4.49,9.66a29.05,29.05,0,0,1-4.82,2.1,74.77,74.77,0,0,0-11,4.76c-4.69,2.41-9.41,4.74-14.2,6.95-.79.37-1.57.79-2.36,1.17s-1.14.83-.42,1.63c.6.64,1.09,1.39,1.7,2,6.46,6.67,12,14.13,17.55,21.51,4.05,5.34,8.3,10.53,12.15,16,10.88,15.49,21.87,30.92,29.87,48.2q6,13,10.93,26.32a234.89,234.89,0,0,1,9.49,30.89q2.42,11,4.12,22.1,1.18,7.68,2.25,15.37c.28,2,.46,4,.57,6,.23,4.54.44,9.09.7,13.63.54,9.83.37,19.66.24,29.48-.1,6.94-.44,13.89-1,20.81-.9,11.29-2.59,22.48-4.54,33.63-1.46,8.32-2.64,16.69-4,25-.75,4.72-1.59,9.43-2.36,14.15-.28,1.69-1.07,2.81-2.87,3-2.16-1-3.17-2.86-2.16-5,1.46-3.13,1.61-6.49,2.17-9.77,1.26-7.39,2.31-14.81,3.53-22.2,1.73-10.47,3.62-20.9,4.73-31.46,1-9.77,1.59-19.57,1.76-29.38a392,392,0,0,0-.92-40.7c-.31-3.58-.61-7.16-1.11-10.71-.82-5.84-1.76-11.67-2.74-17.49a224.64,224.64,0,0,0-7.1-30.51q-4.76-15-10.83-29.44c-2.9-6.92-5.92-13.8-9.5-20.41-7.38-13.66-16.31-26.33-25.25-39-5.07-7.17-10.76-13.88-15.86-21A233.52,233.52,0,0,0,137.43,490c-1.28-1.45-1.3-1.45-3-.59l-16,8.24c-.52.12-.93.36-1,1l0,0a2.76,2.76,0,0,0-2.25.49c-2.73,1.5-5.48,3-8.21,4.46a6.27,6.27,0,0,0-1.38.95c-2.56,2.5-5.72,3.07-9.09,2.7-3.17-.34-5.06-2.53-6.5-5.12-1-1.88-2-3.84-3-5.76s-1.44-2.11-3.39-1.2c-3,1.43-6,3-9,4.45L48.06,512.64c-8.47,4.16-16.59,8.94-24.74,13.68-2.9,1.68-5.74,3.5-8.76,4.93-5.29,2.51-7.89,6.81-8.75,12.33a102.23,102.23,0,0,0-.67,24.84c.27,3,.29,6.06.52,9.08.53,6.6,1.09,13.19,1.88,19.76.31,2.53.42,5.09.57,7.64.33,6,.83,11.93,1.38,17.89.4,4.29.67,8.59,1.08,12.87.38,4,.88,7.93,1,11.92,0,1.45.08,2.84-1.11,4a4.25,4.25,0,0,0-.83,2.46,49,49,0,0,1-2,8.37,4.92,4.92,0,0,0,.8,4.92c1.07,1.49,2,3,3.16,4.51,2.25,2.94,2.58,6.27,2.13,9.79-.1.79-.2,1.58-.24,2.37-.63,11.74-.42,23.49-.54,35.23-.1,10.63,0,21.27-.58,31.88-.76,14.93-.81,29.86-1,44.8,0,3-.15,6.06-.28,9.09a63.19,63.19,0,0,0,2.58,20.82,12.83,12.83,0,0,1,.76,3.74H9.62a28.93,28.93,0,0,0-1.23-5.36A61,61,0,0,1,6.47,808.8c0-22.95.82-45.88,1.41-68.82.35-13.75.29-27.5.49-41.25.08-5.75.07-11.52.67-17.25A11,11,0,0,0,6.78,673a55.26,55.26,0,0,1-3.2-4.78,5.85,5.85,0,0,1-.75-5.25A104.69,104.69,0,0,0,6.46,647.3,13.39,13.39,0,0,0,6.64,644Q4.31,617.08,2,590.2C1.21,580.81.4,571.41.07,562a91.5,91.5,0,0,1,1.36-20.3,24.66,24.66,0,0,1,2-6.13A14,14,0,0,1,8,530.09c2.15-1.53,4.38-2.93,6.67-4.24,5.4-3.11,10.77-6.29,16.21-9.32a2.65,2.65,0,0,0,1.57-3,44.66,44.66,0,0,1,.46-12.9c2.33-14.13,10.35-24,22.94-30.26,8.31-4.14,17.14-7,26-9.63a222.46,222.46,0,0,1,35.36-7.51,76.44,76.44,0,0,1,8.12-.69c9.19-.15,18.38-.29,27.56.33,1.1.08,2.2.13,3.28.19.33-1.18-.17-2.06-.35-3a14.67,14.67,0,0,1-.34-4.76,6.88,6.88,0,0,1,3.3-5.29,24.27,24.27,0,0,1,8.92-3.35c.47-.08.95-.1,1.42-.17,2.62-.41,2.55.12,2.67-2.83.17-3.75.31-7.51.54-11.26a47,47,0,0,1,3.58-16.3,22.77,22.77,0,0,1,11.19-11.68c6.18-3,12.54-5.63,18.61-8.87.62-.33,1.36-.49,1.66-1.26.64-1.64,0-2.67-1.73-3-12.61-2.26-25-.9-37.25,2.34a144.35,144.35,0,0,1-20.14,4.3c-6.48.74-12.93.76-19.25-1.17-9.83-3-16.66-9.55-21.3-18.49-2.58-5-2.62-10.3-1.11-15.65a50.65,50.65,0,0,1,9.82-18c2.87-3.55,5.81-7,8.7-10.55a42.1,42.1,0,0,0,5.14-7.78c3.34-6.61,2.15-12.71-2-18.45a51.36,51.36,0,0,0-7.37-7.52c-4.2-3.81-8.64-7.38-12.49-11.56A75.36,75.36,0,0,1,94.07,256a42.3,42.3,0,0,1-3-18.3c.31-6.34,1.63-12.51,2.7-18.73a112.5,112.5,0,0,1,4.48-15.88c3.76-11.46,7.72-22.87,10.94-34.49,3.58-12.93,4.11-26.17,3.44-39.49-.44-8.79-1.24-17.55-1.49-26.34a103,103,0,0,1,1.29-20.07c2.33-13.83,8.92-25.36,18.64-35.24,10.58-10.73,23.26-18.15,37.31-23.31,10.43-3.83,21.21-6.54,32-9.23,13-3.24,26-6.6,39.27-8.8a380,380,0,0,1,38.06-4.58C289,.8,300.31,0,311.67,0c14.5,0,28.91,1.11,43.07,4.46a126.18,126.18,0,0,1,37.57,15.29,65.25,65.25,0,0,1,14,11.9c6.8,7.47,14.43,14,22.16,20.49,3.69,3.08,7.26,6.27,9.89,10.37a19.9,19.9,0,0,1,3.06,7.24c.87,4.83-.48,8.88-4.51,11.82-1.93,1.41-4.05,2.57-6,3.91-3.51,2.37-3.17,2-.64,4.75.65.71,1.36,1.35,2.05,2,3.45,3.29,4,7.2,1.57,11.25-2.83,4.72-7.32,7-12.39,8.33-.92.25-1.87.4-2.82.6-.15,1.1.66,1.66,1.12,2.34a171.39,171.39,0,0,1,17,30.54,7.41,7.41,0,0,1,.33,5.34A173.59,173.59,0,0,0,432,171.33,113.69,113.69,0,0,0,430.1,200a39.14,39.14,0,0,0,1.8,9.15c1.43,4.41,3,8.75,4.73,13.06a39.86,39.86,0,0,1,2.13,22.37c-.34,1.89-.53,3.82-1,5.67a6.72,6.72,0,0,0,.52,4.65c1.16,2.54,2.59,4.95,4,7.38,3.16,5.57,6.17,11.21,7.91,17.42,1.84,6.6,2.94,13.28,1.54,20.13-1.47,7.16-5,13.25-9.84,18.66-4.3,4.85-9.33,9-14.05,13.39a94.59,94.59,0,0,0-7.63,7.62,15.25,15.25,0,0,0-3.64,13.15c.47,2.76.77,5.54,1.15,8.31.9,6.56-1.3,12.1-5.56,17-6.89,7.88-15.67,11.88-26,12.7A51,51,0,0,1,362.41,387a88.11,88.11,0,0,0-9.48-3.35,5.46,5.46,0,0,0-2-.37,1.6,1.6,0,0,0-.34,1.4q0,7.2.05,14.4c0,1.58.11,2.91,1.69,4.1,1.39,1,2.34,2.78,3.6,4.12a77.75,77.75,0,0,0,10.86,9.41c5.57,4,8.69,9.69,10.92,16,.77,2.18,1.37,4.43,1.95,6.67.27,1,.64,1.43,1.81,1.21,4.24-.79,8.54-1.26,12.74-2.21,6.36-1.44,11.26.53,15.19,5.57,3.17,4.07,5.35,8.71,7.84,13.17.77,1.39.19,2.59-1.16,3.78,3.13,1.14,5.57,2.94,8.33,4.12q15.4,6.63,30.76,13.4c13.9,6.09,27.67,12.5,41.1,19.59,6.7,3.53,13.36,7.2,19.7,11.39,2.26,1.49,3.87,3,4.56,6,1.39,6,3.11,11.91,4,18,2,12.88,3.77,25.78,4.88,38.77,1,11.55,2,23.09,2.76,34.66.51,8.3,1,16.6,1.74,24.88.32,3.58.73,7.15,1.14,10.72.18,1.58-.1,2.87-1.72,3.54-2.3-.3-2.61-.57-2.88-2.69-.16-1.26-.36-2.51-.48-3.79-.37-3.89-.69-7.78-1.07-11.67-.56-5.8-.9-11.61-1.21-17.42-.17-3.35-.43-6.7-.69-10-.19-2.47-.21-4.94-.42-7.41q-.87-10-1.81-20c-.49-5.07-.95-10.16-1.57-15.22-.84-6.88-1.88-13.74-2.74-20.62a130.61,130.61,0,0,0-3.88-19.2,8,8,0,0,0-3.4-4.68c-6.37-4.13-13-7.8-19.73-11.32-7.51-3.92-15.08-7.73-22.82-11.17-5.55-2.47-10.95-5.23-16.52-7.66-6.8-3-13.78-5.56-20.43-8.88a7.35,7.35,0,0,0-3.39-1.07c-.05-.19-.15-.25-.3-.19l.19.3a3.54,3.54,0,0,0,.32.88c3,4.05,5.73,8.26,8.47,12.48A248,248,0,0,1,451.67,508c4.93,9.51,9.31,19.27,13.44,29.15a377.2,377.2,0,0,1,15,41.9,1.2,1.2,0,0,0,.76,1,7.65,7.65,0,0,0,1.75-2.46q2.22-3.69,4.39-7.41A130.62,130.62,0,0,0,494.76,556c2.57-5.93,5.07-11.89,7.56-17.86,2.18-5.23,4.55-10.39,6-15.89.41-1.54.74-3.1,1.08-4.66.41-1.91,1.45-3,2.72-2.68s1.76,1.27,1.52,3.32a34.16,34.16,0,0,1-.72,3.76,102.1,102.1,0,0,1-5,14.71c-3.77,9.15-7.12,18.49-11.83,27.22-3.68,6.82-7.82,13.37-11.82,20-1.93,3.21-2,3.19-.84,6.86l.06.23a196.34,196.34,0,0,0,6.27,18.85,100.62,100.62,0,0,1,4,13.05,9.86,9.86,0,0,0,2,4.67c2.08,2.31,4.06,4.72,6.13,7,7.68,8.56,14.88,17.51,21.79,26.7a59.45,59.45,0,0,1,6.87,11.2,51.89,51.89,0,0,1,4.2,19.77,124.4,124.4,0,0,1-.26,15.56,136,136,0,0,1-3.83,22.6c-1.75,6.72-3.73,13.38-5.3,20.14a181.89,181.89,0,0,0-4.58,27.08c-.45,5.89-.7,11.78-1.21,17.66-.34,3.89-.32,7.82-.41,11.72-.16,7.5-.54,15,.36,22.5h-4.8c-.2-3-.43-6.05-.43-9.09,0-9.42.31-18.83.83-28.25.37-6.85.68-13.7,1.51-20.51a174.76,174.76,0,0,1,3.72-20.46c2.27-9.22,4.74-18.39,7.06-27.6.41-1.64,1.08-3.3.68-5.06a2.19,2.19,0,0,0-1.62.62c-1.8,1.19-3.59,2.4-5.4,3.56A65.38,65.38,0,0,1,483.7,733a27.87,27.87,0,0,1-9.6-1.8,9.38,9.38,0,0,1-5.54-5c-.45-1-.94-2-1.38-3.05-1.8-4.27-3.58-8.54-5.38-12.81-3.73-8.82-7.39-17.68-11.58-26.31s-8.29-17.64-13.48-25.91a4,4,0,0,1-.75-1.75c-.1-.91-.08-1.86.92-2.24a2.2,2.2,0,0,1,2.64.51,14.19,14.19,0,0,1,1.12,1.55c1.73,2.69,3.36,5.43,4.88,8.25a400.22,400.22,0,0,1,18.23,38.28q4.13,10.08,8.42,20.1a7.43,7.43,0,0,0,5.88,4.65,43,43,0,0,0,14.27.48,70.61,70.61,0,0,0,15.77-3.87c7.35-2.85,13.8-7.34,20.13-12a2.65,2.65,0,0,0,1.28-2.18c0-2.55.6-5.06.53-7.63-.13-4.47,0-8.93-.39-13.4a43.59,43.59,0,0,0-8.44-22.82c-5-6.84-10.28-13.43-15.66-20-2.28-2.77-4.67-5.46-7.07-8.13-1-1.17-1.29-1.12-2,.34a57.77,57.77,0,0,1-4.5,7.06,44.62,44.62,0,0,1-13.44,12.77,13,13,0,0,1-6.79,2,23.81,23.81,0,0,1-7-1.41c-10.57-3.19-20.71-7.51-30.88-11.74a16.85,16.85,0,0,1-7.24-5.75c-2.58-3.55-5.22-7.08-7.47-10.84-2-3.4-4.88-6.44-4.59-11,.15-2.3-.11-2.66,2.22-3.43q9.21-3,18.24-6.58c5.5-2.18,10.81-4.78,16.19-7.22,2.76-1.26,5.55-2.45,8.28-3.77,1.84-.89,1.86-1.24.49-2.76-1.82-2-3.67-4-5.47-6-2.72-3-5.47-6-8.09-9.16-4.35-5.2-8.7-10.4-12.9-15.73-3.85-4.89-7.9-9.63-11.24-14.91a9.26,9.26,0,0,1-1-1.88,2.18,2.18,0,0,1,.94-2.7,2.07,2.07,0,0,1,2.71.77c.25.32.47.66.68,1a132.54,132.54,0,0,0,9,11.79q6.44,7.89,13,15.67c2.36,2.82,4.79,5.57,7.21,8.32.43.48.82,1.18,1.64,1,.37-.92-.17-1.51-.44-2.14-.91-2.13-1.93-4.22-2.76-6.37-2.65-6.85-5.15-13.76-7.87-20.59-6.77-17-14-33.81-22.74-49.9a159.26,159.26,0,0,0-13-20.67c-4.4-5.75-9.94-9.14-17.43-8.63-.72.05-1.44,0-2.16,0-1.07,0-1.87-.38-2-1.59a2,2,0,0,1,1.49-2.37c1.22-.53,2.53-.22,3.78-.49,1.51.1,3,.08,4.53.33A23.57,23.57,0,0,1,412,479.81a82.29,82.29,0,0,1,8.38,11.65,317.94,317.94,0,0,1,16.69,31.83c3.83,8.44,7.63,16.89,11,25.51,3.05,7.72,5.86,15.54,8.91,23.26,2,5.05,4.23,10,6.33,15,.68,1.61,1.51,3.22.61,5-.26.51,0,.9.3,1.3a4,4,0,0,0,2.34,1.93c.66.13,1.35.39,1.44,1.09.28,2.1,1.85,3.29,3.15,4.66,4.77,5.06,9.58,10.08,14.37,15.11.31.32.48.89,1.25.57q-5.2-16.06-10.39-32.12c-.31-.12-.47.09-.63.25-.92.9-1.91,1.19-3,.34-.84-.66-1-1.79-.37-3.07a24.07,24.07,0,0,1,1.54-2.7,4,4,0,0,0,.42-3.61c-1.66-5.52-3.76-10.87-5.64-16.31a426.44,426.44,0,0,0-17.63-42.2,234.94,234.94,0,0,0-13.9-24.9A227.23,227.23,0,0,0,423.44,472c-1.12-1.42-2-3.08-3.75-4A54.76,54.76,0,0,0,410,463.9a21.13,21.13,0,0,0-9.46-.54c-2.5.41-4.92,1.53-7.54,1-1-2.38-.67-3.48,1.45-4.07,5.36-1.48,10.77-2.3,16.29-.87.52.13,1.09.53,1.56,0s.2-1.21-.12-1.77c-1.31-2.38-2.68-4.72-4-7.11A29.11,29.11,0,0,0,404,445a8.06,8.06,0,0,0-7.83-2.49c-4.4.7-8.8,1.48-13.19,2.23-1.8.3-1.89.42-1.58,2.13q1.18,6.35,2.36,12.69c2.53,13.47,5.32,26.89,7.26,40.47a137.85,137.85,0,0,1,1.82,18.79,11.41,11.41,0,0,1-3.28,8,7.11,7.11,0,0,1-6.78,2.21,16.77,16.77,0,0,1-6.83-2.74c-2.06-1.52-4-3.11-5.94-4.82-2.16-2-3.69-4.39-5.56-6.57-4.1-4.8-8.74-9.1-13.15-13.61a18.26,18.26,0,0,0-3.56-2.82c-2.12-1.27-3.33-1.2-5.26.3a6.21,6.21,0,0,0-1.88,2.45c-2.76,6.46-5.75,12.83-7.59,19.63-.47,1.75-.91,3.4-2.84,3.8a1.15,1.15,0,0,0,.44,1.06,14.35,14.35,0,0,1,4.69,9.18c.34,2.7,2,5,2.16,7.79a2.48,2.48,0,0,0,.55,1c1.33,2,2.62,4,4,5.94q12.45,17,24.48,34.29a4.06,4.06,0,0,0,3.93,2,185.81,185.81,0,0,0,28.72-3.24c1.71-.31,3.39-.54,4.85-1.8,1.21-1.06,3.6-.24,4.37,1.16s.07,2.82-1.65,3.68a14.67,14.67,0,0,1-3.68,1,191,191,0,0,1-29.85,3.83c-1.68.08-1.87.43-1,1.83,4.87,7.5,9.94,14.87,15.37,22A312.77,312.77,0,0,1,413,652.14a143.53,143.53,0,0,1,12.47,28.72,67.71,67.71,0,0,1,3.28,17.59,158.67,158.67,0,0,1-.35,17.71,211.82,211.82,0,0,1-3.26,21.74c-1.92,10-4.45,19.76-6.82,29.6-3.72,15.51-7.73,31-10.42,46.69-.87,5.1-1.72,10.21-2.13,15.38ZM225.79,305.39a.82.82,0,0,0-.54-1.17,54.34,54.34,0,0,1-2.83-6.5.81.81,0,0,0-.53-1.17c-.28-.58-.57-1.14-.83-1.72q-2.84-6.45-5.67-12.9c-.7-1.56-.72-1.55-2.17-.82a10.89,10.89,0,0,1-2.61,1.16.37.37,0,0,0-.5.22l-.87.32a.39.39,0,0,0-.56.22l-1.25.36a.81.81,0,0,0-1.21.32,2.51,2.51,0,0,1-1.42.33c-.32-.36-.7-.26-1.08-.11-3.09,1.2-6.36.92-9.47.57A35,35,0,0,1,175,275.56a46.09,46.09,0,0,1-14.19-23.38,37.65,37.65,0,0,1-.47-19.34c.38-1.46,0-2-1.2-2.52a31.59,31.59,0,0,1-7.55-5c-7-6.05-12.06-13.59-16.23-21.73-2.51-4.91-4.1-10.21-5.74-15.46a8.87,8.87,0,0,1-.58-3.76,2.73,2.73,0,0,1,1.87-2.29,2.35,2.35,0,0,1,2.76.92,7.75,7.75,0,0,1,1.13,2.85c2.06,6.46,3.92,13,7.48,18.85,3.36,5.55,6.83,11,11.67,15.37a32.51,32.51,0,0,0,10.72,6.62c7.95,2.93,16.31,3.54,24.63,4.1,5.55.38,11.11.59,16.63,1.47.9.14,1.86.66,2.87.36a1.5,1.5,0,0,0-.8-1.07c-2.2-1.29-4.36-2.65-6.63-3.81-6.47-3.31-13.06-6.37-19.36-10-1.67-1-3.51-1.72-4.9-3.19a1.53,1.53,0,0,1,1.94-.18c2.75,1.06,5.51,2.12,8.25,3.19,4.38,1.71,8.79,3.34,13.26,4.78a41,41,0,0,1,10.83,5,34.2,34.2,0,0,1,8,7.85,31.71,31.71,0,0,1,6.15,14.58,21.73,21.73,0,0,0,.66,4.09,25.07,25.07,0,0,0,4.46-14,26.55,26.55,0,0,0-4.25-15,55.53,55.53,0,0,0-9.06-10.47,30.64,30.64,0,0,1-7.19-10.34,33.6,33.6,0,0,1-2.58-18.45c.33-2.13.78-4.22,1.27-6.31.27-1.16-.26-1.24-1.11-1.12-.16,0-.31.1-.46.13A44.86,44.86,0,0,1,190,179a31.5,31.5,0,0,1-6-1.4c-1.7-.64-2-1.65-1-3.15a1.71,1.71,0,0,1,2.22-.77,35,35,0,0,0,7.71,1.5,47.51,47.51,0,0,0,19.51-2.71,45,45,0,0,0,17.45-11c1.91-2,3.57-4.28,5.43-6.35a51.21,51.21,0,0,0,6.59-9.37c3.74-6.69,5.34-14.15,7.54-21.39,1.64-5.38,3.59-10.59,6.86-15.2,4-5.58,8-11.08,13.45-15.45a81.77,81.77,0,0,1,12-8.25,93.58,93.58,0,0,1,19.5-7.84,80.88,80.88,0,0,1,16.63-3,85,85,0,0,1,12.38-.29A137.13,137.13,0,0,1,344.65,76a68.14,68.14,0,0,1,16.23,4.79c4,1.85,8,3.55,11.92,5.57a4.9,4.9,0,0,0,1.32.56c4.31.76,8.59,1.84,13,1.5a18.26,18.26,0,0,0,7.75-2.12,21.58,21.58,0,0,0,6.89-6.52,48.64,48.64,0,0,0,3.64-5.33c.58-1.08,1.52-1,2.3-.1a1.84,1.84,0,0,1,.33,1.8,19.42,19.42,0,0,1-4.38,8.39,32.39,32.39,0,0,1-5.15,4.26c-1.07.78-1,1.16,0,2,2.08,1.73,4.17,3.44,6.1,5.36a122.16,122.16,0,0,1,9.19,10.38c.63.79,1.1,1.17,2.17.85,1.67-.51,3.42-.74,5.11-1.21a14.11,14.11,0,0,0,6.85-3.69c1.54-1.63,1.69-2.72.74-4.77a24.16,24.16,0,0,0-4.75-6.25c-2.64-2.75-2.65-5,.15-7.62a23.63,23.63,0,0,1,5.63-4,16.1,16.1,0,0,0,5.1-3.9,5.44,5.44,0,0,0,1.3-5.74,20.52,20.52,0,0,0-2.33-5.23,54.79,54.79,0,0,0-9.63-10q-7.42-6.21-14.47-12.86c-2.09-2-4-4.12-5.91-6.25A69.21,69.21,0,0,0,386.46,22a126.14,126.14,0,0,0-29.19-11.82,141.4,141.4,0,0,0-22-4c-5.38-.61-10.78-.89-16.16-1.24-8.85-.59-17.71.33-26.57.42a3.4,3.4,0,0,0-.71,0c-3.69.82-7.46.37-11.19.75-3.14.33-6.35.54-9.52.74-2.05.13-4.14.17-6.19.44-5.35.73-10.68,1.59-16,2.26-6.23.78-12.4,2-18.55,3.18-9,1.75-17.81,4.22-26.71,6.34-6.74,1.6-13.4,3.49-20.08,5.32-11.06,3-21.72,7-31.59,12.87a80.66,80.66,0,0,0-12.82,9.15,88.55,88.55,0,0,0-10.92,11.72c-7.94,10.31-11.32,22.15-12.08,34.9-.17,2.87.06,5.76-.06,8.63a118,118,0,0,0,.65,14.57c.3,3.57.56,7.17.68,10.71a199.45,199.45,0,0,1-.23,23.7,134.11,134.11,0,0,1-2.78,17.4c-.65,3-1.9,5.78-2.49,8.73a72,72,0,0,1-3.6,11.62,101.62,101.62,0,0,0-3.58,9.89c-1.52,5.79-3.28,11.5-5.19,17.16A73.28,73.28,0,0,0,97.79,223c-.53,2.35-.3,4.74-.87,7.09a60.9,60.9,0,0,0-1.43,12.78,10,10,0,0,0,.2,1.89A53.76,53.76,0,0,0,101.1,260a74.5,74.5,0,0,0,18.76,23.3c4.31,3.67,8.7,7.25,12.2,11.77a21.79,21.79,0,0,1,4.44,18,26.81,26.81,0,0,1-5,10.52c-3.18,4.38-6.74,8.47-10.2,12.64-3.79,4.56-7.23,9.34-9.22,15-1.22,3.46-2.37,7-1.49,10.73,1.81,7.7,6.73,13.13,13.07,17.33,5,3.34,10.86,4.47,16.83,4.6A64.46,64.46,0,0,0,154,382.26c8.84-1.67,17.39-4.59,26.33-5.79a83.69,83.69,0,0,1,11.14-1.09,73.32,73.32,0,0,1,13.28,1.22c2.57.47,3,.16,3-2.39-.24-13.56.6-27.13-.82-40.68a95.11,95.11,0,0,1-.61-14.82,10.18,10.18,0,0,0-.08-1.91c-.57-4.09-.64-8.23-1.3-12.32-.55-3.37-.93-6.77-1.35-10.16-.23-1.9-.65-3.76-1-5.63-.42-2.17-.06-2.66,2-3.24.9.35.93,1.24,1.19,2a74.17,74.17,0,0,1,2.73,10.18,145.54,145.54,0,0,1,2.89,17.73c.34,4.46.6,8.93.94,13.39.41,5.5,1,11,1.27,16.49.55,11.67.41,23.34.41,35,0,9.46-1.29,18.81-2.57,28.16a6.31,6.31,0,0,1-.54,1.83,3,3,0,0,1-4.55,1.51c-.46-.25-.76-.85-1.45-.61a2.31,2.31,0,0,0-.22,2.67,22.6,22.6,0,0,0,1.28,2.31,199.74,199.74,0,0,0,22.59,28.53c1.07,1.15,2.1,2.41,3.78,2.82.41.1.75.58,1.06.93a58.47,58.47,0,0,0,6.27,5.92c6.88,5.85,13.88,11.56,20.66,17.53,12.56,11.06,25.91,20.81,41.84,26.56a34.34,34.34,0,0,1,13.27,9.22,64,64,0,0,1,6.49,8.6,12.52,12.52,0,0,0,3.87,4.23c2.67-8.14,5.43-16.09,8.46-24.09a12,12,0,0,0-1.31-.15,17.29,17.29,0,0,1-6.63-.69,26,26,0,0,1-8.39-4.52c-1.2-1.05-2.58-1.9-3.8-2.92a4.11,4.11,0,0,0-3.8-.86,17,17,0,0,1-2.86.27c-.58,0-1.14-.17-1.24-.86s.39-1,.92-1.23c1.14-.39,2.3-.67,3.44-1a6.54,6.54,0,0,1,5.11.34c2.16,1,4.35,2,6.49,3.1,3.15,1.59,6.39,2.94,10,3a7.27,7.27,0,0,1,3,.57.78.78,0,0,0,1.16-.45c.2-.43.4-.87.58-1.31q5.67-13.87,11.31-27.75c1.08-2.67,2-5.4,3-8.08a6.44,6.44,0,0,0,.25-4,89.24,89.24,0,0,1-1.82-11.59c-.92-8-1.84-16-2.65-24.07-.49-4.85-1-9.71-1.11-14.58-.16-6.47-.14-12.95.31-19.42.24-3.42.19-6.87.32-10.3.05-1.16-.31-1.71-1.56-1.86-2.7-.33-5.37-.81-8.05-1.26-30.08-5-58.53-14.62-85.08-29.76A81,81,0,0,1,234,323a5.19,5.19,0,0,1-.94-1.38Q229.38,313.5,225.79,305.39ZM387.13,157a5.7,5.7,0,0,1,.31-2.35c.46-.26.75-.55.19-1a8.87,8.87,0,0,1,.69-2.78c2.73-7.83,8.43-12.61,16-15.44A45.61,45.61,0,0,1,422,133l2.15.08c1,0,1.11-.44.74-1.21-.14-.29-.3-.57-.46-.85a202.85,202.85,0,0,0-27.56-38.82c-1.74-1.92-1.4-1.55-3.37-.65a26.34,26.34,0,0,1-15.44,2,57.4,57.4,0,0,1-16.17-5.06c-5.83-2.81-11.71-5.57-18.13-6.82a90.76,90.76,0,0,0-38.5.93c-15.59,3.63-28.36,11.77-39.32,23.08a36.05,36.05,0,0,0-8.29,14.17q-3,9.24-5.86,18.51a52.23,52.23,0,0,1-7.43,14.71c-6.87,9.71-16,16.66-26.69,21.66a4.68,4.68,0,0,0-2.83,2.68c-4.28,11.9-2.87,22.79,5.69,32.41,1.75,2,3.67,3.79,5.5,5.69a35.49,35.49,0,0,1,8.72,14.7c3.74,12.83-.46,23.56-8.75,33.2a4.42,4.42,0,0,1-4.7.7c-1.44-.89-1.26-2.25-1-3.63l.06-.23a27.11,27.11,0,0,0-1.33-14.86,9.33,9.33,0,0,0-5.68-5.75,45.47,45.47,0,0,0-7.6-2.17,113.58,113.58,0,0,0-15.52-1.28c-8.64-.36-17.21-1.22-25.55-3.68a2,2,0,0,0-1.36-.16,1.22,1.22,0,0,0-.31,1.12,60.91,60.91,0,0,0,2.15,16.12c3,10.35,8.56,18.89,17.65,24.87A24.93,24.93,0,0,0,196.29,279c5.46.09,10.58-1.33,15.64-3.18,1.06-.39,1.26-1,1.08-2a1.65,1.65,0,0,1,1.09-2.12,2,2,0,0,1,2.42,1.08,34.44,34.44,0,0,1,1.68,3.18c6.16,13.35,12.36,26.69,18.14,40.22a15.89,15.89,0,0,0,3.91,5.66,108.77,108.77,0,0,0,23.12,16.59c21.16,11.05,43.82,17.64,67,22.55,8.53,1.8,17.21,2.65,25.83,3.89a32.56,32.56,0,0,0,10.24,0,49.94,49.94,0,0,0,19.15-7.23,7.78,7.78,0,0,0,3-3.29c6.26-13.66,12.6-27.28,18.89-40.93,6.72-14.59,14.12-28.85,19.66-44a141.59,141.59,0,0,0,7.45-31.63,16.25,16.25,0,0,0-.29-5c-.88-4.57-2.6-8.89-4.05-13.28s-3.19-8.53-4.46-12.92c-.24-.84-.71-1.72-.41-2.56.76-2.16.27-4.25-.12-6.36.09-.37.05-.84.27-1.11,1.56-1.91,1.37-3.88.16-5.82-.32-.52-.19-1.06-.43-1.53.56-5.63,1.13-11.26,2-16.85,1.16-7.58,2.31-15.14,5.47-22.22a2.53,2.53,0,0,0-.06-2.29,18,18,0,0,1-.85-2,2.18,2.18,0,0,0-2.72-1.65c-2.52.36-5,.65-7.56,1.13-3.94.77-7.6,2.37-11.34,3.71a.46.46,0,0,0-.61.25l-.76.3a8.22,8.22,0,0,0-1.63-.18c-1.56.13-7.1,3.67-8.19,5.16a2.48,2.48,0,0,1-1.25.7,1.12,1.12,0,0,0-1.56.91l-.44.29c-.45-1.18-1.14-.83-1.87-.3-1.6,1.17-3.25,2.29-4.81,3.52a1.61,1.61,0,0,1-2.14.21,3.54,3.54,0,0,1,0-1.91C387.47,157.7,387.61,157.4,387.13,157ZM206.55,390c-6.39,3.17-12.46,6.16-18.51,9.2a15.6,15.6,0,0,0-6.21,5.84,34,34,0,0,0-4.42,13.31c-.52,3.57-.37,7.16-.78,10.73A23.77,23.77,0,0,0,177.7,440a63.56,63.56,0,0,0,13.53,22.67q9.56,10.08,18.88,20.37a133.74,133.74,0,0,1,10.12,12.42c7.94,11.16,14.41,23.19,20.74,35.29a67.69,67.69,0,0,0,14.57,19.43,26.82,26.82,0,0,0,6.51,4.42c2.45,1.16,3.66.77,5.28-1.49a22.1,22.1,0,0,0,3.22-8.18c.59-2.57.76-5.21,1.22-7.79a58.91,58.91,0,0,1,7.7-20,10.13,10.13,0,0,0,.63-1.28.75.75,0,0,0-1.2-.79,10.72,10.72,0,0,0-.91,1.09,67.07,67.07,0,0,0-6.39,10.39,11.9,11.9,0,0,1-1.05,1.88,2.61,2.61,0,0,1-3.23.64,2.26,2.26,0,0,1-.91-2.74,11.28,11.28,0,0,1,.8-1.73,83,83,0,0,1,7.48-12,40.89,40.89,0,0,1,11.67-10.87c2-1.16,2-1.31.2-2.76-.37-.3-.74-.61-1.13-.89-4.67-3.48-9.32-7-14-10.42-8.65-6.29-16.82-13.16-25-20.09-6.7-5.69-13-11.77-19.45-17.76s-11.63-12.92-16.87-19.85a88.43,88.43,0,0,1-9.73-15.06,21.25,21.25,0,0,1-1.75-7.88,4,4,0,0,1,2.06-4,14.62,14.62,0,0,1,1.41-.91,6,6,0,0,0,4.09-6.24C206.15,394,206.9,392.25,206.55,390ZM435.29,260.71c-2.06,5.87-4.21,11.6-6.47,17.3-4.48,11.36-9.11,22.65-14.7,33.52-1.06,2.06-2.3,4-3.25,6.13-4.12,9.16-7.54,18.62-12.25,27.53-2.11,4-4.2,8-6.06,12.18a6.86,6.86,0,0,1-2.21,2.79,48.23,48.23,0,0,1-27.89,9.32c-3.66,0-7.3-.53-11-.64-1.19,0-1.37.27-1.37,1.24,0,2,.24,4,.37,5.95a2.43,2.43,0,0,0,2.14,2.58c2.85.77,5.64,1.71,8.4,2.75a94.46,94.46,0,0,0,10.41,3.54c4.32,1.05,8.7,1,13.08.94a35.88,35.88,0,0,0,8.92-1.43,29.52,29.52,0,0,0,14.41-9c3.36-3.66,5.62-7.74,5.11-12.92a53.68,53.68,0,0,0-.68-5.68,38.71,38.71,0,0,1-.77-8.79,15.14,15.14,0,0,1,2.24-7.71,40,40,0,0,1,5.95-7.47c5.18-5.09,10.81-9.69,15.9-14.88a49,49,0,0,0,7.58-9.51,29.67,29.67,0,0,0,4.3-15,44.57,44.57,0,0,0-1.31-9.67c-1.65-7.75-5.37-14.64-9.22-21.45C436.64,261.74,436.44,260.94,435.29,260.71ZM36.92,508c0,1,0,2.08,0,3.12.08,1.45.32,1.6,1.57,1.1.22-.09.43-.21.64-.32q9.82-5,19.79-9.72C66,498.82,73,495.3,80.09,492c3.7-1.72,3.79-1.61,1.22-4.83a22,22,0,0,0-12.47-8,8.19,8.19,0,0,0-3.08-.1,24.79,24.79,0,0,0-16.9,10.3c-2.89,4-5.36,8.15-5.76,13.22a3.48,3.48,0,0,1-.45,1.35,1.79,1.79,0,0,1-1.9,1.17,2,2,0,0,1-1.85-1.88,13,13,0,0,1,.2-3.57,33.44,33.44,0,0,1,5.55-12.12c4.08-5.77,9.23-10.14,16.13-12.16,2.44-.71,4.94-1.48,7.51-1.07A26.13,26.13,0,0,1,85,484.23a64.19,64.19,0,0,1,7.73,12.64,20.22,20.22,0,0,0,2.62,4.28,3.57,3.57,0,0,0,4.32,1.1,27.91,27.91,0,0,0,3.68-1.71c4.58-2.45,9.12-5,13.7-7.4,3.24-1.74,6.51-3.4,9.76-5.12,2.88-1.53,5.71-3.21,8.62-4.65,6.07-3,12.29-5.75,18.33-8.85a107.06,107.06,0,0,1,11.53-5.29c1.8-.67,3.61-1.3,5.37-2a5,5,0,0,0,3-5c-.19-2.13-1.92-2.22-3.45-2.68-2.79-.83-5.68-.71-8.53-1-3.32-.4-6.64-.93-10-1.12-6.94-.38-13.89-.17-20.83-.32a77.44,77.44,0,0,0-11.45.6,217.17,217.17,0,0,0-26.08,4.81,212,212,0,0,0-34.22,11.49,39.14,39.14,0,0,0-14.93,11.69C39,492.14,37.19,499.84,36.92,508Zm314.65-98.23a49.23,49.23,0,0,0,.82,7.24c.1.75.62,1,1.21,1.34a25.7,25.7,0,0,1,5.89,4.48c.4.38,1,.73,1,1.28.05,2.1,1.11,4,1.16,6.09a49.63,49.63,0,0,1-.64,10.26C358.67,453,354.82,465,350.57,477c-1.57,4.45-3.53,8.73-5.33,13.08-.41,1-.48,1.55.83,1.86a13.32,13.32,0,0,1,4.69,2.33,82.44,82.44,0,0,1,8.85,7.32c4.46,4.24,8.43,8.94,12.76,13.32.73.73,1.35,1.57,2,2.34a19.34,19.34,0,0,0,9.8,6.1,2.05,2.05,0,0,0,2.69-1.28,10.33,10.33,0,0,0,1.15-4.59,108.12,108.12,0,0,0-1.33-14c-1.39-11.08-3.66-22-5.69-33-1.34-7.29-2.65-14.58-4.06-21.86a88.94,88.94,0,0,0-4.84-17.25c-1.61-3.87-3.67-7.49-7-10.13a111.42,111.42,0,0,1-12.17-10.8C352.62,410.11,352.38,409.61,351.57,409.76Zm120,245.71a9.19,9.19,0,0,0,5.34-1.86,38.53,38.53,0,0,0,8.27-7.19,56.67,56.67,0,0,0,8-12.17,2.41,2.41,0,0,0-.44-3c-7.87-8.7-15.63-17.49-23.9-25.83a42.3,42.3,0,0,1-3.08-3.34,1.38,1.38,0,0,0-2.05-.39c-3.64,2-7.58,3.39-11.3,5.22a215.23,215.23,0,0,1-31.15,12.26c-2.92.91-3,1-1.54,3.75,2.52,4.65,5.78,8.8,8.73,13.16a19.44,19.44,0,0,0,9.11,7.45c9.78,3.89,19.48,8,29.59,11A15.28,15.28,0,0,0,471.57,655.47ZM392.49,153.91c.86.08,1.16-.44,1.56-.79a14.54,14.54,0,0,1,1.24-1.13,80.39,80.39,0,0,1,23-10.83,33.71,33.71,0,0,1,8.92-1.48c.4,0,.85-.08.92-.57.09-.65-.41-.76-.9-.82a32.94,32.94,0,0,0-3.54-.45,53.11,53.11,0,0,0-13.31.9c-5.67,1.27-10.7,3.63-14.5,8.19A17.32,17.32,0,0,0,392.49,153.91ZM457,584.66l-.14-.09v.15Z"/><path class="cls-1" d="M393.32,471.13c-1.25.27-2.56,0-3.78.49a2,2,0,0,0-1.49,2.37c.15,1.21.95,1.57,2,1.59.72,0,1.44,0,2.16,0,7.49-.51,13,2.88,17.43,8.63a159.26,159.26,0,0,1,13,20.67c8.78,16.09,16,32.9,22.74,49.9,2.72,6.83,5.22,13.74,7.87,20.59.83,2.15,1.85,4.24,2.76,6.37.27.63.81,1.22.44,2.14-.82.19-1.21-.51-1.64-1-2.42-2.75-4.85-5.5-7.21-8.32q-6.54-7.8-13-15.67a132.54,132.54,0,0,1-9-11.79c-.21-.33-.43-.67-.68-1a2.07,2.07,0,0,0-2.71-.77,2.18,2.18,0,0,0-.94,2.7,9.26,9.26,0,0,0,1,1.88c3.34,5.28,7.39,10,11.24,14.91,4.2,5.33,8.55,10.53,12.9,15.73,2.62,3.12,5.37,6.12,8.09,9.16,1.8,2,3.65,4,5.47,6,1.37,1.52,1.35,1.87-.49,2.76-2.73,1.32-5.52,2.51-8.28,3.77-5.38,2.44-10.69,5-16.19,7.22q-9,3.59-18.24,6.58c-2.33.77-2.07,1.13-2.22,3.43-.29,4.53,2.57,7.57,4.59,11,2.25,3.76,4.89,7.29,7.47,10.84a16.85,16.85,0,0,0,7.24,5.75c10.17,4.23,20.31,8.55,30.88,11.74a23.81,23.81,0,0,0,7,1.41,13,13,0,0,0,6.79-2A44.62,44.62,0,0,0,492,645.41a57.77,57.77,0,0,0,4.5-7.06c.71-1.46,1-1.51,2-.34,2.4,2.67,4.79,5.36,7.07,8.13,5.38,6.52,10.69,13.11,15.66,20a43.59,43.59,0,0,1,8.44,22.82c.34,4.47.26,8.93.39,13.4.07,2.57-.5,5.08-.53,7.63a2.65,2.65,0,0,1-1.28,2.18c-6.33,4.64-12.78,9.13-20.13,12A70.61,70.61,0,0,1,492.35,728a43,43,0,0,1-14.27-.48,7.43,7.43,0,0,1-5.88-4.65q-4.29-10-8.42-20.1a400.22,400.22,0,0,0-18.23-38.28c-1.52-2.82-3.15-5.56-4.88-8.25a14.19,14.19,0,0,0-1.12-1.55,2.2,2.2,0,0,0-2.64-.51c-1,.38-1,1.33-.92,2.24a4,4,0,0,0,.75,1.75c5.19,8.27,9.23,17.14,13.48,25.91s7.85,17.49,11.58,26.31c1.8,4.27,3.58,8.54,5.38,12.81.44,1,.93,2,1.38,3.05a9.38,9.38,0,0,0,5.54,5,27.87,27.87,0,0,0,9.6,1.8A65.38,65.38,0,0,0,521,722.78c1.81-1.16,3.6-2.37,5.4-3.56a2.19,2.19,0,0,1,1.62-.62c.4,1.76-.27,3.42-.68,5.06-2.32,9.21-4.79,18.38-7.06,27.6a174.76,174.76,0,0,0-3.72,20.46c-.83,6.81-1.14,13.66-1.51,20.51-.52,9.42-.82,18.83-.83,28.25,0,3,.23,6.06.43,9.09H455.18a1.42,1.42,0,0,1,.49-1.28c1.87-2.18,3.76-4.34,5.59-6.55a67.32,67.32,0,0,0,9.1-13.44,9,9,0,0,0,1.12-4.59,3.56,3.56,0,0,0-3.8-3.44,6.18,6.18,0,0,0-3.48,1.44c-1.42,1-2.8,2.11-4.2,3.17-10.72,8.17-21.33,16.47-32.79,23.61-.42.26-.82.51-.81,1.08H405.78c.41-5.17,1.26-10.28,2.13-15.38,2.69-15.74,6.7-31.18,10.42-46.69,2.37-9.84,4.9-19.65,6.82-29.6a211.82,211.82,0,0,0,3.26-21.74,158.67,158.67,0,0,0,.35-17.71,67.71,67.71,0,0,0-3.28-17.59A143.53,143.53,0,0,0,413,652.14a312.77,312.77,0,0,0-25.38-37.71c-5.43-7.1-10.5-14.47-15.37-22-.9-1.4-.71-1.75,1-1.83a191,191,0,0,0,29.85-3.83,14.67,14.67,0,0,0,3.68-1c1.72-.86,2.37-2.35,1.65-3.68s-3.16-2.22-4.37-1.16c-1.46,1.26-3.14,1.49-4.85,1.8A185.81,185.81,0,0,1,370.47,586a4.06,4.06,0,0,1-3.93-2q-12-17.29-24.48-34.29c-1.42-1.93-2.71-4-4-5.94a2.48,2.48,0,0,1-.55-1c-.15-2.76-1.82-5.09-2.16-7.79a14.35,14.35,0,0,0-4.69-9.18,1.15,1.15,0,0,1-.44-1.06c1.93-.4,2.37-2.05,2.84-3.8,1.84-6.8,4.83-13.17,7.59-19.63a6.21,6.21,0,0,1,1.88-2.45c1.93-1.5,3.14-1.57,5.26-.3a18.26,18.26,0,0,1,3.56,2.82c4.41,4.51,9.05,8.81,13.15,13.61,1.87,2.18,3.4,4.62,5.56,6.57,1.9,1.71,3.88,3.3,5.94,4.82a16.77,16.77,0,0,0,6.83,2.74,7.11,7.11,0,0,0,6.78-2.21,11.41,11.41,0,0,0,3.28-8A137.85,137.85,0,0,0,391,500.06c-1.94-13.58-4.73-27-7.26-40.47q-1.18-6.34-2.36-12.69c-.31-1.71-.22-1.83,1.58-2.13,4.39-.75,8.79-1.53,13.19-2.23A8.06,8.06,0,0,1,404,445a29.11,29.11,0,0,1,4.21,5.49c1.29,2.39,2.66,4.73,4,7.11.32.56.63,1.19.12,1.77s-1,.13-1.56,0c-5.52-1.43-10.93-.61-16.29.87-2.12.59-2.47,1.69-1.45,4.08-2.12,1.72-2.27,3.3-.48,5.37A2.29,2.29,0,0,1,393.32,471.13Zm95.77,187.3a2.26,2.26,0,0,0-2,2.74,8.68,8.68,0,0,0,.74,2c2.87,5.81,5.21,11.84,7.73,17.79,3.8,9,7,18.18,10.4,27.3a6.12,6.12,0,0,0,1.38,2.49,2,2,0,0,0,3.4-.49c.74-1.22.19-2.32-.23-3.43-4.41-11.64-8.6-23.38-13.78-34.71-1.82-4-3.74-8-5.6-11.93A2.58,2.58,0,0,0,489.09,658.43ZM380.26,579.22a22,22,0,0,0,2.27-.15c5.73-1,11.45-1.9,17.18-2.9a6.63,6.63,0,0,0,2.91-1,2.34,2.34,0,0,0,.95-2.72,2.23,2.23,0,0,0-2.54-1.31c-.31,0-.61.2-.92.26q-8.1,1.51-16.19,3c-1.88.35-3.78.58-5.66.93a1.91,1.91,0,0,0,0,3.79A13.27,13.27,0,0,0,380.26,579.22Z"/><path class="cls-1" d="M430.3,473.06a7.48,7.48,0,0,1,3.39,1.08c6.65,3.32,13.63,5.9,20.43,8.88,5.57,2.43,11,5.19,16.52,7.66,7.74,3.44,15.31,7.25,22.82,11.17,6.71,3.52,13.36,7.19,19.73,11.32a8,8,0,0,1,3.4,4.68,130.61,130.61,0,0,1,3.88,19.2c.86,6.88,1.9,13.74,2.74,20.62.62,5.06,1.08,10.15,1.57,15.22q.94,10,1.81,20c.21,2.47.23,4.94.42,7.41.26,3.33.52,6.68.69,10,.31,5.81.65,11.62,1.21,17.42.38,3.89.7,7.78,1.07,11.67.12,1.28.32,2.53.48,3.79.27,2.12.58,2.39,2.88,2.69,0,1.64.7,3.16.91,4.76-1.75.44-2.11.84-2.28,2.49a22.6,22.6,0,0,0,.5,5c.55,4.6,1.77,8.89,5.38,12.18,3.16,2.87,4,6.63,3.58,10.71-.86,8.17-1.2,16.38-1.7,24.57-.4,6.69-.07,13.41-.45,20.11-.47,8.38.41,16.76.43,25.14,0,.16,0,.32,0,.48.43,6.84.87,13.69,1.28,20.53.38,6.37.62,12.75,1.16,19.11.22,2.63.25,5.26.49,7.88l1.26,13.8c.27,2.86.65,5.7.8,8.57s.77,5.53.64,8.34h-25.9c-.9-7.49-.52-15-.36-22.5.09-3.9.07-7.83.41-11.72.51-5.88.76-11.77,1.21-17.66a181.89,181.89,0,0,1,4.58-27.08c1.57-6.76,3.55-13.42,5.3-20.14a136,136,0,0,0,3.83-22.6,124.4,124.4,0,0,0,.26-15.56,51.89,51.89,0,0,0-4.2-19.77,59.45,59.45,0,0,0-6.87-11.2c-6.91-9.19-14.11-18.14-21.79-26.7-2.07-2.31-4.05-4.72-6.13-7a9.86,9.86,0,0,1-2-4.67,100.62,100.62,0,0,0-4-13.05A196.34,196.34,0,0,1,483.45,591l-.06-.23c-1.12-3.67-1.09-3.65.84-6.86,4-6.63,8.14-13.18,11.82-20,4.71-8.73,8.06-18.07,11.83-27.22a102.1,102.1,0,0,0,5-14.71,34.16,34.16,0,0,0,.72-3.76c.24-2-.27-3.06-1.52-3.32s-2.31.77-2.72,2.68c-.34,1.56-.67,3.12-1.08,4.66-1.45,5.5-3.82,10.66-6,15.89-2.49,6-5,11.93-7.56,17.86A130.62,130.62,0,0,1,487,570.09q-2.17,3.72-4.39,7.41a7.65,7.65,0,0,1-1.75,2.46,1.2,1.2,0,0,1-.76-1,377.2,377.2,0,0,0-15-41.9c-4.13-9.88-8.51-19.64-13.44-29.15A248,248,0,0,0,439,486.54c-2.74-4.22-5.48-8.43-8.47-12.48a3.54,3.54,0,0,1-.32-.88Z"/><path class="cls-3" d="M118.49,497.61l16-8.24c1.68-.86,1.7-.86,3,.59a233.52,233.52,0,0,1,15.15,18.53c5.1,7.15,10.79,13.86,15.86,21,8.94,12.64,17.87,25.31,25.25,39,3.58,6.61,6.6,13.49,9.5,20.41q6.08,14.48,10.83,29.44a224.64,224.64,0,0,1,7.1,30.51c1,5.82,1.92,11.65,2.74,17.49.5,3.55.8,7.13,1.11,10.71a392,392,0,0,1,.92,40.7c-.17,9.81-.72,19.61-1.76,29.38-1.11,10.56-3,21-4.73,31.46-1.22,7.39-2.27,14.81-3.53,22.2-.56,3.28-.71,6.64-2.17,9.77-1,2.16,0,4,2.16,5a16.23,16.23,0,0,1-.94,5.06c-.74,3-1.88,5.83-1.95,8.93h-23.5c.26-1,.47-2,.8-3,5.08-15.5,8.12-31.49,11.56-47.39,1.07-5,1.41-10.1,2-15.17s1.09-10.14,1.55-15.22c.57-6.28,1-12.57,1.17-18.87.33-11.73.41-23.48-.34-35.21-.21-3.43-.25-6.87-.62-10.28-.56-5.3-1-10.62-1.69-15.92-.79-6.17-1.59-12.34-2.67-18.46-2-11.08-4.43-22-7.45-32.9a279,279,0,0,0-15.11-41.6,230.93,230.93,0,0,0-22-38.4,189,189,0,0,0-35.22-37.66,4.44,4.44,0,0,0-3-1.33Z"/><path class="cls-2" d="M118.49,498.16a4.44,4.44,0,0,1,3,1.33,189,189,0,0,1,35.22,37.66,230.93,230.93,0,0,1,22,38.4,279,279,0,0,1,15.11,41.6c3,10.85,5.48,21.82,7.45,32.9,1.08,6.12,1.88,12.29,2.67,18.46.69,5.3,1.13,10.62,1.69,15.92.37,3.41.41,6.85.62,10.28.75,11.73.67,23.48.34,35.21-.17,6.3-.6,12.59-1.17,18.87-.46,5.08-.91,10.16-1.55,15.22s-1,10.2-2,15.17c-3.44,15.9-6.48,31.89-11.56,47.39-.33,1-.54,2-.8,3h-4.79c.51-3.41,1.87-6.59,2.8-9.88a387.33,387.33,0,0,0,8.83-38.21c1.24-7.07,2.18-14.18,3.14-21.28.53-3.87.73-7.78,1.07-11.67.58-6.6.76-13.22,1.11-19.84.42-7.83.35-15.65.21-23.48-.11-6.54-.42-13.09-1-19.6s-1.3-12.84-2.14-19.24c-1.14-8.7-2.68-17.33-4.48-25.91a290.41,290.41,0,0,0-9.42-34.14,263,263,0,0,0-18.73-42.47,212.34,212.34,0,0,0-18.27-27.79c-3.24-4.16-6.64-8.17-10.25-12a161.8,161.8,0,0,0-16.92-15.88c-1.62-1.3-3.31-2.51-4.93-3.8s-1.59-3.32.33-4.35a3,3,0,0,0,1.49-1.46l0,0A1,1,0,0,0,118.49,498.16Z"/><path class="cls-2" d="M173.65,829.57c.44-5.48,1-11,1.32-16.45.25-4.14.7-8.26,1.14-12.38.45-4.36,1-8.7,1.56-13,.43-3.57.88-7.12,1.26-10.69q.73-6.88,1.33-13.8c.25-2.86.52-5.73.53-8.59.05-10.47.2-21-.09-31.41-.16-5.91-.06-11.83-.45-17.72-.3-4.47-.22-8.94-.4-13.4-.3-6.86-.44-13.73-1-20.56a382.06,382.06,0,0,1-1.4-38.28,13.27,13.27,0,0,1,0-1.67c.16-1.24,1-2.05,2-2a1.89,1.89,0,0,1,1.89,1.81,34.82,34.82,0,0,1,.36,3.81c.06,2.63.05,5.27.06,7.91,0,7.11.72,14.17,1.34,21.24.23,2.62.38,5.26.46,7.88.18,5.59.53,11.17.74,16.76.41,11.17.6,22.34,1,33.51.37,10.55.36,21.09.21,31.63-.07,5-.6,10-1.13,15-.41,3.88-.72,7.78-1.14,11.66-.51,4.67-1.09,9.34-1.64,14-.41,3.48-.86,7-1.21,10.44-.5,5-1,10-1.37,15-.26,3.1-.38,6.21-.56,9.31Z"/><path class="cls-2" d="M545.35,829.57c.13-2.81-.5-5.55-.64-8.34s-.53-5.71-.8-8.57l-1.26-13.8c-.24-2.62-.27-5.25-.49-7.88-.54-6.36-.78-12.74-1.16-19.11-.41-6.84-.85-13.69-1.28-20.53,0-.16,0-.32,0-.48,0-8.38-.9-16.76-.43-25.14.38-6.7.05-13.42.45-20.11.5-8.19.84-16.4,1.7-24.57.42-4.08-.42-7.84-3.58-10.71-3.61-3.29-4.83-7.58-5.38-12.18a22.6,22.6,0,0,1-.5-5c.17-1.65.53-2,2.28-2.49a2.72,2.72,0,0,1,2,2.83,56.51,56.51,0,0,0,1.38,8.26,8.68,8.68,0,0,0,2,3.79,19.21,19.21,0,0,0,1.79,1.93c3.56,3.28,4.83,7.46,4.65,12.12-.16,4.47-.54,8.93-.82,13.39-1.08,17.15-1.48,34.31-.91,51.49.6,18.13,1.85,36.22,3.17,54.3.75,10.28,1.8,20.53,2.71,30.79Z"/><path class="cls-2" d="M426.4,829.57c0-.57.39-.82.81-1.08,11.46-7.14,22.07-15.44,32.79-23.61,1.4-1.06,2.78-2.14,4.2-3.17a6.18,6.18,0,0,1,3.48-1.44,3.56,3.56,0,0,1,3.8,3.44,9,9,0,0,1-1.12,4.59,67.32,67.32,0,0,1-9.1,13.44c-1.83,2.21-3.72,4.37-5.59,6.55a1.42,1.42,0,0,0-.49,1.28h-6.24a1.44,1.44,0,0,1,.52-1.27c2.09-2.4,4.19-4.8,6.27-7.21a79.92,79.92,0,0,0,8.72-11.66c.43-.74,1-1.45.78-2.42l.24-.17s-.11,0-.13,0a1,1,0,0,0-.08.18,6.17,6.17,0,0,0-1.83,1.09c-7.38,5.53-14.67,11.16-22.15,16.56-2.24,1.62-4.75,2.89-6.73,4.88Z"/><path class="cls-1" d="M465.23,807c.25,1-.35,1.68-.78,2.42a79.92,79.92,0,0,1-8.72,11.66c-2.08,2.41-4.18,4.81-6.27,7.21a1.44,1.44,0,0,0-.52,1.27H434.55c2-2,4.49-3.26,6.73-4.88,7.48-5.4,14.77-11,22.15-16.56a6.17,6.17,0,0,1,1.83-1.09Z"/><path class="cls-2" d="M21.27,538.8c1.79.35,4.08.72,6.33,1.24A277.17,277.17,0,0,1,67.49,552.7a327.57,327.57,0,0,1,30.45,14.06A252.63,252.63,0,0,1,136.1,591a125.79,125.79,0,0,1,15.14,13.59,85.2,85.2,0,0,1,6.69,8.13,3.83,3.83,0,0,1,.82,1.71c.15,1.08.11,2.07-1,2.68a2.21,2.21,0,0,1-2.82-.53,13.39,13.39,0,0,1-1.47-1.88,91.39,91.39,0,0,0-15.6-16.15,214.94,214.94,0,0,0-31.89-22,302.11,302.11,0,0,0-35.87-17.68c-7.16-3-14.39-5.74-21.75-8.13A204.06,204.06,0,0,0,21,543.59a8,8,0,0,1-1.61-.45,2.16,2.16,0,0,1-1.59-2.59,2.08,2.08,0,0,1,2.24-1.75Z"/><path class="cls-2" d="M150.05,594.51a2.23,2.23,0,0,1,1.75,1q4.66,4.95,9.32,9.92a4,4,0,0,1,.78,1.18,2,2,0,0,1-2.05,2.84,3.61,3.61,0,0,1-2.62-1.49,117.47,117.47,0,0,0-8-8.84,3.39,3.39,0,0,1-1-3A1.63,1.63,0,0,1,150.05,594.51Z"/><path class="cls-2" d="M290,779.68c-1.62-.1-4.58.28-7.51-.39-3.88-.9-6.42-3-7.18-7.06-1.22-6.58-2.63-13.14-3.7-19.74-2.18-13.32-5.07-26.47-8.5-39.51a359.54,359.54,0,0,0-15.83-46.42c-.46-1.11-1-2.16-1.58-3.23a3.71,3.71,0,0,1-.56-2.05,1.93,1.93,0,0,1,1.19-1.65,1.72,1.72,0,0,1,2,.22,6.13,6.13,0,0,1,1.62,2.35c3.5,7.36,6.5,14.93,9.31,22.58a345.46,345.46,0,0,1,11.41,39c2.25,9.46,4.08,19,5.69,28.61,1,5.82,2.16,11.6,3.25,17.39.76,4,1.85,4.94,5.93,5.12a105.3,105.3,0,0,0,29.89-3q12.22-3,24.11-7a61.37,61.37,0,0,0,13-6c1.08-.68,2.25-1.2,3.37-1.82a13.55,13.55,0,0,0,4.28-3,3.31,3.31,0,0,1,1.87-1,8.52,8.52,0,0,0,2.12-1c3.56-2,4.72-5.26,4.6-9.09-.17-5.33-.64-10.65-1.27-16-1.11-9.28-3-18.43-5-27.53-2.43-11-5.11-21.9-8.12-32.74-.51-1.85-1.18-3.65-1.76-5.47a11.83,11.83,0,0,1-.52-2.09,2.5,2.5,0,0,1,1.69-2.59c1.16-.25,1.76.57,2.28,1.39a5,5,0,0,1,.4,1.12,415.78,415.78,0,0,1,12.2,47c1.22,5.93,2.47,11.86,3.19,17.88.47,4,.86,7.93,1.22,11.9.16,1.74.16,3.49.35,5.24a21.75,21.75,0,0,1-1,8.51c-.73,2.41-2.63,4-4.49,5.48-2.79,2.3-6.06,3.83-9.1,5.73-10.7,6.66-22.55,10.5-34.6,13.68a178.35,178.35,0,0,1-20.09,4.37A84.82,84.82,0,0,1,290,779.68Z"/><path class="cls-2" d="M350.16,649.08a14.42,14.42,0,0,1-.87,4.69,237.66,237.66,0,0,1-11.81,30.33c-2.08,4.49-4.29,8.92-6.45,13.38a16.8,16.8,0,0,1-3,4.33,7.55,7.55,0,0,1-7.65,2.24,106.85,106.85,0,0,1-16.93-5.93c-8.42-3.68-16.71-7.62-24.27-12.92a127.32,127.32,0,0,1-10.49-8.33c-3.18-2.79-6.44-5.47-9.43-8.49a58.63,58.63,0,0,1-7-8.81c-2.41-3.61-.14-6.34,2.43-8a1.64,1.64,0,0,1,2.2.16,2.06,2.06,0,0,1,.64,2.57,4,4,0,0,1-.49.82c-.94,1.13-.61,2.11.1,3.26a42.85,42.85,0,0,0,8.52,9.68c4.37,3.84,8.71,7.73,13.37,11.23a106.1,106.1,0,0,0,19.58,11.47,183,183,0,0,0,19.08,7.72c1,.32,2,.54,3,.86A3.65,3.65,0,0,0,325.2,698a14.28,14.28,0,0,0,1.33-2,290.42,290.42,0,0,0,18-42.54,13.34,13.34,0,0,0,.34-8c-1.52-5.46-2.89-11-4.64-16.34a18,18,0,0,0-1.56-3.49c-.86-1.48-1.34-1.62-2.92-.85-4.45,2.17-8.92,4.28-13.46,6.25a183.2,183.2,0,0,1-38.83,11.86c-8,1.51-15.9,3.35-24,4.49a6.92,6.92,0,0,1-1.41.19,2.31,2.31,0,0,1-2.16-1.92,1.85,1.85,0,0,1,1.58-2.09c2.09-.51,4.21-.87,6.32-1.31,5.85-1.21,11.7-2.44,17.55-3.64a206.24,206.24,0,0,0,28.39-7.68,196.3,196.3,0,0,0,21.79-9.32c1.21-.61,2.41-1.25,3.66-1.77a4.86,4.86,0,0,1,5.54.94,13.14,13.14,0,0,1,3.38,5.45,178.36,178.36,0,0,1,5.94,21.18A10.26,10.26,0,0,1,350.16,649.08Z"/><path class="cls-2" d="M389,644.5a10.35,10.35,0,0,1-.36,3.19c-1.34,4.83-5.54,6.36-10,4.89-5.88-1.94-11.76-9.82-10.72-17.5a7.28,7.28,0,0,1,9-6.23c6,1.7,9.58,6,11.46,11.77A9.1,9.1,0,0,1,389,644.5Zm-4.74.13c0-3.3-1.49-6-3.62-8.34a8.18,8.18,0,0,0-4.57-2.85,2.57,2.57,0,0,0-3.18,1.46,5.19,5.19,0,0,0-.49,3,14.57,14.57,0,0,0,5.47,9,6.65,6.65,0,0,0,2.78,1.33c2.17.44,3.37-.45,3.6-2.65A7.69,7.69,0,0,0,384.25,644.63Z"/><path class="cls-2" d="M327.61,550.4a9,9,0,0,1-6.88,9.45,11.19,11.19,0,0,1-9.86-2.53,13.52,13.52,0,0,1-5.18-9.68c-.5-7.82,6.05-12.41,12.63-10.14A13.36,13.36,0,0,1,327.61,550.4Zm-12.44-8.69c-2.94,0-4.75,2-4.82,4.95-.08,4,3.73,8.29,6.87,8.71,2.76.38,4.85-.75,5.6-3.45,1.09-4-2.14-8.07-4.84-9.51A5.21,5.21,0,0,0,315.17,541.71Z"/><path class="cls-2" d="M387.1,771.27a11.16,11.16,0,0,1,2-7.12,6.91,6.91,0,0,1,8.58-2.86,4.84,4.84,0,0,0,2.05.59c1.75-.18,2.62.89,3.3,2.25,2.58,5.22,2.06,10.4-.41,15.43a6.74,6.74,0,0,1-6.79,4,8,8,0,0,1-7-4.32A15,15,0,0,1,387.1,771.27Zm12.89-.44a7.5,7.5,0,0,0-.38-2.72,4.81,4.81,0,0,0-4.21-2.88c-1.52-.08-2.59.71-3.31,2.55-1.25,3.19-.64,6.27.69,9.25a3.48,3.48,0,0,0,3.29,2,3.05,3.05,0,0,0,2.76-2.3A15,15,0,0,0,400,770.83Z"/><path class="cls-2" d="M337.24,750.47c-1.36,0-2.08-.5-2.52-2.08-.6-2.15-1.05-4.34-1.54-6.52q-3.15-14-6.27-28a15.26,15.26,0,0,1-.32-2.61c-.06-1.75.45-2.68,1.5-2.89s2.07.62,2.48,2.29c.94,3.8,1.88,7.59,2.77,11.4,1.77,7.53,3.5,15.07,5.27,22.6.24,1,.64,2,.88,3A2.11,2.11,0,0,1,337.24,750.47Z"/><path class="cls-2" d="M319.78,692.39c-5.47,0-10.06-5.87-8.91-10.83a6.77,6.77,0,0,1,2.42-3.47,7.38,7.38,0,0,1,10,.14,10.18,10.18,0,0,1,2.74,3.58,8.55,8.55,0,0,1-3.63,10A4.94,4.94,0,0,1,319.78,692.39Zm2.12-8.07a2.25,2.25,0,0,0-.71-1.54c-1.08-1.2-2.09-2.2-4.05-1.55-1.79.59-2.5,1.38-1.88,3.18a6.22,6.22,0,0,0,1.81,2.46c.85.77,1.81,1.47,3,1S321.79,686.09,321.9,684.32Z"/><path class="cls-4" d="M204.49,285.45c-2,.58-2.4,1.07-2,3.24.36,1.87.78,3.73,1,5.63.42,3.39.8,6.79,1.35,10.16.66,4.09.73,8.23,1.3,12.32a10.18,10.18,0,0,1,.08,1.91,95.11,95.11,0,0,0,.61,14.82c1.42,13.55.58,27.12.82,40.68,0,2.55-.39,2.86-3,2.39a73.32,73.32,0,0,0-13.28-1.22,83.69,83.69,0,0,0-11.14,1.09c-8.94,1.2-17.49,4.12-26.33,5.79a64.46,64.46,0,0,1-13.47,1.59c-6-.13-11.79-1.26-16.83-4.6-6.34-4.2-11.26-9.63-13.07-17.33-.88-3.76.27-7.27,1.49-10.73,2-5.65,5.43-10.43,9.22-15,3.46-4.17,7-8.26,10.2-12.64a26.81,26.81,0,0,0,5-10.52,21.79,21.79,0,0,0-4.44-18c-3.5-4.52-7.89-8.1-12.2-11.77A74.5,74.5,0,0,1,101.1,260a53.76,53.76,0,0,1-5.41-15.26,10,10,0,0,1-.2-1.89,60.9,60.9,0,0,1,1.43-12.78c.57-2.35.34-4.74.87-7.09a73.28,73.28,0,0,1,1.71-7.43c1.91-5.66,3.67-11.37,5.19-17.16a101.62,101.62,0,0,1,3.58-9.89,72,72,0,0,0,3.6-11.62c.59-2.95,1.84-5.76,2.49-8.73a134.11,134.11,0,0,0,2.78-17.4,199.45,199.45,0,0,0,.23-23.7c-.12-3.54-.38-7.14-.68-10.71a118,118,0,0,1-.65-14.57c.12-2.87-.11-5.76.06-8.63.76-12.75,4.14-24.59,12.08-34.9A88.55,88.55,0,0,1,139.1,46.52a80.66,80.66,0,0,1,12.82-9.15c9.87-5.91,20.53-9.83,31.59-12.87,6.68-1.83,13.34-3.72,20.08-5.32,8.9-2.12,17.72-4.59,26.71-6.34,6.15-1.2,12.32-2.4,18.55-3.18,5.36-.67,10.69-1.53,16-2.26,2.05-.27,4.14-.31,6.19-.44,3.17-.2,6.38-.41,9.52-.74,3.73-.38,7.5.07,11.19-.75a3.4,3.4,0,0,1,.71,0c8.86-.09,17.72-1,26.57-.42,5.38.35,10.78.63,16.16,1.24a141.4,141.4,0,0,1,22,4A126.14,126.14,0,0,1,386.46,22a69.21,69.21,0,0,1,17.31,13.82c1.93,2.13,3.82,4.29,5.91,6.25q7.06,6.63,14.47,12.86a54.79,54.79,0,0,1,9.63,10,20.52,20.52,0,0,1,2.33,5.23,5.44,5.44,0,0,1-1.3,5.74,16.1,16.1,0,0,1-5.1,3.9,23.63,23.63,0,0,0-5.63,4c-2.8,2.62-2.79,4.87-.15,7.62a24.16,24.16,0,0,1,4.75,6.25c.95,2,.8,3.14-.74,4.77a14.11,14.11,0,0,1-6.85,3.69c-1.69.47-3.44.7-5.11,1.21-1.07.32-1.54-.06-2.17-.85a122.16,122.16,0,0,0-9.19-10.38c-1.93-1.92-4-3.63-6.1-5.36-1-.85-1.08-1.23,0-2a32.39,32.39,0,0,0,5.15-4.26A19.42,19.42,0,0,0,408,76.1a1.84,1.84,0,0,0-.33-1.8c-.78-.93-1.72-1-2.3.1a48.64,48.64,0,0,1-3.64,5.33,21.58,21.58,0,0,1-6.89,6.52,18.26,18.26,0,0,1-7.75,2.12c-4.42.34-8.7-.74-13-1.5a4.9,4.9,0,0,1-1.32-.56c-3.9-2-7.95-3.72-11.92-5.57A68.14,68.14,0,0,0,344.65,76a137.13,137.13,0,0,0-14.44-1.61,85,85,0,0,0-12.38.29,80.88,80.88,0,0,0-16.63,3,93.58,93.58,0,0,0-19.5,7.84,81.77,81.77,0,0,0-12,8.25c-5.42,4.37-9.48,9.87-13.45,15.45-3.27,4.61-5.22,9.82-6.86,15.2-2.2,7.24-3.8,14.7-7.54,21.39a51.21,51.21,0,0,1-6.59,9.37c-1.86,2.07-3.52,4.33-5.43,6.35a45,45,0,0,1-17.45,11,47.51,47.51,0,0,1-19.51,2.71,35,35,0,0,1-7.71-1.5,1.71,1.71,0,0,0-2.22.77c-1,1.5-.72,2.51,1,3.15a31.5,31.5,0,0,0,6,1.4,44.86,44.86,0,0,0,17.31-.7c.15,0,.3-.1.46-.13.85-.12,1.38,0,1.11,1.12-.49,2.09-.94,4.18-1.27,6.31a33.6,33.6,0,0,0,2.58,18.45,30.64,30.64,0,0,0,7.19,10.34,55.53,55.53,0,0,1,9.06,10.47,26.55,26.55,0,0,1,4.25,15,25.07,25.07,0,0,1-4.46,14,21.73,21.73,0,0,1-.66-4.09,31.71,31.71,0,0,0-6.15-14.58,34.2,34.2,0,0,0-8-7.85,41,41,0,0,0-10.83-5c-4.47-1.44-8.88-3.07-13.26-4.78-2.74-1.07-5.5-2.13-8.25-3.19a1.53,1.53,0,0,0-1.94.18c1.39,1.47,3.23,2.23,4.9,3.19,6.3,3.61,12.89,6.67,19.36,10,2.27,1.16,4.43,2.52,6.63,3.81a1.5,1.5,0,0,1,.8,1.07c-1,.3-2-.22-2.87-.36-5.52-.88-11.08-1.09-16.63-1.47-8.32-.56-16.68-1.17-24.63-4.1A32.51,32.51,0,0,1,154,220.06c-4.84-4.4-8.31-9.82-11.67-15.37-3.56-5.87-5.42-12.39-7.48-18.85a7.75,7.75,0,0,0-1.13-2.85,2.35,2.35,0,0,0-2.76-.92,2.73,2.73,0,0,0-1.87,2.29,8.87,8.87,0,0,0,.58,3.76c1.64,5.25,3.23,10.55,5.74,15.46,4.17,8.14,9.24,15.68,16.23,21.73a31.59,31.59,0,0,0,7.55,5c1.2.53,1.58,1.06,1.2,2.52a37.65,37.65,0,0,0,.47,19.34A46.09,46.09,0,0,0,175,275.56a35,35,0,0,0,19.24,8.94c3.11.35,6.38.63,9.47-.57.38-.15.76-.25,1.08.11C203.52,284.79,203.52,284.79,204.49,285.45Z"/><path class="cls-5" d="M410.25,149c3.74-1.34,7.4-2.94,11.34-3.71,2.51-.48,5-.77,7.56-1.13a2.18,2.18,0,0,1,2.72,1.65,18,18,0,0,0,.85,2,2.53,2.53,0,0,1,.06,2.29c-3.16,7.08-4.31,14.64-5.47,22.22-.85,5.59-1.42,11.22-2,16.85-.94-.65-1.34-1.74-2.1-2.55-5.72-6.15-13-8-21.06-7.74a33.51,33.51,0,0,0-16.93,5.23,3.33,3.33,0,0,1-2,.67,8.43,8.43,0,0,0-2.75.69,4.52,4.52,0,0,1,.37-2.57c1.19-4.23,2.42-8.44,3.66-12.65.58-2,1.21-4,1.83-6,.2-.65.32-1.25-.48-1.6s-1.13.25-1.38.85c-2.65,6.25-5.68,12.33-7.6,18.88a16.45,16.45,0,0,0-.46,7.57c3.32,19.77,7,39.48,11.45,59,.73,3.16.48,3.8-2.32,5.48-3.36,2-6.77,3.93-10.14,5.92a10.66,10.66,0,0,0-1.92,1.41,2.18,2.18,0,0,0-.46,2.84,2.13,2.13,0,0,0,2.71.88,8.79,8.79,0,0,0,1.71-.85c1.88-1.05,3.75-2.13,5.62-3.2a65.41,65.41,0,0,0,6.84-4.42,5.27,5.27,0,0,0,2.24-6c-3-14.14-5.8-28.32-8.66-42.49a4.47,4.47,0,0,1-.22-2.35l.94.71a24.42,24.42,0,0,0,18.91,4.92c7.71-1.17,14-5.14,19.1-11a23.54,23.54,0,0,1,3.11-3.28c.39,2.11.88,4.2.12,6.36-.3.84.17,1.72.41,2.56,1.27,4.39,3,8.6,4.46,12.92s3.17,8.71,4.05,13.28a16.25,16.25,0,0,1,.29,5,141.59,141.59,0,0,1-7.45,31.63c-5.54,15.13-12.94,29.39-19.66,44-6.29,13.65-12.63,27.27-18.89,40.93a7.78,7.78,0,0,1-3,3.29,49.94,49.94,0,0,1-19.15,7.23,32.56,32.56,0,0,1-10.24,0c-8.62-1.24-17.3-2.09-25.83-3.89-23.22-4.91-45.88-11.5-67-22.55a108.77,108.77,0,0,1-23.12-16.59,15.89,15.89,0,0,1-3.91-5.66c-5.78-13.53-12-26.87-18.14-40.22a34.44,34.44,0,0,0-1.68-3.18,2,2,0,0,0-2.42-1.08,1.65,1.65,0,0,0-1.09,2.12c.18,1,0,1.65-1.08,2-5.06,1.85-10.18,3.27-15.64,3.18a24.93,24.93,0,0,1-13.45-4.54c-9.09-6-14.69-14.52-17.65-24.87A60.91,60.91,0,0,1,163,233.46a1.22,1.22,0,0,1,.31-1.12,2,2,0,0,1,1.36.16c8.34,2.46,16.91,3.32,25.55,3.68a113.58,113.58,0,0,1,15.52,1.28,45.47,45.47,0,0,1,7.6,2.17,9.33,9.33,0,0,1,5.68,5.75,27.11,27.11,0,0,1,1.33,14.86l-.06.23c-.29,1.38-.47,2.74,1,3.63a4.42,4.42,0,0,0,4.7-.7c8.29-9.64,12.49-20.37,8.75-33.2A35.49,35.49,0,0,0,226,215.5c-1.83-1.9-3.75-3.72-5.5-5.69-8.56-9.62-10-20.51-5.69-32.41a4.68,4.68,0,0,1,2.83-2.68c10.69-5,19.82-11.95,26.69-21.66a52.23,52.23,0,0,0,7.43-14.71q2.9-9.27,5.86-18.51a36.05,36.05,0,0,1,8.29-14.17c11-11.31,23.73-19.45,39.32-23.08a90.76,90.76,0,0,1,38.5-.93c6.42,1.25,12.3,4,18.13,6.82a57.4,57.4,0,0,0,16.17,5.06,26.34,26.34,0,0,0,15.44-2c2-.9,1.63-1.27,3.37.65A202.85,202.85,0,0,1,424.43,131c.16.28.32.56.46.85.37.77.21,1.23-.74,1.21L422,133a45.61,45.61,0,0,0-17.69,2.48c-7.56,2.83-13.26,7.61-16,15.44a8.87,8.87,0,0,0-.69,2.78.74.74,0,0,0-.19,1,5.7,5.7,0,0,0-.31,2.35.59.59,0,0,0-.12,1,3.54,3.54,0,0,0,0,1.91c.17,1.72.19,1.79,1.4,1.38,2.86-1,5.14-2.9,7.42-4.81l.44-.29a1.85,1.85,0,0,0,1.56-.91,2.54,2.54,0,0,0,1.25-.69c3.4-1.43,6.56-3.3,9.82-5l.76-.3A.49.49,0,0,0,410.25,149Zm-156,6a1.32,1.32,0,0,0-.86,1.68,2.68,2.68,0,0,0,2.16-1.71,162.42,162.42,0,0,1,13.94-9.16A51.68,51.68,0,0,1,289.32,139a58.18,58.18,0,0,1,17.43.25c12.24,2.24,23.47,6.67,32.39,15.8a9.52,9.52,0,0,0,1.81,1.55c1.73,1,3.91.17,4-1.54.29-7.13-1.74-13.43-6.82-18.56-4.66-4.73-10.53-7.11-16.94-8.29a59,59,0,0,0-21.44.37,87.28,87.28,0,0,0-25.31,8.6C266.29,141.49,260.31,148.32,254.29,155Zm51,51.27c1-.1,2.06-.26,3.09-.28a31.08,31.08,0,0,0,13.93-3.94,22.91,22.91,0,0,0,6.5-5.24c2.09-2.43,2.08-5.48-.42-7.13-1.86-1.22-3.24-2.9-4.94-4.14a38.08,38.08,0,0,0-12.4-6.1c-2.12-.59-4.28-.31-6.41-.72a63.22,63.22,0,0,0-11.41-1.12,8.26,8.26,0,0,0-4.13,1c-1.13.62-1.22,2.4-2.25,2.62s-2.44-.57-3.74-.29c-.47.09-.93.22-1.4.32-4.18.85-5.67,3.39-4.43,7.52a21.15,21.15,0,0,0,7.83,10.9C291,204.26,297.88,206.06,305.25,206.31Zm59.15,46.12c-4.27.21-8.9,2-13.59,3.58a1.57,1.57,0,0,0-1.14,1.87,1.72,1.72,0,0,0,1.75,1.37,11,11,0,0,0,3.32-.35c3.05-.64,6.1-1.27,9.14-1.92,1-.21,1.86-.33,2.46.78a1.64,1.64,0,0,0,2.26.78,2,2,0,0,0,1-2.43C369.17,253.53,367.8,252.39,364.4,252.43Zm-18.13-99.09c0,1.35,0,2.7,0,4a2.1,2.1,0,0,0,1.63,2.32,2.31,2.31,0,0,0,2.6-1.61,7,7,0,0,0,.43-3c-.15-3.09-.32-6.18-.77-9.25a6.53,6.53,0,0,0-.32-1.39,2.34,2.34,0,0,0-2.74-1.73c-1.18.28-1.7,1.2-1.42,2.84A44.57,44.57,0,0,1,346.27,153.34Z"/><path class="cls-5" d="M204.49,285.45c-1-.66-1-.66.31-1.41a2.59,2.59,0,0,0,1.42-.32.92.92,0,0,0,1.21-.33l1.25-.36a.38.38,0,0,0,.56-.22l.87-.32c.26.12.41,0,.5-.22a10.89,10.89,0,0,0,2.61-1.16c1.45-.73,1.47-.74,2.17.82q2.85,6.45,5.67,12.9c.26.58.55,1.14.83,1.72a1,1,0,0,0,.53,1.17,54.34,54.34,0,0,0,2.83,6.5,1,1,0,0,0,.54,1.17q3.6,8.1,7.23,16.19A5.19,5.19,0,0,0,234,323a81,81,0,0,0,17.88,13.94c26.55,15.14,55,24.76,85.08,29.76,2.68.45,5.35.93,8.05,1.26,1.25.15,1.61.7,1.56,1.86-.13,3.43-.08,6.88-.32,10.3-.45,6.47-.47,12.95-.31,19.42.12,4.87.62,9.73,1.11,14.58.81,8,1.73,16.05,2.65,24.07a89.24,89.24,0,0,0,1.82,11.59,6.44,6.44,0,0,1-.25,4c-1,2.68-2,5.41-3,8.08q-5.61,13.89-11.31,27.75c-.18.44-.38.88-.58,1.31a.78.78,0,0,1-1.16.45,7.27,7.27,0,0,0-3-.57c-3.63-.05-6.87-1.4-10-3-2.14-1.08-4.33-2.06-6.49-3.1a6.54,6.54,0,0,0-5.11-.34c-1.14.37-2.3.65-3.44,1-.53.19-1,.54-.92,1.23s.66.89,1.24.86a17,17,0,0,0,2.86-.27,4.11,4.11,0,0,1,3.8.86c1.22,1,2.6,1.87,3.8,2.92a26,26,0,0,0,8.39,4.52,17.29,17.29,0,0,0,6.63.69,12,12,0,0,1,1.31.15c-3,8-5.79,15.95-8.46,24.09a12.52,12.52,0,0,1-3.87-4.23,64,64,0,0,0-6.49-8.6,34.34,34.34,0,0,0-13.27-9.22c-15.93-5.75-29.28-15.5-41.84-26.56-6.78-6-13.78-11.68-20.66-17.53a58.47,58.47,0,0,1-6.27-5.92c-.31-.35-.65-.83-1.06-.93-1.68-.41-2.71-1.67-3.78-2.82a199.74,199.74,0,0,1-22.59-28.53,22.6,22.6,0,0,1-1.28-2.31,2.31,2.31,0,0,1,.22-2.67c.69-.24,1,.36,1.45.61a3,3,0,0,0,4.55-1.51,6.31,6.31,0,0,0,.54-1.83c1.28-9.35,2.57-18.7,2.57-28.16,0-11.67.14-23.34-.41-35-.26-5.5-.86-11-1.27-16.49-.34-4.46-.6-8.93-.94-13.39a145.54,145.54,0,0,0-2.89-17.73,74.17,74.17,0,0,0-2.73-10.18C205.42,286.69,205.39,285.8,204.49,285.45Z"/><path class="cls-1" d="M206.55,390c.35,2.25-.4,4-.35,5.84a6,6,0,0,1-4.09,6.24,14.62,14.62,0,0,0-1.41.91,4,4,0,0,0-2.06,4,21.25,21.25,0,0,0,1.75,7.88,88.43,88.43,0,0,0,9.73,15.06c5.24,6.93,10.5,13.9,16.87,19.85s12.75,12.07,19.45,17.76c8.14,6.93,16.31,13.8,25,20.09,4.71,3.43,9.36,6.94,14,10.42.39.28.76.59,1.13.89,1.78,1.45,1.78,1.6-.2,2.76a40.89,40.89,0,0,0-11.67,10.87,83,83,0,0,0-7.48,12,11.28,11.28,0,0,0-.8,1.73,2.26,2.26,0,0,0,.91,2.74,2.61,2.61,0,0,0,3.23-.64,11.9,11.9,0,0,0,1.05-1.88A67.07,67.07,0,0,1,278,516.11a10.72,10.72,0,0,1,.91-1.09.75.75,0,0,1,1.2.79,10.13,10.13,0,0,1-.63,1.28,58.91,58.91,0,0,0-7.7,20c-.46,2.58-.63,5.22-1.22,7.79a22.1,22.1,0,0,1-3.22,8.18c-1.62,2.26-2.83,2.65-5.28,1.49a26.82,26.82,0,0,1-6.51-4.42A67.69,67.69,0,0,1,241,530.7c-6.33-12.1-12.8-24.13-20.74-35.29A133.74,133.74,0,0,0,210.11,483q-9.33-10.29-18.88-20.37A63.56,63.56,0,0,1,177.7,440a23.77,23.77,0,0,1-1.07-10.87c.41-3.57.26-7.16.78-10.73A34,34,0,0,1,181.83,405,15.6,15.6,0,0,1,188,399.2C194.09,396.16,200.16,393.17,206.55,390Zm-15.92,22.17a2.19,2.19,0,0,0-2.31,2.83,8.26,8.26,0,0,0,.72,2q2.94,6.15,5.94,12.27a41.3,41.3,0,0,0,2.31,4.17,2.27,2.27,0,0,0,4.24-1.34,3,3,0,0,0-.78-2.17,7.07,7.07,0,0,1-1.08-1.57c-1.71-3.24-3.43-6.47-5.08-9.75-.77-1.55-1.73-3-1.9-4.86A1.83,1.83,0,0,0,190.63,412.17Zm4.57,24.76a27.66,27.66,0,0,0-1.86-4.89,2,2,0,0,0-3.68.79,8.38,8.38,0,0,0,2.18,5.83,2.18,2.18,0,0,0,2.47.26C195.07,438.62,195.24,437.91,195.2,436.93Z"/><path class="cls-4" d="M435.29,260.71c1.15.23,1.35,1,1.67,1.61,3.85,6.81,7.57,13.7,9.22,21.45a44.57,44.57,0,0,1,1.31,9.67,29.67,29.67,0,0,1-4.3,15,49,49,0,0,1-7.58,9.51c-5.09,5.19-10.72,9.79-15.9,14.88a40,40,0,0,0-5.95,7.47,15.14,15.14,0,0,0-2.24,7.71,38.71,38.71,0,0,0,.77,8.79,53.68,53.68,0,0,1,.68,5.68c.51,5.18-1.75,9.26-5.11,12.92a29.52,29.52,0,0,1-14.41,9,35.88,35.88,0,0,1-8.92,1.43c-4.38,0-8.76.11-13.08-.94A94.46,94.46,0,0,1,361,381.36c-2.76-1-5.55-2-8.4-2.75A2.43,2.43,0,0,1,350.5,376c-.13-2-.36-4-.37-5.95,0-1,.18-1.28,1.37-1.24,3.66.11,7.3.68,11,.64a48.23,48.23,0,0,0,27.89-9.32,6.86,6.86,0,0,0,2.21-2.79c1.86-4.14,3.95-8.19,6.06-12.18,4.71-8.91,8.13-18.37,12.25-27.53.95-2.1,2.19-4.07,3.25-6.13,5.59-10.87,10.22-22.16,14.7-33.52C431.08,272.31,433.23,266.58,435.29,260.71Z"/><path class="cls-1" d="M36.92,508c.27-8.15,2-15.85,7.23-22.37a39.14,39.14,0,0,1,14.93-11.69A212,212,0,0,1,93.3,462.44a217.17,217.17,0,0,1,26.08-4.81,77.44,77.44,0,0,1,11.45-.6c6.94.15,13.89-.06,20.83.32,3.33.19,6.65.72,10,1.12,2.85.33,5.74.21,8.53,1,1.53.46,3.26.55,3.45,2.68a5,5,0,0,1-3,5c-1.76.74-3.57,1.37-5.37,2a107.06,107.06,0,0,0-11.53,5.29c-6,3.1-12.26,5.82-18.33,8.85-2.91,1.44-5.74,3.12-8.62,4.65-3.25,1.72-6.52,3.38-9.76,5.12-4.58,2.45-9.12,4.95-13.7,7.4a27.91,27.91,0,0,1-3.68,1.71,3.57,3.57,0,0,1-4.32-1.1,20.22,20.22,0,0,1-2.62-4.28A64.19,64.19,0,0,0,85,484.23a26.13,26.13,0,0,0-16.67-9.92c-2.57-.41-5.07.36-7.51,1.07-6.9,2-12.05,6.39-16.13,12.16a33.44,33.44,0,0,0-5.55,12.12,13,13,0,0,0-.2,3.57,2,2,0,0,0,1.85,1.88,1.79,1.79,0,0,0,1.9-1.17,3.48,3.48,0,0,0,.45-1.35c.4-5.07,2.87-9.26,5.76-13.22a24.79,24.79,0,0,1,16.9-10.3,8.19,8.19,0,0,1,3.08.1,22,22,0,0,1,12.47,8c2.57,3.22,2.48,3.11-1.22,4.83C73,495.3,66,498.82,58.93,502.17q-10,4.72-19.79,9.72c-.21.11-.42.23-.64.32-1.25.5-1.49.35-1.57-1.1C36.88,510.07,36.92,509,36.92,508Zm88.56-28a2.25,2.25,0,0,0,2.6,1.22.44.44,0,0,0,.49-.26q9.41-3.87,18.81-7.72a4.38,4.38,0,0,0,1.41-.87,1.94,1.94,0,0,0,.72-2.13,2,2,0,0,0-1.75-1.43,13.84,13.84,0,0,0-1.44,0l-.08-.94c1.83-.79,3.65-1.59,5.49-2.35a4.7,4.7,0,0,0,1.61-1,2.17,2.17,0,0,0,.51-2.63,2,2,0,0,0-2.39-1.16,7,7,0,0,0-1.57.54c-6.4,2.68-12.8,5.33-19.18,8.05-10.35,4.42-20.42,9.42-30.3,14.8a5.44,5.44,0,0,0-1.65,1.36,2,2,0,0,0-.21,2.25c.36.75,1.09.84,1.84.84a3.81,3.81,0,0,0,2-.68c5.45-3.2,11.3-5.58,16.92-8.41,1.91-1,3.92-1.75,5.88-2.61.36.11.77.15.94.58l-.52.47C124.46,479,124.45,479.08,125.48,480Z"/><path class="cls-3" d="M393.32,471.13a2.29,2.29,0,0,0-.79-1.41c-1.79-2.07-1.64-3.65.48-5.37,2.62.54,5-.58,7.54-1a21.13,21.13,0,0,1,9.46.54,54.76,54.76,0,0,1,9.68,4.14c1.72.89,2.63,2.55,3.75,4a227.23,227.23,0,0,1,13.79,20.45,234.94,234.94,0,0,1,13.9,24.9,426.44,426.44,0,0,1,17.63,42.2c1.88,5.44,4,10.79,5.64,16.31a4,4,0,0,1-.42,3.61,24.07,24.07,0,0,0-1.54,2.7c-.61,1.28-.47,2.41.37,3.07,1.08.85,2.07.56,3-.34.16-.16.32-.37.63-.25q5.19,16,10.39,32.12c-.77.32-.94-.25-1.25-.57-4.79-5-9.6-10.05-14.37-15.11-1.3-1.37-2.87-2.56-3.15-4.66-.09-.7-.78-1-1.44-1.09a4,4,0,0,1-2.34-1.93c-.3-.4-.56-.79-.3-1.3.9-1.82.07-3.43-.61-5-2.1-5-4.34-10-6.33-15-3-7.72-5.86-15.54-8.91-23.26-3.41-8.62-7.21-17.07-11-25.51a317.94,317.94,0,0,0-16.69-31.83A82.29,82.29,0,0,0,412,479.81a23.57,23.57,0,0,0-14.16-8.35C396.36,471.21,394.83,471.23,393.32,471.13Z"/><path class="cls-1" d="M351.57,409.76c.81-.15,1.05.35,1.36.67a111.42,111.42,0,0,0,12.17,10.8c3.36,2.64,5.42,6.26,7,10.13A88.94,88.94,0,0,1,377,448.61c1.41,7.28,2.72,14.57,4.06,21.86,2,11,4.3,21.9,5.69,33a108.12,108.12,0,0,1,1.33,14,10.33,10.33,0,0,1-1.15,4.59,2.05,2.05,0,0,1-2.69,1.28,19.34,19.34,0,0,1-9.8-6.1c-.69-.77-1.31-1.61-2-2.34-4.33-4.38-8.3-9.08-12.76-13.32a82.44,82.44,0,0,0-8.85-7.32,13.32,13.32,0,0,0-4.69-2.33c-1.31-.31-1.24-.86-.83-1.86,1.8-4.35,3.76-8.63,5.33-13.08,4.25-12,8.1-24,10.46-36.55a49.63,49.63,0,0,0,.64-10.26c-.05-2.1-1.11-4-1.16-6.09,0-.55-.62-.9-1-1.28a25.7,25.7,0,0,0-5.89-4.48c-.59-.3-1.11-.59-1.21-1.34A49.23,49.23,0,0,1,351.57,409.76Z"/><path class="cls-1" d="M471.57,655.47a15.28,15.28,0,0,1-4.44-.92c-10.11-3-19.81-7.14-29.59-11a19.44,19.44,0,0,1-9.11-7.45c-2.95-4.36-6.21-8.51-8.73-13.16-1.47-2.72-1.38-2.84,1.54-3.75a215.23,215.23,0,0,0,31.15-12.26c3.72-1.83,7.66-3.2,11.3-5.22a1.38,1.38,0,0,1,2.05.39,42.3,42.3,0,0,0,3.08,3.34c8.27,8.34,16,17.13,23.9,25.83a2.41,2.41,0,0,1,.44,3,56.67,56.67,0,0,1-8,12.17,38.53,38.53,0,0,1-8.27,7.19A9.19,9.19,0,0,1,471.57,655.47ZM483,637.59a4.91,4.91,0,0,0-1.36-4c-.84-.83-2-1.21-2.8-.46-1.15,1.08-2.56,1.19-3.89,1.64a8.06,8.06,0,0,0-4.08,2.81,5,5,0,0,0-1,4.93,6.75,6.75,0,0,0,6.56,4.28,6.29,6.29,0,0,0,5.92-4.75C482.69,640.61,482.79,639.09,483,637.59Z"/><path class="cls-6" d="M380.48,185.45a8.43,8.43,0,0,1,2.75-.69,3.33,3.33,0,0,0,2-.67,33.51,33.51,0,0,1,16.93-5.23c8-.24,15.34,1.59,21.06,7.74.76.81,1.16,1.9,2.1,2.55.24.47.11,1,.43,1.53,1.21,1.94,1.4,3.91-.16,5.82-.22.27-.18.74-.27,1.11a23.54,23.54,0,0,0-3.11,3.28c-5.12,5.83-11.39,9.8-19.1,11a24.42,24.42,0,0,1-18.91-4.92l-.94-.71a151.78,151.78,0,0,1-3-15.38A10.77,10.77,0,0,1,380.48,185.45Z"/><path class="cls-4" d="M392.49,153.91a17.32,17.32,0,0,1,3.44-7c3.8-4.56,8.83-6.92,14.5-8.19a53.11,53.11,0,0,1,13.31-.9,32.94,32.94,0,0,1,3.54.45c.49.06,1,.17.9.82-.07.49-.52.56-.92.57a33.71,33.71,0,0,0-8.92,1.48,80.39,80.39,0,0,0-23,10.83,14.54,14.54,0,0,0-1.24,1.13C393.65,153.47,393.35,154,392.49,153.91Z"/><path class="cls-4" d="M395.81,156.44c-2.28,1.91-4.56,3.83-7.42,4.81-1.21.41-1.23.34-1.4-1.38a1.61,1.61,0,0,0,2.14-.21c1.56-1.23,3.21-2.35,4.81-3.52C394.67,155.61,395.36,155.26,395.81,156.44Z"/><path class="cls-4" d="M408.88,149.56c-3.26,1.69-6.42,3.56-9.82,5,1.09-1.5,6.63-5,8.19-5.17A8.22,8.22,0,0,1,408.88,149.56Z"/><path class="cls-4" d="M397.81,155.24a1.85,1.85,0,0,1-1.56.91A1.12,1.12,0,0,1,397.81,155.24Z"/><path class="cls-4" d="M387,158a.59.59,0,0,1,.12-1C387.61,157.4,387.47,157.7,387,158Z"/><path class="cls-4" d="M387.44,154.66a.74.74,0,0,1,.19-1C388.19,154.11,387.9,154.4,387.44,154.66Z"/><path class="cls-4" d="M207.43,283.39a.92.92,0,0,1-1.21.33A.81.81,0,0,1,207.43,283.39Z"/><path class="cls-4" d="M222.42,297.72a1,1,0,0,1-.53-1.17A.81.81,0,0,1,222.42,297.72Z"/><path class="cls-4" d="M225.79,305.39a1,1,0,0,1-.54-1.17A.82.82,0,0,1,225.79,305.39Z"/><path class="cls-1" d="M118.49,498.16a1,1,0,0,1-1,.41c0-.6.45-.84,1-1Z"/><path class="cls-4" d="M210.61,282.27c-.09.24-.24.34-.5.22A.37.37,0,0,1,210.61,282.27Z"/><path class="cls-4" d="M209.24,282.81a.38.38,0,0,1-.56.22A.39.39,0,0,1,209.24,282.81Z"/><polygon class="cls-1" points="456.96 584.66 456.81 584.72 456.82 584.57 456.96 584.66"/><path class="cls-4" d="M410.25,149a.49.49,0,0,1-.61.25A.46.46,0,0,1,410.25,149Z"/><path class="cls-1" d="M430.19,473.18l-.19-.3c.15-.06.25,0,.3.19Z"/><path class="cls-2" d="M489.09,658.43a2.58,2.58,0,0,1,2.07,1.77c1.86,4,3.78,7.93,5.6,11.93,5.18,11.33,9.37,23.07,13.78,34.71.42,1.11,1,2.21.23,3.43a2,2,0,0,1-3.4.49,6.12,6.12,0,0,1-1.38-2.49c-3.41-9.12-6.6-18.33-10.4-27.3-2.52-6-4.86-12-7.73-17.79a8.68,8.68,0,0,1-.74-2A2.26,2.26,0,0,1,489.09,658.43Z"/><path class="cls-2" d="M380.26,579.22a13.27,13.27,0,0,1-2-.12,1.91,1.91,0,0,1,0-3.79c1.88-.35,3.78-.58,5.66-.93q8.1-1.47,16.19-3c.31-.06.61-.22.92-.26a2.23,2.23,0,0,1,2.54,1.31,2.34,2.34,0,0,1-.95,2.72,6.63,6.63,0,0,1-2.91,1c-5.73,1-11.45,2-17.18,2.9A22,22,0,0,1,380.26,579.22Z"/><path class="cls-1" d="M465.26,807a1,1,0,0,1,.08-.18s.09,0,.13,0l-.24.17Z"/><path class="cls-1" d="M384.25,644.63a7.69,7.69,0,0,1,0,1c-.23,2.2-1.43,3.09-3.6,2.65a6.65,6.65,0,0,1-2.78-1.33,14.57,14.57,0,0,1-5.47-9,5.19,5.19,0,0,1,.49-3,2.57,2.57,0,0,1,3.18-1.46,8.18,8.18,0,0,1,4.57,2.85C382.76,638.68,384.26,641.33,384.25,644.63Z"/><path class="cls-1" d="M315.17,541.71a5.21,5.21,0,0,1,2.81.7c2.7,1.44,5.93,5.54,4.84,9.51-.75,2.7-2.84,3.83-5.6,3.45-3.14-.42-7-4.76-6.87-8.71C310.42,543.68,312.23,541.74,315.17,541.71Z"/><path class="cls-1" d="M400,770.83a15,15,0,0,1-1.16,5.91,3.05,3.05,0,0,1-2.76,2.3,3.48,3.48,0,0,1-3.29-2c-1.33-3-1.94-6.06-.69-9.25.72-1.84,1.79-2.63,3.31-2.55a4.81,4.81,0,0,1,4.21,2.88A7.5,7.5,0,0,1,400,770.83Z"/><path class="cls-1" d="M321.9,684.32c-.11,1.77-.57,3-1.85,3.52s-2.13-.2-3-1a6.22,6.22,0,0,1-1.81-2.46c-.62-1.8.09-2.59,1.88-3.18,2-.65,3,.35,4.05,1.55A2.25,2.25,0,0,1,321.9,684.32Z"/><path class="cls-6" d="M305.25,206.31c-7.37-.25-14.22-2.05-20.18-6.56a21.15,21.15,0,0,1-7.83-10.9c-1.24-4.13.25-6.67,4.43-7.52.47-.1.93-.23,1.4-.32,1.3-.28,2.61.53,3.74.29s1.12-2,2.25-2.62a8.26,8.26,0,0,1,4.13-1,63.22,63.22,0,0,1,11.41,1.12c2.13.41,4.29.13,6.41.72a38.08,38.08,0,0,1,12.4,6.1c1.7,1.24,3.08,2.92,4.94,4.14,2.5,1.65,2.51,4.7.42,7.13a22.91,22.91,0,0,1-6.5,5.24A31.08,31.08,0,0,1,308.34,206C307.31,206.05,306.28,206.21,305.25,206.31Z"/><path class="cls-2" d="M254.29,155c6-6.72,12-13.55,20.13-17.83a87.28,87.28,0,0,1,25.31-8.6,59,59,0,0,1,21.44-.37c6.41,1.18,12.28,3.56,16.94,8.29,5.08,5.13,7.11,11.43,6.82,18.56-.07,1.71-2.25,2.57-4,1.54a9.52,9.52,0,0,1-1.81-1.55c-8.92-9.13-20.15-13.56-32.39-15.8a58.18,58.18,0,0,0-17.43-.25,51.68,51.68,0,0,0-19.79,6.82A162.42,162.42,0,0,0,255.59,155ZM302,133.5c13.79,1.22,25.83,6.72,37.1,14.76a4.3,4.3,0,0,0,0-1.25,18.72,18.72,0,0,0-5.53-8.26A29.19,29.19,0,0,0,320,133c-4.28-.79-8.59-.37-12.89-.47A18.09,18.09,0,0,0,302,133.5Z"/><path class="cls-2" d="M380.48,185.45a10.77,10.77,0,0,0-.19,5.4,151.78,151.78,0,0,0,3,15.38,4.47,4.47,0,0,0,.22,2.35c2.86,14.17,5.65,28.35,8.66,42.49a5.27,5.27,0,0,1-2.24,6,65.41,65.41,0,0,1-6.84,4.42c-1.87,1.07-3.74,2.15-5.62,3.2a8.79,8.79,0,0,1-1.71.85,2.13,2.13,0,0,1-2.71-.88,2.18,2.18,0,0,1,.46-2.84,10.66,10.66,0,0,1,1.92-1.41c3.37-2,6.78-3.9,10.14-5.92,2.8-1.68,3.05-2.32,2.32-5.48-4.47-19.55-8.13-39.26-11.45-59a16.45,16.45,0,0,1,.46-7.57c1.92-6.55,4.95-12.63,7.6-18.88.25-.6.5-1.24,1.38-.85s.68,1,.48,1.6c-.62,2-1.25,4-1.83,6-1.24,4.21-2.47,8.42-3.66,12.65A4.52,4.52,0,0,0,380.48,185.45Z"/><path class="cls-2" d="M364.4,252.43c3.4,0,4.77,1.1,5.21,3.68a2,2,0,0,1-1,2.43,1.64,1.64,0,0,1-2.26-.78c-.6-1.11-1.48-1-2.46-.78-3,.65-6.09,1.28-9.14,1.92a11,11,0,0,1-3.32.35,1.72,1.72,0,0,1-1.75-1.37,1.57,1.57,0,0,1,1.14-1.87C355.5,254.45,360.13,252.64,364.4,252.43Z"/><path class="cls-2" d="M346.27,153.34a44.57,44.57,0,0,0-.6-7.82c-.28-1.64.24-2.56,1.42-2.84a2.34,2.34,0,0,1,2.74,1.73,6.53,6.53,0,0,1,.32,1.39c.45,3.07.62,6.16.77,9.25a7,7,0,0,1-.43,3,2.31,2.31,0,0,1-2.6,1.61,2.1,2.1,0,0,1-1.63-2.32C346.27,156,346.27,154.69,346.27,153.34Z"/><path class="cls-1" d="M254.29,155l1.3,0a2.68,2.68,0,0,1-2.16,1.71A1.32,1.32,0,0,1,254.29,155Z"/><path class="cls-2" d="M190.63,412.16a1.85,1.85,0,0,1,2.06,1.61c.17,1.83,1.13,3.31,1.9,4.86,1.65,3.28,3.37,6.51,5.08,9.75a7.07,7.07,0,0,0,1.08,1.57,3,3,0,0,1,.78,2.17,2.27,2.27,0,0,1-4.24,1.34,41.3,41.3,0,0,1-2.31-4.17Q192,423.17,189,417a8.26,8.26,0,0,1-.72-2A2.2,2.2,0,0,1,190.63,412.16Z"/><path class="cls-2" d="M195.2,436.93c0,1-.13,1.69-.89,2a2.18,2.18,0,0,1-2.47-.26,8.38,8.38,0,0,1-2.18-5.83,2,2,0,0,1,3.68-.79A27.66,27.66,0,0,1,195.2,436.93Z"/><path class="cls-2" d="M125.2,476.85c-2,.86-4,1.64-5.88,2.61-5.62,2.83-11.47,5.21-16.92,8.41a3.81,3.81,0,0,1-2,.68c-.75,0-1.48-.09-1.84-.84a2,2,0,0,1,.21-2.25,5.44,5.44,0,0,1,1.65-1.36c9.88-5.38,20-10.38,30.3-14.8,6.38-2.72,12.78-5.37,19.18-8.05a7,7,0,0,1,1.57-.54,2,2,0,0,1,2.39,1.16,2.17,2.17,0,0,1-.51,2.63,4.7,4.7,0,0,1-1.61,1c-1.84.76-3.66,1.56-5.49,2.35-4.25,1.38-8.28,3.29-12.37,5C131,474.13,127.88,475.06,125.2,476.85Z"/><path class="cls-2" d="M125.62,477.9l.52-.47a5.85,5.85,0,0,0,2.44-.92c2.26-1,4.55-1.92,6.77-3,3.59-1.74,7.47-2.79,11-4.73a13.84,13.84,0,0,1,1.44,0,2,2,0,0,1,1.75,1.43,1.94,1.94,0,0,1-.72,2.13,4.38,4.38,0,0,1-1.41.87Q138,477,128.57,480.91c-.17.08-.33.17-.49.26a2.25,2.25,0,0,1-2.6-1.22A5.66,5.66,0,0,0,125.62,477.9Z"/><path class="cls-4" d="M146.32,468.79c-3.5,1.94-7.38,3-11,4.73-2.22,1.07-4.51,2-6.77,3a5.85,5.85,0,0,1-2.44.92c-.17-.43-.58-.47-.94-.58,2.68-1.79,5.75-2.72,8.67-4,4.09-1.75,8.12-3.66,12.37-5C146.26,468.16,146.29,468.47,146.32,468.79Z"/><path class="cls-4" d="M125.62,477.9a5.66,5.66,0,0,1-.14,2.05C124.45,479.08,124.46,479,125.62,477.9Z"/><path class="cls-4" d="M128.08,481.17c.16-.09.32-.18.49-.26A.44.44,0,0,1,128.08,481.17Z"/><path class="cls-2" d="M483,637.59c-.22,1.5-.32,3-.67,4.49a6.29,6.29,0,0,1-5.92,4.75,6.75,6.75,0,0,1-6.56-4.28,5,5,0,0,1,1-4.93,8.06,8.06,0,0,1,4.08-2.81c1.33-.45,2.74-.56,3.89-1.64.81-.75,2-.37,2.8.46A4.91,4.91,0,0,1,483,637.59Zm-5.92,1.07a3.64,3.64,0,0,0-2.1.78c-.91.69-1.12,1.58-.59,2.23a2,2,0,0,0,3,.24,3.07,3.07,0,0,0,.8-2.18C478.18,638.88,477.73,638.6,477.09,638.66Z"/><path class="cls-4" d="M302,133.5a18.09,18.09,0,0,1,5.17-1c4.3.1,8.61-.32,12.89.47a29.19,29.19,0,0,1,13.49,5.76A18.72,18.72,0,0,1,339,147a4.3,4.3,0,0,1,0,1.25C327.79,140.22,315.75,134.72,302,133.5Z"/><path class="cls-1" d="M477.09,638.66c.64-.06,1.09.22,1.08,1.07a3.07,3.07,0,0,1-.8,2.18,2,2,0,0,1-3-.24c-.53-.65-.32-1.54.59-2.23A3.64,3.64,0,0,1,477.09,638.66Z"/><circle class="cls-7" cx="297.42" cy="187.13" r="12.5"/><path d="M297.42,174.38a15,15,0,0,1,9.21,3.54,12.82,12.82,0,0,1,4.54,9.21,14,14,0,0,1-3.73,10,14.39,14.39,0,0,1-10,4.48,15,15,0,0,1-10.59-3.91,13.8,13.8,0,0,1-4.41-10.59,12.82,12.82,0,0,1,1.53-5.58,13,13,0,0,1,3.69-4.2A15.73,15.73,0,0,1,297.42,174.38Zm0,.5a10.11,10.11,0,0,0-4.55,1.27,10.22,10.22,0,0,0-3.34,3.09,12.77,12.77,0,0,0-2.11,7.89,11.66,11.66,0,0,0,2.91,7.09,10.08,10.08,0,0,0,7.09,3.41,10.67,10.67,0,0,0,7.66-2.83,11.06,11.06,0,0,0,3.59-7.67,12.26,12.26,0,0,0-2.78-8.47A10.69,10.69,0,0,0,297.42,174.88Z"/><circle class="cls-7" cx="394.42" cy="194.13" r="12.5"/><path d="M394.42,181.38a15,15,0,0,1,9.21,3.54,12.82,12.82,0,0,1,4.54,9.21,14,14,0,0,1-3.73,10,14.39,14.39,0,0,1-10,4.48,15,15,0,0,1-10.59-3.91,13.8,13.8,0,0,1-4.41-10.59,12.82,12.82,0,0,1,1.53-5.58,13,13,0,0,1,3.69-4.2A15.73,15.73,0,0,1,394.42,181.38Zm0,.5a10.11,10.11,0,0,0-4.55,1.27,10.22,10.22,0,0,0-3.34,3.09,12.77,12.77,0,0,0-2.11,7.89,11.66,11.66,0,0,0,2.91,7.09,10.08,10.08,0,0,0,7.09,3.41,10.67,10.67,0,0,0,7.66-2.83,11.06,11.06,0,0,0,3.59-7.67,12.26,12.26,0,0,0-2.78-8.47A10.69,10.69,0,0,0,394.42,181.88Z"/><path d="M354.18,313.34c-6.42.15-12-2.35-17.51-5.23-3.75-2-7.54-3.85-11.28-5.81a14.17,14.17,0,0,1-2.8-1.82,2.25,2.25,0,0,1-.42-3c.55-.81,1.48-.9,2.78-.23.64.33,1.25.72,1.85,1.1,4.25,2.71,8.93,2.93,13.65,2.07a46.25,46.25,0,0,0,9.17-2.64c7.33-3,14.62-6,22.15-8.45,5.14-1.65,10.32-2.89,15.76-2.19a16.06,16.06,0,0,1,3.94.94c2.61,1.09,3.36,2.91,2.54,5.61-.7,2.29-1.41,4.58-2.07,6.89a7.17,7.17,0,0,1-5.37,5.48c-8.77,2.41-17.39,5.42-26.44,6.69C358.16,313,356.17,313.14,354.18,313.34Z"/><path d="M372.53,321.43a2.44,2.44,0,0,1-2.18-1.47,1.85,1.85,0,0,1,.93-2.44c1.19-.62,2.47-1.1,3.72-1.6,1.77-.7,3.54-1.45,5.35-2a2,2,0,0,1,2.62,1,1.83,1.83,0,0,1-.78,2.5C379,318.84,375.76,320.11,372.53,321.43Z"/><path d="M320.25,203.1a3.77,3.77,0,0,1-2.48,2.64,48.51,48.51,0,0,1-7.88,2.76,36.08,36.08,0,0,1-18.95-.65,33.7,33.7,0,0,1-17.12-12.11,39.85,39.85,0,0,1-7.08-14c-.65-2.6-.33-3.06,2.2-3.64a74.7,74.7,0,0,0,14.86-4.52,36.54,36.54,0,0,1,16.38-3c6.8.18,13.35,1.34,19.3,4.87a22,22,0,0,1,9.31,10.33c1.22,2.84,2,5.9,2.91,8.86a4.27,4.27,0,0,1,.21,1.41c-.05.93-.64,1.31-1.48,1a4.46,4.46,0,0,1-2.94-2.59c-1.71-4.92-5.18-8.4-9.47-11.09a23.43,23.43,0,0,0-6-2.83c-7.92-2.19-15.82-2.44-23.27,1.67a37.59,37.59,0,0,0-5.79,4.58,2.71,2.71,0,0,0-.58,3.68,34.72,34.72,0,0,0,2.82,4.71c7.1,9,19.52,12.36,30.8,8.57a22.18,22.18,0,0,1,2.51-.8A6.58,6.58,0,0,1,320.25,203.1Z"/><path d="M379.66,193.83c-.24-2.53-.4-4.43-.62-6.33a2.82,2.82,0,0,1,.92-2.6,45.87,45.87,0,0,1,4.9-4.16A27.83,27.83,0,0,1,395,176.67c9.56-1.83,18.85-1.4,27.92,2.67,3.82,1.71,8.07,2.47,12.13,3.65.53.15,1.11.17,1.64.34,1.43.46,1.83,1,1.45,2.5a37.18,37.18,0,0,1-1.81,5.71c-5.19,11.51-13.35,19.67-26.1,22.19a35.49,35.49,0,0,1-22.7-2.62c-1.18-.57-2.52-1.09-2.94-2.57.67-1.12,1.52-.6,2.35-.39a50.54,50.54,0,0,0,6.95,1.76c10.61,1.25,19.57-1.85,26.25-10.5a12.61,12.61,0,0,0,1.41-2.22c1.81-3.77,2-3.71-1.15-6.8a21.78,21.78,0,0,0-8.58-5.1c-5.22-1.77-10.54-1.62-15.87-.71a24.16,24.16,0,0,0-13.8,7.18A31,31,0,0,1,379.66,193.83Z"/></g></g></svg>