<svg xmlns="http://www.w3.org/2000/svg" viewBox="0 0 28.77 27.27"><defs><style>.cls-1{fill:#2e5d28;}</style></defs><g id="Layer_2" data-name="Layer 2"><g id="Layer_1-2" data-name="Layer 1"><circle class="cls-1" cx="15.01" cy="12.76" r="12.5"/><path d="M15,0a14.9,14.9,0,0,1,9.21,3.54,12.8,12.8,0,0,1,4.54,9.21,14,14,0,0,1-3.73,10,14.4,14.4,0,0,1-10,4.49A15,15,0,0,1,4.42,23.35,13.8,13.8,0,0,1,0,12.76,12.79,12.79,0,0,1,1.54,7.18,13.06,13.06,0,0,1,5.23,3,15.72,15.72,0,0,1,15,0Zm0,.5a9.87,9.87,0,0,0-4.55,1.27A10.3,10.3,0,0,0,7.12,4.86,12.84,12.84,0,0,0,5,12.76a11.74,11.74,0,0,0,2.91,7.09A10.08,10.08,0,0,0,15,23.26a10.71,10.71,0,0,0,7.67-2.84,11.08,11.08,0,0,0,3.58-7.66,12.23,12.23,0,0,0-2.78-8.47A10.66,10.66,0,0,0,15,.51Z"/></g></g></svg>