<svg xmlns="http://www.w3.org/2000/svg" viewBox="0 0 171.87 43.94"><g id="Layer_2" data-name="Layer 2"><g id="Layer_1-2" data-name="Layer 1"><path d="M53.8,32.53a3.75,3.75,0,0,1-2.48,2.64,49.41,49.41,0,0,1-7.87,2.77,36.11,36.11,0,0,1-19-.66A33.69,33.69,0,0,1,7.37,25.17a40,40,0,0,1-7.08-14C-.36,8.55,0,8.09,2.49,7.52A75,75,0,0,0,17.36,3,36.35,36.35,0,0,1,33.73,0C40.53.19,47.08,1.35,53,4.88a22,22,0,0,1,9.3,10.33,92.88,92.88,0,0,1,2.91,8.87,4,4,0,0,1,.21,1.41c0,.93-.64,1.3-1.48,1A4.46,4.46,0,0,1,61,23.87c-1.71-4.92-5.18-8.4-9.47-11.09a23.71,23.71,0,0,0-6-2.83c-7.93-2.19-15.83-2.44-23.28,1.68a38,38,0,0,0-5.79,4.57,2.72,2.72,0,0,0-.57,3.69,35.17,35.17,0,0,0,2.81,4.7c7.11,9,19.52,12.36,30.8,8.57a22.84,22.84,0,0,1,2.51-.8A6.55,6.55,0,0,1,53.8,32.53Z"/><path d="M113.21,23.27c-.24-2.54-.4-4.44-.62-6.34a2.86,2.86,0,0,1,.92-2.6,48.12,48.12,0,0,1,4.9-4.16A28,28,0,0,1,128.6,6.11c9.55-1.84,18.84-1.41,27.92,2.66,3.81,1.72,8.06,2.47,12.12,3.65.54.15,1.11.18,1.64.34,1.43.46,1.84,1,1.45,2.51a35,35,0,0,1-1.81,5.7c-5.18,11.51-13.35,19.67-26.1,22.19a35.5,35.5,0,0,1-22.7-2.62c-1.18-.57-2.52-1.08-2.94-2.56.67-1.13,1.53-.61,2.35-.39a52.41,52.41,0,0,0,7,1.76c10.61,1.24,19.57-1.86,26.26-10.5a13.25,13.25,0,0,0,1.4-2.23c1.81-3.76,2-3.71-1.14-6.8a21.94,21.94,0,0,0-8.59-5.1c-5.22-1.77-10.54-1.62-15.87-.7a24.17,24.17,0,0,0-13.8,7.17A29.53,29.53,0,0,1,113.21,23.27Z"/></g></g></svg>