<svg xmlns="http://www.w3.org/2000/svg" viewBox="0 0 72.56 34.53"><g id="Layer_2" data-name="Layer 2"><g id="Layer_1-2" data-name="Layer 1"><path d="M32.42,26.44c-6.42.14-12-2.35-17.51-5.23-3.75-2-7.54-3.85-11.28-5.81a14.63,14.63,0,0,1-2.8-1.82,2.26,2.26,0,0,1-.43-3c.55-.81,1.48-.91,2.79-.23A21.46,21.46,0,0,1,5,11.41c4.25,2.7,8.93,2.92,13.65,2.07a46.25,46.25,0,0,0,9.17-2.64c7.33-3,14.61-6,22.15-8.45C55.14.74,60.32-.5,65.77.2a15,15,0,0,1,3.93.94c2.62,1.08,3.37,2.9,2.55,5.61-.7,2.29-1.41,4.58-2.07,6.88a7.19,7.19,0,0,1-5.37,5.49C56,21.53,47.42,24.53,38.37,25.81,36.4,26.09,34.4,26.23,32.42,26.44Z"/><path d="M50.77,34.53a2.45,2.45,0,0,1-2.18-1.47,1.85,1.85,0,0,1,.93-2.44A39.67,39.67,0,0,1,53.24,29c1.77-.71,3.54-1.46,5.35-2a2,2,0,0,1,2.61,1,1.83,1.83,0,0,1-.77,2.5C57.25,31.94,54,33.2,50.77,34.53Z"/></g></g></svg>