<svg xmlns="http://www.w3.org/2000/svg" viewBox="0 0 82.67 51.89"><defs><style>.cls-1{fill:#fff;}</style></defs><g id="Layer_2" data-name="Layer 2"><g id="Layer_1-2" data-name="Layer 1"><path d="M48.94,51.89c-12.77-.24-23-4.81-31.8-12.71A62.12,62.12,0,0,1,2.68,19.36a6.12,6.12,0,0,0-1.55-2C.31,16.71-.3,16,.16,15s1.46-1.1,2.45-.87a26.89,26.89,0,0,0,13.28-.29c3.77-1,7.49-2.28,11.16-3.62A204,204,0,0,1,53.19,2.34,80.6,80.6,0,0,1,75.28.09c2.06.12,4.15.17,5.91,1.56,1.6,1.27,1.9,2.36.94,4.14a3.54,3.54,0,0,1-.26.41C76.08,14,74,23.23,71.71,32.37A22.15,22.15,0,0,0,71.28,41c.42,2.91-1,4.75-3.32,6a40.41,40.41,0,0,1-13.13,4.36C52.63,51.65,50.39,51.75,48.94,51.89ZM9.64,19a3.55,3.55,0,0,0,.19.78c.29.56.61,1.12.95,1.66a34.73,34.73,0,0,0,9.9,10,50.36,50.36,0,0,0,24.8,8.8,33.44,33.44,0,0,0,15.74-2.31,4.52,4.52,0,0,0,3.06-3.55A93.14,93.14,0,0,1,73.62,9.28a8.88,8.88,0,0,0,.54-1.59,12.59,12.59,0,0,0-1.41,0c-6.49.89-13,1.57-19.45,2.75-9.43,1.73-18.78,3.86-28.18,5.74C20,17.2,14.92,18.05,9.64,19Z"/><path class="cls-1" d="M9.64,19c5.28-1,10.4-1.81,15.48-2.82,9.4-1.88,18.75-4,28.18-5.74,6.43-1.18,13-1.86,19.45-2.75a12.59,12.59,0,0,1,1.41,0,8.88,8.88,0,0,1-.54,1.59,93.14,93.14,0,0,0-9.34,25.09,4.52,4.52,0,0,1-3.06,3.55,33.44,33.44,0,0,1-15.74,2.31,50.36,50.36,0,0,1-24.8-8.8,34.73,34.73,0,0,1-9.9-10c-.34-.54-.66-1.1-.95-1.66A3.55,3.55,0,0,1,9.64,19Z"/></g></g></svg>