<svg xmlns="http://www.w3.org/2000/svg" xmlns:xlink="http://www.w3.org/1999/xlink" viewBox="0 0 1166.13 2222"><defs><style>.cls-1{fill:none;}.cls-2{clip-path:url(#clip-path);}.cls-3{fill:#0695ed;}.cls-4{fill:#72c9f3;}</style><clipPath id="clip-path" transform="translate(32.21 95)"><rect class="cls-1" width="1080" height="1920"/></clipPath></defs><g id="Layer_2" data-name="Layer 2"><g id="Layer_1-2" data-name="Layer 1"><g class="cls-2"><path class="cls-3" d="M987.79,2127H113.94c-80.72,0-146.15-57.56-146.15-128.56V33.56C-32.21-37.44,33.22-95,113.94-95H987.79c80.71,0,146.13,57.56,146.13,128.56V1998.44C1133.92,2069.44,1068.5,2127,987.79,2127Z" transform="translate(32.21 95)"/><path class="cls-4" d="M315.26,782.48c276.86,88.38,441.89-5.06,490-208.92,60.36-256,192.4-374.44,328.69-463.66V1979.29A147.7,147.7,0,0,1,986.21,2127H115.62A147.71,147.71,0,0,1-32.09,1979.29V916S64.67,702.47,315.26,782.48Z" transform="translate(32.21 95)"/></g></g></g></svg>