<svg xmlns="http://www.w3.org/2000/svg" xmlns:xlink="http://www.w3.org/1999/xlink" viewBox="0 0 1178.19 2105.96"><defs><style>.cls-1{fill:none;}.cls-2{clip-path:url(#clip-path);}.cls-3{fill:#0695ed;}.cls-4{fill:#72c9f3;}.cls-5{fill:#fff;}.cls-6{fill:#fffffb;}</style><clipPath id="clip-path" transform="translate(49 68.96)"><rect class="cls-1" width="1080" height="1920"/></clipPath></defs><g id="Layer_2" data-name="Layer 2"><g id="Layer_1-2" data-name="Layer 1"><g class="cls-2"><path class="cls-3" d="M979.79,1827.42H102.62a146.7,146.7,0,0,1-146.7-146.69V77.73A146.69,146.69,0,0,1,102.62-69H979.79A146.69,146.69,0,0,1,1126.48,77.73v1603A146.7,146.7,0,0,1,979.79,1827.42Z" transform="translate(49 68.96)"/><path class="cls-3" d="M941.76,294.46A138.18,138.18,0,1,1,803.57,156.28,138.19,138.19,0,0,1,941.76,294.46Z" transform="translate(49 68.96)"/><path class="cls-4" d="M835.46,437.58c-78.92,0-143.12-64.2-143.12-143.12s64.2-143.12,143.12-143.12,143.12,64.2,143.12,143.12S914.38,437.58,835.46,437.58Zm0-276.36C762,161.22,702.23,221,702.23,294.46S762,427.69,835.46,427.69,968.7,367.92,968.7,294.46,908.93,161.22,835.46,161.22Z" transform="translate(49 68.96)"/><path class="cls-5" d="M-39.46,1252.89l-9-4.09c1-2.23,25.43-55.19,81.46-99,51.78-40.47,141.22-79.86,273.21-37.72,144.16,46,261.11,44.53,347.65-4.45C723,1068.49,769.4,1000.64,791.72,906c61.54-261,196-379.35,332-468.43l5.42,8.27c-134.38,88-267.11,204.86-327.84,462.43-23,97.46-71,167.44-142.62,208-89,50.39-208.64,52.16-355.52,5.26-102.68-32.77-191.53-20.63-264.12,36.1C-15,1199.91-39.22,1252.36-39.46,1252.89Z" transform="translate(49 68.96)"/><path class="cls-3" d="M-44.08,283.73v721.34c196.66-3,355.16-163.29,355.16-360.67S152.58,286.77-44.08,283.73Z" transform="translate(49 68.96)"/><path class="cls-4" d="M386.54,180.42c-134.61,0-245.81-109.5-247.89-244.11l-.08-5h496l-.07,5C632.36,70.92,521.16,180.42,386.54,180.42ZM148.67-58.82C153.31,68.1,259,170.53,386.54,170.53S619.78,68.1,624.43-58.82Z" transform="translate(49 68.96)"/><path class="cls-6" d="M726.2,353c-78.92,0-143.12-64.2-143.12-143.11S647.28,66.72,726.2,66.72s143.12,64.21,143.12,143.13S805.11,353,726.2,353Zm0-276.35C652.73,76.61,593,136.38,593,209.85S652.73,343.08,726.2,343.08s133.24-59.77,133.24-133.23S799.66,76.61,726.2,76.61Z" transform="translate(49 68.96)"/><path class="cls-4" d="M1126,919.93c-54.93-5.79-97.42-31.86-142.41-59.46C915.77,818.88,839,771.75,694.34,771.75c-102,0-188.78,35.29-272.71,69.43C289.49,894.92,152.84,950.5-45.8,870.81l3.68-9.17c194.93,78.19,323.7,25.83,460-29.61,84.81-34.5,172.51-70.17,276.43-70.17,147.41,0,225.49,47.91,294.38,90.18,45.92,28.17,85.57,52.5,138.28,58.06Z" transform="translate(49 68.96)"/><path class="cls-4" d="M301.87,1317.85c279.66,89.29,446.37-5.1,494.93-211,61-258.58,194.35-378.24,332-468.37V1887.79A149.21,149.21,0,0,1,979.62,2037H100.21A149.21,149.21,0,0,1-49,1887.79v-435S48.74,1237,301.87,1317.85Z" transform="translate(49 68.96)"/></g></g></g></svg>