<svg xmlns="http://www.w3.org/2000/svg" viewBox="0 0 490.45 143.87"><defs><style>.cls-1{fill:#fff;}.cls-2{fill:#1b1464;}.cls-3{fill:#0695ed;}</style></defs><g id="Layer_2" data-name="Layer 2"><g id="Layer_1-2" data-name="Layer 1"><path class="cls-1" d="M418.52,1.83H71.94A70.1,70.1,0,0,0,1.83,71.93h0A70.1,70.1,0,0,0,71.94,142H418.52a70.1,70.1,0,0,0,70.1-70.1h0A70.1,70.1,0,0,0,418.52,1.83Z"/><path class="cls-2" d="M418.52,143.87H390V140.2h28.53a68.27,68.27,0,1,0,0-136.54H71.94a68.27,68.27,0,1,0,0,136.54H218v3.67h-146A71.94,71.94,0,1,1,71.94,0H418.52a71.94,71.94,0,0,1,0,143.87Z"/><path class="cls-3" d="M81.74,58.59a51.27,51.27,0,0,1-2.67,15.94c-.36,1.21-1,1.82-1.92,1.82h-5c-.74,0-1.29-.67-1.65-2a51.59,51.59,0,0,1-2.76-15.76V46.93q0-3.37,3.74-3.38h6.59q3.64,0,3.65,3.38Zm0,28.35q0,6.81-6.77,6.81t-6.72-6.81q0-3.64,1.49-5.34T75,79.91c2.44,0,4.17.55,5.21,1.65S81.74,84.45,81.74,86.94Z"/><path class="cls-3" d="M127.62,52.76v3.47a8.8,8.8,0,0,1-.44,2.9l-11,31.19c-.56,1.52-1.35,2.27-2.36,2.27h-9.79c-1.13,0-1.69-.66-1.69-2a3.2,3.2,0,0,1,.27-1.2l10-28.62H91.89c-1.46,0-2.18-.75-2.18-2.27V40.75c0-1.66.72-2.5,2.18-2.5h8.94c1.51,0,2.27.84,2.27,2.5v8.36h20.43Q127.63,49.11,127.62,52.76Z"/><path class="cls-3" d="M147.2,72.34c0,1.67-.75,2.5-2.26,2.5h-9.13c-1.45,0-2.18-.83-2.18-2.5V51.29a1.93,1.93,0,0,1,2.18-2.18H145c1.46,0,2.18.85,2.18,2.54Z"/><path class="cls-3" d="M195.22,90.15c0,1.63-.72,2.44-2.18,2.44h-9.12c-1.51,0-2.27-.81-2.27-2.44V65.27q0-3.21-1.74-4.32a12,12,0,0,0-4.71-.62c-2.44,0-4.66,0-6.68.09V90.15c0,1.63-.76,2.44-2.27,2.44h-9.12c-1.46,0-2.18-.81-2.18-2.44V52.76A2.27,2.27,0,0,1,157,50.4q7.13-1.55,20.52-1.55,9.12,0,13.39,3.51t4.27,11.08Z"/><path class="cls-3" d="M220.9,89c0,2.38-1,3.56-2.85,3.56H202.83a1.93,1.93,0,0,1-2.18-2.18V83.47c0-1.51.73-2.27,2.18-2.27h4.94V60.6l-2.93.08c-1.46.06-2.18-.6-2.18-2v-6.1c0-1.39.6-2.18,1.82-2.35A161.45,161.45,0,0,1,226.55,49q10.29,0,14.47,2.85,4.57,3.08,4.58,11.17V90.15c0,1.63-.74,2.44-2.22,2.44h-8.9a2.18,2.18,0,0,1-2.5-2.44V64c0-1.46-.28-2.41-.84-2.87s-1.92-.69-4-.69H220.9Z"/><path class="cls-3" d="M274.75,89.57c0,2-.93,3-2.8,3H253.7a1.93,1.93,0,0,1-2.18-2.18V83.29c0-1.51.73-2.27,2.18-2.27h7.57V63.27q0-2.94-4-2.94a17.11,17.11,0,0,0-2.62.18c-1.28.23-1.92-.34-1.92-1.74V52a2.28,2.28,0,0,1,1.54-2.16q1.53-.69,8.12-.69,6.36,0,9.37,2.74t3,9.37Z"/><path class="cls-3" d="M313.43,90.15c0,1.63-.76,2.44-2.27,2.44H302c-1.45,0-2.18-.81-2.18-2.44V51.29A1.93,1.93,0,0,1,302,49.11h9.22c1.45,0,2.18.85,2.18,2.54Z"/><path class="cls-3" d="M362.34,90.5c0,1.4-.58,2.09-1.74,2.09h-9.84a4.17,4.17,0,0,1-3.65-2l-12.32-18-.18.22a8.12,8.12,0,0,1,.18,4.1L331.4,90.41c-.35,1.46-1.08,2.18-2.18,2.18H321c-1.58,0-2.36-.69-2.36-2.09v-.44l2.09-9.48q1.43-6.58,4.72-10l4.4-4.45L320,53a3.35,3.35,0,0,1-.8-1.91,1.77,1.77,0,0,1,2-2h8.19a4.93,4.93,0,0,1,4.19,2.27l11.3,15.4.22-.18a12.25,12.25,0,0,1-.22-4.63l2.67-10.68c.36-1.45,1.08-2.18,2.18-2.18h8.77c1.63,0,2.45.52,2.45,1.56a5.66,5.66,0,0,1-.18,1.29L359,59.22a21.35,21.35,0,0,1-5.65,10.59l-3.47,3.47,11.84,15.58A2.55,2.55,0,0,1,362.34,90.5Z"/><path class="cls-3" d="M381.21,90.15c0,1.63-.76,2.44-2.27,2.44h-9.13c-1.45,0-2.18-.81-2.18-2.44V51.29a1.93,1.93,0,0,1,2.18-2.18H379c1.45,0,2.18.85,2.18,2.54Z"/><path class="cls-3" d="M425.22,83.29v6.28c0,2-.85,3-2.54,3h-33.2a1.93,1.93,0,0,1-2.18-2.18V83.2c0-1.51.73-2.27,2.18-2.27h18V65.36c0-1.84-.34-3.06-1-3.65q-1.38-1.38-5.74-1.38c-3.27,0-6.66.18-10.19.53-1.46.12-2.18-.49-2.18-1.82V52.58A2.38,2.38,0,0,1,390,50.14q3.74-1.38,13.7-1.38,8.55,0,12.55,2.53,4.68,3,4.68,9.93V81.11h2C424.46,81.11,425.22,81.84,425.22,83.29Z"/></g></g></svg>